<svg id="разделитель" xmlns="http://www.w3.org/2000/svg" viewBox="0 0 1595.55 519.96"><title>divider1</title><path d="M1595.55,516.06c-15.17-1.7-30.35-3.29-45.5-5.12-19.75-2.39-39.61-4.2-59.18-7.66-23.15-4.09-46-9.71-69-14.61-25-5.31-49.8-11.27-75.39-13.2-33.07-2.48-66.11-5.42-99.16-8.13-21.66-1.78-43.3-4-65-5.12-29.51-1.53-59.06-2.36-88.6-3.21q-40.35-1.15-80.71-1.68c-17.55-.23-34.72,2.35-51.07,9.12-3,1.23-5.79,2.93-8.28,4.21,12.23-.23,24.66-1.6,36.84-.42,17,1.66,33.75,5.12,50.58,8,18.64,3.2,37.3,6.34,55.82,10.1,8.7,1.76,17.51,3.81,24.68,9.87,1.81,1.52,4.34,2.19,7,3.48-3.72,3.25-7.58,2.1-10.63.46-21-11.31-44.37-13-67.2-16.91-14.54-2.5-29.14-4.72-43.63-7.51-22.27-4.28-44.25-3.75-65.93,3.12-16.1,5.1-32.25,10.08-48.17,15.7-30.25,10.66-61.25,17.59-93.27,19.49-13.58.81-27.25,1.44-40.81.79-10.5-.51-20.92-3-31.33-4.87-2.69-.48-4.48-2.14-3.31-5.37,12.59,4.62,25.79,5,38.77,5.23,43.2.89,85.62-4.74,126.12-20.12,20.56-7.81,40.14-18.22,60.1-27.58,10.94-5.13,21.64-10.79,32.67-15.73,15.55-7,32.38-8.38,49-9.88,9.86-.88,19.86-.48,29.77-.08,2.6.11,5.06,2.47,7.67,3.59a7.15,7.15,0,0,0,3.65.52c12.8-1.82,25.55-4.45,38.41-5.44,11.2-.86,22.54-.06,33.8.34,2.72.1,6.59.68,7.88,2.5,4.68,6.55,10.85,3.32,16.38,3.29,20.42-.13,40.85-.59,61.27-.92a12.1,12.1,0,0,0,5.83-1c-20-1.7-40-4.09-60-5-55.11-2.41-110.23-5.13-165.36-6-61.13-.94-122.29.07-183.43.23-5.15,0-10.31.26-15.45,0-19.89-.82-36.45,7.35-51.6,19.14-6.67,5.2-12.83,11.07-19.47,16.33-3,2.37-6.55,4-9.52,6.88,1.25.09,2.5.28,3.75.25,25.54-.55,50,5.25,74.46,11.87a273.65,273.65,0,0,0,32.47,7c5.84.85,12-.71,18-1.18.11,2.94-.4,3.83-4.74,4.74a68.24,68.24,0,0,1-32.09-.95c-22.26-6.06-44.32-13.2-67.46-14.88-13.55-1-27.21-.63-40.82-.52-17.42.13-34.84.62-52.25.94a12.07,12.07,0,0,0-6,1.16c13.36,5.22,26.69,10.5,40.08,15.63,4.81,1.84,10,3,12,8.63a3.78,3.78,0,0,1-.2,2.56,2.45,2.45,0,0,1-2.1-.11c-5.52-6-13.41-6.85-20.47-9.55C666,491.12,646.4,483.72,627,475.9c-20.78-8.37-42.45-13.07-64.44-16.67-14.57-2.39-29.06-5.41-43.69-7.37-12.48-1.67-25.14-1.95-37.67-3.38-18.32-2.1-36.61-4.66-55.11-3.07-15,1.29-30,3.12-45.08,4.36-8.93.74-17.91.78-26.87,1.16-24.74,1.05-49.49,1.75-74.19,3.26-30.34,1.85-60.68,3.88-90.93,6.75C160,463.7,130.9,467,102,471.23c-26.57,3.9-52.92,9.36-79.36,14.15a7.34,7.34,0,0,0-4,2.05c9.12,2.25,18.15,4.92,27.36,6.67,29.48,5.59,59.14,8,89.2,5.41,16-1.39,32.2-1,48.25-2.2a791.6,791.6,0,0,0,102-14.53c33.83-6.94,67.78-13.75,102.37-15.12,24.71-1,49.52-.66,74.24.35,16.19.66,32.28,3.63,48.42,5.45,3.54.4,7.13.35,12.12.57-6.1,5-12.18,5.24-17.54,4.22-34.71-6.63-69.81-6.8-104.78-5.42-25.45,1-50.89,4.6-76.12,8.43-34.44,5.22-68.67,11.8-103,17.71-5.54.95-11.16,1.48-16.74,2.2-.17,0-.41,0-.49.06-4.06,5-9.88,4.35-15.41,4.91-4.87.5-9.69,1.48-14.52,2.32a11.35,11.35,0,0,0-2.67,1c-1,.47-2.48,1.77-3,1.46-4.56-2.84-7.5.83-11,2.41s-5.63-.27-7.11-3.38c-2.27,1.75-4.23,4.09-6.71,4.92-1.92.64-4.47-.6-7.94-1.22-2.21,1.83-5.44,5.54-10.53,2-.4-.27-1.79.58-2.53,1.15-3.35,2.59-6.61,3.31-10.52.81-1-.67-3.42,0-4.82.75-3.69,2-7.07,2.3-10.84.1-1.24-.72-3.36-.55-4.85-.07-3.3,1.06-6,1.43-6.68-3.2-3.26,1.29-6.07,2.73-9,3.51-4.2,1.09-5.54-1.83-6.14-5.33-2.86,1.32-5.59,3.51-8.36,3.57-2.13,0-4.3-2.62-7.07-4.49-10.27,5-10.27,5-12.94.32-2.49,1.24-4.9,3.18-7.5,3.49-2.22.26-4.66-1.36-7.74-2.39-1.86.81-4.64,2.24-7.56,3.24-4.08,1.39-5.62-1.26-5.84-4.7L0,516.06V498.11c2.27-2.67,4.54-5.34,7.62-9H0v-34.9c8.52-10.44,17.26-20.72,25.47-31.41,3.73-4.86,7.18-10.24,6.9-18.5-12.76,5.82-22.45,14.09-32.37,22v-36.9c3.44-.49,6.88-1,10.33-1.46,18.07-2.47,36.09-6.24,54.25-7.12,44-2.15,88-2.94,132-4.3,3-.1,6.06-.48,9.1-.72a2.93,2.93,0,0,0-2.41-1.21q-44.2-3.51-88.39-7c-18.21-1.43-36.39-3.57-54.62-4-20.06-.51-40.16.54-60.24.91v-4c10.94-.57,21.88-1.63,32.82-1.63,27.58,0,55.17.48,82.75.77h5.13c.25-2.75.5-4.73.6-6.71.56-10.63,5.86-19.65,10-29,10.83-24.56,28.85-39.08,56.55-39.89,1.25,0,3.28-1.42,3.54-2.51,2-8.58,7.71-13.68,15.34-17.1,9.24-4.14,18.74-7.11,28.83-3.66,3.25,1.11,5.17.91,7.13-2a21.35,21.35,0,0,1,4.93-4.88c6.65-5,13.48-9.71,20.12-14.69,11-8.28,23.44-12.74,37.08-14.72a342.59,342.59,0,0,0,34.13-6.91c19.43-4.88,36.11-15.65,53.21-25.58,14.25-8.27,25.64-19.36,35.12-32.62a27,27,0,0,0,1.82-3.13c-7.61,4.66-15.4,10.43-24,14.49a187.24,187.24,0,0,1-87.47,18.09c-13-.46-25.79-2.45-37.24-9.55-1.38-.86-3.83-.8-5.49-.25-7.63,2.54-14.69,1.77-21.35-2.78-3-2-6-4-9.15-6.09l-2.54,3.1c-7.51,9.28-14.72,18.83-22.66,27.72-4.61,5.17-10.58,9.09-15.59,13.92-7.17,6.9-15.37,11.9-24.4,16.06a312.19,312.19,0,0,0-29.26,15.77c-9,5.36-18,10.09-28.66,10.45-11.62.4-23.24.74-34.86,1.13-2.92.1-5.84.3-8.88.45-.23,1.87-.33,3.19-.57,4.47-2.31,12.66-6.37,24.61-16.38,33.31-3.9,3.4-9.91,4.57-13.36,8.25s-4.51,10-7.8,14.14C29.05,332.1,15.37,341.06,0,347.53v-10c10.46-8,21.12-15.83,31.28-24.25,3.8-3.15,5.75-7.87,5.85-13.28,0-1.53,2.33-3.54,4.06-4.41,3.32-1.68,7.57-2,10.39-4.16,10.07-7.83,12.93-19.47,15.1-31.29,0-.22-.34-.52-.65-.95-22.31-1-45-.47-66-10.42v-12c7.22,2.81,14.24,7,21.71,8.12a426.74,426.74,0,0,0,45.08,3.57c12.93.47,25.9-.31,38.85-.36,16-.07,30.6-3.61,43.92-13.36,7.77-5.69,17.39-8.81,25.89-13.6a238,238,0,0,0,20.32-13.16c4-2.87,7.43-6.62,11.31-9.74,10.74-8.65,18.57-19.67,26.27-31.28a18.85,18.85,0,0,0-2.11-.68c-9.94-1.8-20-3.14-29.78-5.54-4.62-1.14-8.16-.87-12,1.75-10.36,7-22,8.11-33.93,6.07-3.77-.64-5.49,0-7.65,3.1-8.25,11.69-16.92,23-30.34,29.53-8.24,4-17.14,6.38-25,11.53-12.35,8.09-26.74,6.18-40.67,6.56-17.25.46-32.14-5.53-46.19-14.7A48.33,48.33,0,0,0,0,201.93V189c4,2.56,8.21,4.93,12.09,7.71,20.38,14.62,43.27,13.95,66.52,11a21.07,21.07,0,0,0,6.09-2.14c17.93-8.49,26.76-22.82,28.11-42.49.57-8.3-1.79-14.37-8.52-19.24a58,58,0,0,1-9.19-9.08c-6.93-8-15.95-9.08-25.47-7.55-2.4.39-5.22,2.75-6.4,5a29.29,29.29,0,0,0-3.33,11.25c-.82,10.93,5.37,15.52,15.77,12.23-5-2.23-6.5-5.88-4.11-10.08,2-3.6,7.12-4.59,11-2.14,6.84,4.38,6.8,16.78-.07,21S60,166.3,54.58,160.24c-6.12-6.8-6.87-21.19-1.74-31,2.89-5.52,6.83-10.43,12.9-11.7,9.85-2,20.22-2.54,28.78,3.81,7.42,5.49,13.76,12.42,20.69,18.57,4.2,3.73,7.06,8.27,7,13.79a213.17,213.17,0,0,1-1.57,23.68c-.46,3.84-2.2,7.52-3.35,11.27a14.94,14.94,0,0,0,6.94-4.43c7.25-9.25,15.15-18.17,21-28.26,4.29-7.38,7.34-15.84,6.87-25.11-.58-11.41-6.68-19.59-14.24-27-4-4-5.82-8.68-5.22-13.92C133.84,79.85,129,73.31,121,68.72a161.8,161.8,0,0,0-19.61-9.62c-13.29-5.35-26.88-9.7-41.56-8.75-7.21.46-13.72,2.69-18.93,7.76-5.71,5.56-6.69,6-13.73,2.78-9-4.1-18-3.34-27.12-.56v-10c9.72.34,19.44.72,29.16,1,1.8,0,4.09.33,5.36-.59,11.87-8.57,25-12.64,39.44-10,22,4,42.83,10.89,60,26.14,5.34,4.76,7.87,10.84,8.5,18A35.64,35.64,0,0,0,145,94.75a6,6,0,0,0,3.86,3.17,51.26,51.26,0,0,1,23.51,11.39,54.08,54.08,0,0,0,28.34,12.42c7.48,1,10.1-.72,12.08-7.78.38-1.36,1.89-3.34,2.92-3.37,1.44,0,4,1.28,4.21,2.37.8,4.29,1.6,8.82,1.05,13.09-1.28,10-6.74,18.12-14.58,25.53,6.29,1.48,11.83,3.66,17.46,3.93,13.9.67,27.84.52,41.76.56a10.9,10.9,0,0,0,5.78-1.28c6.74-4.52,14.2-4.12,21.66-3.6,15.14,1.06,28.28-4.63,41-11.78,6.38-3.57,12.53-7.57,19.07-10.79,10.92-5.37,16.22-15.38,21.62-25.3.53-1-.89-3.52-2-4.77-6-6.55-11.31-13.26-13-22.45-1.88-10.5,2.75-17.92,10.71-23.36,7.14-4.88,15-8.64,24.22-7.54,6.18.73,12.15,5,13.67,10.07,2.33,7.8.81,15.5-3.75,18.93-5.25,4-15.66,5.19-20.25,1.58-1.76-1.38-2.72-4.77-2.68-7.23a6.78,6.78,0,0,1,6.49-7c2.11-.09,4.36,1.93,6.44,3.17.57.35.77,1.32,1.89,3.36,1.13-2.39,2.64-4.06,2.28-5.08a29,29,0,0,0-4.2-7.36c-.54-.73-2.14-.83-3.28-.93-7.88-.67-13.8,3.81-18.73,8.74-4.4,4.4-3.83,10.75-1.55,16.43,4.68,11.64,14.8,16.43,25.81,20,14.15,4.56,28.25,2.27,42.41-.12C449.4,98,459.43,95.8,466.94,88.38a61,61,0,0,0,11.34-15.32c3.52-6.9,7.68-12.4,15.56-13.93,1.35-.26,3,1.13,4.54,1.75a24.07,24.07,0,0,1-2.55,4.53c-2.58,2.91-6.77,5.14-7.9,8.46-4.8,14.07-15.51,23-27.74,28.63-11.36,5.26-15.18,13.42-16.52,24.19-.76,6.17-.39,12.47-1.21,18.63-1.41,10.61-7.6,19.05-14,27.12-12.43,15.73-28,27.45-46.1,36.3s-36.75,16.88-56.29,22.33A105.82,105.82,0,0,1,308,234.45a68.08,68.08,0,0,0-36.08,14.3,42,42,0,0,1-6.14,4.25c-16,8.5-22.85,23.36-27.66,39.65-1.8,6.08-3.93,12.33-1.27,18.46,1,2.23,4,4,6.55,4.9,1,.36,3.08-2.2,4-2.91-2.45-2.79-4.91-4.44-5.58-6.63-.93-3-.33-6.49,3.54-7.67,4.6-1.39,11.28,2.18,12.4,6.83,1.49,6.22,1.29,12.16-4,17-5.5,5-11.72,5.16-18.11,2.71s-10-7.55-10.13-14.59c-.17-11.81,2.86-23.06,7.13-33.91,1.65-4.19.67-5.81-3.29-6.71-10.88-2.46-27.47,7.83-29.58,18.71-.88,4.53-3.24,6.43-7.55,5.89-15.62-2-28.48,4-39.16,14.61-4.83,4.8-8.65,10.91-11.86,17-5.34,10.12-9.54,20.79-10.28,31.8L295.38,368c2.4-4.16,5.07-9.1,8.05-13.84,2.24-3.56,5.66-3.38,8-.05.85,1.22,2.38,2,3.28,3.17,1.88,2.53,3.54,5.23,5.84,8.69l6-1.4c-6-5.74-7.13-11.22-2.14-18.5,3.78-5.52,4.19-11.64,5.87-17.58a31.62,31.62,0,0,1,2.58-6.88c.48-.88,2.22-1.5,3.34-1.43.65.05,1.37,1.63,1.75,2.64,1.16,3.14,2.18,6.33,4.28,9.28,0-4.77.27-9.57-.14-14.3-.14-1.67-1.7-3.43-3-4.74-3.36-3.35-3.21-5.41,1.14-7.27,3.19-1.36,6.56-2.32,9.86-3.42,12.25-4.11,24.54-8.11,36.75-12.34a14.54,14.54,0,0,1,11.49.41c8.13,3.69,16.46,6.91,25.32,10.57,0-2.11.08-3.68,0-5.22-.23-3.41,1.74-4.17,4.64-4.32,3.05-.16,3.68,1.44,3.58,4,0,1.32.27,2.68.12,4-.46,4,1.28,6.25,5.07,7.25,1.43.37,2.74,1.18,4.15,1.65,3.66,1.24,4.13,3.38,2,6.43-3.66,5.29-4.56,11.25-4.44,17.54.15,7.92,0,15.85,0,24.08,1.05-.23,1.65-.18,1.87-.44,4.69-5.58,6-5.51,10.81.35a5.84,5.84,0,0,0,3.2,2c11.88,2,23.79,3.79,36.09,5.71.28-4.18-.3-6.06-3-8.79-5.07-5.2-7.91-12.23-6.49-20.07,1.19-6.64,1.76-13.5,3.83-19.86,1.64-5.06,5.05-9.59,8-14.16.27-.41,3.79.26,4,1,2,6.71,3.67,13.56,5.48,20.35.57,2.11,1.37,4.16,2,6.25.44,1.36,1.19,2.74,1.18,4.1,0,4.61-.16,9.23-.6,13.82-.19,2-.73,5.05-2,5.6-5.81,2.52-5,7-4.36,13.12L557,368.66c1.68-4.46,2.61-7.6,4.07-10.47.56-1.11,2.66-2.5,3.43-2.19a5.83,5.83,0,0,1,2.77,3.57,47.16,47.16,0,0,1,1,7.06c5.64,0,10.78.23,15.88-.16,1.26-.09,2.7-2,3.48-3.41,4.29-7.66,8.34-15.46,12.58-23.15,6.11-11.06,14.67-20.17,24-28.47a64.94,64.94,0,0,1,41.65-16.8c1.16,0,2.31-.12,3.64-.19-2.57-5.63-5.12-11.08-7.53-16.59-1-2.27-2.35-4.69-2.34-7,0-5-2.93-6.81-6.56-9.31-6.21-4.28-11.6-9.75-17.43-14.59-1.51-1.25-3.31-2.65-5.13-2.93-20-3-35.05-12.77-43.75-31.27-1.74-3.71-3.92-8.15-.39-12.17a7.17,7.17,0,0,1,4.62-2.17c.69,0,1.34,2.47,2.31,3.55s2.48,3,3.81,3c5.91.27,12.24,1.32,17.72-.28,21.1-6.16,31.63-13.71,36.83-35.17,3.43-14.13,6.2-28.53,13.32-41.6C675.77,108,690,92.46,713.1,87.13c1.58-.37,3.07-1.11,6-2.17-8.09-3.57-11-11.53-19.33-14-9.11-2.7-15.29-9.69-16.27-19.53-.34-3.51,1.67-7.42,3.25-10.85.44-1,3.25-1.25,4.84-1,.68.11,1.34,2.32,1.49,3.64.52,4.41,6.75,7.54,13.11,6.78,11.34-1.37,19.89-7.11,27.28-15.65,12.14-14,27.33-20.74,46.17-17.06,1.62.32,3.19,1.24,4.78,1.23,1.83,0,4.33-.13,5.38-1.28C795,11.52,801.35,8.08,809,8.44c8.92.43,17.83,1.63,26.69,2.9,3.39.49,6,.34,8.58-2.18C853.81-.18,865.38-2,877.52,2c20.83,6.8,39,17.64,51,36.88,7.78,12.46,10.32,26.14,9.67,40.52a13.58,13.58,0,0,0,3.32,9.88c10.86,13.55,14.45,28.44,7.64,45.14a10.46,10.46,0,0,0,0,7.57c12,25.33,8.39,49.66-4.16,73.52-1.32,2.5-2.87,4.86-4.37,7.26-1.38,2.21-2.83,4.38-4.42,6.84,14,.28,23.6-6.71,31.32-16.87,3-4,5.57-8.25,8.24-12.46,6.07-9.57,5.38-19.88,3.24-30.35-.76-3.73-2-7.47-2.05-11.23,0-2.32,1-5.44,2.7-6.78,1.38-1.1,4.94-.92,6.66.13a24.58,24.58,0,0,0,20.59,2.56c8.1-2.37,16.44-4.26,24.12-7.61,8-3.51,15.09-8.29,16.74-18.61,1.3-8.12,11.92-12.94,21.3-11.12a15.93,15.93,0,0,1,13,17,11.38,11.38,0,0,1-9.79,10.93c-5.23.74-9.55-2.17-9.89-6.68s2.64-6.86,8.67-6.85a7.47,7.47,0,0,0-10.15-4.45c-3.77,1.47-6.16,7.11-4,10.94a30.11,30.11,0,0,0,7.19,8.76,55.25,55.25,0,0,0,12,6.91c7.39,3.25,14.34,3.23,21.51-1.87,7.63-5.42,16.9-5.76,25.93-4.35,3.89.61,6.59-.1,9.34-2.87a32.56,32.56,0,0,1,39-5.9c10.6,5.83,20.74,12.51,30.92,19.08,3.12,2,5.3,2.49,8.1-.49,7.67-8.19,16.95-12.2,28.5-11.41,8.37.56,16.83-.07,25.24-.35,18.38-.61,31.62,8.08,41.73,23.12,6.08-5.29,12.55-9.21,21-8.54,8.12.65,14.24,5.08,20.46,9.91,2.08-1.4,4.06-2.88,6.17-4.13,7.66-4.57,19.35-3.28,24.76,3.16,1.42,1.69,1.29,4.68,1.88,7.08-1.69.23-3.37.56-5.07.66-4.06.23-6.16,2.83-6.41,6.36-.77,11.06-1.14,22.15-1.6,32,6.51,4.85,13.1,9,18.67,14.13s10.06,11.37,15.35,17.5c16.43-20.41,34.45-39.07,62.82-42.7-.48-1.83-.71-2.91-1.05-4-2.4-7.58-3.21-15-.65-22.92,4.39-13.63,8.19-27.46,18.35-38.24,10.72-11.37,22.69-20.23,39.6-17.59a35.68,35.68,0,0,1,8.79,3.14c3,1.39,3.87,3.86,2.55,7-11-2-19.13,4.33-20.22,15.89a35.92,35.92,0,0,0,5.07,22.45,15.85,15.85,0,0,0,21,5.54c14.29-7.43,28.35-15.44,44.4-18.61,4.39-.86,8.88-1.18,13.33-1.76v10a14.57,14.57,0,0,1-1.92.48c-12.65,1.34-24.8,4.27-36.05,10.5-4,2.24-8.48,3.76-12.61,5.86-12.76,6.48-25.29,13.25-33.43,25.77-3.18,4.9-8.06,6.32-13.93,5a52.71,52.71,0,0,0-12.24-1.75c-33,.56-58,15.62-75.82,43a12.46,12.46,0,0,0-1.54,7.77c1.3,10.08-2.44,18.23-10.89,23.14a5.55,5.55,0,0,0-2.09,3.81A24.68,24.68,0,0,1,1384.46,307c-1.67,1.2-3.31,2.44-5.49,4.05,12.2,3.3,20.49,10,25,22.44,2.56-1.05,6.24-1.4,7-3.09,3.21-7,9.27-10.4,15.52-13.36,7.68-3.63,15.38-3.46,22.44,2.17,2.15,1.72,4.59,4,7.08,4.22a34.18,34.18,0,0,1,21.75,10.85c3.47,3.6,11.86,4,15.79,1.19,2.91-2.11,3-4.89,0-6.65-8.91-5.37-13.33-14.07-15.48-23.49-5.11-22.51,1.2-43.06,14.49-61,13.09-17.71,32.18-26.57,53.34-31.3a8.67,8.67,0,0,0,5-3.1c8.94-13.56,21.12-21.22,37.62-21.46,2.3,0,4.61-.3,6.91-.46v10a90.4,90.4,0,0,0-9.46.05c-10.42,1.09-20.77,4-25,14.28-2.85,6.9-5.73,8.72-13.1,10.32-37.67,8.19-62.46,33.61-61.25,74.62.28,9.4,4.83,16.85,12.34,23.33,5.29-10,13.83-14.37,23.93-15.8a189,189,0,0,1,23.27-1.91c3.49-.07,7.11,1.35,10.49,2.6,1.54.57,2.63,2.36,4.37,4-14.31,3-20.56,9.53-21.37,22,12.72,3.13,24.74,1,34.37-7.6,16.43-14.61,23.86-33.74,16.31-56.52-4.58-13.82-19.75-19.79-32.15-12.41-4.69,2.79-6.39,9.09-3.9,14.43,2,4.36,7.25,6.27,12.72,4.48-.46-.55-.84-1-1.25-1.49-3.27-3.61-3.59-7.22-.84-9.55,2.57-2.16,9.32-1.39,11.45,1.31,5.57,7.05,1.14,19-7.7,20.69-14,2.73-25.06-6.56-25.63-20.61-.56-13.73,11.11-21.23,22.09-22.4,12.71-1.37,23.2,2.81,30.31,13.95v55.85c-.76,1.23-1.6,2.41-2.27,3.69-6.22,11.92-14.84,21-28.14,25.13-9.11,2.86-18.22,2.8-27.74,1.61-1.27,4.54-2.5,8.9-3.7,13.15,4.8,2.18,8.1,2.16,12.67-.87a35.74,35.74,0,0,1,27.2-5c3.57.72,5.74,2.9,5,7-5.85.27-8.22.8-11.1,5.88-6.57,11.58-12.41,23.56-19,36.15l47.09,7v17.95c-2.58-.54-5.16-1.12-7.75-1.62a703.07,703.07,0,0,0-96.26-12.19c-43.29-2.38-86.65-3.46-130-5.07-3.5-.13-7,0-10.51,0a162.84,162.84,0,0,0,26.69,5.89q33.77,4.68,67.6,8.86c19.43,2.36,38.89,4.58,58.39,6.37,20.82,1.92,41.7,3.3,62.56,4.84,9.74.73,19.5,1.28,29.26,1.91v5c-1.16,0-2.33,0-3.49-.08-29.65-2.07-59.33-3.86-89-6.33-20.16-1.69-40.27-4.21-60.37-6.63-11.52-1.38-23-3.53-34.48-4.95-26-3.22-52.07-6-76.93-15.17a59.22,59.22,0,0,0-17.47-3.48c-16.25-.77-32.55-1.39-48.82-1.13-47,.74-93.42-4.94-139.87-10.78a139.71,139.71,0,0,0-23.84-1c-27.68,1.3-55.34,4.12-83,4.41-59.82.63-119.62-1.17-179.35-4.88-6.78-.42-13.61-1.73-20.33-1.29-12.92.86-25.85,2.18-38.64,4.17-40.71,6.33-81.37,13.05-122,19.66-4.66.76-9.26,1.82-14.17,2.79,44.45,1.29,88.46,2.89,132.48,3.72,33.88.64,67.79.64,101.68.3q73.8-.75,147.51,2.71c51.77,2.51,103.59,4.12,155.33,7.12,45.06,2.62,90,6.47,134.56,14.63,31.64,5.8,63.73,9.12,95.62,13.52,36.49,5,72.83,11.5,109.83,11.9q37.37.39,74.75.71v12c-2.58,2.22-5.75,4-7.61,6.75-5,7.32-9.52,15-14.49,23l10.06.67c-.25-9.55,4.76-15.72,12-20.47v13c-2,2.48-3.91,5-6.31,8l6.31.94ZM792.4,178.25c-1.51,5.61,0,8.56,4.86,9.71a20.6,20.6,0,0,0,22.54-10c4.47-8,3.37-15.5-3.56-22.65a45.35,45.35,0,0,0-28.46-13.87c-23.2-2.6-38,5.42-47.52,26.71-2.34,5.24-3.62,11-5,16.62-6.07,24.95,1.21,45.57,21.89,60.45,7.59,5.47,17.21,8.24,26.13,11.68a8.83,8.83,0,0,0,7.46-1.27c5.22-4.43,10.25-3.64,16.18-1.8,11,3.41,24.49-6.17,25.45-17.55a9.93,9.93,0,0,0-.82-4.34c-3.51-8.79-2.43-10.33,7.23-10a29.77,29.77,0,0,1,3,.09c14.68,2.1,25.05-4.87,32.85-16.28,14.82-21.69,19.58-44.6,7.79-69.48-6.68-14.08-15.32-26.3-28.53-35C843.7,94.56,832.57,90.37,821,86.54c-13.46-4.47-26.32-3.54-39.67-.62-8.05,1.76-16.46,3.7-24.52,3.1a74.57,74.57,0,0,0-35,5.83A76.07,76.07,0,0,1,712,98.43c-24.47,6.44-35,26-43.41,47-3.71,9.33-5.35,19.51-7.8,29.33-4.7,18.82-16.6,31.15-34.64,37.31-7.69,2.63-15.93,3.64-24.21,5.44,7.53,7.91,15.85,14.94,27.55,16.44a10.58,10.58,0,0,0,5.38-.46c4.46-2,6.14.23,7.9,3.92s3.6,8.25,6.75,10c10.84,6,21.89,12.08,33.59,16,14,4.63,28.21,3.89,40.84-5.6,1.34-1,4-.9,5.89-.42,6.73,1.75,13.24,2.37,20.49-1.69-2.79-2.59-5.12-4.65-7.35-6.81-9.5-9.21-18.88-18.84-20.47-32.61a139.23,139.23,0,0,1-.17-31.08,75.79,75.79,0,0,1,14.69-36.52c9-12.2,21.74-17.48,36.36-18.91,21.15-2.06,39.5,3.73,53.64,20.17,8.16,9.49,8.94,23.79,2.43,35-5.73,9.86-21.75,17.55-32.46,15.57-15.1-2.78-21.49-16.11-15.31-31.85,1.95-5,5.58-7.89,10.79-8.33,5-.43,8.49,2.53,11,6.55,2.3,3.75,3.22,7.79,0,11.56-3.3,3.93-6.77,2.12-10.17,0C793.11,178.17,792.72,178.27,792.4,178.25Zm330.23,94.82c-3-3.4-6.24-5.62-7.34-8.63-1.48-4,1-7.3,5.11-8.91a9.51,9.51,0,0,1,11.74,3.83c6.39,9.61,2.08,21.37-9,24.48-6.64,1.87-12.85,1.27-18.11-3.66q-4.37-4.1-8.57-8.34c-4.17-4.21-5.37-9.34-4.69-15.11,2.23-18.91,23.67-33.71,42.93-30.41,22.59,3.88,48.54,28.74,45.37,59.14-3.14,30.05-24.85,51-54.71,47.58-10.29-1.18-17.23,3.65-25.58,6.92,7.47,9.53,20.1,16.77,30.66,17.51,8,.55,16,1.46,23.89,1,11.88-.65,23.26-3.61,32.18-12.31a25.44,25.44,0,0,1,18.4-7.46c7.14,0,14.29,0,21.43-.1,2.12,0,4.48-.11,6.31-1,19.71-9.76,30-26.78,35.93-47.1.8-2.75-.3-4.19-3-5.17-10.84-3.85-19.15-11.16-26-20.14-1.86-2.44-3.67-5.4-4.12-8.33-.7-4.5-3.11-6.58-7-8-18.07-6.54-27.75-21.72-37.6-36.71a14.67,14.67,0,0,1-1.33-3.21c-4.88-13.47-2.49-22.39,8.39-31.49,3.6-3,3.82-6-.47-8.91-9.9-6.62-19.77-13.46-30.38-18.79-12.6-6.33-20.48-3.77-28.83,7.55-2.43,3.28-5.27,4.33-9,3.55-1.95-.41-3.85-1-5.8-1.4-12.31-2.26-22.41,1.26-30.65,10.93-6.92,8.12-8.13,17.45-7.66,27.49.6,12.85-6.43,21.11-16.88,27.1a42.05,42.05,0,0,1-6.92,2.74,34.64,34.64,0,0,0-18.11,14.82c-10.58,16.75-12.58,33,2,48.62,2.08,2.24,2.25,4.63.46,7.22-3.17,4.6-2.06,9.11.48,13.54,6.39,11.16,17.26,16.11,28.55,20.32a11.07,11.07,0,0,0,6.4.23c8.73-2.37,17.79-3.27,26.11-7.6,4.21-2.19,9.87-2.66,14.77-2.32,22.44,1.58,38.41-5.77,45.41-26.89,3-9,2.86-18.37.86-27.57-2.93-13.51-22.43-30.11-36.27-31.27-11.47-1-22.91,5.16-27.79,14.88-4.13,8.21,1.7,20.33,10.82,21.94C1117.43,274.1,1120.18,273.29,1122.63,273.07Zm-71.74-124.85c-2.92,2.25-5.39,4.92-8.43,6.37-14.59,6.9-29.46,13.13-46.08,12.55-3.84-.14-5.63.92-5.24,5,.28,3-.17,6,.3,9,2.51,15.55-4.32,28-12.71,40.1-1.31,1.88-3.22,3.84-3.43,5.91-1.21,11.66-7.49,21.18-12.8,31.06-4.45,8.28-8.71,16.94-18.71,20.19a8.12,8.12,0,0,0-2.42,1.73c-20.12,16.78-43.81,21-69.06,19.53-3.42-.2-6.07.26-8.39,2.9-10.36,11.78-24.24,15.6-39.11,17.23-1.69.19-4,.68-4.82,1.87-8.3,12.34-21.39,16.82-34.43,21.44-4.22,1.5-8.35,3.23-12.59,4.63-3.38,1.11-6.84,2.46-10.32,2.69-7.21.48-17.16,6.23-19,11.23,9.41,0,19,.22,28.6,0q70.26-1.83,140.5-4a9.13,9.13,0,0,0,5.35-2.69c5.65-5.51,10.33-12.32,16.72-16.68,10.83-7.4,22.73-13,36.6-12.22a5.9,5.9,0,0,0,4.58-2.53c6.1-11.44,15.75-18.52,27.93-21.6,9.36-2.36,19.12-3.13,29.93-4.8-.48-1.53-.63-4.37-2.06-6.19-4.72-6-6.71-12.76-7.64-20.17-2.38-19.13,14.93-49.36,35.68-53.78,8.48-1.81,15-10.87,14.76-18-.44-11.19-.38-22.23,5.8-32.31C1069.21,162.14,1058.44,157.71,1050.89,148.22ZM862.54,36.87a4,4,0,0,0-1.09-.41c-6.41,0-8.52-1.61-8.38-6.28.13-4.39,3.71-7.31,9-7.14,4.24.14,8.12,1.57,9.7,5.75,2.23,5.88,2.36,12.2-2.12,16.93-6.27,6.6-14.51,6.37-22.81,4.56-6.92-1.5-11.28-5.78-12.61-12.53a31.24,31.24,0,0,1-.1-11.84c.82-4.14-1-5.79-4.24-6.27-6.38-.95-12.86-2.2-19.24-1.92-7.42.34-14.42,2.43-17.13,11.05-1.26,4-4.56,3.57-7.82,2.06-2.83-1.31-5.66-2.92-8.66-3.53-15.35-3.14-27.27,3.56-37.2,14.25-8.09,8.7-17.34,14.85-29.16,16.67-3.49.54-7.08.44-11.55.68,4.88,4.22,9.57,5.14,14.93,4.62,1.51-.15,4.54,1.48,4.61,2.47.62,8.1,2.4,11.41,10.25,12,13.85,1,27.79,2.21,41.64-.85C787.32,73.41,804,69.63,821.18,75c14.3,4.45,28.75,8.7,40.92,17.64C881,106.48,892.54,125.55,898.64,148a52.9,52.9,0,0,1,1.69,12.28c.66,23.8-8.16,44.3-23.62,61.69-5.21,5.85-12.71,11.61-20.05,13.12-9.34,1.92-14.25,5.7-17.29,14.28-1.41,3.95-5.14,7.08-8.82,11.88,7.56.53,14,1.85,20.25,1.27,24.82-2.29,47.34-10.88,65.36-28.42,18.64-18.14,30.57-39.79,28.18-66.92-.75-8.46-1.65-17.3-11.46-21.53-4-1.72-3.72-5.52-.62-9.11,2.68-3.08,5.92-6.13,7.28-9.8,3.19-8.63,2-17.26-2.29-25.47-2.23-4.32-5-7.79-10.24-8.47-2.69-.35-3.82-1.55-2.13-4.4,7.77-13.09,4.83-26.53-1.52-38.43-10.1-18.9-26.83-30.85-47-37.77-17.79-6.09-32,2.49-32.57,19.46-.12,3.82.63,7.23,4.68,8.33,4.6,1.26,9.44,2.58,13.61-1.31C862.43,38.29,862.39,37.46,862.54,36.87Zm383.92,152.68-1.41.77c.45,2.07.27,4.7,1.49,6.12,3.34,3.89,20,3.5,23.62-.23a7,7,0,0,0,1.83-2.92c1.26-5.48,2.75-11,3.29-16.53.25-2.52-.72-6.31-2.53-7.67-6-4.53-12.23-9.75-19.22-11.77-6.52-1.87-14.29-.87-21.21.44-10.07,1.91-15.77,9.53-20.29,18.32a30.68,30.68,0,0,1-8.14,10.25c-5.32,4.06-6.82,6.12-6,12.76a27.8,27.8,0,0,0,7.54,15.89,25.73,25.73,0,0,1,4.32,5.44c4.49,8.55,11.77,14,20.3,17.57,8.26,3.49,16,6.9,16.05,17.59a.93.93,0,0,0,.19.46c5.27,8.86,12.37,16.18,22.32,18.75,7.06,1.82,14.5,2.27,21-4.77,3.16-3.42,6.24-6.58,7.36-10.77,2.16-8,3.19-9.1,11-7.36,13.68,3.06,25-1,33.82-11.64a71.34,71.34,0,0,0,16.68-39.81c.77-8.73,1.48-17.47,2.29-27-3.25,2.93-6.82,5.9-10.06,9.17-2.39,2.42-3.79,2.13-6-.41a51.22,51.22,0,0,0-9.1-8.3c-11.68-8.31-24.26-1.39-25,13.19-.43,8.47-3.55,15.77-10.2,21.39a9.21,9.21,0,0,0-2.62,4c-6.76,20.78-40.34,27.58-56.86,8.68-7.45-8.52-9.3-18.74-8.44-29.79.59-7.7,8.27-16.06,15.93-16.13,4.65,0,8.92,2,9.93,6.71a11.6,11.6,0,0,1-2.35,8.84C1253.21,194.08,1249.43,192.79,1246.46,189.55Zm-576,82.21c1.48,3.84,3,8.18,4.82,12.4,3.27,7.62,8,14,15.16,18.58,21.58,13.76,45.08,16.39,69.69,11.82,7.84-1.46,14.78-4.65,18.11-13,1.39-3.52,4.73-3.19,7.55-.5s5.65,5.47,9,6.63c16.28,5.58,32.64,5.05,48.39-1.91,4.77-2.11,8.69-6.11,13-9.23-6.62-4.77-12.39-8.62-17.79-12.94a16.09,16.09,0,0,1-5.31-7c-1.15-3.58-3.36-4.27-6.48-5-7.06-1.65-14-3.88-21-5.57-2.44-.58-5.46-1.15-7.59-.25-12.51,5.28-24.23,3.83-35.73-2.85a5.22,5.22,0,0,0-4.67.25c-7.76,5.93-16.52,6.12-25.65,5.38A16.6,16.6,0,0,0,723.6,270c-7.41,3.65-15,6.7-23.34,5.82C690.43,274.81,680.66,273.19,670.45,271.76ZM258.82,165.3l.08,1.9c4.18,2.71,8.74,5.66,13.56,2.26,4.28-3,7.31-2.14,11.16.47,8.55,5.8,18.2,9.2,28.49,9,16.9-.29,33.92,0,50.43-4.64,8.45-2.39,17-4.42,25.29-7.39,16.93-6.1,33.1-13.54,41.46-31.11,3.92-8.24,7.57-16.62,11.84-26-19.9,3.64-38.15,5.08-55.89-3.53-1.54,2.6-2.93,4.83-4.21,7.12-5.26,9.39-11.44,17.88-21.21,23.22-8.15,4.45-16,9.48-24.22,13.78A88,88,0,0,1,300,160.6C286.22,161.48,272.54,163.68,258.82,165.3ZM1278.25,300.14c.82,0,1.47.13,2.11.1,16.4-.7,30.17,5,41.55,16.79a3.9,3.9,0,0,0,3.29,1c6.56-2.53,13-1.16,19.61-.16,15.37,2.33,26.48,9.89,32.14,24.75,1.3,3.4,3.42,3.68,6,1.08a52.11,52.11,0,0,1,6-5.21c4.56-3.3,4.77-5.08,1.13-9.55-4.51-5.54-10.91-7.47-17.36-9a63.49,63.49,0,0,1-31-17.88C1329.7,289.7,1331,270,1345.1,263c5.08-2.51,11.5-3.3,17.27-3.18,9.05.18,14.71,6.84,14.05,14.74-.62,7.29-9.16,14.64-16.73,14.3-4.11-.18-8.15-1.7-8.67-5.93a11.41,11.41,0,0,1,3.29-8.57c3.3-3,6.68-.47,9.24,2.48,2.32-2,4.09-4.17.8-6.08-5.63-3.27-19.56.39-20.57,9.54-1.06,9.49,10,21.8,19.84,22.37,15.23.88,22.87-6.22,21.43-21.12-.14-1.44,1.24-4,2.51-4.46,9.19-3.48,12.94-11.59,7.33-19.79a177.89,177.89,0,0,0-21.21-25.44c-7.2-7.16-10.62-6.23-15.39,2.42-10.37,18.79-24.94,30.31-47.61,29-1.69-.1-4.22,2.25-5.19,4.07-5,9.29-11.24,16.78-22.14,19.22a5.65,5.65,0,0,0-3.64,3.26C1278.83,293.08,1278.7,296.58,1278.25,300.14Zm-841,13.28c-14.7-6.13-28.44-11.89-42.23-17.53a6.88,6.88,0,0,0-4.33-.33c-14.77,4.72-29.48,9.58-43.36,14.13.58,4,1.48,7.28,1.47,10.58-.05,12.62-.42,25.24-.63,37.86-.06,3.92,0,7.84,0,11.67h77.29c1.1-4,2-7.72,7.43-6.76,0-10.6,0-20.69,0-30.79C432.86,325.82,432,319.25,437.26,313.42Zm661.88,41.47c-2-2.24-4.06-4.13-5.57-6.4-3.73-5.59-8.72-6.28-15.06-5.82-4.85.36-10-1.36-14.8-2.74-2.43-.69-4.37-2.94-6.74-4.06-10.07-4.73-17-12.49-22-22.19a7.68,7.68,0,0,0-3.79-3.44c-16.47-5.69-42.52,2.56-48.38,21.42-.84,2.72-2.52,5.53-6.1,4.59-9.85-2.59-18.78.51-27.47,4.39-7.62,3.4-14,8.5-18.21,15.9Zm157.16-20.11c2.68,1.59,5.36,4,8.46,4.84a97.22,97.22,0,0,0,18.54,3.53c17.37,1.29,28.72,11.06,36.91,25.34,1.56,2.74,3.2,3.75,6.09,4,12.07,1.06,24.15,2.06,36.18,3.53,3.81.46,5.48-.88,5.73-4.17.52-6.57,1.45-13.23.88-19.74-1.72-19.55-28.88-32.62-45.11-21.74-3.89,2.61-5.28,1.43-7.17-1.79-8.5-14.48-22-18.88-37.72-17.79a14.18,14.18,0,0,0-8.93,4.56C1265.29,321.13,1261.29,327.65,1256.3,334.78Zm277.16-21c-16.66-1.07-22.54,3.19-26.82,20.05-2.32,9.13-7.75,13.62-18,13.68-5.24,0-8.66.85-10.2,6.63-1.23,4.63-5.49,5.78-10,5.45-5.08-.38-10.1-1-12.71-6.2-1.93-3.82-.28-9.74,3-10.94,4.5-1.65,6.73,1.05,8.35,4.76.27.62,1.07,1,1.69,1.54,2.1-4,2-6.32-.13-8.75a17.91,17.91,0,0,0-18.75-4.57c-7.13,2.74-11.12,8.16-10.93,15.49.12,4.23-1.19,7.41-4.81,9.66s-4.81,5.75-3.67,9.91c.79,2.87,1.74,5.7,2.47,8.58.77,3.07,2.37,4.55,5.77,4.89,16.34,1.68,32.64,3.76,49,5.47,10.59,1.11,18.52-4.85,21.39-15.85a11.7,11.7,0,0,0,0-5.73c-1.25-4.68.5-8.1,5.48-8.08,5.5,0,7.83-3.12,9.26-7.37,1.59-4.69,2.69-9.56,3.89-14.38C1529.56,330,1531.46,322,1533.46,313.75Zm-727.17,8.52c-7.74-3.08-14.69-5.9-21.71-8.56-1.06-.4-2.88-.55-3.57.07-10.12,9-22.6,10.48-35.27,11.57a12.16,12.16,0,0,0-5.14,1.58c-13.69,8.43-28.7,11.88-44.6,11.92-7.63,0-15.3-.68-22.89-.16-5,.34-11.79.67-14.45,3.81-5.57,6.62-12.26,7.28-19.59,7.8a6,6,0,0,0-2,.35c-7.36,3-14.23,6.65-18,14.52a9.81,9.81,0,0,0,1.64.41q53.78-1.43,107.54-3c1.32,0,3.17-1.58,3.8-2.89a28.63,28.63,0,0,1,16.62-14.93c11.15-4,22.5-7.46,33.75-11.21a94,94,0,0,0,11.19-4.1C798,327.34,802.08,324.69,806.29,322.27Zm155.28-85.39c-10.27,1.71-20.71,3.84-31.25,5-3.45.38-6.23.69-8.94,3a118,118,0,0,1-55.64,27.2c-6.72,1.29-13.59,1.81-21.09,2.78,6.55,6.52,13.86,10,21.77,12.74,11.6,4,23.23,1.67,34.42-.54C930.25,281.26,951.09,264.39,961.57,236.88ZM719.15,324.57a83.1,83.1,0,0,1-40.38-19.5,3.7,3.7,0,0,0-2.3-.74c-12.19.21-24.24,1.15-35.14,7.44-21.21,12.25-33.1,32-43,53.35-.11.24.07.62.15,1.14,4.21.09,8.3,1,10.87-4.29,6.95-14.36,18.93-21.17,34.68-21.9,1.64-.07,3.86-.65,4.74-1.8a22.16,22.16,0,0,1,15.19-8.66,160.26,160.26,0,0,1,23.8-1C698.41,328.85,708.93,328.63,719.15,324.57ZM1508,132.08c-1.88.82-2.94,1.2-3.91,1.72-19.66,10.49-28.38,28.55-32.79,49-1,4.54,1.22,10,2.82,14.72.61,1.8,3.56,3.69,5.64,3.94,6.88.85,13.84,1.05,20.78,1.3a5.4,5.4,0,0,0,3.91-1.31c4.6-5.48,9-11.16,13.43-16.81C1501.06,170.48,1497.85,155.34,1508,132.08ZM711.28,430.4c-.1-.3-.19-.6-.29-.9-6.09-.39-12.32-.12-18.26-1.31-14.77-3-26.6,1.72-37.58,11.48-10.71,9.52-22.3,18-33.51,27,.19.6.38,1.2.56,1.8,7.67,2.48,15.21,5.68,23.06,7.18,4.93.94,10.11.56,14.35-4.77,12.87-16.18,29.16-28.44,47.47-38C708.51,432.1,709.88,431.22,711.28,430.4Zm475.55-70.21,122,10.23c-5.08-10-13.88-15.44-26.16-17-12.44-1.58-25.35-2-34.4-12.79-8.06,6-16.58,9.51-26.57,8.85a89.67,89.67,0,0,0-16.87.07c-3.72.46-7.42,2.31-10.75,4.21C1191.51,355.19,1189.58,357.67,1186.83,360.19Zm191.33,17.25,43.42,4.44a48.47,48.47,0,0,0-1-5.06c-2.92-9-1.33-16.94,5.44-23.81a8.4,8.4,0,0,0,2-4.79,24.71,24.71,0,0,1,8.31-16.46c1.89-1.72,3.93-3.29,6-5-7.61-3.58-20.31,1.55-23.62,9.67-2,5-5.27,6.19-10.3,6.68a35.72,35.72,0,0,0-14.37,4.62C1383.21,354.15,1378.76,364.6,1378.16,377.44Zm34.54,23.23c-83.86-11.17-168-19.16-253-13.89a6.12,6.12,0,0,0,3.11,1.3c21,2,41.92,5.55,62.89,5.6,43.51.1,86.88,2.07,130.25,5.13C1374.84,400.14,1393.79,400.09,1412.7,400.67ZM207.22,131c-20.12,1.91-35.51-8.31-50.67-19.92,7.32,16,4.84,31.45-.19,46.76C172.45,163.76,203.6,147.44,207.22,131ZM64,460.69c6.32-.7,11.42-1.09,16.46-1.91a6.6,6.6,0,0,0,3.83-2.68c10.51-15.37,25-26.93,38.32-39.52,6.18-5.83,6.5-12.7,7-21.51-3.86,1.74-6.88,2.61-9.36,4.29Q105.43,409.41,91,420c-1.78,1.29-2.95,3.51-4.16,5.44-4.22,6.72-8.25,13.57-12.52,20.25C71.27,450.36,68,454.9,64,460.69ZM166.92,451a119.29,119.29,0,0,1,27.68-42.17c4.2-4.18,5.6-9.1,4.61-15.12a8.83,8.83,0,0,0-2.2.46c-16.66,9.17-34.39,17-43.23,35.69-.84,1.78-2.33,3.23-3.37,4.93-3.32,5.44-6.57,10.93-9.73,16.21Zm501.29-24.09c-6.26-.53-11.82-.8-17.32-1.52A23,23,0,0,0,634,429.45C620.79,438.7,607.5,447.8,594.28,457c-.58.4-.88,1.19-1.63,2.26,7.8,2.16,15.08,4.37,22.47,6.08a8.16,8.16,0,0,0,6.08-1.21c15.15-11.6,30.12-23.43,45.13-35.21A23,23,0,0,0,668.21,426.86Zm466.27,24.87.15,1.63a46.5,46.5,0,0,0,5.34.8c29.11,1,58.17,5.53,87.35,1.18a59,59,0,0,1,9.85-1.11q31.59.78,63.18,1.9c4.69.16,9.35.82,14,1.24-13-6.76-26.72-10.85-41.27-10.74-29.37.23-58.76.55-88.12,1.49C1168.13,448.66,1151.31,450.49,1134.48,451.73ZM63.6,399.42c-1,.26-1.81.23-2.23.6q-15.45,13.31-30.8,26.73c-.95.83-1.39,2.24-2.06,3.39-4.74,8.18-9.38,16.43-14.27,24.53-3.48,5.77-7.31,11.34-11.63,18,8-2,16.8.66,20.21-9.18a4.36,4.36,0,0,1,.89-1.19l33.05-40.53A29.23,29.23,0,0,0,63.6,399.42Zm63.73,54.77c3.68-6.64,6.58-11.72,9.35-16.86a94.47,94.47,0,0,1,22.23-27.08c3.16-2.71,5-7,7.39-10.6l-1.14-1.72c-2.94.47-6.44.07-8.72,1.55-8.72,5.7-18.21,10.9-25.28,18.32-11.22,11.77-20.73,25.18-31.77,38.89Zm613.15-22.66c-13.51-2.83-26.5-2.24-38.19,6.54-4.1,3.08-8.76,5.4-13,8.36a142.79,142.79,0,0,0-30.4,28.76c6.63,0,12.36-.21,18.07.08,3.39.18,5.55-1.1,7.62-3.58A122.81,122.81,0,0,1,716,444.35C723.92,439.63,732.33,435.76,740.48,431.53Zm-195.77,18.6c2.11.55,3.31,1,4.55,1.18,8.34,1.41,16.76,2.46,25,4.29,4.16.93,6.67-.32,9.72-2.9,10.48-8.86,21.28-17.34,31.95-26,.79-.63,1.55-1.31,2.32-2C589.37,420.21,567.12,433.87,544.71,450.13ZM1245.19,209c.88,1.45,1.62,3.63,3.11,4.94,9.73,8.58,20.81,10.76,33,3.77,4.3-2.46,7.5-6.31,6.92-12.27-.15-1.48,2.25-3.38,3.74-4.81,1.8-1.74,4.48-2.8,5.72-4.81,8.87-14.34-4.66-32.71-17.56-36.93,1.73,2.92,5,6.12,5.5,9.7,1.56,11.26,1.56,22.8-5,32.69-2.41,3.64-7.05,7.41-11.12,8C1261.79,210.36,1253.74,209.21,1245.19,209Zm-1011.34,189c-13.36-3-27.8,4.23-33.41,15.69a181.65,181.65,0,0,1-9.28,15.88c-4.07,6.53-8.34,12.94-12.52,19.4l.69,1.54,18-1.23C204.84,428.67,218.49,413.05,233.85,397.94ZM379,389.57c-2.39.54-4.19.46-5.39,1.27-19.35,13-35.45,29.1-45.94,50.49l20.77-1.17c4.6-13,11.47-23.5,23-30.78,2.77-1.75,5-5.18,6.22-8.32S378.53,394.24,379,389.57Zm1130.34,2.51c8.27,1.27,15.7,2,22.92,3.66,4.83,1.1,7.23-.88,9.06-4.63,4.91-10.05,9.76-20.12,14.63-30.19a18.89,18.89,0,0,0-8.21,4.8c-4.46,4.59-6.24,4.48-11.35.7-1.89-1.39-5.62-1.33-8.13-.61-3.51,1-6.67,3.26-10.23,5.11C1520.13,379.44,1514.77,385.36,1509.33,392.08ZM390.1,437.65c9.26-.75,16.85-1.25,24.4-2.12,1.13-.13,2.27-1.82,3.07-3,3.9-5.85,7.33-12.06,11.62-17.6,4.05-5.24,9-9.85,9.45-17,.12-2,0-5.1-1.15-5.74-1.6-.9-4.44-.5-6.35.3a20.86,20.86,0,0,0-5.86,4.42,90.91,90.91,0,0,0-6.39,6.91C409.6,414.71,400.36,425.6,390.1,437.65Zm-94,4.51c5.54,0,12,.15,18.36-.13a5,5,0,0,0,3.59-2.71c3.48-10.25,9.94-18.25,18.22-24.9,5.68-4.56,7.62-10.65,7.66-17.54a4.34,4.34,0,0,0-1.91-3.39c-5.55-2.29-13,1.58-15.33,7.27a43.73,43.73,0,0,1-5.57,9.92C312.85,421.41,304.29,431.92,296.12,442.16ZM685.6,473.74c.19.68.39,1.36.58,2,5.11-.67,11.08.1,15.14-2.32,8.17-4.88,15-11.94,22.95-17.29,11.67-7.86,23.81-15,35.75-22.48,1-.62,2-1.21,3-1.81l-.9-1.56C730.27,433.4,706.35,450.73,685.6,473.74ZM785.77,432l-.34-1.59c-6.33,1-12.86,1.37-18.93,3.23a61.61,61.61,0,0,0-16.07,7.75c-14.72,9.86-29.13,20.19-43.62,30.38-.58.4-.88,1.19-2.12,3,7.84-.79,15.33.25,20.93-2.52,8.73-4.31,16.57-10.74,24.06-17.13,10.43-8.9,21.29-16.89,34.08-22C784.45,432.79,785.1,432.38,785.77,432ZM36.46,463.92c15,1.35,18.33-.41,24-13.32a97.87,97.87,0,0,1,21.94-31.11c4.37-4.26,6.16-9.75,7.39-16.13C71.42,413.16,56.66,431.06,36.46,463.92Zm222.31-19c3.26-14.68,8.69-27.58,20.42-37.06,2.95-2.39,5.77-5,8.48-7.62.84-.83,1.67-2.37,1.46-3.34s-1.75-1.81-2.86-2.07c-7.91-1.84-14.22,2-20,6.43-2.24,1.72-4.66,4.41-5.16,7-2.19,11.46-9.2,20-16,28.82-2.07,2.69-3.81,5.63-6.24,9.25Zm8.49-.44,23.6-1.42c-3.59-5.2-1.15-9.35,1.07-13.46a108.46,108.46,0,0,1,24.91-30.84c1.55-1.33,3-2.78,4.87-4.52-8.08-1.46-23.91,4.27-27.73,9.94C285.1,417.37,276.42,430.67,267.26,444.52Zm93.11-4.6c5.07-.33,9.85-.55,14.6-1a5.2,5.2,0,0,0,2.66-1.76c5.24-5.45,10.06-11.36,15.71-16.34,6.41-5.66,11.31-12.1,13.9-20.19.44-1.36.27-3.69-.61-4.47s-3.58-1.12-4.55-.4c-8.48,6.27-17.62,12-24.81,19.53C370.65,422.22,366.19,431.22,360.37,439.92ZM228.5,447.11c2.59-6,4-11.26,7-15.57,5.63-8.33,12.24-16,18.12-24.17,1.4-1.94,1.8-4.75,2.11-7.23.08-.66-2.42-2.48-2.83-2.23-5,2.95-10.67,5.43-14.56,9.55-5.05,5.33-8.51,12.14-12.92,18.12-5.55,7.52-11.36,14.84-17.58,22.93Zm920.58-3c-7.25-5.83-78.31.48-91.44,8.74,15.09.57,30.18.57,45.28.57,3,0,6.1.55,8.93-.1C1124.21,450.43,1136.49,447.22,1149.08,444.08ZM427.3,431.89l1.3,1.77c4.71-.78,9.44-1.46,14.12-2.41a3.75,3.75,0,0,0,2.09-2.21c3.45-8.9,8.23-16.72,15.63-23.08,5.76-4.94,10.74-10.82,16-16.35a46.31,46.31,0,0,0,3.45-4.88c-10.95.44-18.44,5.72-24.33,12.27C445.54,408.1,436.66,420.2,427.3,431.89Zm31.12-3,18-2.26c1.88-3.16,2.94-6.08,4.92-8.08,6.16-6.2,12.55-12.2,19.09-18,4.08-3.61,8.37-6.91,10.54-13.61C486,392.71,471.69,410.1,458.42,428.9Zm884.5,41.74c-6.24-4.19-11.83-7.47-18.78-7.78-17.74-.77-35.47-2-53.22-2.49-14.73-.42-29.49-.09-39.74-.09,5.71.65,15.93,1.74,26.13,3,18.1,2.18,36.19,4.53,54.3,6.63C1321.73,471.06,1331.83,474.27,1342.92,470.64ZM984.78,454.28c2.89,0,4.49.07,6.08,0,13.08-.67,26.26-.65,39.22-2.27,10.44-1.31,20.63-4.62,30.93-7C1051.73,437.79,995.32,445.13,984.78,454.28ZM575.45,427.51c-16.78-1-46.12,8.57-55.46,18.48,6.69,1.24,13.12,2.47,19.57,3.57a4.3,4.3,0,0,0,2.7-.7C553.38,441.75,564.47,434.59,575.45,427.51ZM636.11,425c0-.35-.09-.69-.14-1-4,.29-8.59-.59-11.94,1.05a120,120,0,0,0-40.29,32.15c2.31.41,4.92.86,6.57-.2,5.84-3.74,11.3-8.07,17-12.05C616.87,438.27,626.51,431.67,636.11,425ZM514.76,422.3l17.55-2.12c1.77-17.88,16.87-25.12,28.09-36.57-9.3-.58-15.69,3.49-20.53,8.61C531.05,401.54,523.33,411.89,514.76,422.3ZM597.46,387c-9.39-.79-30.38,17.17-35.67,29.25l16.39-2.37c1.91-3.51,2.92-6.24,4.66-8.39,3.22-4,7-7.51,10.27-11.43C594.69,392.18,595.74,389.85,597.46,387ZM261,371.47l.06-1.5c-47.63-4.09-95.32-6.56-143.17-5.29Zm245,51.23c.84-7.95,5.26-13.73,9.86-19s10.37-9.27,15.63-13.83c-19.08,6-32.35,19.23-44.06,35.26Zm130.06-18.46c8.23-.37,16.13-.2,19.64-9.46.54-1.43,2.28-2.36,3.25-3.69,2.75-3.78,5.39-7.64,8.36-11.88C656.89,377.53,643.24,388.79,636.11,404.24ZM622,381.39l-2.08-1.48c-13.27,8.17-23.41,19.71-33.61,32.7,5.94-1,11-1.69,16-2.74.88-.19,1.7-1.69,2.16-2.75,3.24-7.54,7.23-14.39,14.2-19.29C620.38,386.59,620.9,383.58,622,381.39ZM413.61,400.05c5.36-4.43,10.52-8.69,15.69-12.94l-.54-1.19-44.62,1.9v13.07c4.44-3.07,8.34-6.08,12.54-8.59C406,386.74,411.71,389.3,413.61,400.05Zm103.52,34-50.86,6.42c.45.38.66.7.9.72,12.2,1.29,24.39,2.59,36.61,3.72a5.3,5.3,0,0,0,3.46-1.5C510.32,440.71,513.23,437.79,517.13,434.07Zm23.43-14.49c4.5-1.24,9.56-1.15,10.63-3.18,4-7.63,11.36-11.94,16.49-18.32a17.81,17.81,0,0,0,3.62-6.31c.38-1.48-.93-3.4-1.48-5.11-1.71.7-3.94.95-5,2.2-2.69,3.09-4.69,6.76-7.25,10C552.35,405.39,547,411.79,540.56,419.58Zm105.82-40.53c-10.42-2.82-24.55,16.47-28,29.05,3.1-1.56,6-2.2,7.64-4,5-5.51,9.45-11.46,14.11-17.25C642.1,384.44,644,382,646.38,379.05ZM95.07,410.54l23.06-16.92H91.85C99.23,398.84,94.92,404.37,95.07,410.54Zm1472,97.62c-.35-9.24,4.6-15.12,11.2-20.15,1-.8,1-3.06,1.56-5-5.83-.06-9.49,2.34-11.88,6.39-3.4,5.76-6.41,11.76-9.71,17.87Zm-17.1-1.53c-.68-10.2,8.8-14,12.51-21.14-7.55-1.93-16.48,8.72-23,19.68ZM578.71,388.73c16.83-9.86,18.85-10.14,24.6-2.87l6.68-6.08h-38.5ZM1481,495.52c-.94-7.34,4.28-10.56,9-14.15,1.48-1.14,2.81-2.44,4.84-4.22-9.12-2.06-16.24,3.74-23.14,17.56ZM709.1,376.43c-4.4,1.42-7.73,2.32-10.9,3.6-1.77.72-4,1.71-4.78,3.22-2,4.17-3.4,8.67-5.18,13.47l9.27-1.67C697.79,386.85,704.28,382.89,709.1,376.43Zm39.36,10c4-.66,7.37-1.17,10.75-1.82,1.23-.23,2.82-.45,3.51-1.28,3-3.67,5.79-7.57,8.5-11.19C760.14,370.15,754.53,378,748.46,386.46Zm-27.61,4.61c-3.37-7.13,1.91-11.14,5.82-16.18-13.73-.51-12.46,12.78-19.54,17.78l.68,1Zm-354.12-2.73-.35-1.15-17.66,1.53c.37,5,.69,9.3,1,14Zm-212.34,4.48H135.44c-.24,4.23-.47,8.2-.76,13.12Zm356,52.68c10.61-2,18.31-10.07,28.25-13.43C526.93,431.64,517,435.07,510.38,445.5Zm963.73,31c-9.45.14-18,6.61-20.34,15.08l7.21,1.5C1460.11,483.42,1470.71,483.26,1474.11,476.5ZM69.27,395.75v13.13l18.85-15Zm1376,72.57c-10.69-1.29-13,9.72-20,15.57l5.89,1.59c-.72-.83-1.44-1.65-2.15-2.48ZM747,372.79c-3.79.84-7.35.54-8.61,2.1-3.51,4.34-6.06,9.45-9.27,14.71l12.76-2.2C737.19,380.62,743.82,378.1,747,372.79ZM20.46,494.57l-.54-2.12c-2.55,0-6-1-7.48.23C9.66,495,7.85,498.61,6,501.88c-.54.94-.33,3.15.39,3.74a3.81,3.81,0,0,0,3.78-.11C13.75,502,17.05,498.25,20.46,494.57Zm1474.8,2.74,11.51-18.76c-9.69,1.91-12,12.46-20.29,17.45ZM34.58,495.87c-3.75.78-7.16.47-8.75,2-2.95,2.88-8,5.11-6.66,11C27.27,508.78,31,503.87,34.58,495.87Zm645-109.35c-7.58,2.2-12.63,7.18-17.22,14.18l11.56-1.78C676.14,394,677.8,390.38,679.56,386.52Zm-135.27-5.64L515.77,383c.37,2.44.65,4.33,1,6.66,2.47-1.27,4.53-2.82,6.85-3.43,3.91-1,8.29-2.72,11.9-1.82C539.77,385.49,541.84,383.75,544.29,380.88ZM37.92,412.8l14.56-13.68-.62-1-13.94,2.64Zm131.54-20.24c.88,3.4,1.7,6.53,2.55,9.8l13.57-8.94-.38-.86H169.46ZM1529.13,502.91c3.72.21,16-16.3,16.75-22.15C1535.74,485.22,1536.38,497,1529.13,502.91Zm-20.48-3.12c1.06-10,8.78-15.41,14.79-23.11-5.78.56-8.64,3.15-10.77,7.2-2.51,4.73-5.4,9.26-8.29,14.16Zm79.47-21.92-.27-1.74h-36.21c.49,1.83.86,3.2,1.25,4.61,8.13-4.25,9.86-4.35,13.58-2.26,1.35.75,3.33.56,5,.52,4.13-.11,8.25-.34,12.38-.59C1585.29,478.32,1586.7,478.05,1588.12,477.87ZM787.39,371.92c-5.69,1.8-10.88,3.83-13.12,10.11C784.22,381.79,787,379.7,787.39,371.92Zm-292.06-2.18c.09-.39.19-.78.29-1.17L467,365.26l-.67,2c1.74.81,3.46,2.27,5.22,2.33C479.44,369.88,487.38,369.74,495.33,369.74Zm-51.95,16.48c.51,3.74,1,7,1.53,11.14l10.81-12.17Zm973.51,95.53,12.33-13.42c-6.89,1.85-13.08,4.45-15.3,12.29ZM1097.82,382.5c-3.65-5.69-8.1-8.84-13.92-10l6.38,11ZM1439,487.35c3.85,2.56,5.68,1.92,7-2,.73-2.1,3.07-3.66,4.73-5.43s3.15-3.27,4.73-4.9l-1.27-1.24C1447.63,476.16,1444.65,482.85,1439,487.35ZM86.75,505.5c-3.75-.6-5.85-1.29-7.88-1.14-1.33.1-3.25,1.15-3.68,2.25a5.33,5.33,0,0,0,.84,4.47c.55.7,2.92.74,3.91.14C82,510,83.77,508.07,86.75,505.5Zm975.38-120.35c-5.33-2.75-5.33-2.75-9.13-9-1.91-3.13-3.54-3.83-6.79-3.05,2.51,3.74,5.06,7.55,8.06,12Zm-223.4-9.48h7c.87-3.18,1.66-6.07,2.54-9.27C842,366.81,840,370.67,838.73,375.67ZM219,391.92H205.07c.15,2.39.27,4.44.42,6.87ZM862.82,366c-6.68.08-8,4.65-10.21,9h6.5ZM482.67,394.1l14.79-9C487.29,384.17,486.49,384.63,482.67,394.1Zm589.08-22.45-.75,1.05c1.89,3.67,3.77,7.33,5.88,11.45l7.16-.81Zm463.36,108.43c-6.41-.95-11.6,4.84-14.63,15.34Zm-130.29-.55c3.28-4.8,6.06-8.89,8.85-13l-.44-.61-13.65,11.71.93,1.32ZM948.91,376.31c-5.19,3.57-.73,6.7-.18,9.75h7.55ZM123.24,506.93l-1.07-1.26-8.78.76c.78,3,1.39,5.42,2,7.8l1.71.41Zm139-108.49,7.42-5.5-.76-1.14H257ZM7.3,413.4l12.48-8.77C7.18,405.24,5.67,406.32,7.3,413.4ZM59.73,502c1,3.39,1.23,7.28,2.45,7.62,4.3,1.21,5.27-3,7.5-6.07ZM818.55,370.21c-6.5-.36-7.65.66-9.67,7.92C815.05,378.89,815.44,372.9,818.55,370.21ZM342.09,366l-17.36,3.7C339.44,371.31,341.41,371,342.09,366ZM107.69,506.46c-5.38.13-7.25,2.36-7.2,8.15C105.59,514,107.41,512,107.69,506.46ZM1036.1,373.29l-1.06,1.1c3.27,7.25,7.76,11.23,11.94,10.43ZM55.24,502.12c-4.83-2.78-6.88,0-8.6,2.83-.55.91-.15,2.39-.19,3.6,1.18-.08,2.78.3,3.47-.32A64.2,64.2,0,0,0,55.24,502.12Zm885.3-115c-2.15-7.79-5.42-9.62-10.89-7.1Zm82.69-11.23-.88,1a72.16,72.16,0,0,1,5.68,6.48c2.5,3.63,2.35,3.74,7.29,1.71C1031.08,381.88,1027.16,378.88,1023.23,375.89Zm-53.88,10.33c-2.54-3.77-4.66-6.93-6.78-10.09l-1.66.86,3.19,9.23Zm11.69-.11-8.63-9.58,1.54,9.58ZM98.18,506.39c-3.58-.44-6.75-1.41-7.72,2.73-.19.82.43,2.6.91,2.69C95.32,512.57,96.56,509.64,98.18,506.39Zm724.21-130.9c7,1.79,7.22,1.6,9-6.47Zm171.89,10.65-8.71-9.1-.83.87,3.28,8.23Zm-959.52,122c3.61-.55,8.79-6.42,8-8.85l-3-.79ZM1104.52,381.87l5.57-1c-4.6-7.31-4.6-7.31-7.12-6.9C1103.44,376.37,1103.91,378.79,1104.52,381.87Zm-188-.69c1.85,3.88,3.73,6.61,8.64,4.49C922.72,383.27,922.32,378.28,916.47,381.18Zm86.65,4.78h5.74l-11.24-10-.27.53C999.14,379.45,1000.93,382.37,1003.12,386Zm-61.89-18.89c0,.85.09,1.69.14,2.53L958,368.07A70.58,70.58,0,0,0,941.23,367.07Zm-806,139.35-.86-1h-6.67c1.09,2.41,1.84,4.09,2.6,5.78ZM800.37,373.34l-.83-.91-7.74,7C799,381.52,797.87,375.42,800.37,373.34Zm210.3,2.62-1.42,1.22,8.27,9.45.87-.85Q1014.54,380.88,1010.67,376Zm-124.5-7.49-7.1,4.74C882.56,374,886.24,375.28,886.17,368.47ZM270.08,428l1.26.79,7.41-11.41-1.38-.87Z"/><path d="M367.85,320.57c-1.32,0-2.73.3-3.94-.08-1.73-.53-4.53-1.34-4.73-2.43-.5-2.69-.84-5.8,3.5-6.83s8.53-3.48,12.95-4.62c2.58-.66,7.73-.55,7.92.2.95,3.67.73,7.67.61,11.54,0,.44-1.9,1.07-3,1.19-4.43.48-8.88.8-13.32,1.18Z"/><path d="M398.12,306.1c7.7,2.16,14.37,3.91,20.94,6,1.17.38,2.66,2.25,2.59,3.34s-1.84,2.74-3,2.9c-4.9.67-9.88.71-14.8,1.27-4.24.49-5.71-1.53-5.69-5.36C398.14,311.81,398.12,309.38,398.12,306.1Z"/><path d="M417.43,348.61c-5.91-.64-8.3-4.74-7.36-10.2.19-1.11,1.9-2.91,2.7-2.8,8.11,1.06,10.94,3.23,9.55,8C421.64,345.9,418.55,347.52,417.43,348.61Z"/><path d="M374.1,344.15c-.11,5-4.23,4.77-7.78,5.24-4.4.58-5-2.69-5-5.69-.06-3.86,1.87-6.15,6.16-6.06C371.55,337.73,374,339.81,374.1,344.15Z"/><path d="M395.33,342.74c-.14,4.07-2.73,6.92-6.26,6.83-4.17-.11-5.7-3-4.94-6.32.55-2.42,2.55-5.89,4.48-6.33A5.53,5.53,0,0,1,395.33,342.74Z"/></svg>