<?xml version="1.0" encoding="utf-8"?>
<!-- Generator: Adobe Illustrator 22.1.0, SVG Export Plug-In . SVG Version: 6.00 Build 0)  -->
<svg version="1.1" id="Layer_1" xmlns="http://www.w3.org/2000/svg" xmlns:xlink="http://www.w3.org/1999/xlink" x="0px" y="0px"
	 viewBox="0 0 1686.7 393.5" style="enable-background:new 0 0 1686.7 393.5;" xml:space="preserve">
<path d="M1570.7,269.1c0.5-4.1,0-6.7-3.7-8.7c-4.3-2.4-3.1-12.6,1.4-15.7c1.1-0.8,1.9-2.1,3-2.9c1.7-1.1,3.6-2.7,5.5-2.8
	c2.6-0.2,4.7,1.2,4.7,4.5c0,0.9,0.5,2.2,1.2,2.7c5.2,3.8,5.5,7.2,0.9,12.6c-4.2,4.8-4.2,4.8-3.5,9.7c10.6,0,21.1,0,31.8,0
	c0-4.1,0-7.8,0-12.1c-4.3-1.4-8.9-3-13.5-4.4c-3.8-1.2-5.2-6.8-1.5-10.9c3.1-3.5,3.8-6.4,2.9-10.9c-1.1-5.4,1.6-8.3,7.3-9.5
	c-1.5-4.4-0.2-7.4,4.6-8.5c0.9-0.2,1.7-0.9,2.5-1.5c5.9-4.9,10.5-5.5,14.6,0.9c2.7,4.3,6.9,7.7,8.7,11.9c2,4.7,4.1,9.3,6.1,14
	c1.5,3.4-0.5,7.5-4.3,8.2c-3.1,0.6-4.3,2.1-4.7,4.8c-1.3,8.2-3.5,8.9-12.1,7.3c0,3.3,0,6.5,0,10c21.1,0,42.3,0,63.8,0
	c1.1,12,1.4,24-6.9,35.1c2.8,0.3,4.7,0.5,6.9,0.7c0,2.8,0,5.7,0,9.1c-5.4,0-10.7,0.1-16,0c-39.1-1.1-78.2-1.8-117.3-3.6
	c-34.9-1.7-69.7-4.4-104.6-7.2c-17.2-1.4-34.3-4.1-51.5-5.9c-21.6-2.3-43.1-1.9-64.7,0c-25.4,2.2-50.8,3.4-76.3,3.8
	c-43.1,0.6-86.2,0.5-129.3-0.1c-30.1-0.4-60.2-2.7-90.3-3.2c-22.7-0.3-45.6-0.3-68.2,1.9c-18.4,1.8-36.4,7.5-54.7,10.7
	c-16.5,2.9-33.2,4.7-49.8,6.9c-3.9,0.5-7.9,1-11.9,1.9c10.4,0,20.8,0.1,31.3,0c10.8-0.1,21.6-0.3,32.5-0.4c10.7-0.1,21.3-0.1,32-0.1
	c10.8-0.1,21.6-0.2,32.5-0.2c10.7,0,21.3-0.1,32-0.1c10.8,0,21.6,0.1,32.5,0.1c10.7,0,21.3,0,32,0c10.8,0,21.6,0,32.5,0
	c10.7,0,21.3,0,32,0c10.8,0,21.6-0.1,32.5-0.1c10.7,0,21.3,0.1,32,0c10.8,0,21.6,0,32.5-0.1c10.7,0,21.3-0.1,32-0.2
	c10.6-0.1,21.3-0.2,31.9-0.2c10.8,0,21.6,0.4,32.5,0.4c10.6,0,21.3-0.3,31.9-0.3c10.8,0,21.6,0.3,32.4,0.3c10.7,0,21.3-0.2,32-0.2
	c10.8,0,21.6,0,32.5,0c10.7,0,21.3,0.1,32,0.1c10.8,0,21.6-0.1,32.5-0.2c10.6-0.1,21.3-0.1,31.9-0.2c10.8-0.1,21.6-0.3,32.4-0.3
	c10.7-0.1,21.3,0,32,0c10.8,0,21.6-0.3,32.5,0c10.2,0.3,20.6-1,30.7,1c0,0.6,0,1.3,0,1.9c-1.7,0.3-3.4,0.8-5.1,0.8
	c-57.9,0.2-115.9,0.4-173.8,0.6c-86.4,0.3-172.8,0.6-259.2,0.7c-35,0.1-69.9-0.2-104.9-0.2c-67.7,0-135.5-0.1-203.2,0.1
	c-51.8,0.1-103.5,0.6-155.3,1c-9.3,0.1-18.6,0.7-27.9,1.1c-1.3,0.1-2.8,0.2-3.8,0.9c-4.2,3.1-5.6-1.5-8.3-2.8c1.1-1.9,2-4,3.4-5.7
	c3.1-4,6.6-7.7,9.7-11.8c0.5-0.7-0.1-2.3-0.2-3.5c-1,0.3-2.6,0.2-3,0.8c-2.5,3.6-4.7,7.4-7.3,11.5c-1.4-0.7-3.4-1.6-5.5-2.6
	c1.5-4.3,2.9-8.6,4.3-12.9c-0.7-0.3-1.3-0.7-2-1c-1.2,1.1-2.7,2.1-3.5,3.5c-1.3,2.4-2.7,4.7-5.6,3.3c-1.6-0.8-2.6-3-3.6-4.3
	c-2.1,0.8-4.6,1.8-7.8,3.1c0.2-2.2,0.3-3.4,0.4-5c-1.3,0.7-2.4,1.2-4.9,2.4c1.1-2.9,1.7-4.5,2.4-6.4c-1.2-0.1-2.3-0.3-3.4-0.4
	c-23.4-1.9-46.7-3.8-70.1-5.6c-7.3-0.6-14.6-0.8-21.9-1.1c-5.9-0.2-9.3-2.7-9.5-7.3c-0.2-4.7,3.5-8,9.5-8c6.3,0,12.6,0.3,18.9,0.8
	c16.6,1.5,33.1,3.4,49.7,4.7c11.9,0.9,23.9,1,35.9,1.7c23.6,1.4,47.1,3.9,70.7,4.3c40.1,0.7,80.2,0.3,120.4,0.1
	c36.8-0.2,73.6-1.2,110.3-0.8c32.8,0.4,65.5,2.8,98.3,3.1c59.6,0.5,119.2,1.7,178.7-2c44.7-2.7,89.3-6.1,134-8.4
	c40.6-2.1,81.2-3.2,121.7-4.8C1566.9,269.2,1568.7,269.1,1570.7,269.1z M1662.3,303.6c4.3,0,7.2,0,9.3,0c3-6.5,5.8-12.5,8.5-18.4
	C1670.4,288,1669,297.1,1662.3,303.6z M1651.9,284.5c-8.4,0.4-13.3,4.6-22.4,18.5c2.6,0.2,4.8,2.5,7.3-1.3
	c3.1-4.8,7.2-8.9,10.9-13.2C1648.8,287.2,1650.1,286.2,1651.9,284.5z M1647.9,304.3c2.5-0.7,4.6-0.6,5.5-1.6
	c3.8-4.4,7.4-9.1,10.9-13.9c0.7-1,0.5-2.6,0.7-4c-1.3,0-2.8-0.2-4,0.2c-1.1,0.5-2.2,1.5-2.9,2.6
	C1654.8,292.9,1651.7,298.1,1647.9,304.3z M1633.1,284.8c-0.4-0.3-0.7-0.6-1.1-0.9c-9,3.2-9.8,13.9-16.6,19.5
	c2.4-0.2,4.7-0.3,7.1-0.5c-0.4-0.4-0.7-0.8-1.1-1.2C1625.3,296,1629.2,290.4,1633.1,284.8z M803.6,310.2c3.8,1.7,6.1,0.3,8-2.5
	c1.3-1.9,2.6-3.8,3.8-5.8c0.5-1,0.6-2.3,0.8-3.4c-1.2,0-2.7-0.4-3.6,0.1C808.1,301.2,804.4,304.4,803.6,310.2z M841.7,308.4
	c0.9-3.1,1.7-5.6,2.3-8c0.2-1,0.5-2.7,0-3c-0.9-0.6-2.5-0.8-3.5-0.5c-4,1.3-6,6.2-5.1,11.8C837.6,308.6,839.8,308.5,841.7,308.4z
	 M1602.3,286.5c-4.2-2-7.6,1.8-13.2,15.8c2,0,3.9,0,4.4,0C1596.8,296.4,1599.6,291.4,1602.3,286.5z M1610.3,303.6
	c-1.9-9.4,5.6-13.3,9.2-19.7c-2.9,0.9-6.2,1.8-7.6,4c-3.2,4.8-5.4,10.2-8,15.3C1605.2,303.3,1607.5,303.4,1610.3,303.6z
	 M789.4,312.7c1.7-0.3,3.5-0.1,3.9-0.7c2.4-3.7,4.5-7.6,6.5-11.5c0.3-0.6,0-1.9-0.5-2.6c-0.3-0.4-1.8-0.5-2.2-0.1
	c-1.9,1.9-4,3.8-5.2,6.2C790.7,306.3,790.4,309,789.4,312.7z M1536.7,300c-0.2-0.5-0.4-1-0.7-1.6c2.8-3.2,5.6-6.4,8.2-9.7
	c0.8-1,1.3-2.3,1.9-3.5c-1.5,0.2-3.6-0.3-4.4,0.6c-3.7,4.3-7.1,8.9-11,13.9C1533.2,299.9,1535,299.9,1536.7,300z M1572.6,302.1
	c2.4-0.6,4.4-0.4,5.2-1.3c3.6-4.4,6.8-9.1,10.1-13.7c-2.2-0.3-4.6,0.1-5.8,1.5C1578.9,292.6,1576.2,296.9,1572.6,302.1z
	 M1561.5,284.7c-8.7,1.4-10.4,11.1-17.8,14c0.2,0.4,0.5,0.8,0.7,1.2c2,0,4,0,6.3,0C1550,291.5,1558.6,290.5,1561.5,284.7z
	 M1577.1,285.7c-10.1,0-11.9,10.7-19.5,14c0.5,0.7,1.1,1.4,1.6,2.1C1565.8,297.2,1570.5,290.2,1577.1,285.7z M1512.1,298.6
	c1.1-2.4,1.7-4.3,2.7-5.9c1.1-1.7,2.6-3.2,4-4.9c-5.3-1.9-10.3,2.7-11.6,10.4C1508.8,298.3,1510.4,298.4,1512.1,298.6z M820.3,309.7
	c1.8-0.2,3.4-0.5,4.1-0.6c2.2-4.3,3.9-7.7,5.6-11.1C825.1,297,820.9,302,820.3,309.7z M861.6,305.6c6.1,2,6.5-2.7,7.9-5.9
	c0.5-1.1-0.2-2.7-0.3-4.1c-1.4,0.6-3.4,0.8-4,1.8C863.7,299.8,862.8,302.7,861.6,305.6z M774.1,313.1c0.8-0.1,1.9,0,2.3-0.4
	c2.6-3.2,5.1-6.5,7.5-9.9c0.3-0.5,0.1-2-0.2-2.1c-0.8-0.3-1.9-0.4-2.7-0.1C777.4,302,774,308.1,774.1,313.1z M857.1,295.8
	c-0.8-0.3-1.6-0.5-2.4-0.8c-1.6,4-3.2,8-5.1,12.8c2.6-0.3,4.3-0.6,5.6-0.7C855.9,302.9,856.5,299.3,857.1,295.8z M1524.9,298.7
	c2.8-3.9,5-6.9,7.1-9.9c0.5-0.8,0.7-1.9,1-2.9c-1.1,0.1-2.4-0.1-3.4,0.3c-0.8,0.4-1.1,1.5-1.7,2.4c-1.8,2.7-3.5,5.5-5.3,8.2
	c-0.2,0.4-0.4,0.8-0.7,1.5C1523.5,298.5,1524.7,298.7,1524.9,298.7z M768.1,301.7c-4.7,2.5-4.5,7-5.4,10.8c-0.1,0.3,1.8,1.7,2.5,1.5
	C766.7,313.5,769,304.1,768.1,301.7z M1492.2,296.4c6.4,2.6,6.1-3.3,8.8-4.8c0.5-0.3,0.3-2,0.4-3c-1.1,0-2.7-0.5-3.2,0.1
	C1496.2,290.9,1494.4,293.5,1492.2,296.4z M876.8,304.2c4.3-0.2,5.8-2.8,5.1-8C878.5,297.2,878.5,297.2,876.8,304.2z M1481.5,295.4
	c0.4,0.3,0.8,0.6,1.1,0.9c2.3-2.7,4.5-5.5,6.8-8.2c-0.5-0.4-1-0.8-1.5-1.2C1483.3,287.9,1482.5,291.7,1481.5,295.4z M887.1,303
	c6.9,0.3,8-1.3,5.3-6.8C890.6,298.4,889.2,300.3,887.1,303z M907.3,298.3c-1.7-1-3.1-2.1-3.4-1.9c-1.2,1.1-2.2,2.6-3.1,4
	c-0.1,0.1,1.6,1.7,1.8,1.5C904.1,301,905.4,299.9,907.3,298.3z M1467.6,294c6.1,1.9,5.4-3.5,8.3-4.9c-0.5-0.5-1-1-1.4-1.5
	C1472.1,289.7,1469.9,291.8,1467.6,294z M771.9,296c0.5,1.9,0.9,3.2,1.4,5.1c2.2-1.4,3.9-2.5,6.9-4.4
	C776.6,296.4,774.7,296.2,771.9,296z"/>
<g>
	<title>мечеть2</title>
	<g id="мечеть_1_">
		<g id="покрас_1_">
			<polygon fill="#FFFFFF" points="175.3,184.8 301.8,159.5 465.2,182.6 463.1,265.9 327.6,267.5 174.8,271.2 			"/>
			<polyline fill="#C3C0B7" points="162.6,177.9 300.2,135.2 480.5,176.8 461,180.6 301.8,159.5 175.3,184.8 162.6,177.9 			"/>
			<polygon fill="#C3C0B7" points="174.2,222.9 302.9,209.7 464.3,221.8 463.1,265.9 256.7,266.6 174.8,271.2 			"/>
			<polygon fill="#FFFFFF" points="283.4,137.2 282.3,122.3 286.2,113 286.2,87.1 288.7,73.6 305,73.6 307.9,97.7 306.8,120.1
				312.5,135.1 			"/>
			<polygon fill="#C3C0B7" points="280.5,71.1 297.9,11 313.9,71.1 308.9,73.9 282.6,73.9 			"/>
			<polygon fill="#868D64" points="81.3,288.6 181.1,271.7 478,266.2 588.2,272.2 639,279.3 571.3,294.1 526.5,298.4 522,296.1
				502,291.3 440.7,288.8 383.8,288.1 366.6,286.4 337,288.8 290.5,291.3 263.2,295 239.5,295.4 224.7,296.8 174.3,305.4
				154.7,302.9 87.5,294.7 			"/>
			<polygon fill="#C6BF5E" points="182.3,308.8 221.9,327.1 345.2,318.1 451,324 465.1,315 537.5,298.1 504.1,291.6 409.7,288.1
				383.8,288.1 366.6,286.4 312.5,289.9 270.5,293.7 253.2,295.4 239.5,295.4 219.8,297.4 184,304.3 			"/>
			<polygon fill="#C6BF5E" points="574.3,294.1 649.5,281.6 675.9,283.3 692,287 721.8,298.6 746.2,311.4 748.4,316.2 745.9,321.3
				764,333.5 768.6,342.9 753.8,341.4 681.3,327 641,320.7 604.7,316.5 555.4,313.1 493.3,311.7 512.1,303.7 			"/>
			<polygon fill="#C6BF5E" points="230,325.8 280.1,333.9 304,339.6 324.5,349 338.6,357.5 320.8,362.5 297.2,367.5 240.1,388.4
				235,384 206.1,375.6 168.4,368.2 128.4,362.8 130.1,354.4 156.3,340.3 179.2,329.2 196.4,324.5 211.5,324.2 			"/>
			<polygon fill="#DCB775" points="358.5,318.1 448.3,325.8 506.4,333.2 503.4,337.6 495,342.7 463,353.4 449.6,356.1 434.5,351.4
				415.3,344.3 384,337 380,331.6 355.8,322.2 			"/>
			<polygon fill="#C6BF5E" points="311.4,365.2 331.5,358.5 359.5,359.5 391.7,362.5 407.9,369.6 444.9,364.2 458,362.5 449.6,356.1
				465.1,353.1 499.7,340.3 509.8,334.6 571.7,346.7 616.4,363.2 612.4,365.2 602.9,367.9 565.6,373.6 533,376.3 531.6,380
				519.2,383.3 480.2,388.4 451.3,391.8 435.1,387.7 429.8,385.4 428.1,382 410.9,378.6 353.1,370.2 333.2,368.2 305,367.9 			"/>
			<polygon fill="#DCB775" points="255.8,324.2 358.5,318.1 369.4,328.6 380,331.6 386,337.6 415.3,344.3 441.6,353.8 458,362.5
				453.8,363.9 432.5,365.4 412,369.7 407.9,369.6 388.5,362.1 369.1,360 336.2,358.5 334.8,355.3 313.9,344.1 290.8,335.8
				252.6,329.3 			"/>
		</g>
		<g id="контур_1_">
			<path fill="#010101" d="M144.9,342.9c-2.5-0.2-5-0.5-7.5-0.6c-16-0.9-31.7,2.4-47.2,5.8c-25.5,5.7-50.7,12.8-75.4,21.4
				c-0.6,0.4-1.4,0.6-2.1,0.6c-0.9-0.2-2.3-0.6-2.5-1.2c-0.2-0.6,0.5-1.8,1.1-2.7c0.6-0.4,1.3-0.7,2.1-0.8
				c31.3-10.9,63.3-19.4,95.9-25.3c13.6-2.8,27.7-2.9,41.3-0.3c3.2,0.7,7.3-2.2,10.8-3.8s7.2-4,10.9-5.8c2.7-1.4,5.4-2.5,8.3-3.4
				c4-1.3,8.2-2.2,12.3-3.3c1.7-0.4,3.4-0.7,5.2-1v-0.9c-3.7-1.9-7.5-3.4-11.4-4.6c-15-3.3-30-6.8-45.2-8.8
				c-19.8-2.7-39.7-4.4-59.6-6c-16.3-1.5-32.7-1.1-48.9,1.1c-6.1,0.9-12.6-0.9-19-1.6c-3.5-0.4-6.9-1-10.4-1.4
				c-0.9,0-1.8-0.2-2.7-0.4c-0.6-0.4-1-1-1.1-1.7c0-0.5,0.8-1.2,1.4-1.4c9.6-2.8,19.4-4.9,29.4-6.3c20-2.4,40-5.9,59.9-8.8
				c9.3-1.4,18.7-2.4,28.5-3.7c-2.3-2.9-3.5-5.7-7.5-5.8c-4-0.1-4.8-3.3-6-6.3c-1.1-3-2.5-6.3-3.8-9.4c-0.2-0.6-0.7-1.2-0.7-1.8
				c0-7.5,0-15.1,5.1-21.4c0.8-1,1.5-2,2.1-3.2c3-6.4,4.6-7.2,12-5.9c-0.8-3.3,1.3-6.7,4.7-7.4c0.2,0,0.4-0.1,0.7-0.1
				c3.5-1.1,7.3-0.1,9.6,2.7c3-2.7,6-3.2,8.4-1.1c3-1.6,6.1-2.8,9.4-3.7c3.7-0.8,7.3,1.6,8,5.2c0.3,1.4,0.1,2.8-0.4,4.1
				c-0.7,2.1-0.1,4.5,1.7,5.9c2.4,2.7,4.9,5.1,5,9c0.1,0.5,0.3,1,0.7,1.4c2.7,4.2,2.2,5.6-1.1,9.1c-1.1,1.7-1.4,3.8-0.7,5.7
				c2.7,6.4,1.1,10-5.3,12c-0.6,0.2-1,1.3-1.5,1.9l0.6,0.6c3.3-0.7,6.6-1.3,9.8-2.3c0.7-0.2,1.2-2,1.2-3.1c0-15.4,0-30.8,0-46.1
				v-30.1c-5.7-1.2-11.3-2.3-16.7-3.6c-1.4-0.3-2.7-1-3.7-2.1c-1.8-2.2-0.8-4,2.5-5c12.8-4,25.7-7.9,38.7-11.8
				c28.1-8.6,56.1-17.3,84.3-25.8c2.1-0.3,3.6-2.2,3.3-4.3c0-0.1,0-0.3-0.1-0.4c-0.4-4-0.5-7.9-0.4-11.9c0.2-1.8,1-3.5,2.3-4.8
				c1.3-1.1,2-2.7,1.9-4.4c0-8,0-16.2,0-24.3c0.1-2,0.5-4,1.2-5.8c1.4-3.9,0.5-5.2-3.3-6.9c-1.7-1.1-2.8-2.9-3.1-4.9
				c0-2.1,0.3-4.2,1.1-6.2c3.8-14.3,7.7-28.6,11.5-42.9c0.3-1.4,3.7-19.1,4.9-21.4c0.5-1.1,1.7-1.6,2.8-1.1c0.5,0.2,0.9,0.6,1.1,1.1
				c1.5,3.5,4.1,19.5,5.2,23.6c3.8,14.5,8,29,11.9,43.5c1.4,5,0.5,6.6-4.4,7.9c-3.9,1-4.8,1.7-3.6,6c3,11.2,1,22.5,1.7,33.7
				c0,0.4,0,0.8,0,1.4c3,0.8,4.9,2,4.3,6c-0.5,3.4,0.9,7,1.2,10.7c0.2,1.9,1.1,2.3,2.7,2.7c27,6.3,53.9,12.7,80.9,19.1l84.6,20
				l0.6,0.2c1.8,0.8,4.4,0.9,4.1,3.6c-0.3,2.7-2.5,3.2-4.7,3.6c-4.6,0.7-9.3,1.5-13.9,2.1c-1.6,0.2-2.4,0.7-2.4,2.7
				c0,24.2,0,48.5,0,72.7c0,0.3,0.1,0.6,0.2,0.9c0.9,0.1,1.8,0.2,2.7,0.2c21.9,0.3,43.8,0.3,65.6,0.9c9.9,0.2,19.8,1.7,29.7,2.1
				c20.7,0.9,41.3,3.1,61.7,6.4c8.5,1.3,17,3,25.6,3.7c4.1,0.4,8.4-1.2,12.7-1.4c8.2-0.4,16.4-0.7,24.6-0.6
				c3.9,0.2,7.8,0.8,11.5,1.8c1.3,0.3,2.3,1.8,3.5,2.7l-0.3,1l-22.6,3.6c1.2,0.4,1.8,0.6,2.4,0.8c2.2,0.4,4.4,1,6.5,1.7
				c12.8,5.1,25.8,10.1,38.4,15.7c6,2.8,11.6,6.2,17,10.1c4.7,3.2,4.9,5.8,2.1,10.5c4.4,3.2,8.6,6.5,13.1,9.6s6,8,8.5,12.2
				c0.9,1.6-0.4,3.1-2.4,2.9c-3.6-0.5-7.2-0.9-10.7-1.6c-27.6-5.3-55.1-10.7-82.8-15.7c-42.4-7.6-85.3-11.7-128.3-12.3
				c-19.6-0.3-39.3-0.1-58.9,0c-6.9,0-20.9,3.5-25.4,6.3c7,0.6,13.6,0.7,20,1.8c19.1,3,38.1,6.3,57.1,9.6
				c24.5,4.3,48,12.2,71.2,20.8c2.7,1,5.3,1.7,8,2.5c2.8,0.7,4.7,3.4,4.3,6.2c0,3.2-2.3,3.6-4.5,4c-8.8,1.6-17.6,3-26.4,4.5
				c-3.4,0.6-6.8,0.9-10.1,1.7c-14.2,3.2-28.7,4.9-43.2,5c-1.7,0-3,0.2-3.8,2.1c-0.6,1-1.6,1.8-2.7,2.1c-2.8,1.2-5.6,2.1-8.5,2.7
				c-16,2.4-32.3,4.7-48.5,6.8c-6.5,0.8-13,1.3-19.5,1.6c-8,0.3-16-1.2-23.4-4.4c-0.9-0.3-1.8-0.8-2.4-1.5c-2.7-4.1-7-4.7-11.1-5.3
				c-24.4-3.6-48.7-7.7-73.2-10.3c-15.3-1.6-30.9-0.7-46.4-0.9c-2.2,0.1-4.4,0.6-6.5,1.5c-16.8,6.1-33.7,12.3-50.5,18.5
				c-2.1,0.8-3.5,0.8-4.3-1.9c-0.7-1.5-2-2.6-3.6-3c-10.2-3-20.4-6.2-30.8-8.6c-10.4-2.4-21.4-4.4-32-6.1c-13.3-2.1-27-3.7-40.6-5.6
				c-1.4-0.1-2.7-0.6-3.9-1.3c-0.8-0.6-1.8-2.5-1.4-3c2.2-3.9,3-8.7,8-10.7c4.1-1.9,8.2-4.1,12-6.5L144.9,342.9z M448.3,314.4
				c-3.6-0.6-4.6-2.5-2.4-5.5c2.5-3.6,5.5-6.8,8.3-10.1c1-1.3,2.2-2.4,3.3-3.6l-0.6-0.6c-3.6,1.6-6.7,4.3-8.9,7.6
				c-3.1,4-6.2,8-9.5,11.6c-1.1,1.2-2.7,1.9-4.3,1.8c-0.8,0-1.3-2.5-1.9-3.8c-1.5,1.4-3.2,2.7-4.9,3.8c-1.1,0.5-2.3,0.5-3.4,0
				c-0.7-0.9-1-2.2-0.7-3.4c0.4-1.3,1-2.6,1.9-3.6c3.2-4,6.5-8,9.8-11.8c-2,0.6-3.8,1.6-5.3,3.1c-4,5.3-7.5,10.7-11.3,16.2
				c5.7,0.4,11.3,1.3,16.8,2.5c5.7,1.6,9.2-1.9,13.3-4.2c2-0.8,4.5-1,5.8-2.5c2.5-3.2,4.7-6.5,6.8-9.9c1.1-1.6,2.3-3.1,3.5-4.7
				l-1-0.8c-1.6,1.8-3.4,3.5-4.9,5.3C454.9,306,451.6,310.2,448.3,314.4z M332.4,356c-0.4-0.3-0.8-0.6-1.2-0.9
				c-15.5-9.5-32.8-15.8-50.7-18.7c-11.6-2-23.5-2.8-35.2-4.4c-7.7-1.2-15.6-1.1-23.3,0.2c-2.5,0.2-5-0.1-7.4-1.1
				c-3.8-1.3-7.5-4.4-11.2-4.4c-6.6,0.2-13.2,1.2-19.5,3.2c-9.1,3.2-17.9,7.4-26.1,12.5c-7.4,4.2-15.1,8-22.7,11.7
				c-3,1.5-4.8,3.4-3.9,6.9c10.1,1.5,20.2,3.3,30.3,4.6c23.8,2.7,47.4,7.7,70.3,14.9c2.9,0.9,5.6,2.2,8,4c1.2,1.1,3,1.4,4.5,0.7
				c10.3-3.9,20.6-7.7,30.9-11.5c13.1-4.8,26.1-10,40-11.7c1.8-0.4,3.5-0.9,5.2-1.7c3.9-1.4,7.7-2.9,11.8-4.4H332.4z M507.8,309.8
				v1.2h1.5c35.6-0.5,71.3,0.9,106.8,4.3c26.5,2.7,52.7,6.8,78.7,12.4c22.2,4.6,44.5,8.2,66.7,12.3c0.8,0.1,1.6,0.1,2.4,0l0.6-0.8
				c-2.4-2.8-5-5.3-7.8-7.7c-4.5-3.3-9.4-5.9-14-9c-0.9-0.6-1.4-1.9-2.1-2.9c1-0.6,1.9-1.3,2.9-1.9c1-0.6,2-0.7,2.2-1.4
				c0.2-0.6-0.5-1.7-1-2.4c-0.7-0.7-1.4-1.3-2.2-1.8c-11.4-8.2-24.3-13.2-37.4-18c-4.6-1.7-9.1-3.5-13.7-5.2c-1.9-0.9-4-1.5-6.1-1.9
				c-9.9-0.7-19.9-2.3-29.7-1.6c-13.2,1-26.4,3-39.3,6c-23.6,5.5-47.5,9.4-71.6,11.8c-12.6,1.2-24.9,4.3-37.2,6.5L507.8,309.8z
				 M608.5,364.8c-1.2-0.6-1.7-0.8-2.1-1c-30.8-12.3-62.8-19.7-95.4-25.4c-1.4-0.1-2.9,0.1-4.2,0.7c-4,1.7-7.8,4-12,5.3
				c-13.1,4-24.9,11.6-38.9,13.3c1.3,1.1,2.8,1.7,4,2.7s2.2,2.2,2,3.1c-0.2,0.9-1.7,2.1-2.8,2.7c-1.1,0.3-2.3,0.4-3.5,0.2
				c-9.2-0.3-18.3,0.6-27.3,2.7c-4.3,0.8-8.5,1.6-12.8,2.4c-0.4,0-0.8,0.4-1.2,0.4c-1.9,0.5-3.8,0.6-5.7,0.3
				c-4.5-1.4-8.7-3.5-13.1-5.1c-3.3-1.4-6.8-2.5-10.4-3.1c-18.4-2.5-37-3.1-55.6-2.1c-3.2,0.6-6.3,1.7-9.3,3.1l0.3,1.3
				c4.9,0,9.8-0.2,14.7,0c30.4,1.7,60.1,7.5,90,12.3c2.3,0.4,5.6,1.5,6.3,3.2c1.4,3.5,4.2,4,6.9,4.8c8.1,2.3,16.7,2.8,25,1.4
				c19.8-2.7,39.6-4.9,59.4-7.4c2.5-0.5,4.9-1.1,7.3-1.9c-0.6-4.5-0.2-4.9,4.1-4.9c5.2,0.1,10.5-0.1,15.7-0.6
				c18.4-2.3,36.8-5,55.2-7.5C605.8,365.6,606.6,365.2,608.5,364.8z M294.8,208.1c3.2-14.3,1.1-28.3,1.8-42.7l-119.1,22.9v32
				c0.8,0,1.6,0,2.4,0c24.7-2.7,49.4-5.1,74.1-8c4.2-0.5,8.4-2.1,12.6-2.9c2.7-0.2,5.3-0.2,8,0c0.9,0,1.9,0.6,2.7,0.5
				C283.4,209.4,289.1,208.7,294.8,208.1z M341.6,187.4c3.3-0.5,5.9-0.6,8.4-1.2c2.5-0.9,5.3-0.1,6.9,2c1.7,2.4,1.7,5.5,0,7.8
				l-2.3,3.7c4.1,2.1,7,6,8,10.5c0.3,0.8,1.1,1.4,1.9,1.6c6.9,0.6,13.8,1.1,20.8,1.3c1.6-0.3,2.9-1.3,3.6-2.7c1-2.7,3.6-4.4,6.4-4.4
				c0.8,0.1,1.7-0.1,2.4-0.4c2.4-2,4.8-4.1,6.9-6.3c2.6-3.2,7.1-4,10.7-1.9c5.1,3.3,10.3,6.8,9.9,14.1c0,0.3,0.2,0.6,0.4,1.1
				l3.3-0.8c-2-4.3-1.8-9.2,0.5-13.3c2.2-3.6,5.7-3.7,7.3,0.2c0.8,2.9,1.3,5.9,1.5,8.9c0.5,3.5-0.2,6.4-4.8,7.2
				c9.2,1.5,17.8,4.7,27.7,3.5c-0.5-10-1-19.8-1.7-29.4c-0.3-1.2-1.1-2.2-2.2-2.7c-5.2-1.3-10.4-2.4-15.7-3.3
				c-4.1-0.7-8.2-1-12.4-1.5l-53.4-6.8c-17.9-2.5-35.8-4.9-53.8-7.2l-18.7-2.3v31.2c2.1,0.2,4,0.5,6,0.6c0.6,0,1.6,0,1.9-0.5
				c1.5-1.9,2.8-4,3.7-6.2c1.2-3.6,3.2-6.9,6-9.6c2.5-2,5.3-3.5,8.4-4.4c4.6-2.2,8-0.4,11.5,2S343.5,183.4,341.6,187.4z
				 M269.5,329.1v0.8c1.1,0.2,2.2,0.5,3.4,0.7c13.5,1.8,26.6,5.3,39.2,10.4c8.6,3.7,16.9,8.1,24.9,13.1c3.1,2.1,6.7,3.2,10.5,3.2
				c9.3,0.2,18.7,0.7,27.8,1.2c9,0.2,17.8,2.4,25.8,6.5c6.7,3.7,14,3,20.9,1.3c9.4-2.7,19.2-4.1,29-4.2c0.6,0,1.1-0.1,1.7-0.3
				c-0.4-0.5-0.6-0.8-0.8-0.9c-1.6-0.9-3.2-1.7-4.9-2.5c-17.8-8.2-36.7-13.1-55.8-17.5c-4.1-0.9-8.6-1.1-10.7-5.8
				c-0.4-0.5-0.9-0.9-1.5-1.2c-8.7-4.9-18.2-8-28.1-9.2c-9.6-0.4-19.2-0.2-28.8,0.6c-12.7,0.6-25.3,1.5-38,2.4
				C279,328.3,274.2,328.7,269.5,329.1z M613.8,281.6l-0.1-1.1c-66.6-5.9-133.4-7.5-200.2-4.8v10.4c0.5,0.2,1.1,0.3,1.6,0.3
				c15,0.5,30.1,1,45.1,1.5c18.4,0.7,36.9-1.1,55,3.5c10.3,2.7,21,1.5,31.5,0.8c9.1-0.6,18.1-1.6,27-3.1c13.3-2.2,26.7-5.1,39.9-7.7
				H613.8z M269.5,291.8c-0.2-2.8-0.3-5.3-0.5-7.7c0-1.5,0.2-3.9-0.7-4.5c-2.4-2.2-5.4-3.7-8.6-4.4c-7-0.3-14.1-0.2-21.1,0.3
				c-13,0.5-26,1.1-38.9,1.9c-9.2,0.4-18.4,1.4-27.6,2.9c-11.6,2.1-23,5.3-34.5,8.2c-1,0.5-1.7,1.5-1.8,2.7c0.1,1.9,0.4,3.9,0.9,5.7
				l1.5,0.3c11.1,1.9,22.3,3.8,33.4,5.6c1.7,0.3,3.4,0.3,5.1,0c9.9-1.5,19.8-3.1,29.7-4.6c8.3-1.3,16.6-3.1,25-3.8
				c10.3-0.9,20.7-0.9,31-1.4C264.8,292.6,267.1,292.2,269.5,291.8z M239.3,239.4c-1-3.3-2-6.3-2.7-9.3c-0.3-1.2-0.5-3.2,0.2-3.7
				c1.3-0.8,2.7-1.2,4.2-1.1c0.7,0,1.5,0.6,2.3,0.9c1.3-3.1,3.2-5.1,6.6-4.6c3.7,0.6,7.3-1.4,8.7-4.8l-81.2,8.6v38.8h14.7
				c0.4-5.6,0.8-10.7,1.2-16c0-0.2,0-0.4,0-0.6c0.8-3.2,3.8-5.5,7.2-5.3c3.3,0.6,4,3.2,4,6c0,5.2,0,10.3,0,15.8l44.9-1.7
				c-1.3-1.3-2.7-3.2-3.4-3.2c-2.6,1.1-5.7-0.2-6.7-2.8c-0.1-0.2-0.1-0.4-0.2-0.6c-0.3,0.5-0.7,1-1.2,1.5c-1,0.8-2,1.5-3,2.2
				c-0.6-1.2-1.8-2.4-1.8-3.6c-0.1-1.9,0.2-3.8,0.9-5.6C235.2,246.1,233.1,240.6,239.3,239.4z M370,324.1v1.4
				c1.6,0.5,3.2,1.1,4.8,1.8c3.1,1.2,5.9,2.9,8.4,5c2.4,2.5,5.6,4.1,9.1,4.5c17.6,3.7,34.9,8.8,51.6,15.4c1.9,0.7,3.9,1,5.9,1
				c6.9,0.1,13.7-1.2,20-3.7c8.9-3.4,17.8-6.9,26.7-10.4c1.4-0.6,2.7-1.3,4.1-1.9c-1.5-0.9-3.3-1.4-5-1.5c-25.2-3-50.4-6.2-75.6-8.7
				C403.4,325.4,386.6,325,370,324.1z M267.2,304.7c-4.1,0.8-5.3,1.6-5.3,3.8c-0.1,4.8-3.5,9-8.2,10c-1.2,0.3-2.5,0.1-3.5-0.7
				c-0.6-1.2-0.8-2.5-0.4-3.8c0.6-1.6,1.5-3.2,2.5-4.6c-2.9,0.4-5.6,1.8-7.5,4c-1.9,2.2-4.2,4-6.7,5.3c-1.9,1.1-4.5,2.9-6.2,0
				s1.2-4.1,3-5.5c1.8-1.4,4.5-3,6.7-4.5c-9.8,0-14.7,7.7-21.5,12.5c0.5,0.3,1,0.4,1.5,0.3c8.3-1.3,16.8-1.3,25.2,0
				c3.5,0.3,7,0.2,10.5-0.4c5.7-0.8,11.3-2.5,17-3c9.6-0.7,19.2-0.5,28.8-1.1c8.9-0.6,17.8-2.2,26.7-2.5c14.9-0.4,29.9,0,44.8,0
				h13.3c1.2-2.4,2.6-4.6,4.2-6.6c4.6-4.4,9.6-8.4,14.4-12.7c1.3-1.1,2.4-2.3,3.6-3.5l-0.7-0.8c-4.4,0.9-8.3,3.1-11.3,6.4
				c-3.4,3.9-7.1,7.7-10.9,11.2c-0.8,0.7-2.7,0.3-4.1,0.5c0-1.5-0.7-3.4,0-4.3c2.5-2.9,5.2-5.7,8-8.3c1.4-1.3,2.9-2.4,4.4-3.6
				c-4.5,0.5-8.7,2.6-11.9,5.8c-2.3,2.5-4.8,4.9-7.3,7.2c-1.3,1.3-3,2.7-4.8,1.1s-0.7-3.7,0.6-5c2.5-2.7,5.3-4.9,8-7.3
				c1.1-0.9,2.2-1.8,3.3-2.7l-0.5-0.8c-4.2,1.7-8.6,3-11.9,6.7c-2.8,3.2-5.9,6.1-9.2,8.8c-1.2,0.7-2.7,0.7-4,0
				c-0.7-1.1-0.9-2.5-0.4-3.7c1-1.8,2.3-3.3,3.8-4.6c2.2-1.9,4.6-3.5,7-5.2l-0.5-0.9c-2.8,1.4-5.5,3.1-8,5.1c-3.8,3.7-7,8-10.7,11.8
				c-1.3,1.2-3,1.9-4.7,1.9c-1,0-1.7-2.3-2.5-3.5c-2.3,1.8-4.6,3.4-7.1,4.8c-1.5,0.9-3.4,0.4-4.3-1c-0.6-0.9-0.6-2.1-0.1-3
				c0.8-2.1,2.1-3.9,3.6-5.6c2.2-2.3,4.7-4.3,7-6.4c-2.1,0.4-4.1,1.3-5.8,2.7c-3.3,3-6.2,6.4-9.4,9.5c-1.3,1.3-2.7,2.4-4.4,3.2
				c-1.4,0.2-2.8,0.2-4.1,0c-0.3-1.4-0.3-2.8,0-4.1c0.9-1.6,2-3,3.4-4.2c2.2-2.1,4.6-3.9,7.1-6.1c-4.2,0.3-8,2.6-10.1,6.3
				c-1.5,2.2-3.3,4.2-5.2,6.1c-1.4,1.4-3.4,2.9-4.9,1c-0.8-1.6-0.9-3.5-0.2-5.2c1-1.8,2.2-3.4,3.6-4.8l-0.6-0.7
				c-1.6,1.2-3.3,2.3-4.9,3.6c-2.4,2.1-4.6,4.5-7.1,6.4c-1.1,0.6-2.3,0.6-3.4,0c-0.8-0.9-1-2.2-0.6-3.4c0.9-1.8,2.2-3.4,3.7-4.7
				c1.7-1.4,3.5-2.6,5.3-3.7c-4.7-0.9-9.5,1-12.1,5c-2,2.6-4.4,4.9-7.1,6.8c-1.3,0.6-2.8,0.6-4-0.2c-0.8-1.1-1.1-2.6-0.6-4
				c0.9-1.9,2.1-3.6,3.4-5.2c-3.6-0.5-6.9,1.9-7.5,5.5c-0.9,3.3-3.3,5.9-6.5,7c-1.2,0.4-2.4,0.2-3.5-0.5c-0.7-1-1-2.2-0.7-3.4
				C265.4,307.8,266.2,306.2,267.2,304.7z M435.3,261.8c1.6,0,2.7,0,3.8,0c5.3,0,10.7-0.4,16-0.2c3.1,0,3.8-1.3,4-4
				c0.2-3.5,0.4-7,0.7-10.5c0.5-7.8,1-15.6,1.5-23.8l-15.6-1.1c0,1.5-0.4,2.8,0,3.6c2.7,3.9,1.1,8,1.1,12.1c0.2,3.4-2.4,6.4-5.8,6.6
				c-0.6,0-1.2,0-1.7-0.1c-1.6-0.5-3.3,0.4-3.8,2c-0.1,0.3-0.1,0.6-0.1,1C435.1,252,435.4,256.7,435.3,261.8L435.3,261.8z
				 M278.6,274.6l-1.1,15.5l45.1-3.4v-13.6C307.9,273,293.3,272.2,278.6,274.6L278.6,274.6z M397.2,275.4c-0.3-0.2-0.7-0.3-1-0.4
				c-19.4,0-38.8,0-58.3,0c-1.1,0.3-2,1.1-2.3,2.2c-0.3,3.1,0,6.3,0,9.8c21-1.4,41.6-3.8,62.5-0.6
				C397.6,282.1,397.5,278.6,397.2,275.4L397.2,275.4z M287.4,135.1c1.4-0.1,2.7-0.3,4.1-0.5c3.5-1.1,7.1-1.9,10.7-2.5
				c3.8-0.2,5-0.8,4.3-4.8c-0.5-1.6-1.2-3.2-2-4.7c-0.5-0.9-0.8-1.9-0.9-2.9c0-9,0-18.1,0-27.2c0-2.7,0.5-5.3-1.9-7.4
				c-0.6-0.6-0.6-2-0.6-3c0-1.7,0-3.4,0-5.1h-8.9c0.1,1.9,0.1,3.8,0,5.7c-0.3,1.2-0.7,2.4-1.2,3.6c-0.6,1.1-1,2.3-1.3,3.6
				c-0.1,8,0,15.8-0.2,23.7c-0.4,2.4-1,4.7-1.8,6.9c-0.7,2.2-1.2,4.5-1.4,6.9C286.3,130,286.7,132.6,287.4,135.1z M234.4,305.1
				l1.7-0.3c3.5-0.7,7-2.1,10.2,1.2c0.3,0.4,1.6,0,2.4,0c5.3-1.3,10.5-2.9,15.7-4.8c6.4-1.9,12.9-4.6,19.5-5.1
				c5.8-0.5,11.6-1.3,17.3-2.5c1.7-0.3,4.5,0,5.3,1.1c1.7,2.3,3.3,1.7,5.3,1.3c1-0.4,2.1-0.5,3.1-0.3c3.1,1.3,5.5-0.7,8.2-1.4
				c3.3-1.1,6.7-1.7,10.2-1.7c3.5,0.2,4.6,0.6,7.7-1.5l-6.2,0.3c-16.3,0.9-32.6,1.3-48.9,2.7c-13.6,1.2-27,3.7-40.7,3.7
				c-19.4,0.2-38.1,5.1-57.5,8l17.7,7.7c5.6-7.1,13.9-11.6,23-12.5C231.4,300.7,233.9,301.3,234.4,305.1z M373.8,243.2l1.3,1.9
				c3.8,6,0.9,12.1-6.1,12.2c-3.5,0-4.3,2.1-5.5,4.5h16.2c-0.3-3.4-0.3-6.7,0.2-10.1c0.7-2.6,0.3-5.3-1.3-7.5
				c-1.8-2.3-1.9-5.5-0.2-7.8c-0.5-2-0.8-4.1-0.9-6.2c0-0.9,0.4-2.1,0-2.7c-2-2.7-0.3-4,1.6-5.3c1.4-1.3,2.8-2.7,4.1-4.2l-17.2-1.3
				c1.2,4.6,1.6,8.7-3.8,10.5l4.3,4.8c3-1.4,5.8-1.5,8,1.4C376.7,236.4,376.7,239.3,373.8,243.2z M320.7,150.2
				c1.3-0.9,2.7-1.6,4.2-2.3c1.1-0.2,2.3-0.2,3.4,0c-0.2,1.2,0,2.7-0.7,3.4c-1.2,1.2-2.5,2.3-3.9,3.2l0.6,0.8c0.6,0,1.2-0.1,1.8-0.2
				c3-1.3,6-2.8,9-4c1.2-0.2,2.3-0.1,3.5,0.2c-0.2,1.1-0.4,2.2-0.8,3.3c-0.2,0.5-0.8,0.8-1.7,1.5c4.3-0.5,7.4-7.2,11.6-1.1
				c2.7-1.5,5.3-3.5,8-0.5c0.3,0.3,1.2,0,1.8-0.1c1.3,0,2.9-0.6,4,0c1,0.6,0.9,2.2,1.3,3.4c1.1-0.6,2.3-1.1,3.5-1.5
				c1.1-0.3,2.3-0.1,3.3,0.5c3,2.7,5.8,5.8,10.7,4.5c0.4-0.1,0.9,0,1.2,0.3c1.7,3.1,4.4,1.6,6.8,1.7c1.1,0,2.1,0.1,3.1,0.4
				c2.8,1.2,6.1,0.7,8.4-1.2l-86.1-20.2c-2.7,3.7-5,6.8-7.3,10c3.1-1.3,6-2.9,8.9-4.6C318.8,145.6,319.9,146.2,320.7,150.2z
				 M310,70.2l-9.7-35.6h-0.8v35.6H310z M294.5,70.2V32.9c-3.3,12.4-6.6,24.8-10,37.4H294.5z M230.1,305.8c-5.7-1-16.7,3.6-18.7,7.7
				c-0.3,1.6,0,3.2,1,4.5c1,1.6,2.3,0.6,3.4-0.3c3.3-2.5,6.7-4.9,10-7.4C227.3,308.8,228.7,307.4,230.1,305.8z M295.7,212.7
				l-13.3,1.4c0.6,3.1,3,5.6,6.1,6.2c2.7,0.8,5.3,1.7,8.3,2.7L295.7,212.7z M126.6,295.9v-6.1l-21.2,3v0.8L126.6,295.9z
				 M415.5,296.4l-0.7-0.7c-8,4.6-12.4,13-19.6,18.7c2.1,0.4,4.3,0,6.1-1.1c2.2-2.6,4.2-5.2,6.1-8
				C410,302.1,412.8,299.3,415.5,296.4z M499.5,298.3c-2.7,0.3-5.1,5.8-7.6,0c-2.2,1.8-3.6,6.3-7.4,1.8l-3.6,5.3l19.6-3.9
				L499.5,298.3z M437.7,290.9h-20.7l3.6,2.9v-0.8l8,0.9c0.6,0.1,1.2,0.1,1.8,0C432.9,293,435,292,437.7,290.9z M424.5,297.7
				l-0.6-0.9c-2,0.9-3.8,2.1-5.3,3.6c-3.4,4.7-6.5,9.7-9.7,14.7l3.3,0.3C413.6,307.4,419.9,303.1,424.5,297.7L424.5,297.7z
				 M213.7,165.4c5,3,12.4,0.6,12.6-3.9L213.7,165.4z M470.2,299.1l-0.8-0.6l-7.7,10.9l0.6,0.7c1.5-0.6,3.8-0.8,4.4-1.9
				C468.1,305.2,469.2,302.2,470.2,299.1z M303,148.4l0.7,0.3l4.8-8l-5-0.7C303.3,143.2,303.1,145.8,303,148.4z M447.8,294.8
				c-6.2,0.7-6.8,6.4-9.5,10.3L447.8,294.8z M479.2,298.9l-1.3-0.9l-6.2,8.6l1.1,0.8C477.2,306.3,477,301.7,479.2,298.9z
				 M348.2,290.3v1.1c1.1,0,2.2,0.2,3.3,0.2c2.2,0,4.4-0.2,6.6-0.4c1.7-0.2,3.3-0.6,5-0.8l-0.2-1.1L348.2,290.3z M485.7,294v-1.1
				h-14.8c1.5-0.9,3.5,3.2,6.9,1.4C479.7,293.1,483,294,485.7,294z M294.9,256.7l-6.3,2.7l0.4,1.1l6.7-0.4L294.9,256.7z
				 M508.8,295.1c1.8,3,5.3,3.6,9.3,1.5L508.8,295.1z M422.9,258.7l-5.3,3C422.7,262.7,422.7,262.7,422.9,258.7L422.9,258.7z
				 M250.2,157.8l0.6-3.8l-6,1.9v0.9L250.2,157.8z M431.3,171.6l0.2-1.7l-8.7-0.4v0.9L431.3,171.6z"/>
			<path fill="#010101" d="M265.6,199.9c0.1,1.3,0.3,2.5,0.6,3.7c0.9,1.8,0.3,4-1.4,5.1c-2.1,1.6-5,1.7-7.3,0.3c-1.8-0.9-2.6-3-2-4.9
				c0.5-3.8,0.7-7.6,1-11.5c0.2-2.3,0.8-4.6,3.7-4.7c2.4-0.2,4.5,1.6,4.7,4c0,0.2,0,0.4,0,0.5C265.3,195,265.7,199.9,265.6,199.9z"
				/>
			<path fill="#010101" d="M195.9,208.6c-0.7-3.7,0.1-7.6,2.3-10.7c1-1.2,2.4-1.8,3.9-1.8c1,0,2.3,1.9,2.5,3.1c0.6,4.1,0.9,8.2,1,12.3
				c0,2.3-3.1,4.5-6.2,4.4c-3-0.1-3.8-1.8-3.6-4.5C195.9,210.5,195.9,209.6,195.9,208.6z"/>
			<path fill="#010101" d="M369.5,194.4c0.4-2.2,1.5-4.5,4.2-4.5c2.4-0.2,4.5,1.6,4.7,4c0,0.1,0,0.2,0,0.4c0.2,4.7,0.1,9.5-0.3,14.2
				c-0.2,2.7-2.4,3.3-4.8,2.9s-4.5-1-4.5-3.9c0-1.1,0-2.1-0.2-3.2C368.8,200.9,369.1,197.6,369.5,194.4z"/>
			<path fill="#010101" d="M290.5,119.2c0-2.7,0-5.3,0-8.2c-0.1-2.3,1.7-4.3,4-4.3c0.2,0,0.4,0,0.6,0c2.8,0.2,3.7,2.2,3.9,4.6
				c0.2,3.4,0.4,6.7,0.5,10c0.1,1.1,0,2.1-0.2,3.1c-0.4,2.1-2.4,3.5-4.5,3.1c0,0,0,0-0.1,0c-1.6-0.5-2.9-1.7-3.8-3.1
				C290.4,122.7,290.3,121,290.5,119.2z"/>
		</g>
	</g>
</g>
</svg>
