<?xml version="1.0" encoding="utf-8"?>
<!-- Generator: Adobe Illustrator 22.1.0, SVG Export Plug-In . SVG Version: 6.00 Build 0)  -->
<svg version="1.1" xmlns="http://www.w3.org/2000/svg" xmlns:xlink="http://www.w3.org/1999/xlink" x="0px" y="0px"
	 viewBox="0 0 1578.1 543.9" style="enable-background:new 0 0 1578.1 543.9;" xml:space="preserve">
<g id="footer">
	<path id="футер" d="M0,392.7c13.7-4.3,27.4-8.8,41.3-12.7c8.7-2.4,17.6-3.8,26.4-5.8c11.5-2.6,22-7.6,31.1-15.2
		c12.1-10,26.8-12.5,41.7-14.6c13.8-2,27.6-4,41.4-6.2c18.9-3,34.3-13.4,49.9-23.4c12-7.7,24.3-15,36.9-21.5
		c15.3-7.9,31.6-9.8,48.8-7c6.2,1,13.2,0,19.2-2c10.7-3.6,21.5-4.6,32.5-3.6c12.6,1.1,25.2,2.3,37.8,3.5c10.4,1,18.5-2.2,25.1-11.1
		c16.1-21.9,35.7-40.2,58.2-55.5c7.7-5.2,14.7-11.7,21.2-18.3c24.3-24.8,54.3-37.3,88.1-41.8c0.8-0.1,1.6-0.2,2.5-0.2
		c22.4,0.2,44.6-1,66.8-4c23.4-3.2,46.5,0.6,69.4,5.3c14.6,3,29.3,5.9,43.7,9.5c15.2,3.8,28.6,11.6,39.9,22.4c2.6,2.5,4.7,5.9,6,9.3
		c1.6,4.4,4.1,7.3,8.6,7.6c19,1.3,35.2,9.9,51.2,19.1c20.2,11.6,40.7,22.8,58.7,37.9c5.9,5,11.4,10.4,17,15.7
		c2.3,2.2,4.5,2.8,7.4,0.8c19.8-13.1,41.7-21.2,64.5-27.4c7.8-2.1,15.4-5.6,22.7-9.2c27.3-13.2,55.7-19.5,85.9-14.8
		c12.1,1.9,24.2,4.2,36.1,7c5.2,1.2,10.2,3.7,14.8,6.4c11.4,6.4,23.2,11.3,36,14.2c8.2,1.9,16.2,5.4,24,8.7
		c19.2,8.1,38.9,14.9,57,25.4c17.6,10.1,36.2,7.7,54.5,2.3c13.8-4.1,27.1-10.3,41-13.7c24.6-6.1,49.6-11,74.5-16
		c14.3-2.9,28.7-6.4,43.2-6.8c17.6-0.4,35.3,2.3,53,3.6c0,12.2,0,24.3,0,36.5c-11.2-0.5-22.3-1.1-33.5-1.6c-5.1-0.2-10.4-1-15.2,0.1
		c-10.4,2.4-20.8,3.6-31.5,4.2c-29,1.5-57.1,8.2-84.8,16.6c-21,6.4-41.2,15.5-63.4,17.6c-16.6,1.6-33.1,1.2-48.5-6.9
		c-34.6-18-70.3-33-109-40.2c-12.1-2.3-24-6-31.9-16.8c-0.9-1.2-2.7-2-4.2-2.3c-6.1-1.3-12.2-2.9-18.4-3.3
		c-25.5-1.7-48.8,6-71.4,17.1c-6.9,3.4-14.1,6.1-21.4,8.6c-11.6,3.9-23.5,7-35.1,11.1c-3.6,1.3-6.6,4.5-9.7,7
		c-3.9,3.2-7.7,6.6-11.4,10c-1.7,1.6-3,3.6-4.5,5.4c-0.1,0.5-0.1,1.1-0.2,1.6c14.6-1.4,12.9,10.7,16.5,19
		c8.4-6.4,15.8-12.5,21.3-20.7c3.8-5.6,8.1-10.7,12.3-16c2.9-3.6,6.7-5.3,11.3-4.9c14.9,1.2,29.9,1.7,44.7,3.9
		c19.3,2.9,38.3,2.5,57.3-1.2c6.8-1.3,13.5-2.6,20.2-4.3c12.8-3.1,24.4,0,35.4,6.5c12.1,7.2,24.2,14.5,36.1,22.1
		c3.6,2.3,7,5.1,9.6,8.3c4.3,5.3,9.3,8.3,16,9.5c9.4,1.7,17.7,6.2,24,13.5c4.9,5.6,8.2,12.8,16,15.4c0.6,0.2,1.1,0.8,1.4,1.4
		c5.8,11.2,14.7,21.2,14.5,35c0,1,0.6,2.1,0.9,3.1c0.6,0.5,1.3,1,1.9,1.4c1-1.7,1.7-3.6,2.9-5.1c5.4-7,11.3-13.7,16.5-20.9
		c13.9-19.3,31.7-33.5,53.5-43c5.2-2.3,10.3-5.3,14.6-9c7.6-6.5,16-11.3,25.5-14.6c7.1-2.4,14.3-4.9,21.3-7.7
		c19.6-7.9,40.2-11.9,60.8-15.8c2.3-0.4,6.8,0.6,7.1,1.7c1.1,4.6-3.5,3.9-5.9,4.5c-10.2,2.4-20.8,3.5-30.7,6.7
		c-20.8,6.6-41.2,14.2-61.7,21.5c-2.7,1-5,3.1-7.4,4.8c-7.8,5.1-15.2,11.1-23.5,15c-18.9,8.8-34.4,21.3-47,38
		c-8.3,11.1-18.2,21-27.3,31.4c-0.6,0.7-1.2,1.7-1.2,2.6c-0.1,7.7-0.1,15.5-0.1,23.2c0.9-1.1,2.1-2.5,3.2-4
		c8.3-12.1,16.5-24.1,24.7-36.2c2.8-4.2,6.2-7.4,11.4-8.7c2.1-0.6,4.2-2.5,5.5-4.4c2.7-3.7,4.6-8,7.2-11.7
		c4.7-6.6,9.6-13.3,14.9-19.5c3.1-3.6,7.9-4.8,12.1-2.2c3.6,2.2,5,1.1,6.9-2c4.6-7.7,10-14.7,18.3-18.8c2.4-1.2,5.8-2.8,7.8-2
		c6.1,2.5,9.5-0.6,13-4.6c1.2-1.3,2.6-2.5,4.1-3.5c3.6-2.3,6.9-1.5,9.3,2.1c0.7,1.1,1.3,2.2,2.1,3.5c1.4-0.9,2.7-1.6,3.9-2.4
		c4.4-3.1,8.7-6,14.3-2c0.8,0.6,3.3-0.6,4.5-1.6c2.8-2.3,5.1-5.2,7.9-7.4c6.6-5.3,10.9-4.3,14.6,3.3c0.3,0.7,1,1.2,1.6,2
		c5.2-2.5,11.3-5.7,15.3-0.2c3,4.2,3.4,10.3,5,15.7c1.6-1.2,3.5-3.3,5.9-4.2c2.2-0.8,5.3-1.2,7.2-0.2c1.7,0.9,2.7,3.8,3.2,6
		c0.4,1.8-0.4,3.9-0.7,5.8c-0.7,3.8-1.4,7.5-2.1,11.2c12.5,0.9,24.5,1.7,36.4,2.6c0,6.9,0,13.8,0,20.7c-2.6-0.2-5.3-0.3-7.8-0.7
		c-14.1-2.3-27.8-1.7-41,4.3c-4.5,2-9.2,3.5-13.8,5.2c-32.2,12-64.3,24.2-93.3,42.8c-18.6,11.9-38.6,20.3-59.7,26.2
		c-16.2,4.5-28.8,14.6-40.6,26c-0.2,0.2-0.1,0.9-0.3,2.7c10.8-2.9,21.4-4.7,31.3-8.5c46.9-17.9,93.3-37.3,136.2-63.7
		c22-13.6,45.3-17.5,70.3-13.8c4,0.6,8,1.6,11.8,2.4c2.3-0.4,4.7-0.9,7.1-1.3c0,4.3,0,8.5,0,12.8c-4.8,4.2-9.6,8.4-14.4,12.6
		c0.3,0.4,0.6,0.7,0.9,1.1c4.5-3.6,9-7.2,13.5-10.7c0,8.2,0,16.4,0,24.7c-4.1,0.1-8.3-0.5-12.2,0.4c-22.7,4.9-45.5,9.3-67.8,15.6
		c-21.4,6-43.3,10.6-63.4,20.8c-0.8,0.4-1.9,0.6-2.8,0.6c-11.1,0.7-18.1,8-25.3,15.1c3.1,0,6.1,0,9,0c12.3-6.5,12.3-6.5,16.5-3.2
		c2.8-1.4,5.5-3,8.4-4.1c4-1.5,5.3,1.4,5.9,4.6c5.3-3.4,10.2-6.7,15.2-9.7c3.5-2.1,7.3-3,10.9,0.2c1.1-1,2.1-1.8,3.1-2.6
		c4.8-3.7,9.4-7.6,14.4-11c1.1-0.7,3.9-0.5,4.8,0.4c0.9,0.9,0.8,3.2,0.5,4.8c-0.3,1.7-1.3,3.2-2.3,5.3c4-2.4,7-4.7,10.5-6.1
		c4.8-1.8,6.7,1.2,6.7,5.9c4.6-3.4,8.5-6.6,12.7-9.4c3.5-2.4,7.2-3.4,10.1,1.2c3.6-3.2,6.7-6.3,10.2-8.9c4.8-3.7,7.1-3.3,10.9,1.6
		c4.5-3.6,7.6-9.7,15.5-4.9c3,1.8,5.5,2.2,5.8,6.1c0,0.7,1.6,1.4,2.4,2.1c0,23,0,46,0,69c-31.1,0-62.1,0-93.2-0.1
		c-39,0-77.9,0-116.9-0.1c-1.9,0-3.9-0.8-5.6-1.1c-3,0.5-6.1,0.9-10,1.5c3.9-5.4,7-9.7,10.2-14c-0.5-0.4-1.1-0.8-1.6-1.2
		c-3,3.4-6.5,6.5-8.8,10.3c-2.1,3.6-4.4,4.7-8.5,4.7c-118.8-0.1-237.7-0.1-356.5-0.1c-77.4,0-154.8,0-232.2-0.1
		c-4,0-7.6-2.2-12.2-0.4c-3.6,1.4-8.4-0.5-12.6-0.4c-8.6,0.1-17.2,0.6-25.8,1c-12.4,0.6-24.8-0.5-37.3-0.2
		c-19.4,0.6-38.8,0.2-58.2,0.1c-1.3,0-2.7-0.2-4-0.3c-0.1-0.3-0.1-0.7-0.2-1c18.8-10.8,37.6-21.6,57.7-33.2c-3.1,0.4-5.5,0.1-7.2,1
		c-15.2,8.2-30.3,16.5-45.3,24.9c-2.5,1.4-5.1,3.4-6.5,5.8c-1.5,2.5-3.1,2.8-5.5,2.8c-21,0-42.1,0-63.1,0c-4.4,0-8.8,0-14,0
		c3.5-4.9,6.4-8.8,9.3-12.8c-0.6-0.4-1.2-0.9-1.8-1.3c-1.8,2.3-3.6,4.6-5.6,6.8c-2.2,2.5-4.2,6.5-6.8,7c-5.8,1.1-11.9,0.3-17.9,0.3
		c-0.2-0.4-0.5-0.8-0.7-1.2c5.1-5.9,10.1-11.9,15.2-17.8c-0.4-0.4-0.7-0.8-1.1-1.2c-2.5,2.1-5.4,3.8-7.4,6.3
		c-2.3,2.7-3.9,6.1-5.9,9.1c-3.6,5.6-5.6,6.2-13.2,3.8c6.1-7.6,12-15.1,17.9-22.5c-0.3-0.3-0.7-0.6-1-0.9c-1.2,0.9-2.5,1.5-3.4,2.6
		c-5,5.9-9.8,11.9-14.7,17.8c-1.2,1.5-2.7,3.7-4.2,3.8c-6.4,0.4-12.9,0.2-20.2,0.2c4.3-5.7,8-10.5,11.6-15.3c-0.5-0.4-1-0.8-1.4-1.3
		c-3.7,3.8-7.7,7.3-10.9,11.4c-4.4,5.7-6.6,6.7-15.3,3c5.6-4.7,11.1-9.4,16.7-14.1c-0.4-0.5-0.7-1-1.1-1.4c-1.9,0.8-4.1,1.2-5.5,2.5
		c-3.1,2.9-6.2,6-8.4,9.5c-3.8,5.9-8.9,6.7-15.4,5.3c4-8.5,14-11.5,18.1-20.6c-5.9-0.8-9.3,1-11.6,5.2c-1.6,3-3.1,6.2-5.1,9
		c-5.2,7.5-7.1,8.2-17.1,6c5.6-6.5,11-12.7,16.6-19.1c-6.9-0.8-11,2.1-13.2,7.7c-1.3,3.3-3.2,6.5-5.4,9.3c-1.2,1.5-3.6,2.5-5.6,2.9
		c-2.8,0.5-5.8,0.1-8.9,0.1c0.2-1.6,0.3-2.9,0.4-4.1c-3.7,5.9-9,3.9-15.3,4c3.9-3.5,6.9-6,9.8-8.6c-0.3-0.4-0.7-0.8-1-1.3
		c-2.9,2.2-6.2,4-8.4,6.8c-2,2.5-4,3.3-7.1,3.3c-25.4-0.1-50.7-0.1-76.1-0.1c-16.3,0-32.5,0.1-48.8,0c-3.2,0-6.5-0.8-9.7-1
		c-1.2-0.1-2.4,0.3-3.6,0.4c-1.8,0.2-3.6,0.4-5.6,0.6c0.2-2,0.3-3.3,0.5-4.9c-0.9,0.5-1.4,0.6-1.8,0.9c-2.7,2.3-4.7,6.8-9.2,2.5
		c-0.1-0.1-0.8,0.6-1.2,0.6c-2.5,0.4-4.9,0.8-7.9,1.2c0.5-2.2,0.8-3.4,1.1-4.7c-6.5,7.8-14.8,2.4-23,4.7c5.3-7,9.7-12.9,14.1-18.8
		c-0.4-0.4-0.9-0.8-1.3-1.2c-1.4,1-3,1.8-4.2,3.1c-3.5,3.9-7.1,7.8-10.2,12c-3,4.1-6.5,5.6-11.7,4c3.8-8.9,14.2-13,16.2-23.2
		c-2.9,1.4-5.6,3.2-7.4,5.6c-3.2,4.4-5.9,9.1-8.6,13.8c-2.4,4.4-5.8,5.1-10.5,3.7c2.6-10.3,10.6-17.3,16.6-25.3
		c-0.7-0.5-1.3-1.1-2-1.6c-3.1,3-6.5,5.7-9.3,8.9c-4.1,4.7-8.1,9.6-11.7,14.6c-3,4.1-6.7,4.6-11.7,3.5c1.1-1.8,1.8-3.4,2.9-4.7
		c4.7-5.3,9.7-10.3,14.1-15.8c2-2.5,3.4-5.8,4.4-9c0.9-3-1-4.6-4.2-4.4c-3.6,0.2-9.7,5.7-11.2,8.8c-3.2,6.7-6.4,13.6-10.6,19.7
		c-4.5,6.6-9.8,7.6-18.5,4.7c7.1-8.7,14-17.3,21.2-26c-0.9,0-1.3-0.1-1.5,0c-1.1,0.7-2.4,1.2-3.3,2.1c-6.8,6.9-13.8,13.6-20,20.9
		c-3.8,4.5-7.9,4.6-13,3.8c7.1-11.4,19.9-17.9,25-30.7c-5.8-2.4-7.8-1.4-11.4,3.4c-6.3,8.4-12.7,16.7-19.7,24.6
		c-4,4.5-6.4,4.1-9.8,0.6c-0.4,0.3-0.8,0.7-1.2,0.7c-3.2,0.4-6.4,0.7-9.6,1.1c0.4-2.9,0.9-5.8,1.3-8.7c0-0.3,0.3-0.6,0.5-0.8
		c5-5.7,9.9-11.4,14.9-17c1.4-1.6,3-3,4.5-4.4c-0.3-0.3-0.6-0.6-0.9-0.9c-1.5,1.2-3.3,2.2-4.5,3.6c-7.2,8-14.6,15.9-21.4,24.3
		c-3.2,4-6.5,5.6-11.8,4c4.9-13.2,19.9-19.3,23.2-33.6c-3.7,2-7.3,4-10.1,6.9c-7.4,7.7-14.7,15.5-21.6,23.6c-2.8,3.3-5.6,4.3-10.3,3
		c5.1-6.3,10-12,14.5-18c4.5-6.1,8.6-12.5,12.9-18.8c-0.4-0.4-0.9-0.8-1.3-1.2c-1.5,1.1-3.3,1.9-4.5,3.2c-4.6,4.9-9.2,9.8-13.4,15.1
		c-4.3,5.4-7.9,11.3-11.9,16.9c-2.4,3.4-5.6,4.1-10,2.6c7.4-10.2,14.5-20.1,21.7-30.1c-0.7-0.5-1.3-1-2-1.5
		c-8,9.5-16.4,18.7-23.8,28.6c-2.8,3.7-5.2,4-10.3,3.2c6.9-9.3,13.4-17.9,19.8-26.5c-0.4-0.4-0.8-0.8-1.3-1.2
		c-1.3,1-2.9,1.7-3.9,2.9c-5.7,6.9-11.5,13.9-17,21.1c-3.6,4.7-3.8,5.1-10,3.5c5.6-8.1,11.2-16.2,16.7-24.3
		c-0.6-0.4-1.2-0.9-1.8-1.3c-4.8,6.1-9.7,12.2-14.5,18.3c-2.1,2.7-4.2,5.4-6.3,8.1c0-28.6,0-57.2,0-85.8c3.8,1,8,1.3,11.2,3.3
		c15,8.8,29.7,18.1,44.5,27.2c1.6,1,3.5,1.6,5.2,2.4c0.3-0.6,0.7-1.2,1-1.8c-10.4-7.1-20.3-15-31.3-21.1C21,462.4,10.3,459,0,454.8
		C0,434.1,0,413.4,0,392.7z M346.1,528.7c-12.7,1.9-25.3,3.8-38,5.8c5.5-0.7,10.6,2,16.2,1.6c8.2-0.7,15.4-1.9,21.6-7.4
		c5.9,0.8,11.3-0.3,16.3-3.6c1.3,0.5,3.1,0.6,3.9,1.6c3.1,3.5,7,3.1,10.5,2c3.5-1,6-1,9.5,0.8c2.4,1.3,6.7-1.4,10.2-1.7
		c1.2-0.1,2.5,1.7,3.6,2.5c6.3-3.3,12.2-7.1,18.7-9.7c4.2-1.7,9.1-1.8,13.7-2.4c2.1-0.3,4.4,0,6.4-0.4c4.9-1,9.7-2.5,13.3,2.7
		c0.4,0.6,2,0.7,2.9,0.5c6.7-1.4,13.3,2.3,19.9,0.1c2.1-0.7,4.4-1,6.6-1.7c3-1,6.4-3.9,8.9-3.2c4.9,1.4,7-1.2,10.8-4.1
		c-7.2-0.6-13.5-3.8-19.1,1.5c-4.5,4.3-10.3,2.4-15,2.4c-7.3,0-14.5-3.4-21.8-4.1c-7.6-0.6-15.3,0.4-23,0.6
		c-4.8,0.1-8.1,2.4-11.4,5.8c-4,4.2-8.9,5.8-15.2,4.3c-6.3-1.5-13-2.6-19.4,1.4c-2.6,1.6-5.8,3-9.2,0.4c-0.9-0.7-3.2,0.4-4.9,0.7
		C356.9,526.3,351.5,527.5,346.1,528.7z M1001.5,511c-14.6,2.8-27.9,6.9-41.4,7.5c-21.3,1-42.7,0.7-63.9-1.1
		c-23.3-2-44.4-11.2-62.7-26.3c-3.3-2.7-6.2-5.9-8.9-9.1c-0.8-0.9-0.4-2.8-0.6-4.3c1.6,0.1,3.2,0.1,4.8,0.4c0.5,0.1,0.9,0.9,1.4,1.3
		c13.9,14.3,30.8,23.8,49.8,28.5c31.2,7.7,62.8,7.5,94.3,1.7c28.7-5.3,57.3-11.2,86-16.8c9.2-1.8,18.5-3.3,28.9-5.1
		c-2.2-1.1-3.2-1.8-4.4-2.1c-22.3-6.7-44.5-13.7-67-19.8c-6.1-1.6-13.1-1.3-19.4-0.3c-10,1.6-19.9,4.3-29.7,6.9
		c-33.3,8.8-67.4,10.8-101.6,10.4c-11.7-0.1-23.5-4-35.2-6.4c-5.4-1.1-10.7-3.2-16.1-4.2c-11.8-2.2-24.3-2.5-33.9-11.4
		c-0.1-0.1-0.3-0.1-0.5-0.2c-16-6.3-31.8-13.2-48.1-18.6c-25.2-8.4-51.2-14-77.5-18c-7.5-1.1-14.1-0.8-20.7,3.3
		c-8.1,5-17.3,7.5-26.7,7.7c-20,0.5-40.1,0.7-60.1,0.8c-30.9,0.2-61.8,0.2-92.7,0.3c-2,0-3.9,0.3-5.9,0.5c1.3,1.2,2.6,1.5,3.8,1.5
		c14.9,0.8,29.1,4.1,42.7,10.6c15,7.1,30.1,14,45.5,19.8c25.7,9.7,52.9,11.1,79.9,13c21.4,1.5,41.5,6,59.2,18.7
		c6.1,4.4,12.8,8.1,18.8,12.6c7.4,5.5,14.9,9,24.1,5.3c0.6-0.2,1.3-0.1,2-0.1c6.3-0.1,12.6-0.2,18.9-0.3c14-0.1,28.1-1.6,41.8-0.1
		c38.2,4,76.2,9.3,114.4,13.9c14.2,1.7,28.3,3.6,42.6,0.7C963.7,528.1,982.3,520.7,1001.5,511z M553.9,490.7c0-0.4,0-0.8-0.1-1.1
		c-10.4-3.9-20.8-7.8-31.2-11.8c-24.7-9.6-48.4-21.8-75.9-22.8c-16.2-0.6-32.2-4.3-48.4-5.5c-13.8-1-28.1-3.3-40.4,6.8
		c-3.2,2.6-8.1,3.8-12.4,4.4c-8.3,1.1-16.7,1.8-25,1.8c-11.9-0.1-21.8,3.9-31.5,10.7c-18,12.6-37.9,21.3-59.1,27.2
		c-10.3,2.8-20.4,6.3-30.6,9.5c0,0.6,0.1,1.2,0.1,1.8c2.5,1.2,4.8,2.5,7.4,3.4c7.9,2.8,15.9,5.1,23.7,8.3
		c16.6,6.8,34.1,9.6,51.7,7.6c25.9-3,51.7-7,77.1-12.6c34.7-7.6,69.5-14.1,105.2-14.2c7,0,14.2,0.7,20.3-4c0.7-0.6,1.8-0.7,2.8-0.8
		c7.8-1,15.7-2,23.6-2.9c0.8-0.1,1.7,0,2.4,0.3c6.2,3,12.5,1.7,18.6,0c4.2-1.1,8.3-3.1,12.5-4.3
		C547.6,491.5,550.8,491.2,553.9,490.7z M626.9,373.9c1.6,1.7,2.1,2.5,2.9,3.1c21.7,15.5,45.7,27.1,71.1,34.1
		c28.3,7.7,55.7,17.2,82.8,28.2c8.7,3.5,18.3,4.6,27.5,7c6.1,1.6,12.9,2.3,18.1,5.4c8.7,5.2,17.6,9,27.6,9.2
		c14.1,0.2,28.3-0.2,42.4-0.4c2.2,0,4.4-0.5,7.8-0.9c-10.2-8.2-16.6-17.8-22.1-28.1c-5.4-10.1-10.9-20.2-16.2-30.4
		c-2.7-5.2-6.8-8.2-12.8-8.7c-4.4-0.3-9-0.3-13.2-1.5c-10.9-2.9-21.8-6-32.6-9.5c-22.9-7.4-45.6-15.6-70-17.1
		c-11.2-0.7-22.5-2.2-32.8-7.9c-1.8-1-5.2,0.5-7.7,1.3c-5.1,1.8-9.9,4.5-15,5.8c-8,1.9-16.1,2.9-24.2,4.3
		C649.5,369.8,638.7,371.8,626.9,373.9z M841.9,377.3c-2-2.8-3.4-4.6-4.7-6.5c-5.9-9.2-11.4-18.7-17.7-27.6c-2.3-3.2-6-5.9-9.6-7.7
		c-3.7-1.8-6.8-3.5-8.6-7.5c-4.6-9.8-12.7-15.7-23-18c-5.5-1.2-11.4-1.2-17.2-1.3c-12.8-0.1-22.9-5.3-30.3-15.6
		c-10.9-15.2-25.5-26.4-39.8-38c-3-2.4-6.9-3.9-10.5-5.1c-9.4-3.2-17.7-2.1-25.3,5.5c-3.6,3.6-9,6.6-14,7.4
		c-27.6,4.3-55.2,5.2-82.5-2.9c-10.1-3-20.2-2.6-29.9,1.4c-19.2,8-38.4,16.1-57.4,24.7c-4.2,1.9-7.6,5.9-10.8,9.6
		c-2.6,3-1.3,5.2,2.8,6c6.3,1.2,12.6,2.3,18.7,4.1c4.2,1.2,6.9,0.6,10.1-2.4c2.4-2.3,6.1-3.4,9.3-4.9c2.8-1.3,6-2,8.6-3.7
		c2.6-1.7,4.5-4.3,6.8-6.4c7.4-6.5,9.4-6.1,13.6,2.6c0.1,0.2,0.4,0.4,0.7,0.6c13.5-6.9,13.5-6.9,20.7,1.7c3.2-2.8,6.1-6,9.6-8.3
		c1.8-1.2,4.8-1.8,6.6-1.1c1.5,0.6,2.5,3.6,2.7,5.6c0.4,3.9,0.1,7.9,0.1,11.8c0.7,0.4,1.4,0.7,2.1,1.1c3.9-4.4,7.6-9.1,11.9-13.1
		c1.4-1.3,4.7-1.8,6.6-1.1c1.6,0.6,2.7,3.3,3.5,5.2c0.6,1.5,0.4,3.4,0.6,5.8c3.1-2.5,5.7-4.5,8.3-6.5c2.8-2.1,6.4-4.6,9.3-1.9
		c2,1.9,2.4,6,2.7,9.2c0.3,2.7-0.4,5.6-0.7,9.7c6.1-4.8,10.9-9.2,16.2-12.5c2.8-1.7,7.2-3.3,9.8-2.3c5.1,1.9,8.1,0.7,11-3.1
		c1.5-1.9,3.2-3.7,5.1-5.4c3.8-3.4,7.3-7.2,11.6-9.8c6.5-3.8,10.5-0.9,10.1,6.5c-0.1,2.2-0.3,4.4-0.4,6.9c1.8,0,2.9,0,4.1,0
		c6.4,0.1,9.1,2.5,8.3,8.7c-1.5,11.2-3.1,22.4-5.7,33.4c-2.2,9.5-2.9,9.3,6.7,9.6c0.1,1.5,0.2,2.9,0.4,5.2c8.1-6.1,16.3-7.6,25.1-4
		c13.4,5.6,27.3,9.3,41.7,10.9c15.4,1.7,30.4,7.1,46.2,5.6c6.3-0.6,11.3,1.9,15.2,7.2C825.4,373.4,833,375.4,841.9,377.3z
		 M251.7,346.1c0.1,0.4,0.3,0.9,0.4,1.3c2.3,0.1,4.6,0.3,6.9,0.3c21.5,0,42.9,1.5,64,6.3c15.9,3.6,32.5,4.3,48.5,7.6
		c12.8,2.7,25.4,5.1,38.5,4.6c9.9-0.3,19.7-0.5,29.5-1.3c7.7-0.6,14.5,1.1,21.2,4.8c15.7,8.6,32.4,13,50.5,12.4
		c6-0.2,12.4,1.6,17.9,4.1c12.1,5.5,24,11.5,35.4,18.3c14.9,8.9,30.8,10.6,47.5,8.6c7-0.8,13.2-3.5,19-8.6
		c-6.6-5-13.2-9.6-19.3-14.7c-10-8.3-21.2-14.3-33.5-18.1c-6.6-2-13-4.6-19.5-6.8c-30.1-10.2-60.5-19.8-87.5-37.4
		c-1.1-0.7-2.3-1.2-3.5-1.7c-12.8-5.9-26-8.3-40.2-6.5c-10,1.2-20.2,1.1-30.4,0.9c-7.5-0.2-15-1.7-22.5-2.3
		c-10.5-0.8-21-1.8-31.1,2.4c-9.7,4-19.8,4.5-30,2.9C288.3,319.2,269.8,332,251.7,346.1z M1033,445.6c1.7,0.7,3.1,1.5,4.6,2.1
		c9,3.2,17.8,6.8,26.9,9.4c17.3,5,34.7,9.6,52.1,14.3c2.5,0.7,4.5,0.9,5.8-2.5c2.7-6.8,5.5-13.6,9.2-19.9c16.6-28.1,33.7-56,50.4-84
		c4.4-7.4,5.8-15.6,5.6-24.2c-0.1-4.9-1.8-6.8-6.4-5.2c-4.5,1.6-8.9,4.2-12.4,7.5c-13.6,12.9-24.4,27.9-32.3,45
		c-11.5,24.7-27.6,46.6-42.9,68.9c-0.9,1.4-3.4,1.7-5.1,2.5c-0.3-2-1.4-4.1-0.9-5.8c2.3-7.7,4.8-15.4,12.5-19.9
		c1.2-0.7,1.8-2.3,2.6-3.5c12.7-18,20-38.4,25.6-59.3c2.9-10.7,4.2-21.8,6-32.8c0.2-1.3-0.6-3.6-1.6-4.2c-1-0.5-3.2,0.1-4.4,1
		c-10,7.5-17.8,16.4-22.1,28.7c-7.9,22.2-16.8,44.1-25.7,66c-1.9,4.7-5,8.8-7.7,13.1c-1.6,2.6-4.3,4.4-7,2.2c-1.4-1.1-2-4.3-1.5-6.2
		c1.3-5.6,3.3-11,4.9-16.5c6.6-23,15-45.1,30-64.3c2.2-2.8,3.5-6.3,4.6-9.7c1.8-5.4,2.7-11,0.9-18.4c-5,3.7-9.6,6.6-13.4,10.1
		c-10.6,9.7-16.2,22.5-21.2,35.6c-9.1,24-19,47.6-35.8,67.5C1033.8,443.8,1033.5,444.6,1033,445.6z M568.4,415.3
		c0.1-0.3,0.2-0.7,0.3-1c-1.9-1-3.7-1.9-5.6-2.9c-10.5-5.5-21.1-10.7-31.3-16.5c-6.9-3.9-14-6.5-21.9-6.1
		c-16.4,0.8-31.8-2.9-46-10.5c-12.5-6.7-25.3-8-39-6.9c-18.3,1.5-36.5,1.6-54.7-3.1c-15.6-4-32.2-4.1-48-7.7
		c-16.5-3.7-33-5.2-49.7-5.5c-2.6,0-5.3-0.2-7.9-0.5c-14.3-1.6-27.6,0.5-40.3,7.9c-11.7,6.9-24.6,10.6-38.1,12.6
		c-6.6,1-13.1,2.2-19.6,3.4c-0.1,0.6-0.1,1.1-0.2,1.7c6.8,2.7,13.5,5.5,20.4,7.9c0.8,0.3,2.7-1.1,3.3-2.2c2.2-4,5.7-5.7,9.9-4.8
		c7.9,1.8,15.8,3.9,23.6,6.2c3,0.9,4.9,1.6,5.5-2.6c0.6-4,3.5-5.5,7.4-5.8c8.1-0.6,15.6,1.5,22.7,5.2c2.1,1.1,4.2,2,6.5,3.2
		c2.1-14.8,5.3-16.9,19.1-12.8c5.8,1.7,11.2,4.6,17,6.5c1.8,0.6,4.9,0.5,6-0.6c4.1-4.4,9-5.6,14.7-5.4c11.6,0.3,21.6,4.8,31.1,11
		c2.4,1.6,5.9,3.2,8.5,2.7c8.3-1.8,16-0.4,23.3,3.4c2.8,1.4,4.7,2.1,7.8-0.3c2.3-1.7,6.6-1.8,9.7-1.1c6.2,1.3,12.3,3.5,18.4,5.3
		c1.5,0.4,3.1,0.8,4.5,1.2c4.3-12.6,9.8-14.9,21.9-9.5c3.3,1.5,6.5,3.3,9.9,4.5c2.6,0.9,5.5,1.7,8.1,1.4c6.7-0.8,12.7,0.6,18.2,4.3
		c6.4,4.2,12.8,8.7,19.5,12.5c3.3,1.9,7.2,3.3,11,3.6c11.1,0.9,22.3,1.3,33.5,1.6C554.8,415.5,561.6,415.3,568.4,415.3z M1299.8,424
		c4.3-1.3,8.2-2.3,12-3.8c1.1-0.5,2.4-2.3,2.5-3.5c0.2-13-6.1-23.6-12.9-33.9c-0.4-0.7-1.2-1.2-1.9-1.5c-5.8-2.4-9.3-7-12.6-12.1
		c-5.4-8.2-12.9-13.6-22.6-15.2c-8.2-1.3-15-4.3-19.8-11.5c-1.3-2-3.3-3.8-5.4-5c-16.7-9.8-33.3-19.8-50.2-29.1
		c-7.1-3.9-15.4-4.3-23-1.2c-21.6,8.9-44.1,8-66.5,6.7c-17-1-34-3.2-50.9-4.9c-5.4-0.5-9.1,1.7-12.5,6.1c-8.2,10.2-17,20-25.6,29.9
		c-0.7,0.8-1.3,1.6-2,2.5c4.9,3.2,8.1,0.8,11.1-2.3c6.6-6.9,13.4-13.6,23.2-16c5.8-1.5,8.7,1.1,7.6,6.9c-0.4,2.3-1.2,4.5-2.2,7.9
		c5.7-4.2,10.3-7.7,15-10.9c6.6-4.3,12.5-1.1,12.9,6.7c0.1,1.8,0.2,3.6,0.5,6.8c3.4-3.8,5.4-6.6,8-8.8c5.1-4.2,10.2-8.9,16-11.9
		c6.9-3.6,11.9,0.1,12.2,7.9c0.1,1.7,0.2,3.4,0.3,5.8c1.7-1.4,2.6-2.3,3.6-3c3.9-2.9,7.6-6.5,11.9-8.5c7.7-3.4,12.8,0.4,12.4,8.7
		c-0.2,4.4-0.6,8.9-1.4,13.2c-1.7,9.1-3.8,18.2-6,28.4c1.6-2.1,2.7-3.5,3.7-4.9c8.3-10.8,16.3-21.9,25.2-32.2
		c3.7-4.3,8.9-7.9,14-10.5c10.5-5.2,17.2-0.6,17.3,11.2c0,2.5,0,5,0,8.5c4.2-3.3,7.4-5.8,10.7-8.3c4.5-3.4,9.3-4.1,14.3-1.5
		c5.2,2.7,6.9,7.2,6.5,12.7c-0.4,5.4-0.6,10.7-1,17.1c2.3-1.6,4-2.7,5.7-3.9c5.4-3.8,11.1-5.3,17.7-3.9c4.2,0.9,6.2,3.2,6,7.6
		c-0.3,4.8-0.5,9.6-0.8,15.3c4.5-3.1,8.1-5.9,12-8.1c4.3-2.5,8.8-2.4,13.1,0.3c4.1,2.6,5.1,6.5,4.5,11.1c-0.2,1.9-0.2,3.8-0.4,6.3
		c3.2-1.8,5.6-3.5,8.2-4.5c6.3-2.5,11.3,0.9,11.5,7.6c0.1,2.1-0.3,4.3-0.4,6.4C1300.8,411.2,1300.3,417.5,1299.8,424z M1043.1,336.4
		c-0.4-0.3-0.7-0.5-1.1-0.8c-1.7,0.9-3.5,1.7-5.1,2.7c-14.4,9.2-24.7,21.9-31.9,37.3c-7.5,16.1-15,32.1-22.6,48.1
		c-2.7,5.6-5.8,11.1-9,16.4c-0.7,1.2-3.5,2.6-4.2,2.2c-1.3-0.9-2.3-2.9-2.5-4.6c-0.2-1.5,0.6-3.2,1.2-4.7c2.4-5.9,5-11.8,7.3-17.7
		c7.5-18.8,16-37.1,28.3-53.3c1-1.3,1.6-2.9,2.3-4.3c-1.9,0-3.1,0.5-4.2,1.1c-9.2,5.9-17,13.3-22.6,23c-11.1,19.2-22.5,38.2-34,57.1
		c-1,1.6-3.9,3.8-4.9,3.4c-3.1-1.5-2.6-4.5-1.2-7.2c0.5-1,1.3-1.9,1.7-3c6.5-14.3,12.9-28.7,19.3-43c0.4-0.9,0.3-2,0.5-3
		c-0.4-0.3-0.9-0.5-1.3-0.8c-3.6,4.5-7.8,8.7-10.7,13.7c-9.1,15.4-17.6,31.1-26.5,46.7c-2,3.6-1.2,5.9,2.7,6.2
		c8.4,0.6,17,1.6,25.3,0.8c9.4-0.8,18.7-3.7,28.1-5.1c12-1.7,24-3.6,36.1-3.9c5.4-0.2,8.5-1.2,11.1-5.7
		c11.2-19.3,22.5-38.6,33.9-57.8c7-11.9,9.4-25.1,10.6-38.6c0.3-3-1.2-4-3.9-2.9c-1.6,0.7-3.2,1.7-4.6,2.8
		c-9.1,6.7-16.2,15.3-21.7,25.2c-10.5,18.6-20.9,37.2-31.6,55.7c-2.9,5-6.3,9.6-9.7,14.2c-1.1,1.5-3,2.4-4.5,3.6
		c-3-3.3-2.6-5.8-0.9-8.7c9.6-16.4,19.4-32.8,28.6-49.4c7-12.6,13.3-25.6,19.7-38.5C1042.2,341.2,1042.5,338.7,1043.1,336.4z
		 M916.1,417c5,0.2,7.1-2.7,9.2-9.9c1.4-5,3.6-9.8,6-14.3c4-7.5,8.7-14.6,12.8-22c3.4-6.3,8.1-10.2,15.4-11.8
		c9.4-2.1,18.5-5.3,27.8-8.1c3.9-1.2,6.9-2.7,5.8-7.9c-2.2-9.9-2.4-10.5-9.2-10.4c-12.4,0.2-23.7-3.3-33.8-10.3
		c-20.4-14.3-43-23.8-66.7-30.9c-9-2.7-18.6-3.6-28-5.3c-3.8-0.7-5.2,1-5.4,4.8c-0.4,6.9-3.3,10.2-9.9,11.7
		c-4.2,0.9-8.4,1.4-12.7,1.9c-6.1,0.7-8.4-1.3-9-7.5c-0.4-3.7-1.1-7.4-1.6-11c-0.4,0-0.9,0-1.3,0c-3.5,9.5-7.4,18.9-10.5,28.5
		c-2,6.1,3,13.6,9.3,15.5c5.1,1.5,8.6,4.9,10.5,9.7c5.3,13.4,14.8,24,23.6,35c1.7,2.2,4.5,4,7.2,4.9c7.1,2.6,10,0.9,12.7-6.1
		c4.4-11.6,9-23.2,13.3-34.9c1.9-5.4,3.3-11,4.7-16.5c0.5-1.9,0.1-3.9,0.1-7.1c-2.6,1.6-4.1,2.2-5.3,3.2c-5.5,4.5-9.2,10-11.4,16.8
		c-2.8,8.7-6,17.3-9.6,25.7c-1.3,3.1-3.4,7.8-7.5,6.2c-4.3-1.7-3.1-6.6-1.8-10c3.4-8.5,7.1-16.9,11.3-25c2.8-5.3,4.8-10.4,4.2-16.4
		c-0.2-1.4-1-3.5-2.1-3.9c-1-0.4-3.4,0.4-4.1,1.4c-2.8,3.8-5.7,7.6-7.7,11.8c-2,4.3-2.8,9.1-4.7,13.4c-0.7,1.7-3,2.7-4.6,4
		c-0.7-1.9-2.2-3.9-2-5.8c0.7-6,2.1-11.9,3.1-17.9c0.3-2.2,0.1-4.5,0.1-6.8c-0.6-0.2-1.2-0.4-1.8-0.6c-1.6,1.7-3.3,3.4-4.7,5.3
		c-2.1,2.7-3.8,5.8-6.2,8.3c-2.2,2.2-4.5,2.5-5.9-1.4c-0.8-2.1-2.4-4.1-4-5.7c-2.5-2.4-3.1-6.1-0.6-8.7c2.6-2.7,5.5-3.5,8.7-0.8
		c1,0.8,1.8,1.8,2.8,3c2.1-1.7,3.9-3.4,5.8-4.9c4-3,7.9-3.2,10.5,0.4c2.8,4,4.7,3.5,8.1,0.7c6.1-5,12.4-2.8,15.1,4.6
		c0.5,1.3,1,2.5,1.5,3.8c3.4-2.2,6.3-4.4,9.5-6c5.8-2.8,9.2-0.8,9.9,5.5c0.2,2.1,0.5,4.1,0.7,6.6c3.6-1.7,6.6-3.4,9.8-4.5
		c6-2.1,10.1,0.9,10.1,7.3c0,2.8-0.5,5.6-0.7,8.3c-0.5,4.4-1,8.9-1.6,14.6c6.7-6.6,12.2-12.5,18.2-17.8c2-1.8,6.5-3.6,7.9-2.6
		c2.1,1.4,3.5,5.4,3.4,8.3c-0.2,15.7-3.5,31-9.1,45.6C926.8,393.1,921.3,404.8,916.1,417z M479.8,274.4c0.2,0.2,0.4,0.5,0.6,0.7
		c1.8-0.6,3.6-1.2,5.4-1.9c11.2-5,22.5-9.9,33.7-15c13.1-6,26.6-7.8,40.8-4.6c8.6,2,17.3,4.4,26,4.9c13.4,0.8,26.9,0,40.3,0.2
		c10.6,0.2,19.7-3,27.3-10.3c5.5-5.2,12.1-7.1,19.5-6.4c8.5,0.9,16.2,3.9,23.1,9.1c1.6,1.2,3.3,2.4,6.3,4.4c0-4.8,0.5-8.3-0.1-11.5
		c-1.5-7.2-9.1-12.7-18.1-13.3c-9.8-0.7-19.7-0.9-29.5-1.6c-8-0.6-15.9-1.4-23.8-2.3c-7-0.8-14-1.3-20.9-2.7
		c-6.1-1.2-11.8-4.5-17.9-5.1c-12.2-1.3-24.6-1.1-36.8-2.3c-8.5-0.8-14.4,2.9-19.1,8.8c-7.4,9.3-16.8,16-26.3,22.9
		c-9.2,6.6-17.8,14-26.5,21.1C482.2,271,481.1,272.8,479.8,274.4z M683.9,296.2c-0.5-0.1-1.1-0.3-1.6-0.4c-3,5.4-5.7,10.9-8.9,16.2
		c-8,13.4-16.1,26.7-24.4,39.8c-1,1.6-3.9,2-6,3c0.2-2.4,0.2-4.8,0.6-7.2c0.2-1,1.3-1.9,2-2.8c10-13.9,18.7-28.6,23.6-45.1
		c1.7-5.6,2.8-11.3,4.4-17.9c-1.9,0.8-2.8,0.9-3.3,1.4c-9.8,8.3-19.1,16.9-24.3,29.2c-3.8,9-8,18-13,26.4c-3,5.1-7.8,9.2-12.4,13.1
		c-1.6,1.4-5.6,1.7-7.4,0.6c-3.2-1.9-1.1-5,0.4-7.3c7.9-12.3,15.9-24.4,23.9-36.7c1.3-1.9,2.2-4.1,3.2-6.2c-0.4-0.4-0.7-0.9-1.1-1.3
		c-1.9,0.6-4,0.8-5.5,1.9c-11.2,8-20.9,17.4-27.3,29.9c-2.4,4.7-5.2,9.2-8.5,13.2c-1.2,1.5-4.4,1.4-6.7,2.1
		c-0.1-2.2-0.9-4.8-0.1-6.6c1.6-3.4,4-6.4,6.4-9.3c6-7.6,10.3-16,11.5-25.7c0.4-2.9,0.1-5.9,0.1-10.3c-8.3,6.2-14.1,12.7-18.4,20.4
		c-5,9-9.8,18.2-14.8,27.2c-1.7,3-1.4,4.5,2,5.8c9.8,3.7,19.4,8,29.3,11.6c3.1,1.1,6.9,1.8,10,1.1c18.7-3.6,37.3-7.6,55.9-11.5
		c2.4-0.5,4.8-1.3,7.8-2.1c-4.3-4.2-3.9-8.4-2.6-12.9c2.1-7.2,4.2-14.5,5.6-21.9C685.1,308.1,686.2,302,683.9,296.2z M200.2,386.4
		c-0.8,0.3-4.2,1.2-4.1,1.8c0.2,2.4,1.3,4.8,2.4,7c0.4,0.9,1.8,1.3,2.8,1.9c22.4,14.6,42.2,31.9,56.6,54.7c1,1.6,0.4,4.3,0.5,6.5
		c-2-0.3-4.1-0.6-6.1-1.1c-0.9-0.2-1.6-1.2-2.3-1.8c-14.4-12.2-29-24.2-43.2-36.6c-4-3.5-8-7.6-10.6-12.2
		c-8.6-15.3-23.4-19-38.8-21.8c-4.1-0.7-5.9,1.6-5.6,6c0.4,5.1,4.1,7.5,7.8,10.1c14.8,10.6,30,20.7,44.1,32.2
		c11.3,9.2,21.3,20,31.6,30.3c4,4,7.7,6.1,13.4,3.7c3.1-1.3,6.7-1.6,10-2.5c8.6-2.4,16.8-5.5,23.4-11.9c1.9-1.9,2.9-3.4,0.6-5.7
		c-14.7-14.6-29-29.6-44.1-43.7C228.3,393.7,215.8,387.8,200.2,386.4z M733.4,225.2c-0.5-0.4-1-0.7-1.6-1.1
		c-2.3,1.9-4.9,3.4-6.7,5.6c-4.4,5.5-8.4,11.3-12.6,17c-5.7,7.7-4.7,13.2,2.2,19.6c6.8,6.3,13.8,12.8,19.1,20.4
		c7.4,10.8,16.9,16.1,29.7,16.1c2.8,0,5.6,0.2,8.4,0.1c8.6-0.3,16.3,1.8,22.7,7.7c3,2.9,5.4,2.1,6.7-1.5c3.1-8.6,6.2-17.2,8.6-26
		c1-3.8,0.4-8.1,0.2-12.2c-0.2-3.6-2.3-4.4-5.5-2.9c-7.7,3.7-14.2,8.8-19.3,15.7c-2.4,3.3-4.5,6.9-7.1,10c-1.1,1.3-3.3,1.6-5,2.3
		c-0.2-1.9-1-4.1-0.3-5.5c1.7-3.7,4.2-7,6.3-10.5c4.9-7.9,6.8-16.6,6.9-25.8c0-1.4-0.7-3.6-1.8-4.1c-1-0.5-3.2,0.5-4.2,1.5
		c-2.2,2.2-4.2,4.7-5.8,7.3c-2.6,4.4-4.8,9-7.2,13.4c-1.7,3.3-4,7.3-8.1,5.2c-4.2-2.3-1.5-6.5,0.2-9.5c3-5.4,6.5-10.6,9.6-16
		c0.9-1.5,1.1-3.4,1.8-5.4c-6.4,0.9-12.3,5.5-16.1,12.2c-3,5.3-5.6,10.8-8.8,16c-1.8,2.9-4.4,5.2-6.7,7.8c-0.8-0.4-1.6-0.7-2.4-1.1
		c0.4-2.6,0.3-5.5,1.4-7.7c5.9-11.2,13.2-21.7,14.6-34.6c0.2-1.6-0.5-3.3-0.8-5c-1.8,0.5-3.8,0.5-5.3,1.5c-1.6,1-3.1,2.6-4.1,4.2
		c-4,6.4-7.7,12.9-11.6,19.3c-1.3,2-3,3.8-4.5,5.7c-0.6-0.2-1.3-0.5-1.9-0.7c0-2.6-0.6-5.3,0.1-7.7c2.3-8,5.2-15.9,7.7-23.9
		C733,230.3,733.1,227.7,733.4,225.2z M1136.9,467.1c7.3,1.6,13.8,3.3,20.4,4.3c1.6,0.2,4.3-1.4,5.2-2.9c5.2-8.7,9.6-17.8,14.9-26.5
		c10.4-17.1,21.2-33.9,31.8-50.9c6.9-11.1,10.2-23.4,10.4-36.4c0.1-2.8-1.6-6.9-3.8-8.1c-2.2-1.2-5.9,0.6-9,1.2
		c-0.7,0.2-1.3,0.9-2,1.5c-8.9,7.6-15.9,16.5-20.1,27.5c-2.7,7-5.5,14-8.2,21.1c-7.5,19.3-14.9,38.6-27.7,55.1
		C1145.2,457.5,1141.3,461.9,1136.9,467.1z M918.4,290.4c0.2-0.3,0.4-0.6,0.6-0.9c-1.1-0.9-2.2-2-3.4-2.7
		c-18.6-11.3-36.9-23.3-56.1-33.6c-9.2-4.9-20-7.7-30.4-9.3c-17.7-2.8-28.4-15.4-40.5-26.3c-0.7-0.6-1.2-1.6-1.4-2.6
		c-1.5-6.8-6.4-9.3-12.6-10.7c-12.5-2.7-24.9-5.7-37.4-8.5c-1.6-0.4-3.3-0.4-4.9-0.6c8.5,7.7,15.5,16.2,23.5,23.6
		c3.1,2.9,8.6,3.2,13.1,4.5c4.8,1.4,10,1.9,14.5,4c6.3,3,12.5,6.7,18.1,10.9c5,3.8,9.9,8.3,13.3,13.6c7.2,11.1,14.6,22.3,17,35.8
		c0.1,0.5,0.7,0.9,1.5,2.1c1.8-3.6,3.6-6.5,4.9-9.6c1.7-3.9,4.4-6.6,8.8-6.9c3.7-0.3,7.7-0.9,11.3-0.1c13.4,3,26.8,6.2,40,9.9
		C905.1,284.8,911.7,287.8,918.4,290.4z M1454.6,339.3c-0.7-0.3-1.4-0.6-2.1-0.9c-1.4,1-3.3,1.8-4.1,3.2c-3.3,5.5-7.5,10.9-9.3,17
		c-5.9,20.3-14.7,39-28.1,55.3c-1.4,1.6-4.8,3.3-6.3,2.7c-3.1-1.2-1.8-4.4-0.6-6.8c8.1-16.5,16.2-32.9,24.2-49.4
		c1.9-4,3.6-8.1,5.4-12.1c-0.5-0.5-1.1-0.9-1.6-1.4c-2.1,0.9-4.7,1.2-6.3,2.7c-4.4,3.9-9.3,7.7-12.3,12.6
		c-6.5,10.7-12.2,22-17.9,33.3c-3.4,6.9-5.8,14.3-9.2,21.2c-1.8,3.8-4.3,7.4-7.2,10.5c-1.3,1.4-4.3,1.1-6.5,1.6
		c-0.3-2.1-1.1-4.3-0.8-6.3c0.2-1.8,1.6-3.6,2.5-5.3c5.7-10.7,11.6-21.3,17.2-32.1c2.5-4.8,4.7-9.9,3.2-16.2
		c-4.4,3.2-8.5,6.6-11.8,10.6c-15.3,19-19.2,42.6-26.5,65.2c19.6-3.9,37.6-10.5,52.7-23.8c4.6-4.1,9.8-7.7,15.2-10.7
		c5.7-3.2,9.3-7.4,10.7-13.8c3.5-15.9,8.7-31.2,16.7-45.6C1453.6,347.4,1453.7,343.1,1454.6,339.3z M230.4,469.4
		c-3.8-2.9-6.9-5.3-10.1-7.7c-24.2-17.8-49.3-34.2-69.3-57.2c-8.4-9.6-21.2-10.7-33.2-10.8c-8,0-10.4,5.8-5.3,11.9
		c4.2,5,8.9,10,14.3,13.3c21.3,12.7,39.8,28.9,58.9,44.4c4.1,3.3,9.7,5.8,15,6.5c8.7,1.2,17.7,0.7,26.5,0.9
		C227.9,470.6,228.7,470,230.4,469.4z M1173.7,473.3c5.7,0.4,10.6,0.5,15.4,1.2c5.1,0.7,8.4-1.1,11-5.4c4.5-7.4,9.7-14.4,14.1-22
		c9.5-16.4,19.3-32.8,27.7-49.8c3.6-7.2,4.1-16,5.6-24.2c0.7-4-2.1-6.1-5.8-4.9c-3.9,1.3-8.5,2.9-11,5.8
		c-6.1,7.4-11.8,15.3-16.5,23.6c-5,9-8.7,18.7-12.8,28.2c-6.8,15.4-14.4,30.2-25.3,43.1C1175.2,470.1,1174.7,471.4,1173.7,473.3z
		 M1209.3,476.5c7,1.2,13.1,2.6,19.3,3.1c1.9,0.2,4.8-1.6,5.8-3.4c10.8-17.8,21.4-35.7,31.7-53.8c6-10.5,8.6-22.3,9.9-34.2
		c0.6-4.9-1.6-7-6.3-5.4c-3.2,1.1-6.3,2.8-8.8,5c-9.8,8.6-16.1,19.7-20.9,31.7c-7.4,18.3-16.5,35.7-27.7,51.9
		C1211.4,472.7,1210.7,474.2,1209.3,476.5z M1.5,426.3c0,0.4,0.1,0.9,0.1,1.3c4.1,1.1,8.1,2.4,12.3,3.3c2.2,0.5,4.6,0.3,6.9,0.2
		c37.3-1,72.9,7.4,107.8,19.3c12.9,4.4,25.6,9.2,38.4,13.7c2.7,0.9,5.5,1.3,8.2,2c-0.1-1.5-0.4-2.3-1-2.7
		c-17.1-12.8-34-25.8-51.3-38.4c-6.1-4.4-13.3-6.7-22.3-7.8c1.9,2.2,2.8,3.6,4,4.5c3.7,3,7.5,5.9,11.3,8.8
		c5.2,3.9,10.7,7.7,15.8,11.8c1,0.8,0.9,3,1.3,4.5c-1.6,0.2-3.3,0.9-4.8,0.6c-1.5-0.3-2.8-1.6-4.2-2.5
		c-11.1-7.3-22.2-14.7-33.3-21.9c-2.2-1.5-4.7-2.6-7-3.9c1.7,2.3,3.8,3.8,5.9,5.4c2,1.5,4.6,3.2,2.3,5.8c-0.9,1-4.2,0.6-5.9-0.2
		c-6.1-3.2-11.9-7-17.9-10.2c-1.7-0.9-4.6-1.6-5.8-0.8c-3.7,2.6-7,1.7-10.7,0.6c-3.6-1-7.5-2.7-10.9-2.1
		C27.5,420,14.5,423.3,1.5,426.3z M732,216.6c-7.6-6.5-14.9-13-22.6-19c-1.2-0.9-4.7,0.4-6.8,1.4c-3.2,1.4-6,4-9.3,5.1
		c-19.5,6.6-39.5,6.1-59.5,3.5c-18.1-2.4-36-6-54.3-5.3c-7.3,0.3-14,2.4-20,6.7c2.5,0.7,4.9,1,7.3,1c13,0.1,25.9,1.3,38.2,5.9
		c4,1.5,8.1,2.9,12.3,3.4c15.1,1.6,30.3,2.8,45.5,4c9.2,0.7,18.4,0.8,27.5,1.9c6.6,0.9,7.5,0.7,8-6.2c0.1-1.8,0-3.7,0-6
		c-2.4,0.9-3.9,1.8-5.5,1.8c-1,0-2.1-1.3-3.1-2c2.9-2.4,5.4-5.8,8.7-7c3-1.1,5.3,1.8,5.7,5.2c0.3,2.3,0.5,4.7,0.9,7.5
		c2.9-1.6,5-2.9,7.3-3.9c3.3-1.5,6.3-1.4,8.8,1.8C725.2,221.6,725.5,221.6,732,216.6z M323.4,441c0.2-0.5,0.3-1,0.5-1.5
		c-0.7-0.4-1.4-0.8-2-1.3c-13.7-11-27.5-21.9-41-33c-9.3-7.6-18.5-15.4-30.3-18.8c-3.6-1-7.4-1.5-11.1-1.7c-1.4-0.1-3.6,0.8-4.2,1.9
		c-0.5,0.9,0.6,2.9,1.2,4.3c0.4,0.9,1.2,1.5,1.9,2.2c16.9,16.8,33.8,33.6,50.6,50.4c2.5,2.5,5,3.1,8.4,1.7c2.8-1.2,6-1.7,9-2.1
		C312.1,442.2,317.7,441.6,323.4,441z M934.6,332.5c-2.8,2.3-5.2,3.8-7,5.7c-10.2,10.7-17.5,23.2-23.3,36.8
		c-4.5,10.7-9.4,21.2-14.1,31.9c-0.6,1.3-1.3,3.1-0.8,4.2c2.9,6.3,6.1,12.4,9.2,18.8C914.2,417.9,936.9,355.9,934.6,332.5z
		 M564.2,291.1c-5.8,5-11.7,9.6-14.3,17.4c-1.8,5.6-5.2,10.8-8.2,16c-0.7,1.2-3.5,2.4-4.3,1.9c-1.4-0.8-2.4-3-2.6-4.7
		c-0.2-1.6,0.6-3.5,1.4-5.1c2.4-4.7,5.1-9.2,7.5-13.8c1.6-3.1,3.2-7.2-0.3-9.3c-1.4-0.8-6,1.8-7.8,3.9c-4.7,5.8-8.6,12.4-13.1,18.4
		c-0.9,1.2-3.4,1.3-5.2,2c-0.4-1.8-1.5-3.9-1-5.5c1.3-3.9,3.5-7.4,5.1-11.2c1.2-3,2-6.3,3-9.4c-0.5-0.3-0.9-0.5-1.4-0.8
		c-1.7,1.4-3.6,2.7-5,4.3c-3.9,4.5-7.5,9.1-11.3,13.7c-2.8,3.4-4.4,3.2-6.6-0.5c-0.5-0.8-0.9-1.7-1.6-2.9c-2.9,2.7-5.6,5.2-8.7,8
		c18.8,14.2,40.8,19.2,62,26.7c-0.6-5.9-0.5-6.2,4.8-14.6C563.2,315.2,565.6,303.8,564.2,291.1z M352,434.5c-0.9-1.2-1.4-2-2-2.6
		c-13.6-13-27.1-26.2-41-39c-8.9-8.2-19.7-12.8-31.7-14.4c-4.2-0.6-6,1.6-4.9,5c1.2,3.5,3.1,7.3,5.9,9.6
		c13.8,11.3,29.1,21.1,41.8,33.5c9.4,9.2,18.4,12.2,30.4,8.5C350.7,435,351,434.9,352,434.5z M1244.8,480.4
		c4.3,0.6,8.4,0.9,12.3,1.7c3.9,0.9,5.7-0.4,7.4-4.1c5-10.4,9.6-21.4,16.5-30.5c10.3-13.7,14.1-28.9,15-45.4
		c0.1-1.8-1.2-3.7-1.8-5.5c-2,0.8-4.7,1.2-5.9,2.6c-3,3.5-5.6,7.3-7.7,11.3c-11.7,22.3-23.3,44.7-34.9,67.1
		C1245.4,478.4,1245.2,479.2,1244.8,480.4z M1274,482.4c6.7,0,12.8-0.1,18.8,0c3.6,0.1,5.8-1.4,7.3-4.7c4-9,8.8-17.6,12.1-26.8
		c2.1-5.7,2.4-12.1,2.8-18.2c0.1-2-1.6-5.4-3-5.8c-2-0.5-5.5,0.6-6.8,2.2c-4.9,5.9-9.8,11.9-13.6,18.5
		c-6.1,10.5-11.3,21.4-16.8,32.2C1274.4,480.3,1274.4,481,1274,482.4z M885.2,397.5c1.6-2.5,2.7-4,3.6-5.7
		c9.2-17.6,15-36.3,17.5-55.9c0.5-4,0.1-8.1,0.1-13c-8.6,2.9-13.5,8.1-16.2,15c-5.3,13.7-10.2,27.6-15,41.5c-0.5,1.4,0,4.5,0.7,4.7
		C881.9,386.1,883.5,391.3,885.2,397.5z M370.4,425c-1.9-2.4-3.3-4.4-4.9-6.2c-5.2-6-10-12.1-9.5-20.9c0.1-2-1.7-4.9-3.4-6.1
		c-9.8-6.6-20.1-12-32.4-11.2c-2.3,0.1-4.5,1.8-6.7,2.7c1.2,2.1,1.9,4.9,3.7,6.1c15.3,10.7,29.8,22.1,40.8,37.5
		c0.8,1.1,3.1,2.1,4.4,1.8C364.9,428.1,367.3,426.5,370.4,425z M968.7,385c7.7-9.6,15.3-19.2,22.5-28.2c-10.4,3-21.6,6.1-32.7,9.3
		c-4.7,1.4-7.4,5.1-9.6,9.3c-3.5,6.5-7.4,12.7-10.9,19.2c-2.5,4.7-4.4,9.8-6.9,14.6c-2.2,4.3-4.3,8.8-7.3,12.5
		c-2.8,3.3-3.3,6.3-2.1,11.2c1.5-2.4,2.5-4,3.5-5.6c7.5-12.5,14.8-25.2,22.5-37.6c1.9-3.1,4.7-6,7.6-8.3
		C962.5,375.5,966,376.7,968.7,385z M1443.4,400.4c6.6-2.1,12.9-1.9,15.3-8.6c5.4-15.6,10.8-31.2,16-46.9c0.5-1.6,0-3.6-0.1-5.4
		c-1.9,0.3-4.7-0.1-5.7,1c-4,4.8-8.5,9.7-10.8,15.4c-5.1,12.6-8.9,25.6-13.2,38.5C1444.4,395.9,1444.1,397.5,1443.4,400.4z
		 M1490.1,380.9c0.4,0.4,0.7,0.8,1.1,1.2c5.6-2.1,11.2-4.3,16.7-6.5c0.7-0.3,1.4-1,1.7-1.7c5-11,11.3-21.6,10.8-34.2
		c-0.1-1.8-0.8-4.5-2-5c-1.6-0.6-4,0.2-5.8,1c-1.4,0.6-2.7,2.1-3.4,3.5C1502.8,353,1496.4,367,1490.1,380.9z M1471.3,389
		c0.5,0.2,1.1,0.4,1.6,0.6c1.6-2.4,3.4-4.6,4.8-7.1c6.5-12.2,12.9-24.3,19.2-36.6c1.6-3.2,3.3-6.6,3.9-10c0.4-2-1.3-4.4-2.1-6.6
		c-1.7,0.6-3.8,0.7-5.1,1.8c-6.1,5.4-10.9,11.8-13,19.9c-2.8,11-5.6,21.9-8.3,32.9C1471.9,385.6,1471.6,387.3,1471.3,389z
		 M472.9,412.8c-6.8-5.8-12.5-11.5-18.9-16.1c-4.1-2.9-9.3-4.6-14.2-5.9c-1.9-0.5-5.7,0.8-6.5,2.4c-0.8,1.6,0.3,5.2,1.8,6.8
		c3.4,3.7,7.6,6.7,11.3,10.2C454.2,417.8,462.9,415.7,472.9,412.8z M588.4,294.2c-1.7,1.4-3.3,2.2-4.1,3.4
		c-6.2,8.8-12.5,17.6-18.3,26.6c-3.6,5.5-6.4,11.5-9.8,17.6c1.1,0.5,2.9,1.7,4.9,1.9c1.5,0.2,3.9-0.6,4.7-1.7
		c6.2-9.2,12.1-18.7,17.9-28.1C587.3,308.2,589.5,302,588.4,294.2z M365.9,394.1c1.1,1.4,2,2.7,3.1,3.8c5.5,5.7,10.9,11.3,16.5,16.9
		c6.5,6.5,12.4,7.5,21.2,3.8C399.3,404,377.6,390.7,365.9,394.1z M397.1,395.9c1.9,2.7,3,4.9,4.7,6.5c3.4,3.3,7.4,6.1,10.5,9.6
		c7.4,8.3,16.3,6.4,25.4,4.7C433.4,404.9,413.2,395.5,397.1,395.9z M1358.3,409.7c-0.4-0.2-0.7-0.4-1.1-0.6
		c-1.4,1.7-2.9,3.4-4.2,5.2c-10.8,15.5-21.5,31-32.4,46.4c-1.8,2.6-4.7,4.4-6.9,6.7c-1.5,1.5-2.8,3.3-4.1,5c0.4,0.3,0.8,0.7,1.2,1
		c1.2-1,2.5-2,3.7-3c8.3-6.6,16.7-13.1,24.9-19.8c1.7-1.4,3-3.4,3.9-5.5c4.6-10.2,8.9-20.4,13.3-30.6
		C1357.4,413,1357.8,411.4,1358.3,409.7z M1504.2,488.5c-0.7-0.5-1.3-0.9-2-1.4c-12.4,12.5-24.8,25.1-38.2,38.5c6.1,0,10.7,0,14.4,0
		c1.3-2.7,2.1-5.1,3.6-7c3.9-4.9,8.4-9.3,12.1-14.3C1497.8,499.4,1500.8,493.8,1504.2,488.5z M1524.9,484.6
		c-17.9,9.2-26.4,26.8-38.4,41.6c2.8-0.3,6.3-0.4,7.8-2.1c8-9.3,15.6-19.1,23.1-28.7C1520.1,491.9,1522.4,488.2,1524.9,484.6z
		 M1449.8,524.3c6.3,3.4,8-2.1,11-4.7c10.9-9.3,18-21.4,25.4-33.4C1472.5,497.4,1460.3,510,1449.8,524.3z M1430.3,526.2
		c0.3,0.6,0.5,1.1,0.8,1.7c3-1.5,6.5-2.6,9-4.7c4.4-3.7,8.3-7.9,12.2-12.2c4.1-4.7,7.9-9.6,11.9-14.5
		C1449.8,503.2,1435.8,514,1430.3,526.2z M1546.4,474.8c-18.2,13-28.5,31.7-40.4,49.4C1509.8,523.5,1544.7,480.9,1546.4,474.8z
		 M1166.1,409.1c-0.4-0.3-0.7-0.6-1.1-0.9c-11.3,17.7-22.6,35.3-33.9,53c0.4,0.3,0.9,0.6,1.3,0.8
		C1147.5,446.8,1158.3,428.9,1166.1,409.1z M109.2,412.2c-1.8-3.5-3.1-6.4-4.8-8.9c-0.6-0.9-2.6-1.9-3.5-1.6
		c-7.1,2.6-14.1,5.6-22.3,8.9c4.4,2.1,7.5,3.9,10.8,5c1.2,0.4,3.6-0.4,4.2-1.4c2.2-3.3,4.8-4,8.4-3
		C104.1,411.8,106.2,411.8,109.2,412.2z M127.2,489.8c0.3-0.4,0.7-0.8,1-1.3c-15.6-15.3-33.5-27.1-54.7-34.9
		C91.7,466,109.4,477.9,127.2,489.8z M1518.8,371.5c15-1.9,22.7-12.2,17.8-24.1C1529.1,354.4,1523.5,362.4,1518.8,371.5z
		 M497.4,412.6c-9-6.3-16.3-13.9-27.7-13.8C474.6,409.5,486.9,416,497.4,412.6z M790.6,269.5c4.8-3,8.5-4.9,11.7-7.3
		c0.9-0.7,1.5-3.7,0.8-4.5c-2.9-3.4-6.4-6.3-9.6-9.4c-0.5,0.2-0.9,0.4-1.4,0.6C791.6,255.3,791.1,261.7,790.6,269.5z M125.1,385.9
		c0,0.5-0.1,1.1-0.1,1.6c6.4,1.8,12.8,3.6,19.5,5.4c1.6-4.5,2.9-8.5,4.5-13.1C140.6,381.9,132.8,383.9,125.1,385.9z M642.4,504.1
		c-0.2-0.4-0.4-0.8-0.6-1.3c-1.3,0.4-2.8,0.5-3.9,1.2c-16.7,9.8-33.4,19.6-50,29.6c-2,1.2-3.4,3.3-5.1,5c0.2,0.1,0.4,0.2,0.5,0.4
		C603.1,527.4,622.7,515.8,642.4,504.1z M362.6,401.5c0,5.5,8.9,18.7,14.7,20.6c1.6,0.5,3.5-0.2,5.3-0.3c0.2-0.6,0.5-1.1,0.7-1.7
		C376.3,413.9,369.4,407.6,362.6,401.5z M116.6,490.4c-15.5-10.5-28.9-23.2-46.1-30.7c0.1,0.6,0.1,0.8,0.1,0.8
		c13.9,9.8,27.8,19.6,41.8,29.3C113.5,490.5,115.2,490.2,116.6,490.4z M1410,529.4c0.3,0.4,0.7,0.8,1,1.1
		c6.1-1.2,23.7-19.7,25.1-26.5c-0.4-0.3-0.7-0.7-1.1-1C1426.7,511.8,1418.4,520.6,1410,529.4z M1075.5,423.8
		c7.7-13.1,13.3-27.1,16.9-41.9C1084.3,394.9,1078.7,408.9,1075.5,423.8z M240,440.9c0.4-0.5,0.8-1,1.2-1.5c-9.2-11.4-20-21-32.2-29
		c-0.4,0.5-0.9,1-1.3,1.5C218.4,421.5,229.2,431.2,240,440.9z M709.9,239.4c2.5-5,5.1-9.5,7.1-14.2c0.5-1.1-0.3-3-1.1-4.2
		c-0.2-0.3-2.5,0.1-3.3,0.7c-1.8,1.3-3.4,3-5,4.7C702.6,231.7,702.8,234,709.9,239.4z M1561.6,474.8c-0.4-0.3-0.8-0.7-1.2-1
		c-14.2,11.2-21,28.3-33.2,41.1c0.5,0.4,1,0.8,1.5,1.2C1539.6,502.3,1550.6,488.5,1561.6,474.8z M534.6,516.5
		c4.3,1.8,31.8-14.1,36.9-21.8C559.4,501.8,547.3,508.9,534.6,516.5z M1505.3,453.2c7.6-9.9,15.3-19.8,22.9-29.6
		C1521.7,425.1,1504.3,447.5,1505.3,453.2z M912.2,422.5c-2.5,3.5-4.3,5.8-5.9,8.3c-3.9,5.8-3.5,7.3,3.5,12.2
		C911.5,436.6,916.2,431.3,912.2,422.5z M689.9,190.1c-12.4-2-23.5,0.4-35.9,3.7C668.4,195.8,685,194.1,689.9,190.1z M1538.3,516
		c0.2,0.2,0.4,0.4,0.6,0.7c0.6-0.4,1.3-0.7,1.8-1.2c8.9-10.9,18-21.7,26.7-32.8c1.6-2.1,2.1-5.1,3.1-7.7c-0.3-0.1-0.5-0.2-0.8-0.3
		C1559.1,488.5,1548.7,502.3,1538.3,516z M1371.6,539.8c0.2,0.6,0.5,1.2,0.7,1.8c2.8-1.2,6.2-1.9,8.4-3.8c3.7-3.4,6.4-7.8,9.8-11.5
		c3.6-4,7.6-7.7,11.4-11.5c-0.3-0.3-0.6-0.7-1-1C1391.2,522.5,1381.4,531.2,1371.6,539.8z M612.6,501.2c-0.2-0.5-0.3-1-0.5-1.5
		c-2.9,0.4-6.5-0.1-8.6,1.5c-7.3,5.6-14,11.9-20.9,17.9c0.1,0.1,0.2,0.3,0.3,0.4C592.8,513.4,602.7,507.3,612.6,501.2z
		 M1419.8,509.1c-0.6-0.6-1.1-1.1-1.7-1.7c-8.5,9-16.9,18-25.4,27.1c0.4,0.5,0.8,0.9,1.1,1.4c1.6-0.8,3.7-1.2,4.8-2.5
		c3.5-3.8,6.5-8.1,9.9-12C1412.1,517.1,1416,513.2,1419.8,509.1z M509,514.3c0,1.7-0.2,3.1,0,3.1c8.6,3,17.2,5.8,25.9,8.6
		c0.6,0.2,1.4-0.4,2.1-0.6c0.1-0.4,0.1-0.8,0.2-1.2C528.1,521.1,519,517.9,509,514.3z M1489.8,428.8c-10.8,9.1-21.8,17.1-25.7,30.5
		C1472.4,449.5,1480.9,439.4,1489.8,428.8z M1339.6,504.9c-0.6-0.5-1.1-1.1-1.7-1.6c-6.5,8-13.1,16-19.6,24c0.6,0.5,1.1,1,1.7,1.5
		C1327.6,521.9,1332.8,512.7,1339.6,504.9z M563,492.8c-0.2-0.4-0.4-0.7-0.6-1.1c-11.9,6.9-23.8,13.9-35.8,20.8
		c0.3,0.5,0.5,1,0.8,1.5C539.7,507.8,551.2,500.1,563,492.8z M582.5,526.5c0.4,0.6,0.8,1.1,1.2,1.7c11.2-7.2,22.5-14.4,33.7-21.6
		c-0.3-0.4-0.6-0.9-0.9-1.3C605.1,512.3,593.8,519.4,582.5,526.5z M176.7,418.9c-0.5,0.6-1,1.1-1.5,1.7c9,7,18,14,27,20.9
		c0.4-0.5,0.8-1.1,1.2-1.6C194.5,432.9,185.6,425.9,176.7,418.9z M1528.2,442.3c9.7-8.8,19.5-17.6,29.2-26.4
		c-0.4-0.4-0.7-0.8-1.1-1.2C1545.2,422,1537.1,432.7,1528.2,442.3z M1115.1,493.8c-6.7-0.9-17.9,7.7-18.1,13.8
		C1103.2,502.9,1108.8,498.6,1115.1,493.8z M1366.7,489.3c-0.4-0.4-0.8-0.8-1.2-1.2c-1.3,0.7-3.1,1.1-3.8,2.2
		c-5.1,7.5-9.9,15.2-14.8,22.7c-1.2,1.8-2.5,3.5-3.8,5.2c0.5,0.3,0.9,0.6,1.4,1C1351.9,509.2,1359.3,499.3,1366.7,489.3z
		 M120.8,508.3c-0.5-0.4-1-0.8-1.5-1.2c-9.3,1.7-9.4,11.1-13.8,16.8c0.3,0.3,0.6,0.5,0.9,0.8C111.2,519.2,116,513.8,120.8,508.3z
		 M1466.3,442.5c-0.4-0.3-0.9-0.6-1.3-0.9c-5.4,10.4-10.8,20.7-16.2,31.1c0.5,0.3,1.1,0.6,1.6,0.9
		C1455.7,463.2,1461,452.8,1466.3,442.5z M133,471.5c5.7,7,11.8,13.4,20.5,16c0.3-0.4,0.6-0.8,0.9-1.2
		C147.2,481.4,140.1,476.4,133,471.5z M1173.5,459.4c0.6,0.4,1.1,0.8,1.7,1.2c4.9-7.8,9.8-15.6,14.7-23.3c-0.6-0.4-1.1-0.7-1.7-1.1
		C1183.3,443.9,1178.4,451.6,1173.5,459.4z M61.8,455.9c0.3-0.6,0.7-1.2,1-1.8c-8.3-4.5-16.7-9.1-25-13.6c-0.2,0.4-0.5,0.9-0.7,1.3
		C45.3,446.5,53.6,451.2,61.8,455.9z M1380.2,483.2c-0.3-0.3-0.7-0.6-1-1c-1.9,0.9-4.6,1.4-5.4,2.9c-2.9,5-5.1,10.4-7.6,15.6
		c0.1,0.1,0.2,0.2,0.3,0.2C1371.1,495.1,1375.7,489.1,1380.2,483.2z M1384.2,496.6c7.5-6.8,14.8-13.7,17.8-24
		c-1.4,0.5-2.6,1.3-3.2,2.4c-1.3,2.6-1.9,5.8-3.6,8.1C1391.9,487.8,1387.9,492.1,1384.2,496.6z M1552.2,426.3
		c0.2,0.3,0.5,0.6,0.7,0.9c-7.8,7.3-15.6,14.6-23.4,21.8c0.4,0.4,0.8,0.9,1.2,1.3C1537.9,442.3,1545,434.3,1552.2,426.3z M79,490.4
		c0.3-0.3,0.6-0.7,1-1c-7.5-7-15-14-22.5-21c-0.3,0.4-0.7,0.8-1,1.1C64,476.4,71.5,483.4,79,490.4z M1160.3,503.4
		c0.6,0.7,1.1,1.4,1.7,2.1c4.5-3.3,9.1-6.6,13.6-10c-0.5-0.7-1-1.4-1.5-2C1169.5,496.9,1164.9,500.2,1160.3,503.4z M177,477
		c-0.2,0.5-0.5,1-0.7,1.5c6.2,2.9,12.3,5.7,18.5,8.6c0.4-0.8,0.7-1.7,1.1-2.5C189.5,482.1,183.2,479.6,177,477z M769.4,239.2
		c-0.1-0.7-0.2-1.3-0.3-2c-3,0.1-6.2-0.1-9.1,0.7c-0.8,0.2-0.8,3.5-1.4,6.8C763.2,242.4,766.3,240.8,769.4,239.2z M487.3,524.1
		c-7.1,1.9-10.5,6.8-12,13.5C479.3,533.1,483.3,528.6,487.3,524.1z M1482,447c-0.3-0.3-0.7-0.6-1-0.9c-4.7,7-9.5,14-14.2,21
		c0.5,0.4,1.1,0.7,1.6,1.1C1472.9,461.1,1477.5,454,1482,447z M1532.6,427c4-3.8,8.7-8.4,14.4-14
		C1539.7,416.9,1535.8,422.4,1532.6,427z M29.6,455.1c0.2-0.6,0.5-1.1,0.7-1.7c-7.6-3.2-15.3-6.4-22.9-9.6c-0.2,0.4-0.4,0.8-0.5,1.3
		C14.5,448.5,22,451.8,29.6,455.1z M86.1,478.7c4.5,7.2,11.7,11.8,15.7,10.8C96.5,485.8,91.3,482.3,86.1,478.7z M1168.1,491.3
		c-0.3-0.6-0.6-1.1-0.9-1.7c-4.5,2.5-9,4.9-13.6,7.4c0.4,0.6,0.7,1.3,1.1,1.9C1159.1,496.4,1163.6,493.8,1168.1,491.3z
		 M1496.2,449.9c-0.3-0.3-0.7-0.5-1-0.8c-3.9,4.3-7.8,8.5-11.7,12.8c0.4,0.3,0.7,0.7,1.1,1C1490.1,460.1,1492.6,454.5,1496.2,449.9z
		 M649.4,528.7c0.2,0.4,0.3,0.8,0.5,1.1c7.2-3,14.5-5.9,21.7-8.9c-0.2-0.4-0.4-0.9-0.5-1.3C663.9,522.7,656.7,525.7,649.4,528.7z
		 M634.9,324.4c-0.5-0.3-1-0.6-1.5-0.8c-3.4,5.4-6.8,10.7-10.2,16.1c0.5,0.3,1,0.6,1.5,0.9C628,335.2,631.5,329.8,634.9,324.4z
		 M168.3,480.5c4.5,2.7,7.2,9.2,13.4,8.4c0.2-0.4,0.4-0.9,0.6-1.3C177.7,485.2,173,482.9,168.3,480.5z M1195.2,500.5
		c0.3,0.6,0.7,1.3,1,1.9c4.5-1.9,9-3.8,13.5-5.7c-0.3-0.7-0.6-1.3-0.9-2C1204.3,496.7,1199.8,498.6,1195.2,500.5z M1065.9,519.9
		c0.3,0.4,0.6,0.8,0.9,1.2c4.8-3.3,9.5-6.5,14.3-9.8c-0.3-0.4-0.6-0.8-0.9-1.2C1075.4,513.4,1070.7,516.6,1065.9,519.9z
		 M1178.8,499.2c0.2,0.5,0.4,1,0.6,1.4c5.1-2.3,10.1-4.6,15.2-6.9c-0.2-0.5-0.4-0.9-0.6-1.4C1188.9,494.6,1183.8,496.9,1178.8,499.2
		z M1499.2,430.4c0.2,0.2,0.3,0.3,0.5,0.5c-4.1,3.7-8.1,7.4-12.2,11c0.1,0.1,0.3,0.2,0.4,0.4
		C1491.7,438.3,1495.4,434.4,1499.2,430.4z M1068.1,508.9c-0.3-0.4-0.6-0.8-0.9-1.2c-2.5,1.7-4.9,3.5-8.2,5.8
		C1064.8,514.9,1066,511.1,1068.1,508.9z M550.8,521.4c0.3,0.4,0.7,0.8,1,1.2c4-2.8,7.9-5.7,11.9-8.5c-0.2-0.3-0.5-0.7-0.7-1
		C558.9,515.9,554.8,518.7,550.8,521.4z M44.6,468.3c-0.3,0.4-0.7,0.8-1,1.2c3.9,2.7,7.7,5.3,11.6,8c0.3-0.4,0.6-0.9,0.9-1.3
		C52.3,473.5,48.5,470.9,44.6,468.3z M69.8,453c0.3-0.4,0.6-0.7,1-1.1c-4.3-2.9-8.7-5.9-13-8.8c-0.2,0.3-0.4,0.6-0.6,0.9
		C61.4,447,65.6,450,69.8,453z M46.7,491.1c0.4-0.6,0.8-1.3,1.2-1.9c-3.7-2.2-7.5-4.4-11.2-6.6c-0.2,0.3-0.3,0.6-0.5,0.8
		C39.7,486,43.2,488.6,46.7,491.1z"/>
</g>
</svg>
