<svg id="Layer_1" data-name="Layer 1" xmlns="http://www.w3.org/2000/svg" viewBox="0 0 600.01 194.22">
    <defs>
        <style>
            .foreground-1{fill:#dcb775;}
            .foreground-2{fill:#858c63;}
            .foreground-3{fill:#c6bf5f;}
            .foreground-4{fill:#fff;}
            .foreground-5{fill:#c3c0b7;}
        </style>
    </defs>
    <title>передний план2</title>
    <g id="покрас">
        <polygon class="foreground-1"
                 points="361.43 51.31 371 48.22 375.46 48.23 386.27 45.66 397.09 43.64 408.46 42.17 422.77 41.99 438.9 41.99 452.11 45.11 450.45 46.76 429.18 48.41 401.5 50.98 384.26 51.89 366.84 52.63 361.43 51.31"/>
        <polygon class="foreground-2"
                 points="599.78 53.03 599.78 82.3 554.49 83.24 550.66 81.5 544.74 81.6 537.99 80.71 533.21 80.08 530.16 77.9 516.58 74.37 508.09 73.64 507.02 73.61 507 73.61 490.78 73.15 490.68 73.15 487.28 73.05 454.43 73.47 452.85 73.49 452.87 73.25 453.66 64.07 453.66 64.05 487.51 63 507.04 62.31 525.27 59.56 525.38 59.54 532.51 58.47 533.24 58.07 533.26 58.06 536.12 56.51 536.13 56.51 540.89 53.93 599.78 53.03"/>
        <polygon class="foreground-3"
                 points="353.64 53.07 363.73 51.9 371.62 52.04 401.5 50.98 416.34 49.59 435.52 47.86 454.28 46.56 483.13 54.78 520.35 55.5 537.95 53.77 535.35 57.67 509.24 62.57 481.98 63.29 434.8 64.59 362.39 68.49 353.64 53.07"/>
        <polygon class="foreground-2"
                 points="112.57 46.91 133.45 47.76 137.89 45.77 149.38 42.97 186.8 39.56 236.33 36.45 279.96 34.12 285.55 33.19 289.74 34.12 298.28 29 358.01 28.41 378.49 28.93 422.82 36.97 432.16 40.08 428.73 42.38 405.45 42.83 392.14 44.19 375.46 48.23 369.01 49.48 353.43 52.2 330.75 62.18 328.34 55.83 303.09 50.99 302.18 47.37 277.08 41.92 256.67 46.76 248.66 57.65 247.9 64.75 237.31 63.24 207.23 62.18 199.82 62.18 168.37 62.79 136.47 62.03 109.86 62.03 109.86 47.52 112.57 46.91"/>
        <polygon class="foreground-2"
                 points="368.73 66.59 402.59 68.39 421.57 78.65 422.59 86.6 382.32 80.44 360.78 78.14 368.73 66.59"/>
        <polygon class="foreground-1"
                 points="460.3 74.29 463.49 73.78 489.86 73.14 502.73 73.27 516.59 74.37 529.62 77.22 533.21 80.08 512.04 79.52 481.45 78.88 472.02 78.88 466.16 77.35 460.3 74.29"/>
        <polygon class="foreground-3"
                 points="599.78 82.1 599.78 103.36 592.39 102.86 588.77 102.74 588.24 102.72 550.91 101.49 539.75 101.93 539.71 101.93 519.83 102.72 513.64 102.97 513.59 102.97 505.88 103.27 505.85 103.27 502.44 103.41 496.88 102.51 496.86 102.51 457.08 96.05 457.07 96.05 446.72 94.37 425.09 87.4 425.08 87.4 422.59 86.6 421.55 78.64 420.26 68.7 452.87 73.25 454.43 73.47 460.3 74.29 467.12 78.08 469.72 78.28 469.73 78.28 474.24 78.63 482.06 78.89 482.28 78.9 482.67 78.91 537.99 80.71 557.89 81.36 599.78 82.1"/>
        <polygon class="foreground-1"
                 points="599.78 103.05 599.78 108.77 598.05 110.25 596.82 110.27 596.68 110.27 593.39 110.34 593.3 110.34 551.9 111.16 538.08 110.99 537.94 110.99 499.76 110.51 491.55 109.37 491.51 109.36 486.36 108.64 486.25 108.63 465.77 105.77 457.77 104.66 444.87 105.13 444.83 105.13 439.69 105.31 434.02 104.14 434.01 104.14 430.85 103.49 423.94 100.76 423.77 100.69 403.44 92.67 403.3 92.61 401.21 91.79 394.9 89.59 394.86 89.57 383.25 85.53 378.46 83.86 367.72 81.54 367.7 81.54 365.2 81 365.26 80.6 365.55 78.64 365.58 78.41 370.9 79.21 370.93 79.22 425.08 87.4 425.09 87.4 434.8 88.87 457.07 96.05 457.08 96.05 457.2 96.09 494.55 102.31 496.86 102.51 496.88 102.51 505.85 103.27 505.88 103.27 509.24 103.56 513.59 102.97 513.64 102.97 522.19 101.81 539.55 101.93 539.75 101.93 569.32 102.19 588.24 102.72 588.77 102.74 599.78 103.05"/>
        <polygon class="foreground-2"
                 points="599.78 110.31 599.78 126.87 505.45 118.81 472.58 111.41 465.41 107.94 465.46 107.65 465.77 105.77 465.87 105.16 486.25 108.63 486.36 108.64 490.4 109.33 491.51 109.36 491.55 109.37 519.8 110.25 537.94 110.99 538.08 110.99 565.39 112.1 593.3 110.34 593.39 110.34 594.79 110.25 596.6 110.27 596.82 110.27 599.78 110.31"/>
        <polygon class="foreground-3"
                 points="492.67 118.73 483.55 121.08 460.32 119.61 346.8 92.55 302.39 86.67 252.99 80.2 187.11 72.26 109.77 70.5 109.86 62.03 150.45 62.22 172.15 62.45 193.4 62.68 207.23 62.18 226.77 62.73 241.42 63.59 250.36 65.08 253.71 79.36 293.92 79.98 311.42 78.99 326.44 77.25 351.39 75.26 369.14 82.09 384.4 85.81 409.23 94.75 431.69 103.93 448.07 105.42 463.84 106.79 472.58 111.41 493.13 117.09 492.67 118.73"/>
        <polygon class="foreground-1"
                 points="325.78 92.88 344.49 97.84 382.54 106.14 412.66 113.58 433.23 120.15 447.98 118.17 430.38 113.08 336.06 91.02 325.78 92.88"/>
        <polygon class="foreground-3"
                 points="182.93 72.3 230.67 76.42 306.11 88.8 344.49 97.84 395.3 109.01 421.21 116.09 446.76 126.52 450.12 128.56 449.88 129.52 448.08 132.28 441.84 135.4 427.21 136.84 406.46 135.88 387.75 132.04 372.63 128.8 352.36 120.53 322.02 111.41 273.56 96.9 249.33 88.14 228.46 82.74 206.75 78.78 184.92 75.07 182.93 72.3"/>
        <polygon class="foreground-3"
                 points="109.17 30.02 305.48 29.11 289.74 34.12 285.55 33.19 278 34.43 253.29 36.03 234.63 36.91 217.03 38.51 173.65 40.65 164.94 41.18 146.99 43.49 133.65 46.69 109.86 47.52 109.17 30.02"/>
        <polygon class="foreground-3"
                 points="73.44 59.68 73.07 68.39 73.06 68.51 72.97 70.68 72.97 70.72 37.04 72.13 21.07 74.01 11.9 77.23 4.49 79.83 4.46 79.84 0 81.4 0 55.58 38.34 57.25 38.63 57.26 45.73 57.57 73.14 59.66 73.44 59.68"/>
        <polygon class="foreground-3"
                 points="73.01 33.62 46.51 36.11 40.46 42.87 39.58 41.14 39.6 40.83 39.84 36.4 38.17 35.63 34.08 39.47 32.74 36.06 30.22 36.26 26.07 40.41 25.67 36.87 21.12 37.68 19.3 34.65 17.08 35.35 12.13 40.91 12.13 35.66 10.61 35.49 10.31 35.46 10.18 35.62 6.57 40.21 6.29 39.67 5.36 37.88 3.3 38.12 2.73 38.18 1.42 39.88 0 41.71 0 31.41 31.92 30.24 73.01 33.62"/>
        <polygon class="foreground-2"
                 points="73.44 59.68 73.14 59.65 55.11 57.85 38.63 57.26 38.34 57.25 23.09 56.7 0 56.02 0 41.21 1.42 39.88 3.3 38.12 3.41 38.01 5.36 37.88 6.28 39.69 6.29 39.67 9.15 35.93 10.18 35.62 10.61 35.49 11.13 35.34 12.13 35.66 12.13 40.91 17.08 35.35 19.3 34.65 21.12 37.68 25.67 36.87 26.07 40.41 30.22 36.26 32.74 36.06 34.08 39.47 38.17 35.63 39.84 36.4 39.45 40.48 39.6 40.83 40.46 42.87 45.96 37.59 72.42 36.78 73.19 54.13 73.19 54.22 73.44 59.68"/>
        <polygon class="foreground-3"
                 points="363.54 155.76 360.51 156.33 354.16 155.47 335.12 149.99 292.87 133.26 284.79 129.51 283.92 134.12 281.76 137.3 272.82 138.74 259.41 140.61 235.03 138.59 213.54 135.85 185.56 129.22 134.8 114.8 116.77 110.65 114.75 110.18 109.46 109.07 109.22 109.02 96.67 106.38 96.58 106.36 94.85 106 77.66 103.14 77.44 103.1 57.64 99.8 21.76 95.14 20.98 95.04 19.85 94.89 15.79 94.92 15.63 94.92 0.92 95 0.87 95 0 95.01 0 80.77 4.46 79.84 4.49 79.83 11.45 78.36 11.46 78.36 12.38 78.17 13.3 78.33 13.32 78.33 16.96 78.99 53.45 78.05 56.56 77.97 81.65 78.82 83.19 79.02 97.22 80.84 97.28 80.85 98.72 81.04 109.99 83.09 131.22 85.07 131.47 85.09 157.04 87.48 186.82 91 213.37 95.12 214.78 95.38 214.86 95.39 230.61 98.35 253.03 105.02 253.04 105.02 267.15 109.22 285.75 115.9 285.87 115.94 296.86 119.89 296.91 119.91 299.93 121 308.75 125.22 308.79 125.24 313.49 127.49 326.61 131.82 340.75 138.45 344.12 140.49 344.17 140.52 348.06 142.89 348.07 142.89 348.82 143.35 356.5 148.79 356.51 148.8 356.76 148.98 361.08 151.72 363.54 155.76"/>
        <polygon class="foreground-1"
                 points="13.52 75.2 39.83 71.01 117.22 70.25 179.75 73.11 185.76 75.39 212.04 79.96 231.3 83.39 247.3 87.64 262.64 93.19 289.25 101.51 339.85 116.04 353.56 120.93 372.63 128.8 377.88 132.2 402.04 144.6 434.36 159.46 468.63 175.94 492.79 188.84 497.36 191.77 496.52 192.75 485.93 193.31 474.9 191.32 446.34 183.93 406.09 169.59 371.24 154.38 364.29 150.96 360.32 150.3 354.7 148.09 346.54 141.69 326.61 131.82 310.8 126.14 293.82 118.53 270.77 111.03 251.91 104.64 230.61 98.35 218.83 95.93 208.02 94.49 181.77 90.63 122.8 84.14 109.99 83.09 87.72 79.17 53.92 78.05 31.49 78.05 10.99 78.37 13.52 75.2"/>
        <polygon class="foreground-1"
                 points="146.69 134.25 146.11 137.12 141.87 137.81 117.41 133.22 101.11 128.63 84.58 122.08 74.13 118.75 55.42 113.59 51.21 112.75 43.6 111.24 25.91 107.73 0 103.23 0 95.06 0.87 95 0.92 95 5.56 94.68 15.63 94.92 15.83 94.92 20.98 95.04 21.76 95.14 53.64 99.04 77.44 103.1 78.46 103.27 96.58 106.36 96.67 106.38 98.26 106.65 109.22 109.02 109.46 109.07 116.77 110.65 119.14 112.9 132.91 120.13 141.41 126.1 146.69 134.25"/>
        <polygon class="foreground-3"
                 points="55.88 114.5 54.73 119.21 51.4 123.34 42.79 126.9 31.2 128.51 19.83 128.63 0 126.68 0 103.53 43.6 111.24 50.37 112.44 51.21 112.75 55.88 114.5"/>
        <polygon class="foreground-4"
                 points="95.43 16.58 84 17.07 83.67 26.21 73.39 32.09 73.06 68.98 92.49 68.82 109.79 69.14 109.96 32.58 95.92 25.23 95.43 16.58"/>
        <polygon class="foreground-4"
                 points="256.67 46.76 277.08 41.92 302.85 48.37 302.34 79.02 251.78 79.19 253.65 48.37 256.67 46.76"/>
        <polygon class="foreground-5"
                 points="304.9 51.61 330.61 57.91 331.29 75.95 325.33 78.34 302.85 78 303.53 51.95 304.9 51.61"/>
    </g>
    <g id="контур">
        <path d="M0,29.44,5.35,29c4.61-.39,9.23-.75,13.84-1.17a87.37,87.37,0,0,1,17.34.05c3.25.35,6.54.23,9.81.26a30.09,30.09,0,0,0,3-.34c-.58-.86-.89-1.39-1.26-1.88a2,2,0,0,1,.22-3.07A29.74,29.74,0,0,1,51,20.94c-1-.42-2-1-1.72-2.23s.67-2.49,2-2.91,1.61.87,2.5,1.9c.1-.59.31-1,.18-1.26-.6-1.13-.92-2.45-2.43-2.92-.35-.11-.67-1.08-.63-1.62.17-2.25,1.78-3.78,3-5.49.21-.3.86-.29,1.29-.42.11-.6.19-1.18.34-1.75.06-.25.25-.64.43-.67,1.9-.29,2.65-2.09,4.07-3a2.45,2.45,0,0,1,.37-.13,13.55,13.55,0,0,1,1.27,2.22A10,10,0,0,0,65,7.49c1.38,1,1.46,2.35,1.13,3.82a3,3,0,0,0,.58,3.12,4.08,4.08,0,0,1,.61,4.07c-.43,1.33-.88,2.68-.33,4.08.14.34.42.8.71.86,1.53.31,1.52,1.44,1.44,2.59,0,.74-.19,1.48-.32,2.39,4.2,0,8.28.65,12.08-1.48a2.53,2.53,0,0,0,1.45-2.39c0-2.56.18-5.11.25-7.67,0-.83.25-1.42,1.2-1.43,4.11,0,8.22-.1,12.32-.12.86,0,1.29.56,1.28,1.42,0,2.19.06,4.39-.05,6.57a2,2,0,0,0,1.32,2.26c1.06.44,2.06,1.06,3.15,1.43a12.19,12.19,0,0,0,3.34.73c3,.15,6,.14,9,.19a12.49,12.49,0,0,0,1.29-.17,17.87,17.87,0,0,1-1.3-1.65,13.74,13.74,0,0,1-1.48-2.94c-.35-1.17.22-1.83,1.69-2.44a13,13,0,0,1,1.25-.4l1.53-.41-1.82-.69c-.71-.28-1.64-.3-1.71-1.38-.08-1.29-.25-2.59,1-3.48l1.64-1.15c-.41-.66-.79-1.26-1.15-1.87-.81-1.37-.58-2.38.86-3a2.84,2.84,0,0,0,1.61-1.92c.55-1.71,1.11-3.43,1.79-5.08.22-.55.82-1.29,1.28-1.31s1.14.64,1.42,1.17a2.1,2.1,0,0,0,2,1.41c1,0,1.34.91.83,2-.94,2-.89,1.9.41,3.5A2.28,2.28,0,0,1,125.7,10c-.82,1.84.2,3.45.44,5.15,0,.13.66.27,1,.24.75-.07,1.39,0,1.67.8a1.49,1.49,0,0,1-.7,2c-.61.36-1.23.71-1.75,1a6.59,6.59,0,0,1,1.82,1.25,6.53,6.53,0,0,1,.62,2.06,4.41,4.41,0,0,0,.33.74c.51.94,1.08,1.86,1.55,2.82a2,2,0,0,0,2,1.28q7.26-.15,14.51-.34c.36,0,.71-.06,1.07-.06q22.08.11,44.16.23a17,17,0,0,1,3.34.25c1.75.36,3.15-.35,4.66-1A44.92,44.92,0,0,1,206.51,24a3,3,0,0,1,2.22.55,2.31,2.31,0,0,0,2.34.32,6.12,6.12,0,0,1,.69-.22c2.23-.58,3.14-.22,4.24,1.79a1.46,1.46,0,0,0,1.47.93c4.83,0,9.67.09,14.5,0,5.83-.11,11.66-.42,17.5-.57,4.67-.12,9.35-.21,14-.18,3.63,0,7.27.43,10.9.38,8.35-.13,16.7-.52,25.05-.62,9.48-.12,19-.08,28.44,0q20.94.07,41.87.24a109.56,109.56,0,0,1,20.87,2.64c5.75,1.17,11.56,2,17.32,3.1,9.16,1.77,18.3,3.65,27.43,5.54,3.39.7,6.81,1.39,10.11,2.42,3.8,1.18,7.45,2.81,11.22,4.09,3.35,1.14,6.77,2.1,10.17,3.1,4.73,1.39,9.43,3,14.24,4.06a66.08,66.08,0,0,0,11.72,1.59c7,.31,14,.37,21,.26,3.9-.06,7.79-.63,11.67-1a112.87,112.87,0,0,1,17.33-1l13.75.63c1.47.06,1.94-.69,1.32-2q-.21-.43-.39-.87c-.66-1.7-.37-2.49,1.24-3.32.56-.29,1.15-.54,1.73-.81-2-1.53-2.26-3-.77-4.63.83-.93,2.12-.64,3.84,1,0-.54.12-.94,0-1.1-.81-.95-1.74-1.8-2.51-2.78a2.42,2.42,0,0,1-.57-1.68,2.76,2.76,0,0,1,1.11-1.52,5.26,5.26,0,0,1,1.77-.43c-.86-1.64-.07-2.78,1.12-3.84a1.37,1.37,0,0,0,.23-1.14c-.22-.91.11-1.43,1-1.56A2.55,2.55,0,0,0,568,25.37a1.58,1.58,0,0,1,1.9-1.08c.38.07.71.81.94,1.31.5,1.09.89,2.22,1.38,3.31a1.37,1.37,0,0,0,.71.73A1.43,1.43,0,0,1,574,31.57c-.77,2.2.56,3.9,1.18,5.77a1.12,1.12,0,0,0,.4.41c1.73,1.22,2,1.79,1.52,3.79a6,6,0,0,1-.38,1.13,4,4,0,0,0,.92,4.92c1.41,1.27,1.06,2.79.66,4.45h21.44v3.34c-3.33.23-6.59.45-9.85.69-3,.21-6,.41-9,.67-1.43.13-2.28,1.18-1.92,2.31a1.14,1.14,0,0,0,.77.67c2.38.22,2.38.2,4.2,2,.53-.64,1.06-1.28,1.6-1.91.31-.36.63-.73,1-1.06,2-1.9,3.69-1.53,4.61,1a12,12,0,0,1,.34,1.32c.81-.75,1.55-1.53,2.37-2.19,1.07-.84,1.59-.69,2.61.21a4.56,4.56,0,0,0,1.77.69,14.82,14.82,0,0,0,1.61.24c-.31,3.22.49,6.45-.55,9.62-.61,1.86-1.21,3.73-1.71,5.62a3.53,3.53,0,0,1-3.06,2.86L593.47,76c-.64,1.22-1.21,2.33-1.8,3.43-.37.69-.89,1.18-1.74.9s-.83-1-.76-1.7a5,5,0,0,1,.34-1.26c1.63-4.33,3.32-8.65,4.9-13a13,13,0,0,0,.53-3.06c0-.31-.21-.66-.33-1a3.83,3.83,0,0,0-.71.68c-2.43,3.72-3.77,7.91-5.16,12.07-.85,2.53-1.68,5.07-2.51,7.57h13.59c0,.74,0,1.66,0,2.56a1,1,0,0,1-.61.67,6.14,6.14,0,0,1-1.55.08L583,83.64c-1.83,0-1.92.15-2.56,1.84-.21.58-1,.93-1.6,1.36-.4.31-1,.5-1.21.89a2.52,2.52,0,0,1-3.21,1.39,33.44,33.44,0,0,0-3.29-.62c-.25,0-.57.41-.85.65,0,0,0,.15,0,.23-.32,2.42-.12,2.66,2.3,2.63q12.78-.17,25.56-.36c.51,0,1,0,1.63,0v5c-.52,0-1,0-1.54,0-12.83.1-25.68.09-38.51.33a145.17,145.17,0,0,0-28.94,3,29.28,29.28,0,0,0-4.09,1.28c24.37-.33,48.72-1.17,73.1,1.17v1.66c-2.23-.11-4.45-.21-6.67-.34-15.38-.94-30.77-1.43-46.17-1.06q-13.62.35-27.22.94a50.27,50.27,0,0,0-6.48,1.14,36.7,36.7,0,0,1-10-.07c-2-.19-4,0-5.95-.06a3.19,3.19,0,0,1-1.73-.25c-1.74-1.32-3.81-1.38-5.8-1.68-10.46-1.59-20.94-3.11-31.42-4.66l-1.66-.23a1.65,1.65,0,0,0-1.83,1A2.71,2.71,0,0,1,453,99.94c-2.3.26-4.61.31-6.93.45-.65,2.06-.39,2.45,1.78,2.52,4.16.12,8.32.19,12.47.32a87.17,87.17,0,0,1,17.53,2.5c8.21,2,16.59,2.49,25,2.68,13,.28,26,.43,39,.75,8.87.21,17.74.8,26.61.88a186.2,186.2,0,0,0,30-2c.39-.06.79-.06,1.36-.1a19.16,19.16,0,0,1,0,2.41,1.09,1.09,0,0,1-.67.72c-1.21.29-2.45.42-3.64.73a2.15,2.15,0,0,0-1.06.88c-.77,1.18-1.35,2.51-2.22,3.62-2.24,2.89-4.6,5.69-6.94,8.57.94.27,1.61.39,2.27-.59,2-3,4.16-6,6.4-8.93a11.47,11.47,0,0,1,3.07-2.59,1.13,1.13,0,0,1,1.82,1.21,8.77,8.77,0,0,1-1.23,3.31c-1.59,2.38-3.37,4.63-5.11,7,1.2-.23,2.38-.46,3.1-1.71,1.17-2,2.28-4.06,4.43-5.23v4.08c-1.37,1.21-3.22,2-3.89,3.82l.28.48,3.61-.46v2.88c-6.1-.36-12.22-.61-18.31-1.1-8.33-.67-16.64-1.51-25-2.27-4.58-.42-9.15-.86-13.73-1.21s-9.34-.52-14-1c-6-.56-12.07-1.34-18.1-2-3.06-.33-6.13-.54-9.18-.88-1.61-.18-3.21-.54-4.86-.83-.93,2.31-3.2,3-5.29,3.53a29.32,29.32,0,0,1-7.31,1.09c-5.68,0-11.36-.4-17-.26-4.48.1-8.62-1.5-13-1.95a28.24,28.24,0,0,0-7.63-.11,47.64,47.64,0,0,1-6.22.3,10.1,10.1,0,0,0-2.29.2c.3.15.59.32.9.44,2.51,1,5,2,7.53,3.13a22.55,22.55,0,0,1,3.58,2.16,2.72,2.72,0,0,1,.18,3.86,13.86,13.86,0,0,1-6.61,4.34,51,51,0,0,1-13.7,2.07A185.16,185.16,0,0,1,401.2,136c-3-.39-17.07-3.42-21.14-4.25a25.65,25.65,0,0,0-3-.69c1.06.62,2.09,1.29,3.17,1.87a191.4,191.4,0,0,0,19.2,8.68c8.9,4.39,64.87,31.11,72.42,34.79s14.57,7.84,21.8,11.86c1.57.87,6,3.39,5.13,4.42-1.54,2.1-11.57,1.85-18.59.71-1.5-.11-35.49-8.39-60.1-17.23-10.75-3.82-54.16-23.52-58-24.51.52,1,1,1.8,1.38,2.64.86,1.76.24,2.71-1.7,2.85a32.84,32.84,0,0,1-11.23-1.45c-12.42-3.36-24.38-8-36.29-12.79-5.78-2.32-27.26-11.17-28.51-11.67-.07.13-.15.22-.15.32a8.35,8.35,0,0,1-7.69,7.61,55.2,55.2,0,0,0-10.3,1.38c-4.5,1.11-9.16.76-13.74.5-5.66-.32-11.3-.95-16.94-1.52-6.2-.64-12.4-1.25-18.58-2.1-3.91-.53-7.78-1.36-11.63-2.23-7.91-1.81-15.82-3.64-23.67-5.65-5.88-1.51-11.68-3.35-17.53-5s-11.48-3.09-17.21-4.71c-3.72-1-7.39-2.31-11.12-3.33-5.7-1.56-11.44-3-17.16-4.46-.4-.1-.8-.15-1.2-.22,0,.12,6.06,3.11,8.61,4.32,19.69,10.66,19.82,16.67,20.44,20.69-.1,1-2.48,1.38-3.45,1.36-4.82.27-9.71.52-34.14-5.85-3.7-1-7.34-2.23-10.94-3.55-5.17-1.89-10.28-4-15.43-5.93-1.87-.71-10.69-3.42-11.85-3.72-5.12-1.38-10.26-2.71-15.36-4,0,5.43-4.38,10.19-13.91,12.57a73.31,73.31,0,0,1-25.66,1.64C11.45,129,5.73,128.18,0,127.6v-1.92a158,158,0,0,0,30.57,1.91c16.52-1.82,22.17-4.83,23.9-10.39.52-1.21.25-2.5-1.26-2.87C35.68,110,17.86,107.2,0,104.56v-1.68c1.75.19,3.51.28,5.24.57,11.62,2,23.26,3.8,34.84,6,13.74,2.59,27.16,6.5,40.61,10.3,1.11.31,2.18.77,3.27,1.18,5,1.88,10,3.7,14.9,5.67a73.71,73.71,0,0,0,13.21,4.25c3.17.63,17.53,4.6,23.8,5.35,18.56,4,3.39-10.41.13-12.92-3.83-3.41-23.14-12.59-22.2-12.66-14.65-3.35-27.51-5.43-42.36-7.71q-18.54-2.83-37.12-5.39a144.63,144.63,0,0,0-21.49-1.85c-4.28,0-8.55.18-12.83.27V94.24c.6,0,1.2,0,1.8-.08a120.47,120.47,0,0,1,23.94.51q9.89,1.15,19.75,2.48c9.26,1.27,18.54,2.42,27.75,4,11.45,2,22.86,4.24,34.24,6.59,9.62,2,19.19,4.19,28.74,6.49,4.5,1.08,8.88,2.63,13.33,3.92,5.72,1.64,11.45,3.23,17.18,4.85,5.38,1.53,10.72,3.2,16.14,4.58,8.52,2.17,17.08,4.17,25.64,6.17,3,.7,6.09,1.33,9.17,1.73,6.11.79,12.25,1.26,18.34,2.09a154.51,154.51,0,0,0,25.69,1.74,64.62,64.62,0,0,0,6.76-.83,52.15,52.15,0,0,1,7.08-1,10.62,10.62,0,0,0,6.53-2.27,3.89,3.89,0,0,0-.12-6.54,20.53,20.53,0,0,0-3.88-1.82c-2-.74-4.12-1.29-6.14-2a86.48,86.48,0,0,1-11-4.75c-3.59-1.9-7.41-3.38-11-5.33a242.67,242.67,0,0,0-32.95-15.13c-6.29-2.31-12.58-4.64-19.27-5.7-10.06-1.6-20.1-3.31-30.26-4.25-5.65-.52-11.26-1.36-16.91-2-4.17-.45-8.35-.79-12.53-1.18L125,85.3c-5.88-.55-11.79-.94-17.65-1.7-4.67-.61-9.25-1.83-13.91-2.52a237.17,237.17,0,0,0-30.25-2.14q-26-.47-52,.78A12.43,12.43,0,0,0,8.37,80c-2.8.77-5.58,1.65-8.36,2.48V77.92a9.52,9.52,0,0,1,2-1.15c6.33-1.82,12.68-3.58,19-5.37a12.26,12.26,0,0,0,1.47-.6A38.12,38.12,0,0,0,8.8,70.11c-2.93.32-5.86.73-8.79,1.09V69.76a13.14,13.14,0,0,1,1.47-.46A75.77,75.77,0,0,1,19,68.08a9.74,9.74,0,0,1,5.76,1.68,2.9,2.9,0,0,0,1.77.44C30,69.86,33.45,69.44,36.9,69A6.43,6.43,0,0,0,38,68.61a9,9,0,0,0-2.13-1.08,76.16,76.16,0,0,0-9.14-1.07c-8.43-.15-16.86-.06-25.3-.08A8.25,8.25,0,0,1,0,66.16V64.48a8,8,0,0,1,.83-.08c4.24,0,8.48,0,12.72,0,6.27,0,12.56-.21,18.78.84,2.86.49,6,.35,7.89,3.25.17.26.79.33,1.19.32,1.8-.07,3.6-.18,5.39-.3,2.07-.13,4.13-.3,6.32-.46a13,13,0,0,0-.27-1.72c-.41-1.46-1.24-1.76-2.48-.93s-1.73.79-2.65-.47c-.18-.26-.38-.51-.6-.8-.61.27-1.17.56-1.76.8-1.21.47-1.92.3-2.48-.88a2.66,2.66,0,0,0-2.6-1.68c-1.19,0-1.53-.63-1.28-1.78.11-.49.25-1,.39-1.5-.39,0-.63-.07-.86-.08-11.38-.59-22.76-1.16-34.14-1.77C2.94,57.16,1.47,57,0,56.8V54.16c5.78.23,11.57.42,17.35.71,1.23.06,1.82-.27,2.12-1.49a34.1,34.1,0,0,1,4.41-10.17c1.1-1.69,1.1-3.49,1.19-5.35a4,4,0,0,0-3.9,3.22C20.37,45.49,17.9,49,15.3,52.46c-.36.48-1.17.62-1.78.92-.17-.66-.58-1.36-.46-2A16.19,16.19,0,0,1,15.75,45c1.05-1.46,2.07-2.94,3.1-4.41a4.81,4.81,0,0,0,.32-5,11.09,11.09,0,0,0-5,5.25c-1.83,3.36-3.51,6.8-5.33,10.18a10.39,10.39,0,0,1-1.58,1.76l-.5-.24a9.52,9.52,0,0,1,.3-2.23c.73-1.9,1.56-3.76,2.41-5.61a20.41,20.41,0,0,0,1.72-8.43,5.49,5.49,0,0,0-1.36.84,13.07,13.07,0,0,0-3.17,6.22,13.94,13.94,0,0,1-3.42,7.52A9.25,9.25,0,0,1,1.52,52l-.46-.26a7.25,7.25,0,0,1,.23-2.21c1-2.42,2.16-4.79,3.28-7.18a3.91,3.91,0,0,0,.22-3.72,4.49,4.49,0,0,0-1.18.64c-.93,1-1.77,2.14-2.68,3.18a5.31,5.31,0,0,1-.92.7V41.2c.17-.44.32-.89.51-1.32C1.77,37,4.36,36.15,6.84,37.79c.82-.92,1.6-1.88,2.47-2.75a2.17,2.17,0,0,1,2.55-.46A2,2,0,0,1,13,36.68V39c.58-.77.89-1.27,1.28-1.69A24.34,24.34,0,0,1,17,34.53c1.71-1.29,3-1,4.08.82a1.57,1.57,0,0,0,2.25.84c2.4-.83,3.05-.37,3.46,2.12,0,.06.09.11.22.25.75-.77,1.46-1.59,2.26-2.3,2.23-2,4-1.54,5.12,1.24,0,0,.13.06.19.09.62-.61,1.22-1.26,1.88-1.83a2.69,2.69,0,0,1,3.11-.48c1.07.53,1.18,1.54,1.15,2.57,0,.85-.11,1.71-.2,2.91l2.79-3.4.78.4c.43-2,.79-4.06,3.16-4.83-5.78-.28-11.44-.51-17.11-.61-3.39,0-6.8,0-10.18.16C13.3,32.9,6.66,33.49,0,34ZM495.74,192.16l.08-.28c-.38-.28-.75-.59-1.15-.83-2.61-1.55-5.18-3.18-7.87-4.6-7.16-3.79-14.41-7.43-21.57-11.25-4.51-2.4-81.82-38.38-88.79-42.42-3.84-2.23-7.61-4.68-11.69-6.35-6.17-2.54-12.28-5.29-18.72-7.17-9.35-2.73-18.7-5.46-28-8.26-16.72-5-33.46-9.93-50.11-15.14-6.59-2-12.89-5-19.46-7.11-12.39-4-25.21-6.13-38-8.2-7-1.13-14-2.22-20.94-3.38-4.44-.74-8.84-2-13.31-2.31-6.25-.49-12.55-.36-18.83-.5-11.63-.25-23.27-.47-34.9-.78-4.91-.13-9.82-.72-14.73-.68-21.39.14-42.79.42-64.18.71a97.63,97.63,0,0,0-18.13,1.68c-2.9.58-5.77,1.37-8.65,2.06l.07.47c.77,0,1.54,0,2.31,0,4.4-.19,8.79-.49,13.19-.57,17.15-.3,34.31-.5,51.43,1A131.37,131.37,0,0,1,97.86,80c6.67,1.33,13.3,2.73,20.12,3,2.63.12,5.28.06,7.91.31,8.11.77,16.22,1.62,24.33,2.49s16.38,1.68,24.55,2.74c10.66,1.38,21.31,2.81,31.92,4.53,8.63,1.4,17.33,2.72,25.74,5,13.39,3.68,26.64,7.92,39.81,12.36,9.73,3.28,19.76,5.78,29,10.33,1.4.69,2.88,1.21,4.3,1.84,3.4,1.5,6.74,3.16,10.2,4.51,3.08,1.2,6.31,2,9.44,3.13a55.53,55.53,0,0,1,5.52,2.32q5.88,2.84,11.7,5.82a53.33,53.33,0,0,1,5.57,3.26c2.48,1.69,4.8,3.6,7.25,5.32a10.68,10.68,0,0,0,3.68,1.93,46.13,46.13,0,0,1,14.61,5.52c27.55,11.92,60.15,25.84,95.88,34.72,8.22,2.46,19.32,4.41,25.14,3ZM188.52,74.91l0,.3c.93.18,1.86.4,2.79.55,9.24,1.45,18.51,2.69,27.7,4.4,8.79,1.64,17.57,3.44,26.2,5.77,6.38,1.72,12.42,4.63,18.75,6.59,18.68,5.81,37.42,11.44,56.15,17.09,11.56,3.49,23.45,5.91,34.56,10.83,5,2.19,18.48,7,19.73,7.42A240.25,240.25,0,0,0,409,135a196,196,0,0,0,21.8.73,44.68,44.68,0,0,0,12.4-1.93,11.68,11.68,0,0,0,5.55-3.59c.53-.62.61-1.24-.13-1.73a19.43,19.43,0,0,0-2.78-1.63c-3.59-1.57-7.23-3-10.83-4.57-2.61-1.1-5.15-2.33-7.87-3.23-16.32-5.44-33-9.53-49.75-13.31-18.54-4.19-37.13-8.16-55.71-12.21a193,193,0,0,0-22.81-3.76q-10.5-1-20.94-2.58c-3.81-.58-7.52-1.86-11.32-2.58-5.46-1-11-1.49-16.42-2.79a133.33,133.33,0,0,0-17.85-2.81c-4.05-.41-8.13-.59-12.18-1.07-4.72-.55-9.4-1.48-14.12-2-5.17-.52-10.37-.69-15.56-1Zm25.59,21.16-.05.21c1.89.73,3.81,1.37,5.66,2.19,4.86,2.13,9.7,4.33,14.54,6.53,3.09,1.4,6.2,2.76,9.21,4.33,6.15,3.21,12.12,6.78,18.64,9.26,1.51.57,2.83,1.68,4.34,2.26,3.43,1.33,6.89,2.57,10.39,3.68a28,28,0,0,1,7.25,3.33A36.44,36.44,0,0,0,290.5,131c2.5,1,26.88,11.27,36.75,15a245.59,245.59,0,0,0,27.86,8.85c2.12.52,4.4.37,6.84.55a8.45,8.45,0,0,0-3.82-4.57,37.89,37.89,0,0,1-5.38-3.35c-5.17-4.34-11.05-7.42-17-10.41a121.25,121.25,0,0,0-17.37-7.19c-3-1-5.89-2.24-8.79-3.46-6.16-2.59-12.16-5.55-18.48-7.73-9.55-3.29-19.12-6.54-28.67-9.83a422.85,422.85,0,0,0-42.1-11.74C218.27,96.63,216.18,96.41,214.11,96.07ZM257.4,61.53a10.11,10.11,0,0,1,1.06.89,1.91,1.91,0,0,1-.13,3.11c-1.34,1.25-2.71,2.47-4,3.73a1,1,0,0,0-.23.69c.1,2.28.17,4.56.41,6.82.05.5.74,1.32,1.17,1.34,2.58.12,5.17.06,7.87.06,0-1.53.05-3,0-4.39-.08-1.71.91-2.64,2.27-3.32a16.15,16.15,0,0,1,1.68-.64,2.13,2.13,0,0,1,3.05,1.82,22.87,22.87,0,0,1,.21,3c0,1.14,0,2.28,0,3.41H284.9c0-1.47-.07-2.87,0-4.25a5.33,5.33,0,0,1,2.88-4.68c.57-.3,1.23-.55,1.69.19,1.08,1.75,2.06,3.52,1.91,5.69-.07,1,0,1.9,0,2.89h10V76.37c0-8.63,0-17.27,0-25.9,0-1.14-.3-1.57-1.41-1.83-5.75-1.35-11.48-2.8-17.21-4.21a19.79,19.79,0,0,0-8.55-.59c-1.6.31-3.17.8-4.75,1.2l-10.13,2.49c1,1.44.53,2.82.1,4.2a7.74,7.74,0,0,0-.39,1.63c0,.32.08.9.26,1a9.57,9.57,0,0,0,3,.6c1.06,0,1.83.27,2,1.34a23,23,0,0,1,.2,3A1.29,1.29,0,0,1,263,60.67a3.91,3.91,0,0,1-1.42-.11C260,59.94,258.81,60.7,257.4,61.53Zm95.71,30.25a11.23,11.23,0,0,0,1.17.46c7.27,1.88,14.5,3.92,21.81,5.59,14.83,3.39,29.79,6.22,44.47,10.28,5.6,1.56,11.42,2.34,17.1,3.65,4.76,1.11,9.42,2.76,14.22,3.66s9.41,2.86,14.4,2.88c.07,0,.15,0,.23,0,2.11.2,4.21.56,6.32.57,4.39,0,8.79-.15,13.18-.25a14.05,14.05,0,0,0,2.51-.25,11.72,11.72,0,0,0,1.93-.76c-4.52-1.26-8.92-2.27-13.32-3.26-3.64-.82-7.18-1.83-10.28-4.08a7.12,7.12,0,0,0-3.21-1.22c-6.59-.78-13.17-1.71-19.79-2.09a54,54,0,0,1-18.28-3.91c-7.32-3.11-14.61-6.3-22-9.21-6.2-2.44-12.52-4.56-18.81-6.77-1.69-.59-3.61-.67-5.16-1.48-4.05-2.12-8.51-1.85-12.82-2.72a4.49,4.49,0,0,1-.2,1.41,4.3,4.3,0,0,1-1.27,1.72A17.7,17.7,0,0,1,362,87.51a4.1,4.1,0,0,1-1.41.08h-2.32c-.37,2-.7,2.33-2.72,2.31A2.23,2.23,0,0,0,353.11,91.78Zm195.8-8.94c-.63-.06-1.1-.13-1.58-.14-4.15-.12-8.31-.16-12.47-.37-7.86-.38-15.72-1-23.59-1.27-11.31-.43-22.62-.68-33.93-1-5.69-.18-11.25-1-16.3-3.85a8.38,8.38,0,0,0-5.87-1c-1,.18-1.37.55-1.35,1.56,0,1.48-.59,2-2.07,1.9a18.2,18.2,0,0,1-2-.48,2.59,2.59,0,0,0-1.14,0c-2.23.62-2.85.31-3.74-1.88-.12-.29-.38-.73-.6-.74-1.72-.08-3.44-.72-5.16.21a3.11,3.11,0,0,1-2,0,15.71,15.71,0,0,1-2.1-.86,4.4,4.4,0,0,0-6.16,3.4c-.18,1.7-.81,2.58-2.54,2.88a2,2,0,0,0-1.81,2.5c.13,1.54,1.26,1.19,1.78,1.27a13.19,13.19,0,0,1,2.38-2.51c1.44-.84,1.83-1.12,1.65-2.77a2.78,2.78,0,0,1,1.08-2.51,2.92,2.92,0,0,1,4-.33,4.34,4.34,0,0,0,4.64.41,3.06,3.06,0,0,1,3.55.66l2.73,2.46c2.41-.88,2.41-.88,4.79,2.23.84-.51,1.68-1,2.55-1.53s2-1,2.62-.19c.43.54.2,1.72.05,2.57a12.2,12.2,0,0,1-.95,2.29l1.5-.85c2.33-1.33,4.61-2.74,7-4s3.4-.06,3.15,1.93a1.29,1.29,0,0,0,.13.41,6.86,6.86,0,0,1,.71-.48,50.08,50.08,0,0,1,4.64-2.44c1.34-.55,2.12.26,1.78,1.66-.24,1-.62,2-1,3.08.46-.35.78-.65,1.14-.87,1.44-.84,2.86-1.73,4.37-2.45a1.88,1.88,0,0,1,1.73.13,2.53,2.53,0,0,1,.21,1.85,14.06,14.06,0,0,1-.84,2.42l1.94-.83a3.18,3.18,0,0,1,3.79.36,1.45,1.45,0,0,0,1.06.06c.82-.17,1.6-.51,2.42-.63,1.76-.24,2.44.35,2.61,2.1.05.49.11,1,.19,1.61,1.09-.44,2-.84,2.94-1.16a9.3,9.3,0,0,1,6.67-.25,16.33,16.33,0,0,0,2.71.84,2.39,2.39,0,0,1,2.09,3.13c-.16.68-.39,1.35-.68,2.35,2.52-1.19,4.11-.33,4.85,1.66,1.75-1.3,3.34-2.54,5-3.68a2.26,2.26,0,0,1,2.7-.28c1.12.9,2,.52,3.12.09,1.92-.76,2.91-.2,3.52,1.78a3.9,3.9,0,0,0,.2.42c1.34-.23,2.63-.49,3.93-.69,2.59-.39,2.59-.38,3.06,2.22,0,.07.08.13.1.17,5-.79,10-1.73,15-2.33s10.17-.89,15.41-1.33a10.29,10.29,0,0,0-.26-1.64,1.51,1.51,0,0,0-2.5-.92c-1.34.84-1.71.76-2.64-.52-.18-.26-.37-.5-.58-.77l-1.37.59c-1.91.79-2.47.57-3.25-1.39a1.35,1.35,0,0,0-1.62-.87c-1.67.14-2.23-.58-1.8-2.25C548.69,83.68,548.78,83.35,548.91,82.84ZM97.39,67.5h10.8V36.61H75V67.79H86.51c0-.64.1-1.23.1-1.81,0-3,0-6,0-9,0-1.42.46-1.87,1.87-1.91,1.84-.06,3.68,0,5.52,0,3.22,0,3.36.14,3.36,3.39Zm96.44-11.83c-2,.52-2.37.46-5.19-.88-2.21-1.06-2.49-1.64-1.82-4l-1,.33a28.22,28.22,0,0,1-3.4,1.13,2.59,2.59,0,0,1-2-.38c-.3-.25-.19-1.17-.07-1.74a12.59,12.59,0,0,1,.79-2c.83-2.07,1.68-4.14,2.49-6.23.08-.2,0-.48,0-.72-.22.05-.48,0-.64.15-1.75,1.32-3.57,2.57-4.45,4.74a29.07,29.07,0,0,1-1.62,3.07c-1.67,3-4.28,5-7.05,6.88a2.74,2.74,0,0,1-2.2-.18c-.24-.12-.25-1.3,0-1.8a12.42,12.42,0,0,1,2-2.84c2.25-2.37,4.61-4.65,6.89-7a5.41,5.41,0,0,0,1.18-1.75c.28-.74-.09-1.37-.95-1.13A15,15,0,0,0,173,42.78a31,31,0,0,0-4,3.11,6.88,6.88,0,0,0-1.49,1.82c-1.43,2.63-2.79,5.3-4.17,8a4.44,4.44,0,0,1-3,2.23c-1.18.31-1.89-.31-1.79-1.52a2.65,2.65,0,0,1,.48-1.32c1.91-2.6,3.87-5.18,5.8-7.77.26-.34.48-.71.71-1.06l-.26-.23a19.34,19.34,0,0,0-9.4,6.15c-1.35,1.67-2.88,3.19-4.31,4.79a2.54,2.54,0,0,1-3,.59,3.52,3.52,0,0,1,1.2-2.9c1.17-1.08,2.31-2.22,3.4-3.39.66-.71,1.2-1.53,1.8-2.3l-.18-.35a9.94,9.94,0,0,0-2,.41,12.35,12.35,0,0,0-6.44,5.65,5.71,5.71,0,0,1-3.5,3.26c-.77.2-1.68.36-2-.48a2.21,2.21,0,0,1,.6-1.74c1.13-1.24,2.44-2.32,3.56-3.56a13.52,13.52,0,0,0,1.39-2.3l-.33-.24a4.09,4.09,0,0,0-.88.26,56.38,56.38,0,0,0-6.65,4.24c-2,1.68-3,2.88-1.48,5.89A1.68,1.68,0,0,0,139,61.11c6.71.07,13.44,0,20.15.37,14.8.83,29.58.41,44.37-.14a19.65,19.65,0,0,0,2.11-.27l-.27-2.15-1.5.27a1.59,1.59,0,0,1-2-1.16c-.76-1.94-.77-2-2.83-1.66a11.7,11.7,0,0,0-1.75.41C195.33,57.4,195.19,57.37,193.83,55.67Zm-2.21-23.91a8.13,8.13,0,0,0-1.07-.09q-27.11.12-54.21.27c-2.69,0-1.92-.37-2.94,2.18-.38.92-.1,1.41.78,1.75,2.62,1,2.64,1.06,1.75,3.73a1.36,1.36,0,0,0,0,.29c2.52,1.17.5,3.32,1,5l1.25-.21c5.18-1,10.32-2.25,15.54-2.94,7.28-1,14.61-1.52,21.93-2.22,2.35-.22,4.7-.34,7-.53,1.12-.1,2.13-.34,2.51-1.63a4.72,4.72,0,0,1,4.72-3.7C191,33.64,191.62,33,191.62,31.76Zm253,23.58.43,0a14.44,14.44,0,0,0,.54-1.65c.32-1.46,1-1.85,2.29-1a25.87,25.87,0,0,1,3.23,2.48,3,3,0,0,1,.81,1.56c.17.89.56,1.38,1.48,1.39h1a2.83,2.83,0,0,1,3.11,2.78c.06.59.07,1.18.1,1.84,1.19,0,2.31.07,3.42,0,3.22-.23,6.45-.64,9.68-.76q11.51-.42,23-.61c6.28-.12,12.57,0,18.75-1.35a63.81,63.81,0,0,1,13-1.8c2.69,0,5.38-1.07,8.07-1.66a1.93,1.93,0,0,0,.46-.26,33.72,33.72,0,0,0-6.29.2A166.79,166.79,0,0,1,497.34,58c-7-.37-14-.6-20.86-2.72s-13.48-4-20.2-6a21.21,21.21,0,0,0-7.07-1c-3,.12-6,.12-9,.2-.6,0-1.2.16-2,.26.38.46.64.71.84,1a3.94,3.94,0,0,0,3.16,2c1.06,0,1.43,1,1.71,1.92A18.07,18.07,0,0,0,444.66,55.34Zm-77,6.29c.28-.07.43-.09.58-.14,3-.94,3.27-.27,3.76,2.06a3.79,3.79,0,0,0,3.73,2.65q7.38,0,14.75,0c.8,0,1.6-.14,2.59-.23-.74-.87-1.37-1.49-1.86-2.2a2.11,2.11,0,0,1,1.24-3.53c2-.6,4-1.11,6.12-.19-.36-.7-.67-1.25-.94-1.81s-.07-1.19.57-1.32,1.65-.31,2.14,0c1.76,1.26,3.61.83,5.44.78-.65-1-1.61-1.85-1.75-2.83s.53-2.07.83-3c-1.8.13-3.82.37-5.85.42q-18.71.51-37.4.94c-2.19.06-2.61.43-3,2.81C363.18,55.33,365.88,57.72,367.69,61.63Zm-63,14.67H306c5.2,0,10.4-.19,15.58.08a5.85,5.85,0,0,0,5.7-2.91,6.64,6.64,0,0,0,1.37-4.08c-.08-3,0-6.08,0-9.12,0-.84-.28-1.16-1.09-1.35-6.83-1.63-13.65-3.32-20.47-5l-2.44-.55Zm65.49,4.77,0,.21c.41.09.83.19,1.25.25,1.54.22,3.11.32,4.62.67a189.34,189.34,0,0,1,22.23,6.67c7.64,2.83,15.37,5.38,22.6,9.22a47.6,47.6,0,0,0,15.33,5l4.64.66c-.09-1.06-.17-1.92-.25-2.87-1.63,0-3.14,0-4.66,0a4.8,4.8,0,0,1-1.7-.4c-1.13-.49-2.2-1.12-3.34-1.6A3.24,3.24,0,0,1,428.71,96c-.17-1.34-.33-2.69-.55-4-.35-2.06-.69-2.47-2.75-2.83-5.67-1-11.34-1.88-17-2.84-3.62-.62-7.21-1.41-10.85-1.92-6.88-1-13.79-1.77-20.68-2.62C374.63,81.51,372.39,81.3,370.15,81.07ZM209.33,61c12.44,1.15,24.88.17,37.22,2.21a5,5,0,0,1-1.11-4.08c0-.24-.17-.52-.3-.77-1.4-2.64-1.21-3.88.58-5.62-.08-1.66-.14-3.05-.21-4.63l-3.1,4.11c-.81,1.08-1.57,2.21-2.45,3.23s-2,1.26-3.58.57a16.8,16.8,0,0,1,1.51-2.72c1.12-1.36,2.39-2.58,3.6-3.86,2-2.07,2.63-4.67,3.13-7.55a16.1,16.1,0,0,0-2.47.85c-5.23,2.89-10,6.36-13.26,11.5-1,1.62-2.34,2.57-4.37,2.28a3,3,0,0,0-2.7,1,2.52,2.52,0,0,1-2,.55c-1.59-.39-3.36-.42-4.65-1.71a1,1,0,0,0-.67-.18c-1.78.14-3.56.3-5.45.47C209.13,58.12,209.23,59.5,209.33,61ZM454.92,88.55a30,30,0,0,1,1,3.8c.22,1.84.38,2.18,2.26,2.45,7.87,1.11,15.75,2.18,23.63,3.31,2.83.4,5.66.92,8.4,1.37,1.35-4.61,4.51-7.69,8.27-10.58-3.86.49-7.09,1.45-8.73,5.25a6.1,6.1,0,0,1-2.17,2.32c-.41.29-1.23,0-1.87,0,.05-.55-.08-1.23.19-1.63a30.51,30.51,0,0,1,2.73-3.48,5.75,5.75,0,0,0,1.39-4.28A6.43,6.43,0,0,0,484.41,90c-1.26,1.76-2.47,3.54-3.74,5.28a4.32,4.32,0,0,1-1.26,1.26c-.82.48-1.82,1-2.65.19s0-1.74.52-2.41c1.87-2.19,3.81-4.31,5.72-6.47.19-.21.35-.45.52-.68a1.72,1.72,0,0,0-1.32.16c-3,2.29-6.43,4.09-8.71,7.25a2.66,2.66,0,0,1-2.73,1,4.06,4.06,0,0,1,1.68-3.2,23.14,23.14,0,0,0,5.68-7.64,2.28,2.28,0,0,0,.12-.61c-4.06,2.81-8,5.46-10.77,9.49-.41.6-.93.88-1.61.32s-.38-1.2.11-1.73A30.69,30.69,0,0,0,471.31,84c.21-.45.36-.92.53-1.38l-.29-.25c-1.69,1.38-3.4,2.74-5.07,4.16-2.16,1.83-4.28,3.73-6.44,5.56-.9.75-2.22.87-2.48.26-.46-1.06.53-1.37,1.11-1.82a19.21,19.21,0,0,0,5.59-6.34,13.25,13.25,0,0,0,.56-1.57l-.33-.22Zm-88.08-37.3a3.41,3.41,0,0,0,.53.15c8.82-.27,17.66-.5,26.48-.85,5.43-.21,10.85-.59,16.27-.94,1.93-.13,3.27-.94,3.7-3.07a2.62,2.62,0,0,1,3.65-2.06,5.83,5.83,0,0,0,3.95-.18,9.24,9.24,0,0,1,3.12-.19,19.79,19.79,0,0,0,2.21.4,5.25,5.25,0,0,1,4.31,1.65,3.1,3.1,0,0,0,2,.79c4.79-.1,9.59-.3,14.38-.49a8.06,8.06,0,0,0,1.09-.21l0-.38a44.2,44.2,0,0,0-6.31-1.52c-4.33-.44-8.69-.56-13-.81C415.7,42.78,402.27,43.1,389,46c-1.56.35-3.13.56-4.22,2-.21.28-1,.17-1.55.11-.67-.08-1.36-.51-2-.4a28.39,28.39,0,0,0-3.38,1.11c-1,.32-2,1-2.93.84C372.11,49.24,369.67,50.38,366.84,51.25Zm-161,16.61h-1.31c-10.07,0-20.14-.07-30.22,0a140,140,0,0,1-19.74-.92c-6-.84-11.94-1.7-17.92-2.48a4.22,4.22,0,0,0-2.53.33,3.74,3.74,0,0,1-3.31.32c-.84-.26-1.69-.46-2.55-.67-1.48-.38-1.73-.22-2.06,1.26-.73,3.31-.52,3.6,2.84,3.66,8.71.15,17.42.31,26.14.43,16.42.22,32.85.35,49.25,1.42.46,0,.92,0,1.41,0Zm3.57-4.78c0,.66,0,1.18,0,1.7-.06,1.18.34,1.91,1.67,1.93a12.67,12.67,0,0,1,2,.3,192.8,192.8,0,0,0,33.49,3H250c-.13-1.81-3.31-4.79-5.29-5-2.22-.27-4.44-.6-6.67-.72-7.86-.43-15.71-.8-23.57-1.16C212.87,63,211.24,63.08,209.42,63.08Zm82.5-31.8c-1.59.11-2.94.3-4.29.29-4.87,0-9.75-.21-14.62-.2q-10.62,0-21.24.23c-10.19.2-20.39.47-30.58.73a6.76,6.76,0,0,0-1.37.31c1.21.21,2.51.1,3.35.67s1.24,1.83,1.94,3c7.95-.38,16.13-.75,24.31-1.2a4,4,0,0,0,2.09-1c1.5-1.24,2.49-1.27,4.09-.22a4.8,4.8,0,0,0,2.61.85c5-.18,10.07-.49,15.1-.77a40.49,40.49,0,0,0,10.75-1.56,6.65,6.65,0,0,1,3.6.22A3.58,3.58,0,0,0,291.92,31.28Zm171,43.15-.08.32c.88.41,1.73.89,2.64,1.23,5.81,2.14,11.81,1.94,17.88,1.66,11.51-.53,23-.18,34.53.44,3.19.17,6.38.39,9.58.56a6.32,6.32,0,0,0,1.32-.23c-.26-.29-.3-.38-.36-.4s-.39-.08-.58-.12c-2.21-.43-4.49-.46-6.58-1.61a4.53,4.53,0,0,0-3-.17,2.56,2.56,0,0,1-2.6-.64,1.22,1.22,0,0,0-.94-.29,15.31,15.31,0,0,1-6.21-.14,71.06,71.06,0,0,0-11.92-1c-10.76,0-21.52.18-32.27.31C463.86,74.32,463.4,74.39,462.94,74.43Zm97.52,45.17h.32c1-1.25,1.85-2.59,2.92-3.74s2.26-1.37,3.75-.43c-.34.68-.73,1.36-1,2.08-.46,1.19-.87,2.4-1.23,3.62a2.94,2.94,0,0,0,.12,1.08c1-1.54,1.6-3.19,2.55-4.62a40.22,40.22,0,0,1,3.41-4L525,112c-.21,2.57-2,4-3.76,5.52a4.93,4.93,0,0,0,4.27-1.39,39,39,0,0,1,4.38-3.31c.44-.28,1.24,0,1.88,0,0,.59.12,1.31-.17,1.73a10.68,10.68,0,0,1-2,2c-.65.55-1.38,1-2.15,1.54,2.07.46,3.45,0,4.21-2a4.23,4.23,0,0,1,3.3-2.54,6.88,6.88,0,0,1,2.24.31,9.52,9.52,0,0,1-.39,2.1,15.7,15.7,0,0,1-1.37,2.13,1.45,1.45,0,0,0,1.13-.13c1.47-.95,2.92-1.94,4.38-2.91a14.84,14.84,0,0,1,2.22-1.41,1.72,1.72,0,0,1,1.51.08,1.63,1.63,0,0,1,.24,1.49,5.59,5.59,0,0,1-1.42,1.86c-.89.78-1.9,1.41-3,2.21,2.53-.28,4.68-.84,6.48-2.58a11.55,11.55,0,0,1,3.59-2.12,2,2,0,0,1,1.87.34c.48.6,0,1.35-.65,1.81-.92.63-1.86,1.25-2.73,1.94s-1.68,1.48-2.51,2.22l.18.34c1.95.12,4,.83,5.68-1,.85-.9,1.77-1.73,2.65-2.6a21,21,0,0,1,2-1.91c1.38-1,2.87-.51,3.06,1C560.19,117.68,560.33,118.64,560.46,119.6ZM331.28,93.69c.41.11.82.24,1.24.33,11.93,2.64,23.85,5.31,35.79,7.9,19.87,4.3,39.66,8.88,59,15.3.29.09.7.26.91.14,1.95-1.12,11.05.94,13.79.72a9.4,9.4,0,0,0-2.1-.79c-5.38-1.18-10.78-2.28-16.14-3.53-11-2.59-22.06-5.25-33.08-7.89q-21-5-41.92-10.08A85.4,85.4,0,0,0,331.28,93.69ZM406,79.37l-.11.09c-2.16,1.81-3.27,1.61-4.61-.71a1.72,1.72,0,0,0-1.27-.59c-1.64,0-3.28,0-4.91.11A3.14,3.14,0,0,1,392.27,77a3.36,3.36,0,0,0-1.64-1.07q-8-1.82-16-3.49A2.18,2.18,0,0,0,372,75c.1.59.25,1.18.3,1.77.07,1,.51,1.36,1.5,1.4,2.24.11,4.48.22,6.69.53,9.85,1.33,19.69,2.75,29.54,4.12,3.14.43,6.3.79,9.59,1.21l-.35-2.46C414.28,83.51,410.12,81.63,406,79.37ZM209.61,68.29a25.87,25.87,0,0,0,0,2.83,1.12,1.12,0,0,0,.73.78c5.5.76,11,1.53,16.51,2.18,5.79.69,11.6,1.25,17.39,1.9,1.84.21,3.67.56,5.52.85v-5A210.59,210.59,0,0,1,209.61,68.29Zm-68.54-5.35,1.38.26c.47.08,1,.12,1.42.22a115.6,115.6,0,0,0,22,2.48c12.87.19,25.75.24,38.63.34.42,0,.84,0,1.24-.08V62.72C184.14,65,162.61,63.18,141.07,62.94Zm191-3.72c.2-.45.3-.65.38-.85a43.16,43.16,0,0,1,1.72-4.07,5.41,5.41,0,0,1,5.29-3.07,3.38,3.38,0,0,0,3.3-1.87c1.61-2.51,3.36-4.94,5.13-7.34a7.55,7.55,0,0,0,1.57-4.31c0-1.1.33-2.59-.89-3-1.05-.34-2.37.11-3.55.27-.29,0-.54.33-.79.53-.92.71-1.79,1.47-2.74,2.14A8.39,8.39,0,0,0,338.07,43a30.43,30.43,0,0,1-5.48,12.51A4.26,4.26,0,0,0,332.06,59.22Zm31.53-25.47a30.74,30.74,0,0,0-4.17,1.42c-1.59.81-3,2-4.56,2.85a12.05,12.05,0,0,0-5.46,7.14c-.44,1.36-.41,2.37.94,3.07.39.21,1,.63,1.18.5,1.34-.82,2.16-.18,2.93.84.49.66,1,.76,1.51,0,2-3.12,4.07-6.21,6-9.39A12.85,12.85,0,0,0,363.59,33.75ZM170.82,42.18l-.08-.24-6.2.43a146,146,0,0,0-25.2,3.85c-.78.2-1.15.44-1.21,1.39a5,5,0,0,1-1,2.14,3.94,3.94,0,0,1-1,.83l1.3,2.15c.31-.22.53-.4.76-.54,2.18-1.35,4.33-2.73,6.54-4a2.73,2.73,0,0,1,3.71.42,1.16,1.16,0,0,0,1,.06c1.14-.46,2.23-1.06,3.38-1.51,1.69-.68,3.35-1,4.37.88,1.85-1,3.59-2.09,5.39-3a5.47,5.47,0,0,1,4.18-.46,1.52,1.52,0,0,0,1.11-.15C168.88,43.7,169.84,42.92,170.82,42.18ZM75.49,33l.06.21H107c-3.92-2.07-7.85-4-11.85-5.82a9,9,0,0,0-7.57-.17C83.5,29,79.51,31.05,75.49,33Zm301.36-1.63c-5.27.67-15.48,12.18-18,18.75,2-.17,4-.29,6-.54a2.23,2.23,0,0,0,1.29-.91c1-1.42,1.94-2.93,2.94-4.36,2.18-3.1,4.46-6.13,6.53-9.29A15,15,0,0,0,376.85,31.35ZM347,90.51c-.57-.9-1-1.48-1.31-2.11-.6-1.16-1.38-1.33-2.57-.83-2,.83-3.23.48-4.66-1.18A3.92,3.92,0,0,0,335.05,85a3.31,3.31,0,0,1-3.62-2.12c-1-2.1-3-2.29-4.91-2.72-1.18-.28-1.5,1-2.16,1.59-1,.9-1.89,1.94-2.83,2.93l-2,2.11ZM305.7,50.29a2.92,2.92,0,0,0,2.79-1.41c2.43-3.12,3.33-6.85,4.21-10.58.21-.88-.39-1.18-1.21-1.19a16.41,16.41,0,0,0-9.68,3,8.88,8.88,0,0,0-3.61,5l3.36.75a36.45,36.45,0,0,1,4.31,1c1.68.59,1.85,1.94.51,3.07A4.34,4.34,0,0,1,305.7,50.29Zm29.15-19c-.67-.05-1.05-.11-1.43-.11-6.19.07-12.39.05-18.58.26-3.63.11-7.24.57-10.86.93-.55.05-1.41.35-1.52.71-.47,1.59-.72,3.25-1.08,5,1-.5,1.78-.93,2.6-1.32a13.35,13.35,0,0,1,6.94-1.53c1.82.15,3.93,0,4,3.16A8.94,8.94,0,0,1,315.8,37,12.07,12.07,0,0,1,317.86,35a31.79,31.79,0,0,1,3.92-2.17,4.07,4.07,0,0,1,1.87-.29,18.5,18.5,0,0,0,2.49.37c1.65-.14,3.22-.3,4.06,1.68ZM226.42,38.4a3.74,3.74,0,0,0,.63.36c1,.26,1.92.53,2.89.74,1.94.42,2.56,1,2.84,3,.18,1.21.32,2.44.5,3.82l4.85-3.3a14,14,0,0,1,6.37-2.58c1.67-.19,2.3.38,2.19,2.07,0,.64-.14,1.29-.21,1.93l.3.07c1.18-2.35,3.48-4.23,3-7.47A186.3,186.3,0,0,0,226.42,38.4ZM351.34,38c2.27-1.39,4.32-2.63,6.34-3.9a12.48,12.48,0,0,1,5.48-1.93c1.67-.16,2.42.5,2.29,2.18-.07.89-.21,1.77-.36,2.92l6.46-5.84H339.36v5.41l3.32-2.59a7.28,7.28,0,0,1,6.08-1.49,2.91,2.91,0,0,1,2.58,2.86C351.38,36.38,351.34,37.1,351.34,38Zm232,42.52a15.86,15.86,0,0,1,.5-2.65c1.29-3.42,2.66-6.81,4-10.22.6-1.56,1.26-3.1,1.72-4.7a3.38,3.38,0,0,0-1-3.8,2.37,2.37,0,0,0-.31.25c-4.57,5-6.46,11.17-8.16,17.48a4.71,4.71,0,0,0-.09,1.19c0,2.2.24,2.47,2.39,2.45C582.7,80.55,583,80.56,583.37,80.56Zm-555.46-25c1.61,0,2.92,0,4.23,0a2.13,2.13,0,0,0,2.1-1.5C35.57,50.39,37,46.75,38.15,43a40.89,40.89,0,0,0,.94-6.16c-.49,0-.69,0-.79.08-.59.51-1.37.94-1.7,1.58C33.71,44.07,30.91,49.66,27.91,55.57ZM548.23,61l-.46-.2c-.42.32-1,.56-1.23,1-1.42,2.39-2.85,4.79-4.11,7.27-1.54,3.06-2.91,6.2-4.35,9.3-.14.31-.27.62-.45,1,1.51,0,2.86,0,4.22,0a1.76,1.76,0,0,0,1.8-1.27,65.36,65.36,0,0,0,4.57-15.55A11.88,11.88,0,0,0,548.23,61Zm-57.55,5.71c-1.32,1.59-1.45,3.94-3.55,4.93a3.37,3.37,0,0,1-.2-2.93,9,9,0,0,0,.13-1.56,12.63,12.63,0,0,0-1.21,1.1c-.85,1-1.34,2.4-3.1,2.73,0-.76,0-1.45,0-2.14s.2-1.27.3-1.9c-.53.46-1.11.88-1.6,1.38-1,1-1.7,2.35-3.62,2.66.07-1.32.13-2.55.2-3.74L472.14,72,471,69.4l-3.1,2.22-.83-1.4-2.77,2-1.07-1.9c-.71.56-1.29,1-1.9,1.49-1,.74-1.28-.28-1.87-.76l-2.78,1.59L491.6,72a24.92,24.92,0,0,1,0-2.86A2.34,2.34,0,0,0,490.68,66.66ZM21.25,55.07c1.32.1,2.47.25,3.61.23a1.47,1.47,0,0,0,1.06-.69c1.91-3.9,3.74-7.84,5.63-11.75a9.35,9.35,0,0,0,.71-6.1,8.16,8.16,0,0,0-2,1,13.53,13.53,0,0,0-4.24,6.53,31.31,31.31,0,0,1-3.49,8.36C22.14,53.4,21.74,54.17,21.25,55.07Zm467,58.66a3.3,3.3,0,0,0,.56,0c1.37-.22,2.75-.47,4.13-.68.79-.12,1.66-.17,1.69.92,0,.84.51,1.14,1.09,1.09a6.53,6.53,0,0,0,2.42-.64c1.17-.58,2.21-1.42,3.38-2a1.6,1.6,0,0,1,1.41.24c.22.2.17.91,0,1.3a9.17,9.17,0,0,1-1.14,1.62c.62-.3,1-.44,1.29-.62.94-.51,1.87-1.08,2.83-1.56.73-.36,1.49-.49,1.95.43s-.26,1.29-.9,1.64c-.86.48-1.73.93-2.71,1.45,2.51.79,5.59-1.61,6.15-4.72-11.25-.07-22.43-.8-33.45-3.49l-.75,1.88c2.13,1.63,4-.09,5.86-.43.28.82.32,1.74.76,2a4.46,4.46,0,0,0,2.19.24,2.17,2.17,0,0,0,.87-.39c1.58-.86,2-.66,2.25,1.11C488.2,113.29,488.23,113.44,488.28,113.73Zm53.18-52.92a6.09,6.09,0,0,0-1.62.77,15,15,0,0,0-4.05,5.72c-.95,2.53-2,5-3,7.56-.29.73-.6,1.46-.93,2.27l3.55,1.09c.22-.51.39-.94.6-1.37q2.51-5.3,5-10.58C541.91,64.54,542.47,62.8,541.46,60.81Zm12.25.44c-.22-2.08.91-3.57,2.89-4.57-7.48.07-15-1-22,2.67a6.35,6.35,0,0,1,1.29,1.22,7.27,7.27,0,0,1,.5,1.75c.89-.87,1.66-1.74,2.55-2.46,2-1.63,3.68-1.23,4.84,1.06.08.16.19.31.36.58.7-.74,1.29-1.45,2-2a2.51,2.51,0,0,1,2.9-.38,2.28,2.28,0,0,1,1.18,2.31c0,.81-.07,1.63-.12,2.49C551.49,63.21,551.77,61.2,553.71,61.25ZM288.65,37.61c1.44,0,2.59,0,3.74,0a1.24,1.24,0,0,1,1.45,1.45c0,1.24-.07,2.48,0,3.72a1.7,1.7,0,0,0,.54,1.22c.64.42,1.14,0,1.59-.56A22.31,22.31,0,0,0,300,35.1c.19-.71.33-1.42.51-2.21-2.3.28-4.39.58-6.49.78a5.23,5.23,0,0,0-3.37,1.64C290,36,289.46,36.69,288.65,37.61Zm202.55,62,3.94.76a3.56,3.56,0,0,0,4.05-1.58,3.47,3.47,0,0,1,.86-.8,12.55,12.55,0,0,0,4.57-7.53,1.62,1.62,0,0,0-.44.06c-1.36.87-2.75,1.72-4.07,2.65-.91.65-1.75,1.4-3,1.07-.05-1.56,1.21-2.29,2.06-3.32a1.37,1.37,0,0,0-.89.27C495.94,93.94,493.63,96.71,491.2,99.61ZM371,48.22c2.44-.32,4.3-1,5.47-3.2,1.06-2,2.36-3.77,3.53-5.67a37.66,37.66,0,0,0,2.37-4.13,8.66,8.66,0,0,0,.31-2.55c-1.5-.38-2.47,0-3.14,1.07-.86,1.39-1.76,2.75-2.57,4.17-1.53,2.66-3,5.36-4.49,8C372.07,46.67,371.58,47.34,371,48.22ZM529,60.35a4.56,4.56,0,0,0-4,2.49c-1.88,3.42-4,6.74-5.94,10.1-.15.25-.26.53-.42.87,1,.19,2,.41,2.93.51.31,0,.84-.16.93-.38a47.1,47.1,0,0,1,5.85-9.57A4.48,4.48,0,0,0,529,60.35Zm-74.47,8.86a14.62,14.62,0,0,1,1.73.32,2.09,2.09,0,0,0,2.33-.67,16.84,16.84,0,0,1,2.12-1.73c.61-.45,1.33-.45,1.66.23a2.21,2.21,0,0,0,2.74,1.1,41,41,0,0,1,4.55-.71c1.46-.14,2.65-.3,3.64.91l4.74-3.91c-3.34.32-6.59.71-9.85.91s-6.38.18-9.57.35a3.66,3.66,0,0,0-2,.76A19.14,19.14,0,0,0,454.56,69.21ZM256.2,36.62c.48.9.68,1.89,1.25,2.23A3.62,3.62,0,0,1,259.32,43c2.66-1.78,5.2-3.64,7.91-5.22a16.64,16.64,0,0,1,4.56-1.57c1.23-.3,2.52-.23,2.88,1.57.38-1.74,2.71-.51,3-2.27a4.11,4.11,0,0,0-.64-.06ZM331.83,46c3.7-2.09,6.33-8.49,5.51-13.05a12.66,12.66,0,0,0-1.37.24,11.21,11.21,0,0,0-4.73,3.15c-1.33,1.31-1.31,1.42.25,2.41a3.65,3.65,0,0,1,1.2,5.37A17.49,17.49,0,0,0,331.83,46Zm260.1,66.19-9.6.78a33.59,33.59,0,0,1-1.46,3.54c-.56,1-1.71,1.64-1.34,3.06.08.3-.27.73-.44,1.09s-.4.86-.61,1.29a38.58,38.58,0,0,0,2.7-2.92c1.18-1.35,2.36-2.71,3.6-4a1.36,1.36,0,0,1,2-.1,1.32,1.32,0,0,1,.24,1.92c-.46.74-1,1.46-1.5,2.16-1.44,1.88-2.9,3.75-4.35,5.62a2.3,2.3,0,0,0,1.44-.49,12.58,12.58,0,0,0,1.74-2C586.77,118.87,588.79,115.2,591.93,112.22ZM373.77,69.71l0,.4a21.63,21.63,0,0,0,2.43.81c4,.83,8,1.64,12,2.38a6,6,0,0,0,2.3-.16,1,1,0,0,0,.51-.89c-.65-2.15-1.84-3-4.17-2.93q-5.75.08-11.49.19A13,13,0,0,0,373.77,69.71Zm151.87,5.88c.81.16,1.44.24,2.05.4a1.31,1.31,0,0,0,1.75-.89c1.29-2.84,2.73-5.6,4-8.45a20.5,20.5,0,0,0,1.06-3.91,1.13,1.13,0,0,0-.37-1A1.26,1.26,0,0,0,533,62a15.58,15.58,0,0,0-2.36,3.67c-1.1,3.1-2,6.23-4.26,8.76A8.56,8.56,0,0,0,525.64,75.59ZM60.7,64.44c0,1,0,1.76,0,2.55a1.06,1.06,0,0,0,1.22,1.15c1.32,0,2.64,0,4,0h5.3V62.23l-2.81,1.15c-1,2.14-1.6,2.38-4.21,1.73C63.09,64.84,62,64.69,60.7,64.44Zm447,7.66.56-4.2c-2.18.85-2.91,2.6-3.28,4.75,1.69,0,3.29.08,4.88,0a2,2,0,0,0,1.33-1c1.07-1.92,2-3.9,3-5.86.18-.36.3-.75.5-1.27l-8.58,1.2.05.51a6.21,6.21,0,0,0,1.22-.08c1.88-.51,2.67.09,2.55,2-.06.87-.32,1.73-.4,2.6S509,72.14,507.71,72.1Zm10.1,21.26-.36-.27a22.69,22.69,0,0,0-9.82,9.11c2.12-.33,3.93-.67,5.74-.85a1.37,1.37,0,0,0,1.4-1.4,8.16,8.16,0,0,1,1.78-4.11A12.83,12.83,0,0,0,517.81,93.36ZM380,46c1.56-.07,3.12-.22,4-1.41,1.41-1.85,2.95-3.69,3.44-6.07a17.21,17.21,0,0,0,.15-2.53,4.15,4.15,0,0,0-3.87,2.24C382.5,40.74,381.33,43.32,380,46ZM520.69,62.37c-1.85-.28-2.86,0-3.35,1.38-1.08,3-2,6-3,9.1,1.12.32,2.09,1.12,2.74-.16A39.44,39.44,0,0,0,520.69,62.37ZM405.36,40.53c.43-1.39.77-2.48,1.1-3.56-1.72-.38-3.59,2-4.37,5l7.65-.47c2.29-.13,3.1-1.17,2.71-3.53l-1.95-.5c-1-.24-1.84.05-2.08,1.07C408.07,40,407,40.2,405.36,40.53ZM287,35.77c-.31-.31-.58-.78-.84-.78a20.79,20.79,0,0,0-4,.26c-1.69.34-2.07,1.06-1.88,2.77.05.43.09.87.1,1.31a1.53,1.53,0,0,0,1.2,1.65,1.85,1.85,0,0,0,2.2-.68c.78-.95,1.65-1.82,2.41-2.79A9.14,9.14,0,0,0,287,35.77ZM94.28,23.43c0-1.45,0-2.8,0-4.15,0-.8-.51-1.13-1.26-1.1-2.12.08-4.23.11-6.34.3a1.64,1.64,0,0,0-1.17,1c-.14,1.53-.06,3.08-.06,4.75L90,23.84c-.56-.31-.82-.46-1.08-.58s-.68-.23-1-.39c-1-.51-1.37-1.47-.62-2.24a12.43,12.43,0,0,1,2.81-1.91,1.06,1.06,0,0,1,1,.36c.66,1.44,2.15,2.78.48,4.65ZM111.42,68l8,.62c.4-1.19,0-1.67-1-2a3.45,3.45,0,0,1-1.84-1c-1-1.58-2.59-1.59-4.13-1.67-.31,0-.88.55-.92.9A24.6,24.6,0,0,0,111.42,68Zm283.3-30.74c-3-.56-6.56,3.06-6.84,6.85C390.77,44.54,394.85,40.88,394.72,37.28Zm33.55,4,0-.17-13.74-2.84c-.24,1.07-.45,2-.69,3Zm-166,1.81.11.43c3-.78,6-1.47,8.93-2.38,1.24-.39,1.55-1.8,1-3.28C268.24,38.31,265.27,40.79,262.22,43.1Zm-222,3.83-.34-.13-4.17,8.62c2.54.41,3,.28,4.76-1.17a1.94,1.94,0,0,1,.75-.32c1.5-.33,1.59-.51.91-1.86-1.8.46-2.67-.26-2.46-2.12C39.76,48.94,40,47.94,40.19,46.93ZM551.91,76a9.51,9.51,0,0,1-1.51,0c-1.17-.19-1.59-1.22-1.22-2.77.19-.79.34-1.59.5-2.39l-.47-.13q-1.94,4.11-3.85,8.21a2.91,2.91,0,0,0,3.23.13,19,19,0,0,1,2.3-1.24A1.39,1.39,0,0,0,551.91,76ZM508.07,95.77c-2.86-.31-5.54,1.67-6.75,5a10.92,10.92,0,0,0,1.75.37c.72,0,1.68.23,2.15-.14A6.43,6.43,0,0,0,508.07,95.77ZM70.71,56l.4-.05V40l-2.06.49c.27.23.44.39.62.53,1.83,1.41,1.81,2.2,0,3.57A1.76,1.76,0,0,0,69,45.82C69.51,49.23,70.12,52.62,70.71,56Zm446.74,44c3.75-.51,4.2-.9,5.09-4.34a7.43,7.43,0,0,1,.23-.93c.31-.8.05-1.28-.67-1.46C519.31,94.77,518.25,97.29,517.45,100.05ZM394.4,42.87c3.38.57,5.44-1,6.5-4.07.08-.22.27-.4.34-.62a6.23,6.23,0,0,0,.17-.86,2.85,2.85,0,0,0-.94.14A20.71,20.71,0,0,0,394.4,42.87ZM498,66.19l-.38-.26-5,6.12a28.25,28.25,0,0,0,3.21,0,1.88,1.88,0,0,0,1.34-.76A7.84,7.84,0,0,0,498,66.19Zm-2.21-1.06-.09-.35H479.4L480.65,66a9.44,9.44,0,0,1,2.7-1c1.78,0,3.55.28,5.33.43a2.56,2.56,0,0,0,1.07-.09,2.43,2.43,0,0,1,3.29.76c.34.38.63.8,1,1.27ZM389.88,36.75c2.67-.9,5.3-3.26,7.68.36l1.85-1.37L384.61,33c0,.6-.08,1.09-.11,1.62C388.64,33.79,388.64,33.79,389.88,36.75ZM313.19,46l-3.64,5.25,3.71,1C314,50.12,314.56,48.16,313.19,46ZM504,66.48l-.43,0L498.83,72c1.25.08,2.31.17,3.36.2a.69.69,0,0,0,.55-.34c.51-1.28,1-2.57,1.43-3.89A4.12,4.12,0,0,0,504,66.48Zm9.23,46.3.14.4c2,.31,4,.63,6,.92a1.1,1.1,0,0,0,.74-.26c.62-.53,1.2-1.1,2-1.85-2.71,0-5.13,0-7.54,0C514.16,112,513.72,112.52,513.27,112.78Zm1,2.64c-2.25-1-3.4-.36-5.14,2.5,3,.74,3,.74,4.73-1.84C513.94,115.89,514.06,115.69,514.22,115.42ZM111.61,48.88V59.74l2-.46-.62-.51c-1.41-1.25-1.52-2-.56-3.61.59-1,.15-5.39-.65-6.28C111.81,48.86,111.76,48.88,111.61,48.88ZM578.92,70.83C581,68,582.1,63,580.83,61.55a5.52,5.52,0,0,1-.51,1.77,6,6,0,0,1-1.65,1.09l.44.33c1.79,1.24,1.85,2.43.07,3.73C578.2,69.18,578.37,69.88,578.92,70.83ZM572.41,119l.17.18L579,113.3c-2.28-.4-2.52-.28-3.58,1.72a11.34,11.34,0,0,1-1,1.61C573.77,117.43,573.08,118.18,572.41,119ZM529.9,94.57c-2.58.21-4.48,1.33-5.3,3.13,1.6-.5,3.16-1,4.7-1.48C530.09,96,530.32,95.4,529.9,94.57Zm-55.48,13.76-5.55-.92-.11.47,5.66,2.51Zm-362.9-68v4.27l.26.18c.41-.44,1.22-.94,1.17-1.32C112.8,42.36,113.38,40.84,111.52,40.32Zm443.76,81.93,2.76-4.72-.26-.16L553.5,122ZM412.59,51.35l-4.06.81C410.92,54,412.25,53.77,412.59,51.35Zm-237.5-3.73L170,53.79C171.07,53.77,175.13,48.93,175.09,47.62ZM319.39,82.7,316.07,86C317.59,86.08,318.82,84.88,319.39,82.7ZM573,114.51c-1.39,1.47-2.61,2.75-3.82,4l.39.37c1.24-1.21,2.49-2.42,3.71-3.65C573.38,115.21,573.19,114.9,573,114.51ZM299.59,81.61c-1.72,0-2.73,1.11-2.8,3.14ZM577.68,120.4l-.29-.19L575,123.84l.64.41A32.93,32.93,0,0,0,577.68,120.4Zm19.71-51c-1.06,1.16-1.92,2.38-1.4,4.34C596.52,72.11,597,70.75,597.39,69.4Zm-144,16,1.32-2.67C452.62,83.71,452.4,84.14,453.39,85.45ZM45.56,41.26l2.25-1.44-.09-.29-1.88-.21ZM555.08,65.07l2.25-1.4-.13-.36-1.83-.14C555.27,63.77,555.19,64.3,555.08,65.07Zm-37,51.64c-1.43-.76-2-.57-2.35.72ZM314.94,39.45l-.35-.09c-.26,1.07-.53,2.15-.8,3.22l.39.09C314.44,41.6,314.69,40.53,314.94,39.45Z"
              transform="translate(0 0)"/>
        <path d="M292.45,61.68A3.11,3.11,0,0,1,289,58c0-.36.09-.72.12-1.08.12-2.07,1.21-3,3.35-2.84a4.37,4.37,0,0,0,.7.1c2-.17,2-.17,2.41,1.84.09.47.17.94.26,1.42C296.37,60.39,295.42,61.59,292.45,61.68Z"
              transform="translate(0 0)"/>
        <path d="M276.45,54.66a11.27,11.27,0,0,1,2.79.61c1.29.61,1,2,1.14,3.18.1.93-.7,1.14-1.41,1.31-1.36.31-2.72.61-4.09.89-1.1.22-1.47-.09-1.52-1.19a11.69,11.69,0,0,0-.11-1.19A3.21,3.21,0,0,1,276.45,54.66Z"
              transform="translate(0 0)"/>
        <path d="M91.74,41.62A4.28,4.28,0,0,1,96.14,46a4.47,4.47,0,0,1-8.93-.26A4.3,4.3,0,0,1,91.74,41.62Z"
              transform="translate(0 0)"/>
        <path d="M325,66a3.87,3.87,0,0,1-2.27,3.19,2.19,2.19,0,0,1-2.75-.81,9.49,9.49,0,0,1-.81-1.46c-1-2.19-.61-3.22,1.55-4.2a1.24,1.24,0,0,1,.9-.09A8.75,8.75,0,0,1,324,63.91,6.81,6.81,0,0,1,325,66Z"
              transform="translate(0 0)"/>
        <path d="M312,66.22c-.51.85-.83,2-1.51,2.32s-1.78-.22-2.66-.5a6,6,0,0,1-1.43-.86,2,2,0,0,1-.14-3.33c1-.79,3.71-1,4.56-.07A9.1,9.1,0,0,1,312,66.22Z"
              transform="translate(0 0)"/>
        <path d="M88.8,30.15A1.89,1.89,0,0,1,90.67,28c1.08,0,1.79.81,1.82,2.08s-1.23,2.85-2.11,2.9S88.86,32,88.8,30.15Z"
              transform="translate(0 0)"/>
    </g>
</svg>