<svg id="Layer_1" data-name="Layer 1" xmlns="http://www.w3.org/2000/svg" viewBox="0 0 191.04 86.4"><defs><style>.cls-1{fill:#fff;}.cls-2{fill:#c3c0b7;}.cls-3{fill:#c6bf5f;}.cls-4{fill:#858c63;}.cls-5{fill:#dcb775;}</style></defs><title>домик2</title><g id="домик"><g id="покрас"><polygon class="cls-1" points="48.36 55.09 48.62 16.29 45.28 12.69 77.66 2.15 106.97 13.71 103.62 20.65 103.62 47.64 99.69 51.71 89.96 52.56 74.94 52.56 51.38 52.39 48.36 55.09"/><polygon class="cls-2" points="49.49 57.01 86.03 60.07 102.25 54.2 99.69 51.71 48.08 52.41 49.49 57.01"/><polygon class="cls-3" points="118.73 45.64 143.64 47.43 166.38 51.77 189.63 59.18 178.39 61.86 175.2 60.46 159.99 59.43 131.12 59.95 116.3 61.61 118.73 45.64"/><polygon class="cls-3" points="47.7 44.49 6.69 55.73 6.82 58.54 48.34 56.62 47.7 44.49"/><polygon class="cls-4" points="39.52 58.8 50.64 57.77 123.33 62.37 142.36 66.97 134.31 72.59 112.72 76.3 81.17 75.53 53.7 65.82 38.12 59.95 39.52 58.8"/><polygon class="cls-5" points="127.67 59.82 156.67 59.05 176.09 60.07 177.5 61.73 158.84 63.52 142.36 66.97 126.39 62.37 127.67 59.82"/><polygon class="cls-3" points="9.76 77.58 19.59 73.1 38.5 67.99 55.49 66.72 96.25 78.09 98.93 82.17 96.88 84.47 92.03 85.24 79.77 84.6 71.59 84.09 67.5 83.96 64.95 82.17 58.69 81.92 59.58 78.72 53.58 77.19 31.86 77.06 19.98 78.09 11.55 78.6 9.76 77.58"/></g><g id="контур"><path d="M98.28,79.25c.37.31.72.65,1.11.94,1.19.88,1.27,1.84.55,3.1a3.44,3.44,0,0,1-3.14,2,1.58,1.58,0,0,0-.82.19c-1.73,1.21-3.58.94-5.56.82-3.66-.23-7.36,0-11,0-.39,0-.94,0-1.15-.19-.76-.86-1.72-.67-2.66-.68-2.36,0-4.72,0-7.08,0-1.19,0-2.41-.08-3-1.44-.12-.25-.76-.36-1.15-.36-3.44,0-6.88.11-10.32.13-.92,0-2.12.24-2.38-1s.89-1.68,1.81-2A35.32,35.32,0,0,0,57.54,79a41.76,41.76,0,0,0-5.74-.82c-11.59-.15-23.2-.42-34.73,1.3a53.51,53.51,0,0,1-7.06.31c-.82,0-1.79-.1-2.07-1.09A1.91,1.91,0,0,1,9.18,76.5a77.63,77.63,0,0,1,7.06-3.26A121.13,121.13,0,0,1,44,66.3c.91-.11,1.82-.16,3.07-.26a6.49,6.49,0,0,0-.92-.41c-5.31-1.34-10.6-2.79-16-3.95-4.4-1-8.89-.7-13.37-.52-4.31.18-8.63.09-12.94,0a6.52,6.52,0,0,1-2.64-.73C.7,60.19,0,59.53,0,59.09a2.3,2.3,0,0,1,1.09-1.75C5,55.82,8.84,54.4,12.76,53.05c1.65-.57,3.38-.91,5-1.34.13-1.54.19-3,.4-4.47a2.85,2.85,0,0,1,2.05-2.4c.57-.21,1-1.05,1.28-1.68s.15-1.3.42-1.86a6.86,6.86,0,0,1,1.51-2.24,2.57,2.57,0,0,1,4.33,1.73c.09.73.33,1,1.05.91,1-.06,1.52.49,2.07,1.31a4.36,4.36,0,0,1,.95,3.77c0,.13.59.66.82.61,1.47-.31,2.92-.74,4.38-1.12l.14-.37a14,14,0,0,1-2.08-1.25c-.54-.46-1.22-1.11-1.26-1.71a16.17,16.17,0,0,1,.25-4.87,24.93,24.93,0,0,1,2-4.42c0-.1.14-.24.24-.26,1.57-.33,1.11-1.62,1.32-2.65.33-1.67.84-3.3,1.22-5,.2-.85.31-1.72.45-2.58a5.07,5.07,0,0,1,2-3.79c1-.69,2-.39,2.3.81.2.85.26,1.74.45,2.59a3.68,3.68,0,0,0,.6,1.54A5.51,5.51,0,0,1,45.89,28a5.38,5.38,0,0,0,.57,2.22c0-.28.06-.55.07-.83,0-4,0-8.08,0-12.12a2.24,2.24,0,0,0-.66-1.39c-.76-.76-1.69-1.34-2.45-2.09-.33-.32-.69-1.08-.54-1.3a4.74,4.74,0,0,1,1.9-1.94c4-1.46,8-2.73,12-4.06C63.06,4.42,69.35,2.35,75.63.24a4.09,4.09,0,0,1,3.11.14c5.33,2.26,10.68,4.46,16,6.68.4.17.8.3,1.43.54-.08-1.2-.14-2.22-.2-3.23-.11-1.92.44-2.56,2.35-2.66.39,0,.8,0,1.19,0C100.51,1.58,101,2,101,3c.06,2,.2,4,.21,6a1,1,0,0,0,.8,1.1c1.75.7,3.47,1.43,5.21,2.15s1.91,1.35,1.13,2.93a1.88,1.88,0,0,1-.23.42c-2.43,3.26-3,6.92-2.82,10.93.24,4.59,0,9.2,0,13.8v1.31l.31.25c.43-.4,1-.72,1.25-1.22.63-1.47,1.2-2,2.48-2a3.56,3.56,0,0,1,3.3,2.17,2.09,2.09,0,0,0,2.06,1.7,49.91,49.91,0,0,1,5.7,1.41,5.83,5.83,0,0,0,.92.21l15.29,1.45c.19,0,.38,0,.71,0-.07-1.23-.13-2.41-.25-3.59a.78.78,0,0,0-.45-.57c-2.52-.54-3.42-2.27-3.44-4.64,0-.62-.3-.8-.81-1.1a2.34,2.34,0,0,1-1.15-1.58c0-2.89-.47-5.83.62-8.67a18.07,18.07,0,0,0,.21-2.25,23.58,23.58,0,0,1,.91-2.51,4.58,4.58,0,0,0,.4-1.2c.07-1,0-1.92.05-2.88a2.64,2.64,0,0,1,1.22-2.28,6.88,6.88,0,0,0,1.61-2.57c.71-1.37,1.27-2.82,2-4.17a1.37,1.37,0,0,1,2.39.19,9.26,9.26,0,0,1,1.09,3.47,13,13,0,0,0,2.11,5.43c.51.86.31,2.18.33,3.3,0,.94-.24,1.9-.14,2.83a2.33,2.33,0,0,0,1,1.36,2.65,2.65,0,0,1,.92,3.43,4.85,4.85,0,0,0-.46,2.12c0,2.35.17,4.7.23,7.06a2.33,2.33,0,0,1-1.42,2.3A16.43,16.43,0,0,0,142,40.45a1.27,1.27,0,0,0-.38.9c0,1.59,0,3.17,0,4.87-.11,0,.07,0,.26,0a119.94,119.94,0,0,1,25.42,4.65c2.76.77,5.38,2,8.1,3,1.49.53,3,.91,4.87,1.44,0-1.33,0-2.43,0-3.51,0-.27-.46-.64-.78-.73A1.79,1.79,0,0,1,178,48.93c0-.56.14-1.11.24-1.65.19-1,.34-2,.62-3a6.18,6.18,0,0,1,.85-1.68,4,4,0,0,1,1.18-1.29c.48-.26,1.41-.49,1.66-.24a4.22,4.22,0,0,1,1.19,2.16c.31,2.15,0,4.38,1,6.46a1.57,1.57,0,0,1-.42,1.45,4.07,4.07,0,0,0-1.63,3.73c0,.73.31.92,1,1.06a44.94,44.94,0,0,1,5,1.25,5.81,5.81,0,0,1,2.06,1.37,1.39,1.39,0,0,1-.61,2.19,11.56,11.56,0,0,1-3.06.94c-2.21.38-4.44.58-6.64,1-1.33.22-2.61.76-3.94.92a49.93,49.93,0,0,1-6.79.51,75.7,75.7,0,0,0-22.4,2.89c-1.11.33-2.12.57-2.46,2a3.85,3.85,0,0,1-1.67,1.94,41,41,0,0,1-14.77,5.72,18.22,18.22,0,0,0-2.59.48c-4.31,1.5-8.74,1.12-13.18,1.08-3,0-6.11.27-9.17.43-1.16.06-2.31.16-3.47.22-.5,0-1,0-1.52,0ZM61.43,66.19a16.26,16.26,0,0,1,.24-2.1c.23-.92-.07-1.43-1-1.14a31.2,31.2,0,0,0-3.17,1.45l0,.49,3.89,1.27a7.93,7.93,0,0,0,1,.55c3.52,1.28,7,2.63,10.59,3.78,2.85.91,5.78,1.56,8.67,2.33a1.34,1.34,0,0,0,1.54-.53,13.8,13.8,0,0,1,2.77-2.63c1.26-.84,1.36-2,1.3-3.23,0-.89-.61-1.1-1.19-.62A18.25,18.25,0,0,0,84,68.22c-.61.73-1.09,1.56-1.73,2.26a1.06,1.06,0,0,1-1,.09,1.09,1.09,0,0,1-.31-1,13.89,13.89,0,0,1,1.29-2c.44-.61.91-1.18,1.37-1.77l-.32-.35a8.22,8.22,0,0,0-1.69,1c-1,.88-1.84,1.88-2.76,2.83a10,10,0,0,1-1.29,1.24c-.22.16-.63.06-1,.07a3,3,0,0,1,0-1.07c.12-.31.48-.52.71-.79a10.4,10.4,0,0,0,2.25-5.22,6.44,6.44,0,0,0-2.39,1.17c-1.28,1.13-2.42,2.42-3.66,3.59a3.31,3.31,0,0,1-1.09.43,3.45,3.45,0,0,1-.19-1.17,8.16,8.16,0,0,1,.5-1.21c.23-.69.42-1.39.73-2.45a10.13,10.13,0,0,0-2.11.67c-1.14.73-2.18,1.61-3.31,2.36a4.83,4.83,0,0,1-1.35.41,4.62,4.62,0,0,1-.11-1.42c.19-.87.54-1.7.88-2.73-1.82.21-2.83,1.27-4,2.08A13.39,13.39,0,0,1,61.43,66.19Zm-13-53.07c2.17,2.34,2.17,2.34,1.94,5.45,0,0,0,.08,0,.12-.13,5.95-.33,11.9-.38,17.85,0,4.39.12,8.79.19,13.18,0,.43,0,.85,0,1.37h1.33c10.95,0,21.9,0,32.85,0a3.66,3.66,0,0,0,2.92-1.66c1-1.2,2.13-1.39,3-.07A4.07,4.07,0,0,0,93,51a21.38,21.38,0,0,0,4.52.09,17,17,0,0,1,0-2.16A15.2,15.2,0,0,1,98,46.83a1.79,1.79,0,0,1,2.18-1.4c1.53.19,1.53.2,1.53-1.41V22.31c0-.52-.09-1,0-1.56a4.41,4.41,0,0,1,.3-1.55c.71-1.41,1.5-2.78,2.26-4.17a4.09,4.09,0,0,0-.46-.25Q90.75,9.35,77.7,4A2.72,2.72,0,0,0,76,4C70.19,5.89,64.4,7.83,58.61,9.74ZM97.35,82c-.46-.51-1-.89-1.2-1.41a2.33,2.33,0,0,0-2-1.52,22.93,22.93,0,0,0-2.49-.34c-4-.48-8-.66-11.88-1.48a127.1,127.1,0,0,1-24.26-8.18,4,4,0,0,0-1.46-.47,89.58,89.58,0,0,0-9.7.18,117.38,117.38,0,0,0-29,7.38c-.65.25-1.27.56-2.07.92.34.14.44.22.54.21.63,0,1.28,0,1.91-.15,11.9-1.92,23.91-1.6,35.9-1.49a21.93,21.93,0,0,1,8.83,2c1.75.79,2.06,1.6,1.31,3.37a20.49,20.49,0,0,1,3.24,0,4.52,4.52,0,0,1,2.39,1.07,2,2,0,0,0,1.61.74c3.28,0,6.55,0,9.83,0a9.43,9.43,0,0,1,1.66.21,23.44,23.44,0,0,0,3,.58,88.32,88.32,0,0,0,9.2.24c1.5-.08,3-1,4.44-1.53C97.26,82.35,97.29,82.18,97.35,82ZM119.8,59.22l.28.44c1.35-.13,2.71-.23,4-.41s2.43-.52,3.66-.58c6.42-.26,12.85-.53,19.28-.66a105.57,105.57,0,0,1,17.32.58c3.18.46,6.46.19,9.7.27,1.56,0,3.13.11,4.35,1.31a.71.71,0,0,0,.53.15c2.4-.34,4.8-.7,7.19-1.06a4.37,4.37,0,0,0-1.9-.72,53.88,53.88,0,0,1-11.59-2.95,57.49,57.49,0,0,0-6.75-2.47C157.69,51,149.4,49,140.84,48.73c-.75,0-1.51-.18-2.26-.26l-15.24-1.72c-.36,0-.74,0-1.43,0,.77,1.61,1.29,3,2.06,4.25.89,1.45.67,3.5-.69,3.72a2.18,2.18,0,0,0-2,1.79c-.09.32-.4.58-.57.9C120.36,58,120.09,58.62,119.8,59.22Zm6.5,8A17,17,0,0,1,128.84,66c1.91-.56,2.91.39,2.5,2.32a29.4,29.4,0,0,1-1,3.05l7.37-2.86a17.94,17.94,0,0,0-3.1-1.59,51.89,51.89,0,0,0-8.5-2c-6.2-.62-12.43-1-18.66-1.27-7.1-.33-14.22-.49-21.33-.7-1.66-.05-3.33,0-5,0-.08.63-.15,1.3-.2,1.7a17.58,17.58,0,0,1,3.41-.25,2.59,2.59,0,0,0,1.49,0c1.66-.69,2.86.14,3,1.93,0,.35,0,.7,0,1.08,4.43-1.1,4.43-1.1,6,.19.57-.26,1.13-.56,1.72-.79a10,10,0,0,1,1.83-.59c1.65-.32,2.21.17,2.22,1.82,0,.26,0,.52,0,.82a48.51,48.51,0,0,1,4.11-3c2.47-1.45,4.4-.41,4.75,2.41,0,.1.1.19.19.35,2.33-1.41,4.66-2.77,7.3-.71.66-.44,1.3-.93,2-1.32a10.51,10.51,0,0,1,2.17-1C123.62,65,125.41,65.55,126.3,67.25Zm-79.84-20c-1.33.18-2.53.27-3.69.52-3.16.66-6.3,1.42-9.46,2.08-.82.18-1,.77-1.05,1.39,0,.26.08.74.24.8,1.5.57,2.25,1.58,2,3.13h12ZM132.3,60.92l0,.32c1.15.24,2.31.46,3.45.73a16.26,16.26,0,0,1,2.16.65c.83.33,1.62.77,2.44,1.12,1,.43,2,.86,3,1.22a2.25,2.25,0,0,0,1.31.17,74.56,74.56,0,0,1,24.08-3.57c1.88,0,3.76,0,5.63,0a9.74,9.74,0,0,0-1.79-.13c-2.91-.09-5.83-.13-8.73-.31-2.38-.14-4.75-.66-7.12-.66-7.43,0-14.86.2-22.29.32C133.69,60.79,133,60.88,132.3,60.92ZM98.73,74a23.1,23.1,0,0,0,2.9,0,7.16,7.16,0,0,0,3.08-.79,17.34,17.34,0,0,0,3.16-3.24,2.61,2.61,0,0,0-.25-2.91,1.83,1.83,0,0,0-2.33.12C102.67,68.9,100.23,70.87,98.73,74Zm16.68-.47c1.5-.07,2.88-.13,4.26-.23a1.13,1.13,0,0,0,.61-.35c1.3-1.24,2.61-2.47,3.87-3.75a2.83,2.83,0,0,0,.56-1.17c.17-.6-.06-1-.74-1.07a7,7,0,0,0-4,.6C117.55,68.72,116.42,70.88,115.41,73.5ZM53.17,62.36a13.93,13.93,0,0,1,1.77-.79,3.44,3.44,0,0,1,1.89-.22c.29.1.28,1.06.4,1.67A14,14,0,0,1,59.35,62a4.6,4.6,0,0,1,2.43-.28c.66.19,1.14,1,1.74,1.57A15.23,15.23,0,0,1,66,62c2.31-.72,3.41.28,2.56,2.14,0,.07,0,.2.06.39.52-.33,1-.64,1.46-.91a4.69,4.69,0,0,1,1.49-.73,5.25,5.25,0,0,1,2.43,0c.44.16.6,1,.92,1.65l2.88-2.17a8,8,0,0,0-1-.22l-7.29-.4c-3.26-.19-6.53-.3-9.78-.6s-6.64-.8-10-1.19a4.26,4.26,0,0,0-.86.09l0,.37a7.48,7.48,0,0,0,1.3.32,11.59,11.59,0,0,0,1.43-.1C52.64,60.55,53.49,60.71,53.17,62.36Zm45.94,5.07c-1,.37-1.89.71-2.77,1a2.85,2.85,0,0,0-2.06,2.48,13.75,13.75,0,0,1-1.16,2.93C96.3,74.82,99.3,71.88,99.11,67.43Zm9.15,5.7c2.26.32,4.28.22,5.55-2A11.54,11.54,0,0,1,115,69.8a5.55,5.55,0,0,0,.54-1,4.14,4.14,0,0,0-1.13-.46C111.88,68.18,109.18,70.27,108.26,73.13Zm-18.71.68c.11-2.73,2.41-3.75,4-5.7A13.87,13.87,0,0,0,91.7,68c-3.26.33-3.91,3.17-5.34,5.5Zm34.73-1.42c.81-.15,1.57-.33,2.35-.42a4.1,4.1,0,0,0,3.24-4.66C127.92,67.29,125.28,69.66,124.28,72.39ZM80.88,57.75c2.09.4,2.14.37,2.94-1.51A4.13,4.13,0,0,0,84.26,55a8.22,8.22,0,0,0-.18-1.63c-.51.26-1,.49-1.53.79-.17.11-.25.4-.35.61C81.76,55.75,81.34,56.72,80.88,57.75ZM17.78,54.3l-7.54,2,.07.3,7.38-.43C17.72,55.51,17.74,55.05,17.78,54.3ZM79,57.55l1.9-3.86c-2.33.29-2.43,2.24-3.41,3.62ZM73,57c.37-1,.69-1.93,1-2.81l-.45-.28L71,56.58l.2.31Zm4.32-2.74-.4-.28-2.64,3,1.66.13Zm21.61-.82-.19-.37H93.85l1.73.93c.73-.49,1.49-1,2.42-.16C98.09,53.91,98.59,53.57,98.9,53.42Zm-37,3.18.84-2.19-.36-.27L60.24,56.4Zm5.92-1.84-.26-.19L66,56.75h1.44C67.57,56,67.72,55.4,67.86,54.76Zm2.63-.23-.26-.14-1.58,2.45h1Zm-12.87-.21-.24-.18-1.7,1.55h1.65ZM45.08,60.06c.76.26,1.6,1.18,2.53-.12ZM91.17,72.67l.43.33,1.33-1.77L92.59,71Z"/><path d="M72.4,16v.72c0,1.44-.58,2-2,2.14-2.8.21-5.6.43-8.4.59-1.32.08-2.64,0-4,0-.92,0-1.53-.42-1.52-1.31a19.26,19.26,0,0,1,.36-3.29,1.17,1.17,0,0,1,.74-.7c1.67-.45,3.39-.73,5-1.28a18.14,18.14,0,0,0,3.73-1.82,7,7,0,0,1,5-.67c.28,0,.63.61.69,1,.22,1.53.34,3.07.5,4.61Z"/><path d="M80.4,13.7a11.49,11.49,0,0,1,0-2,1.32,1.32,0,0,1,.62-.91c.26-.1.69.14,1,.28s.56.5.78.46c1.76-.34,3.08.82,4.6,1.29.36.11.8,0,1.17.11.94.26,1.86.59,2.79.87.6.18,1.2.37,1.81.5,1.55.32,1.91.76,1.75,2.24-.12,1.19-.7,1.49-2.18,1.57a24.78,24.78,0,0,0-3.26.66A8.05,8.05,0,0,1,88,18.9c-1.85,0-3.71-.09-5.56-.07-1,0-1.59-.39-1.69-1.42Z"/><path d="M87.69,31a10.79,10.79,0,0,1,.18-1.71c.24-.91,1.17-1.28,1.72-.62.73.88,1.54.63,2.36.43a2.49,2.49,0,0,1,3.09,2c.09.67.19,1.35.22,2,.07,1.75-.35,2.22-2,2.84a3.87,3.87,0,0,1-2.6.41,3.69,3.69,0,0,1-2.89-3.74C87.76,32.15,87.74,31.72,87.69,31Z"/><path d="M62.73,36.59,61,37a1.92,1.92,0,0,1-2.53-1.19c-.93-2.09-.45-4.71,1.08-5.56A2.94,2.94,0,0,1,60.79,30q1.29-.06,2.58,0c.3,0,.76,0,.87.19A12,12,0,0,1,65.73,33a3,3,0,0,1-1.1,3.21,6.12,6.12,0,0,1-1.81.68Z"/><path d="M71.78,33.45c.06-.9-.22-2,1-2.58.12-.05.15-.34.21-.52.43-1.37,1.41-1.61,2.5-.62.17.14.42.39.54.35,1.63-.63,2,.61,2.5,1.65.6,1.33-.55,4.48-1.78,5C74,38,71.78,36.56,71.78,33.45Z"/></g></g></svg>