<?xml version="1.0" encoding="utf-8"?>
<!-- Generator: Adobe Illustrator 22.1.0, SVG Export Plug-In . SVG Version: 6.00 Build 0)  -->
<svg version="1.1" id="Layer_1" xmlns="http://www.w3.org/2000/svg" xmlns:xlink="http://www.w3.org/1999/xlink" x="0px" y="0px"
	 viewBox="0 0 50 50" style="enable-background:new 0 0 50 50;" xml:space="preserve">
<path d="M34,2H16C8.3,2,2,8.3,2,16v18c0,7.7,6.3,14,14,14h18c7.7,0,14-6.3,14-14V16C48,8.3,41.7,2,34,2z M44,34c0,5.5-4.5,10-10,10
	H16c-5.5,0-10-4.5-10-10V16c0-5.5,4.5-10,10-10h18c5.5,0,10,4.5,10,10V34z M25,13c-6.6,0-12,5.4-12,12s5.4,12,12,12s12-5.4,12-12
	S31.6,13,25,13z M25,33c-4.4,0-8-3.6-8-8s3.6-8,8-8s8,3.6,8,8S29.4,33,25,33z M40,13c0,1.7-1.3,3-3,3s-3-1.3-3-3s1.3-3,3-3
	S40,11.3,40,13z"/>
</svg>
