<svg id="Layer_1" data-name="Layer 1" xmlns="http://www.w3.org/2000/svg" viewBox="0 0 46 46"><title>menu btn</title><path d="M32,0H14A14,14,0,0,0,0,14V32A14,14,0,0,0,14,46H32A14,14,0,0,0,46,32V14A14,14,0,0,0,32,0ZM42,32A10,10,0,0,1,32,42H14A10,10,0,0,1,4,32V14A10,10,0,0,1,14,4H32A10,10,0,0,1,42,14Z"/><path d="M36.92,10.61a14.33,14.33,0,0,0-5.31-.78A13.28,13.28,0,0,0,23,13.33a13.28,13.28,0,0,0-8.62-3.5,14.32,14.32,0,0,0-5.3.78,1.91,1.91,0,0,0-1.22,1.77V27.66c0,3.18,0,3.18.12,3.5a1.9,1.9,0,0,0,2.25,1.17c7.35-1.9,11.1,2.89,11.25,3.09a1.91,1.91,0,0,0,1.52.76,1.7,1.7,0,0,0,.59-.1,1.49,1.49,0,0,0,.42-.2l.12-.07.09-.08.14-.13.15-.17c.16-.2,3.93-5,11.26-3.1A1.88,1.88,0,0,0,38,31.16c.13-.32.13-.32.13-3.5V12.38A1.91,1.91,0,0,0,36.92,10.61ZM21.1,30.19a14.3,14.3,0,0,0-7.51-2.1,16.16,16.16,0,0,0-1.94.12V13.83a10,10,0,0,1,9.45,3ZM34.35,13.82V28.21a14.52,14.52,0,0,0-9.46,2V16.78A9.92,9.92,0,0,1,34.35,13.82Z"/></svg>