<svg id="Layer_1" data-name="Layer 1" xmlns="http://www.w3.org/2000/svg" viewBox="0 0 288.73 147.3"><defs><style>.cls-1{fill:#fff;}.cls-2{fill:#c3c0b7;}.cls-3{fill:#858c63;}.cls-4{fill:#c6bf5f;}.cls-5{fill:#dcb775;}</style></defs><title>мечеть2</title><g id="мечеть"><g id="покрас"><polygon class="cls-1" points="65.71 69.25 113.11 59.77 174.33 68.45 173.54 99.66 122.79 100.25 65.52 101.63 65.71 69.25"/><polyline class="cls-2" points="60.97 66.68 112.52 50.68 180.06 66.28 172.75 67.67 113.11 59.77 65.71 69.25 60.97 66.68"/><polygon class="cls-2" points="65.32 83.52 113.52 78.59 173.97 83.12 173.54 99.66 96.21 99.89 65.52 101.63 65.32 83.52"/><polygon class="cls-1" points="106.2 51.43 105.8 45.84 107.26 42.38 107.26 32.66 108.2 27.6 114.32 27.6 115.39 36.65 114.99 45.04 117.12 50.63 106.2 51.43"/><polygon class="cls-2" points="105.13 26.66 111.66 4.16 117.65 26.66 115.78 27.73 105.93 27.73 105.13 26.66"/><polygon class="cls-3" points="30.5 108.15 67.91 101.82 179.11 99.77 220.4 102.02 239.41 104.68 214.06 110.2 197.3 111.83 195.59 110.94 188.1 109.14 165.13 108.23 143.84 107.97 137.38 107.33 126.28 108.23 108.86 109.14 98.66 110.55 89.76 110.68 84.21 111.2 65.36 114.43 58.01 113.52 32.84 110.42 30.5 108.15"/><polygon class="cls-4" points="68.33 115.72 83.17 122.56 129.38 119.2 169 121.4 174.29 118.04 201.4 111.72 188.88 109.26 153.51 107.97 143.84 107.97 137.38 107.33 117.12 108.62 101.37 110.04 94.92 110.68 89.76 110.68 82.4 111.46 68.98 114.04 68.33 115.72"/><polygon class="cls-4" points="215.19 110.21 243.37 105.51 253.24 106.17 259.29 107.55 270.44 111.9 279.57 116.68 280.42 118.49 279.47 120.4 286.26 124.96 287.96 128.47 282.44 127.94 255.26 122.52 240.18 120.19 226.59 118.59 208.12 117.32 184.86 116.79 191.87 113.81 215.19 110.21"/><polygon class="cls-4" points="86.21 122.1 104.98 125.13 113.92 127.27 121.61 130.79 126.9 133.94 120.22 135.83 111.4 137.72 89.99 145.53 88.1 143.9 77.26 140.75 63.15 137.97 48.16 135.96 48.79 132.81 58.62 127.52 67.19 123.36 73.61 121.6 79.28 121.47 86.21 122.1"/><polygon class="cls-5" points="134.33 119.2 167.97 122.1 189.76 124.87 188.63 126.51 185.48 128.4 173.51 132.43 168.47 133.44 162.8 131.68 155.62 129.03 143.91 126.26 142.4 124.24 133.32 120.72 134.33 119.2"/><polygon class="cls-4" points="116.69 136.84 124.25 134.32 134.71 134.7 146.8 135.83 152.85 138.48 166.71 136.46 171.62 135.83 168.47 133.44 174.27 132.31 187.24 127.52 191.02 125.38 214.2 129.91 230.96 136.09 229.45 136.84 225.92 137.85 211.94 139.99 199.72 141 199.21 142.38 194.55 143.64 179.94 145.53 169.1 146.79 163.06 145.28 161.04 144.4 160.41 143.14 153.99 141.88 132.32 138.73 124.88 137.97 114.3 137.85 116.69 136.84"/><polygon class="cls-5" points="95.89 121.5 134.33 119.2 138.44 123.12 142.4 124.24 144.66 126.5 155.62 129.03 165.46 132.58 171.62 135.83 170.05 136.36 162.08 136.9 154.38 138.52 152.85 138.48 145.6 135.69 138.31 134.88 126.01 134.34 125.47 133.12 117.64 128.93 108.99 125.82 94.67 123.39 95.89 121.5"/></g><g id="контур"><path d="M54.34,128.48c-.93-.08-1.87-.19-2.81-.24-6-.32-11.87.9-17.69,2.19a261.32,261.32,0,0,0-28.26,8,1.91,1.91,0,0,1-.79.23c-.35-.06-.86-.23-.93-.46s.2-.69.43-1a1.92,1.92,0,0,1,.77-.31A236.83,236.83,0,0,1,41,127.4a39.39,39.39,0,0,1,15.49-.1c1.2.26,2.74-.81,4.06-1.41s2.71-1.49,4.1-2.18a21.51,21.51,0,0,1,3.1-1.28c1.51-.48,3.06-.84,4.59-1.22.64-.16,1.29-.25,1.94-.38l0-.33A25.28,25.28,0,0,0,70,118.76c-5.62-1.22-11.24-2.54-16.93-3.31-7.4-1-14.86-1.63-22.31-2.24a80.63,80.63,0,0,0-18.3.4c-2.29.34-4.73-.33-7.1-.59-1.3-.14-2.59-.36-3.89-.54a4.43,4.43,0,0,1-1-.16.85.85,0,0,1-.42-.63c0-.19.31-.46.53-.52a76.59,76.59,0,0,1,11-2.36c7.5-.9,15-2.2,22.43-3.29,3.47-.51,7-.91,10.67-1.38-.85-1.09-1.32-2.13-2.81-2.16s-1.81-1.25-2.23-2.36-.94-2.35-1.42-3.52c-.09-.22-.28-.44-.28-.66,0-2.82,0-5.64,1.91-8a6.1,6.1,0,0,0,.78-1.19c1.14-2.38,1.74-2.7,4.5-2.2a2.33,2.33,0,0,1,2-2.83,3.37,3.37,0,0,1,3.61,1c1.14-1,2.25-1.21,3.16-.41a16.91,16.91,0,0,1,3.51-1.39,2.54,2.54,0,0,1,2.85,3.5,2,2,0,0,0,.63,2.2c.9,1,1.83,1.91,1.86,3.37A1.27,1.27,0,0,0,63,90c1,1.57.82,2.1-.41,3.4a2.43,2.43,0,0,0-.26,2.13c1,2.4.4,3.76-2,4.51-.24.08-.38.47-.56.72l.21.22c1.23-.27,2.48-.48,3.68-.85.26-.08.46-.75.46-1.15,0-5.76,0-11.52,0-17.28V70.42c-2.15-.45-4.22-.86-6.27-1.34a2.6,2.6,0,0,1-1.39-.78c-.67-.81-.31-1.49.92-1.87Q64.6,64.18,71.87,62c10.52-3.24,21-6.49,31.59-9.68a1.44,1.44,0,0,0,1.2-1.77,39.18,39.18,0,0,1-.15-4.46,3,3,0,0,1,.86-1.8,2,2,0,0,0,.73-1.63c0-3,0-6.08,0-9.12a7.2,7.2,0,0,1,.46-2.19c.52-1.45.19-1.93-1.23-2.59a2.73,2.73,0,0,1-1.15-1.85,6.3,6.3,0,0,1,.41-2.33c1.43-5.36,2.88-10.71,4.29-16.07.13-.52,1.4-7.14,1.84-8a.79.79,0,0,1,1.45,0c.55,1.31,1.53,7.31,1.93,8.85,1.42,5.45,3,10.86,4.45,16.29.51,1.87.17,2.47-1.66,2.95-1.45.39-1.8.62-1.36,2.24,1.14,4.19.38,8.43.63,12.63,0,.16,0,.31,0,.54,1.13.3,1.82.75,1.6,2.24-.18,1.27.32,2.64.44,4,.06.72.43.87,1,1q15.15,3.56,30.29,7.15l31.7,7.48.23.06c.67.29,1.64.33,1.54,1.36s-.92,1.21-1.75,1.33c-1.74.27-3.47.55-5.21.79-.61.08-.91.27-.91,1q0,13.61,0,27.23a1.43,1.43,0,0,0,.09.35,9.63,9.63,0,0,0,1,.09c8.19.11,16.39.13,24.59.33,3.71.09,7.41.64,11.12.79a201.25,201.25,0,0,1,23.12,2.39c3.19.5,6.37,1.11,9.58,1.4,1.55.14,3.16-.45,4.74-.53,3.07-.15,6.13-.27,9.2-.24a20.65,20.65,0,0,1,4.32.67c.49.11.88.67,1.32,1l-.11.37-8.48,1.36c.44.14.66.23.89.29a19.71,19.71,0,0,1,2.43.64c4.81,1.92,9.66,3.77,14.39,5.87a39.83,39.83,0,0,1,6.36,3.79c1.76,1.21,1.83,2.16.78,3.93,1.63,1.2,3.24,2.44,4.9,3.61s2.24,3,3.17,4.57c.35.6-.15,1.18-.91,1.09-1.35-.17-2.7-.35-4-.6-10.33-2-20.65-4-31-5.87a292.41,292.41,0,0,0-48.07-4.59c-7.36-.13-14.72-.05-22.07,0-2.58,0-7.82,1.32-9.52,2.37,2.62.22,5.09.28,7.5.66,7.15,1.13,14.28,2.35,21.4,3.61,9.17,1.62,18,4.56,26.68,7.78,1,.36,2,.65,3,.93a2.12,2.12,0,0,1,1.61,2.34c0,1.21-.87,1.33-1.68,1.48-3.3.59-6.6,1.13-9.9,1.68-1.27.21-2.55.33-3.79.62a78.66,78.66,0,0,1-16.18,1.89c-.64,0-1.12.08-1.43.77a1.83,1.83,0,0,1-1,.8,16.75,16.75,0,0,1-3.2,1c-6,.89-12.11,1.75-18.18,2.53-2.42.31-4.86.48-7.29.6a20.68,20.68,0,0,1-8.77-1.64,1.85,1.85,0,0,1-.89-.58c-1-1.55-2.62-1.77-4.17-2-9.14-1.35-18.26-2.89-27.44-3.84-5.74-.6-11.58-.28-17.38-.32a7.45,7.45,0,0,0-2.43.55c-6.31,2.29-12.61,4.62-18.92,6.93-.78.29-1.31.31-1.62-.72a2.17,2.17,0,0,0-1.36-1.13c-3.82-1.14-7.64-2.32-11.53-3.22s-8-1.65-12-2.28c-5-.78-10.13-1.38-15.2-2.08a3.09,3.09,0,0,1-1.45-.49c-.31-.23-.67-.92-.54-1.14.84-1.45,1.14-3.26,3-4a40.06,40.06,0,0,0,4.5-2.45ZM168,117.82c-1.33-.22-1.71-.92-.91-2.06.93-1.34,2.06-2.54,3.11-3.79.39-.47.81-.91,1.22-1.36l-.23-.24a7.89,7.89,0,0,0-3.32,2.85c-1.15,1.48-2.32,3-3.57,4.35a2.17,2.17,0,0,1-1.6.69c-.3,0-.49-.93-.73-1.43a15.57,15.57,0,0,1-1.83,1.42,1.39,1.39,0,0,1-1.27,0,1.49,1.49,0,0,1-.28-1.26,3.43,3.43,0,0,1,.73-1.35c1.2-1.5,2.43-3,3.66-4.43a4.64,4.64,0,0,0-2,1.16c-1.48,2-2.82,4-4.25,6.06a46.44,46.44,0,0,1,6.3.92c2.15.61,3.43-.7,5-1.58.74-.29,1.7-.39,2.17-.93a35.83,35.83,0,0,0,2.54-3.72c.41-.61.87-1.18,1.31-1.77l-.36-.3c-.61.67-1.27,1.31-1.85,2C170.47,114.65,169.22,116.24,168,117.82Zm-43.42,15.56a5.34,5.34,0,0,0-.45-.32,52.57,52.57,0,0,0-19-7c-4.36-.76-8.8-1.06-13.18-1.66a27.37,27.37,0,0,0-8.71.07,5.94,5.94,0,0,1-2.77-.4c-1.43-.49-2.8-1.65-4.18-1.63A26.15,26.15,0,0,0,69,123.65a51.45,51.45,0,0,0-9.79,4.69c-2.78,1.56-5.65,3-8.52,4.38-1.12.55-1.78,1.26-1.46,2.58,3.78.58,7.56,1.22,11.35,1.72a139,139,0,0,1,26.32,5.57,10.33,10.33,0,0,1,3,1.48,1.55,1.55,0,0,0,1.7.28q5.78-2.17,11.58-4.29c4.91-1.81,9.78-3.74,15-4.39a9.26,9.26,0,0,0,1.93-.63C121.58,134.5,123,133.94,124.54,133.38Zm65.68-17.31,0,.46h.56a363.72,363.72,0,0,1,40,1.61,268.25,268.25,0,0,1,29.49,4.65c8.3,1.71,16.67,3.09,25,4.61a4.4,4.4,0,0,0,.89,0l.23-.31a26.36,26.36,0,0,0-2.91-2.88c-1.67-1.23-3.51-2.22-5.24-3.36-.35-.23-.52-.73-.77-1.1.37-.24.73-.49,1.1-.71s.76-.27.84-.51-.18-.63-.38-.89a4.29,4.29,0,0,0-.83-.69c-4.27-3.06-9.11-4.94-14-6.76-1.71-.64-3.42-1.3-5.13-1.93a8.72,8.72,0,0,0-2.28-.71c-3.7-.28-7.44-.86-11.11-.59A97.31,97.31,0,0,0,231,109.19a208.18,208.18,0,0,1-26.83,4.43C199.46,114.08,194.85,115.23,190.22,116.07ZM228,136.71c-.45-.21-.62-.31-.8-.38-11.53-4.6-23.54-7.38-35.73-9.52a2.94,2.94,0,0,0-1.58.28c-1.51.63-2.94,1.5-4.49,2-4.91,1.5-9.34,4.34-14.58,5,.49.42,1.06.63,1.5,1s.81.82.75,1.15-.62.77-1.05,1a2.82,2.82,0,0,1-1.3.08,39,39,0,0,0-10.22,1c-1.6.29-3.19.6-4.79.91-.15,0-.29.14-.44.16a5.89,5.89,0,0,1-2.15.13c-1.67-.52-3.26-1.3-4.91-1.9a19.46,19.46,0,0,0-3.88-1.18,109,109,0,0,0-20.82-.77,13.76,13.76,0,0,0-3.48,1.18l.1.47c1.83,0,3.67-.09,5.49,0,11.37.64,22.53,2.81,33.73,4.6.86.14,2.09.57,2.35,1.19.53,1.31,1.57,1.48,2.59,1.78a21.58,21.58,0,0,0,9.36.53c7.4-1,14.83-1.85,22.24-2.79a22.59,22.59,0,0,0,2.72-.7c-.22-1.68-.06-1.82,1.52-1.84a52.09,52.09,0,0,0,5.87-.21c6.9-.88,13.77-1.86,20.66-2.81C227,137,227.3,136.85,228,136.71ZM110.48,78c1.19-5.37.4-10.62.68-16l-44.6,8.58v12a8.87,8.87,0,0,0,.91,0c9.26-1,18.52-1.92,27.77-3,1.59-.18,3.14-.8,4.73-1.07a16.33,16.33,0,0,1,3,0c.35,0,.71.23,1,.2C106.2,78.47,108.34,78.21,110.48,78ZM128,70.23c1.23-.17,2.2-.24,3.14-.45a2.22,2.22,0,0,1,2.57.74,2.54,2.54,0,0,1,0,2.94l-.86,1.39a5.83,5.83,0,0,1,3,3.94,1,1,0,0,0,.73.61c2.59.22,5.18.42,7.78.49a1.93,1.93,0,0,0,1.36-1,2.59,2.59,0,0,1,2.4-1.66,1.6,1.6,0,0,0,.9-.16,29.23,29.23,0,0,0,2.6-2.37,3.15,3.15,0,0,1,4-.72c1.92,1.24,3.86,2.55,3.69,5.28,0,.11.08.22.14.4l1.25-.3a5.51,5.51,0,0,1,.17-5c.82-1.35,2.13-1.37,2.72.06a14.13,14.13,0,0,1,.55,3.35c.18,1.32-.06,2.4-1.79,2.68,3.45.55,6.68,1.75,10.36,1.32-.19-3.74-.37-7.4-.62-11a1.47,1.47,0,0,0-.83-1q-2.91-.72-5.87-1.23c-1.53-.26-3.09-.39-4.63-.58l-20-2.54Q130.72,64,120.62,62.74l-7-.86V73.56c.8.09,1.51.19,2.23.23.24,0,.6,0,.71-.2a9.5,9.5,0,0,0,1.4-2.33,8.8,8.8,0,0,1,2.23-3.6A9.42,9.42,0,0,1,123.32,66c1.74-.83,3-.15,4.32.75S128.74,68.72,128,70.23ZM101,123.3v.29c.42.08.84.19,1.26.26a59.45,59.45,0,0,1,14.69,3.9,70.07,70.07,0,0,1,9.32,4.89,7.11,7.11,0,0,0,3.92,1.2c3.48.07,7,.25,10.43.45a22.18,22.18,0,0,1,9.68,2.45c2.5,1.37,5.25,1.12,7.83.5a39.54,39.54,0,0,1,10.85-1.57,2.9,2.9,0,0,0,.62-.1c-.16-.18-.22-.29-.31-.33-.61-.32-1.21-.63-1.83-.92-6.68-3.07-13.76-4.92-20.89-6.55-1.53-.35-3.23-.4-4-2.16a1.26,1.26,0,0,0-.56-.44,28.45,28.45,0,0,0-10.53-3.44,88.26,88.26,0,0,0-10.78.23c-4.75.24-9.49.58-14.23.89C104.57,123,102.76,123.15,101,123.3Zm129-17.79-.05-.4a586.76,586.76,0,0,0-75-1.79v3.91a2.89,2.89,0,0,0,.6.12c5.63.19,11.26.36,16.89.57,6.88.27,13.81-.43,20.62,1.32,3.86,1,7.87.55,11.81.29A100.86,100.86,0,0,0,215,108.38C220,107.54,225,106.48,229.93,105.51ZM101,109.33c-.06-1.06-.1-2-.17-2.88,0-.58.07-1.45-.26-1.68a7.13,7.13,0,0,0-3.23-1.65,67.22,67.22,0,0,0-7.9.12c-4.86.2-9.73.4-14.59.73a89.3,89.3,0,0,0-10.33,1.08c-4.34.8-8.62,2-12.91,3.07a1.22,1.22,0,0,0-.66,1,12.36,12.36,0,0,0,.33,2.15l.56.1c4.17.7,8.34,1.41,12.51,2.08a6.38,6.38,0,0,0,1.9,0c3.72-.56,7.42-1.16,11.13-1.74,3.12-.49,6.22-1.15,9.35-1.43,3.86-.34,7.74-.35,11.61-.54A26.71,26.71,0,0,0,101,109.33ZM89.71,89.72c-.38-1.24-.76-2.36-1-3.5-.11-.46-.19-1.19.06-1.4a2.9,2.9,0,0,1,1.59-.43c.27,0,.56.21.86.33.49-1.16,1.19-1.9,2.49-1.74a3,3,0,0,0,3.27-1.81L66.55,84.38V98.91h5.51c.15-2.08.29-4,.44-6a1,1,0,0,1,0-.23,2.66,2.66,0,0,1,2.68-2c1.24.22,1.49,1.19,1.5,2.25,0,1.94,0,3.87,0,5.92l16.81-.65C93,97.73,92.48,97,92.2,97a1.94,1.94,0,0,1-2.6-1.28,3.93,3.93,0,0,1-.44.56c-.37.29-.75.56-1.12.84-.24-.45-.66-.89-.69-1.36a5.59,5.59,0,0,1,.32-2.1C88.15,92.24,87.37,90.16,89.71,89.72Zm48.93,31.73,0,.51a17.27,17.27,0,0,1,1.78.69,10.45,10.45,0,0,1,3.14,1.88,5.74,5.74,0,0,0,3.41,1.7A118.91,118.91,0,0,1,166.3,132a6.29,6.29,0,0,0,2.2.39A19.66,19.66,0,0,0,176,131q5-1.92,10-3.88c.53-.21,1-.48,1.55-.72a4.56,4.56,0,0,0-1.89-.58c-9.45-1.11-18.87-2.34-28.33-3.26C151.15,121.94,144.89,121.8,138.64,121.45Zm-38.51-7.28c-1.55.29-2,.61-2,1.44a3.86,3.86,0,0,1-3.08,3.74,1.55,1.55,0,0,1-1.3-.25,1.85,1.85,0,0,1-.15-1.42,8.72,8.72,0,0,1,.92-1.74,4.48,4.48,0,0,0-2.8,1.51,8.94,8.94,0,0,1-2.51,2c-.7.4-1.7,1.08-2.31,0s.45-1.55,1.13-2.06,1.67-1.12,2.51-1.68c-3.67,0-5.49,2.9-8.06,4.69a.89.89,0,0,0,.57.11,31.71,31.71,0,0,1,9.43,0,14.4,14.4,0,0,0,3.93-.15c2.13-.3,4.23-.94,6.37-1.11,3.58-.27,7.19-.2,10.78-.43,3.35-.22,6.68-.84,10-.93,5.6-.15,11.2,0,16.8,0h5a13.18,13.18,0,0,1,1.59-2.48c1.73-1.64,3.59-3.16,5.39-4.74.47-.41.89-.86,1.33-1.3l-.25-.29a8,8,0,0,0-4.25,2.38,50.55,50.55,0,0,1-4.1,4.18c-.3.28-1,.12-1.53.17,0-.55-.25-1.29,0-1.62a32.14,32.14,0,0,1,3-3.11c.51-.49,1.1-.89,1.65-1.33a7.34,7.34,0,0,0-4.46,2.18c-.86.95-1.8,1.82-2.72,2.7-.5.48-1.12,1-1.78.43s-.25-1.4.24-1.89c.94-1,2-1.83,3-2.72.4-.35.83-.67,1.24-1l-.19-.29c-1.58.64-3.22,1.11-4.45,2.52a28.34,28.34,0,0,1-3.46,3.29,1.59,1.59,0,0,1-1.48,0,1.48,1.48,0,0,1-.14-1.39,5.74,5.74,0,0,1,1.44-1.71c.82-.71,1.74-1.3,2.62-1.94l-.2-.33a18.37,18.37,0,0,0-3,1.91c-1.43,1.37-2.62,3-4,4.42a2.56,2.56,0,0,1-1.77.7c-.37,0-.65-.87-.95-1.3a25.77,25.77,0,0,1-2.66,1.81,1.16,1.16,0,0,1-1.63-1.53,7.15,7.15,0,0,1,1.33-2.09c.81-.87,1.76-1.61,2.64-2.4a4.61,4.61,0,0,0-2.18,1c-1.24,1.13-2.34,2.4-3.54,3.57a5.6,5.6,0,0,1-1.64,1.19,4.38,4.38,0,0,1-1.54,0,4,4,0,0,1,0-1.55,5.63,5.63,0,0,1,1.26-1.58c.82-.78,1.71-1.47,2.67-2.29a4.67,4.67,0,0,0-3.77,2.35,16.14,16.14,0,0,1-1.94,2.28c-.51.52-1.28,1.07-1.85.39a2.32,2.32,0,0,1-.08-1.94,8.44,8.44,0,0,1,1.35-1.81l-.22-.27c-.61.45-1.25.85-1.82,1.35-.91.78-1.72,1.67-2.66,2.4a1.33,1.33,0,0,1-1.27,0,1.35,1.35,0,0,1-.23-1.26,6.18,6.18,0,0,1,1.38-1.76,16.38,16.38,0,0,1,2-1.38,4.41,4.41,0,0,0-4.54,1.88,11.6,11.6,0,0,1-2.65,2.53,1.52,1.52,0,0,1-1.49-.07,1.65,1.65,0,0,1-.24-1.49,10.22,10.22,0,0,1,1.29-1.94,2.52,2.52,0,0,0-2.82,2.06,3.92,3.92,0,0,1-2.44,2.63,1.47,1.47,0,0,1-1.3-.17,1.58,1.58,0,0,1-.27-1.29A8.82,8.82,0,0,1,100.13,114.17Zm63-16.07c.59,0,1,0,1.44,0,2,0,4-.14,6-.07,1.16,0,1.44-.5,1.48-1.48.06-1.31.16-2.63.25-3.94.18-2.93.37-5.85.56-8.91L167,83.28c0,.56-.16,1.06,0,1.33,1,1.45.41,3,.43,4.55a2.34,2.34,0,0,1-2.83,2.44,1.14,1.14,0,0,0-1.48,1.11C163.06,94.45,163.14,96.2,163.14,98.1Zm-58.7,4.81-.43,5.81,16.91-1.29v-5.08C115.38,102.29,109.94,102,104.44,102.91Zm44.41.28a1.67,1.67,0,0,0-.38-.14c-7.28,0-14.55,0-21.83,0a1.21,1.21,0,0,0-.86.81c-.1,1.18,0,2.36,0,3.67,7.86-.53,15.57-1.41,23.42-.21C149,105.7,148.94,104.41,148.85,103.19ZM107.71,50.64a12.36,12.36,0,0,0,1.53-.19,24.5,24.5,0,0,1,4-.92c1.43-.06,1.88-.29,1.62-1.78a9.44,9.44,0,0,0-.76-1.77,3,3,0,0,1-.34-1.1c0-3.39,0-6.79,0-10.18,0-1,.19-2-.7-2.76-.23-.21-.22-.74-.24-1.13,0-.63,0-1.26,0-1.9h-3.35a18.8,18.8,0,0,1,0,2.14,5.64,5.64,0,0,1-.45,1.33,4.81,4.81,0,0,0-.48,1.34c-.05,3,0,5.91-.06,8.86a12.42,12.42,0,0,1-.69,2.59,12.49,12.49,0,0,0-.54,2.58A15.85,15.85,0,0,0,107.71,50.64Zm-19.85,63.7.64-.13c1.31-.28,2.64-.8,3.81.45.13.14.59,0,.89,0a59.28,59.28,0,0,0,5.87-1.78c2.39-.72,4.83-1.73,7.29-1.91a53.79,53.79,0,0,0,6.48-.94c.64-.12,1.69,0,2,.4.62.86,1.23.63,2,.48a2.22,2.22,0,0,1,1.18-.1c1.17.48,2.05-.25,3.06-.53a12.08,12.08,0,0,1,3.83-.65c1.32.06,1.73.21,2.87-.57l-2.31.11c-6.1.33-12.22.5-18.3,1-5.08.45-10.11,1.37-15.24,1.4-7.26.06-14.29,1.91-21.53,3l6.63,2.9a12.37,12.37,0,0,1,8.6-4.67C86.72,112.69,87.67,112.9,87.86,114.34Zm52.23-23.2.49.72c1.42,2.23.32,4.54-2.29,4.56-1.32,0-1.6.77-2.06,1.7h6.07a17,17,0,0,1,.06-3.78,3.26,3.26,0,0,0-.48-2.81,2.46,2.46,0,0,1-.07-2.93,10.22,10.22,0,0,1-.33-2.31c0-.34.14-.79,0-1-.74-1-.1-1.49.6-2a20.26,20.26,0,0,0,1.52-1.58l-6.43-.47c.46,1.71.61,3.26-1.42,3.94l1.6,1.78c1.14-.53,2.18-.56,3,.53S141.15,89.68,140.09,91.14ZM120.18,56.29a9.73,9.73,0,0,1,1.58-.85,3.77,3.77,0,0,1,1.29,0c-.08.44,0,1-.27,1.28a8.49,8.49,0,0,1-1.45,1.2l.23.29a2.77,2.77,0,0,0,.66-.09c1.13-.5,2.23-1.06,3.38-1.49a3.43,3.43,0,0,1,1.3.08,10.32,10.32,0,0,1-.29,1.25c-.06.18-.3.29-.62.58,1.61-.17,2.79-2.68,4.35-.4,1-.57,2-1.3,3-.19.1.11.45,0,.69-.05.5,0,1.1-.21,1.48,0s.32.82.47,1.26a6.26,6.26,0,0,1,1.32-.55,1.66,1.66,0,0,1,1.22.17c1.14,1,2.19,2.16,4,1.67a.53.53,0,0,1,.44.12c.63,1.15,1.65.61,2.54.63a3.79,3.79,0,0,1,1.17.14,3,3,0,0,0,3.14-.46L117.57,53.3c-1,1.38-1.89,2.56-2.75,3.74a26.61,26.61,0,0,0,3.32-1.73C119.46,54.58,119.88,54.79,120.18,56.29Zm-4-29.95L112.53,13l-.3,0V26.34Zm-5.81,0v-14c-1.25,4.65-2.49,9.28-3.75,14ZM86.24,114.59c-2.15-.37-6.27,1.34-7,2.88a2.12,2.12,0,0,0,.36,1.67c.37.61.85.23,1.29-.11,1.24-.94,2.52-1.82,3.74-2.79A19.69,19.69,0,0,0,86.24,114.59ZM110.82,79.7l-5,.54a2.93,2.93,0,0,0,2.29,2.32c1,.29,2,.64,3.1,1ZM47.46,110.89v-2.3l-7.94,1.12V110Zm108.24.17-.27-.27c-3,1.74-4.66,4.88-7.34,7a3.3,3.3,0,0,0,2.29-.42,33.38,33.38,0,0,0,2.29-3C153.63,113.22,154.68,112.16,155.7,111.06Zm31.47.73c-1,.11-1.9,2.19-2.85,0-.83.66-1.33,2.37-2.76.68l-1.33,2,7.35-1.47ZM164,109h-7.76l1.36,1.07,0-.3,3,.35a1.67,1.67,0,0,0,.67,0C162.21,109.78,163,109.42,164,109Zm-4.91,2.56-.22-.33a7.24,7.24,0,0,0-2,1.35c-1.29,1.76-2.42,3.63-3.65,5.52l1.24.13C155,115.18,157.35,113.58,159.1,111.58ZM80.09,62c1.88,1.12,4.66.24,4.72-1.45Zm96.09,50.08-.3-.23L173,115.94l.21.25c.57-.23,1.43-.31,1.66-.73A23.53,23.53,0,0,0,176.18,112.08ZM113.54,55.63l.28.12,1.8-3-1.87-.25C113.68,53.69,113.61,54.66,113.54,55.63Zm54.27,54.83c-2.33.26-2.55,2.41-3.56,3.85ZM179.56,112l-.47-.34-2.34,3.22.4.29C178.81,114.78,178.74,113.05,179.56,112Zm-49.07-3.2,0,.41c.41,0,.82.08,1.23.06.82,0,1.65-.07,2.47-.15.63-.07,1.24-.21,1.87-.31l-.08-.43ZM182,110.18l0-.43h-5.56c.57-.34,1.3,1.21,2.57.51C179.76,109.83,181,110.18,182,110.18Zm-71.47-14-2.37,1,.15.43,2.5-.16Zm80.14,14.4c.68,1.12,2,1.35,3.5.58Zm-32.2-13.62-2,1.12C158.41,98.46,158.41,98.46,158.47,96.93ZM93.76,59.16,94,57.72l-2.24.71,0,.33Zm67.86,5.15.07-.62-3.26-.15,0,.35Z"/><path d="M99.55,74.92a7.17,7.17,0,0,0,.21,1.4,1.51,1.51,0,0,1-.51,1.91,2.47,2.47,0,0,1-2.72.12,1.53,1.53,0,0,1-.76-1.82c.19-1.42.26-2.86.38-4.29.08-.88.29-1.73,1.39-1.75a1.64,1.64,0,0,1,1.78,1.69C99.43,73.09,99.59,74.92,99.55,74.92Z"/><path d="M73.42,78.18a5.13,5.13,0,0,1,.87-4,1.9,1.9,0,0,1,1.46-.69c.37,0,.86.72.93,1.17a44.55,44.55,0,0,1,.39,4.61c0,.86-1.18,1.69-2.31,1.65s-1.43-.69-1.34-1.69C73.45,78.9,73.42,78.54,73.42,78.18Z"/><path d="M138.48,72.85c.15-.84.55-1.68,1.58-1.69a1.62,1.62,0,0,1,1.75,1.62,41.05,41.05,0,0,1-.11,5.32c-.08,1-.9,1.24-1.81,1.1s-1.67-.36-1.69-1.47c0-.4,0-.8-.06-1.2A36.31,36.31,0,0,1,138.48,72.85Z"/><path d="M108.89,44.69c0-1,0-2,0-3.07A1.57,1.57,0,0,1,110.63,40c1.06.08,1.39.81,1.45,1.72.08,1.26.14,2.51.18,3.76a3.85,3.85,0,0,1-.07,1.18,1.45,1.45,0,0,1-1.71,1.16,2.54,2.54,0,0,1-1.41-1.18A4.13,4.13,0,0,1,108.89,44.69Z"/></g></g></svg>