<svg id="Layer_1" data-name="Layer 1" xmlns="http://www.w3.org/2000/svg" viewBox="0 0 600.03 194.81">
    <defs>
        <style>
            .mountains-1{fill:#687370;}
            .mountains-2{fill:#a4a3a1;}
            .mountains-3{fill:#858c63;}
            .mountains-4{fill:#c3c0b7;}
            .mountains-5{fill:#c6bf5f;}
            .mountains-6{fill:#dcb775;}
        </style>
    </defs>
    <title>бойка2</title>
    <g id="покрас">
        <polygon class="mountains-1" points="242.65 11.66 267.42 12.04 261.85 17.58 252.91 19.41 244.58 17.78 242.65 11.66"/>
        <polygon class="mountains-1"
                 points="275.39 10.47 304.7 18.5 321.97 29.74 358.92 53.03 344.31 53.44 328.81 48.34 321.38 48.55 318.62 53.01 314.59 54.29 307.15 37.3 293.99 29.66 285.92 27.53 272.97 15.01 275.39 10.47"/>
        <polygon class="mountains-2"
                 points="207.57 20.95 218.4 16.28 250.25 18.19 258.74 18.61 269.36 14.79 285.92 27.53 298.66 31.57 309.28 39.85 314.59 54.29 320.11 52.38 322.87 48.13 354.5 55.99 370.43 65.97 375.95 67.03 378.29 73.61 371.92 77.01 361.09 79.77 356.84 88.05 352.59 94.42 350.9 99.52 348.35 101.64 346.86 112.47 342.61 111.83 331.36 90.39 321.59 87.2 320.32 83.38 313.74 74.46 310.76 68.52 305.67 67.03 304.18 62.36 296.96 58.32 285.71 57.69 279.76 54.29 276.58 48.98 268.51 41.55 268.72 34.75 265.32 29.87 259.8 28.38 250.67 28.38 246.43 26.9 236.23 27.11 225.62 23.71 206.51 23.07 207.57 20.95"/>
        <polygon class="mountains-3"
                 points="174.29 48.31 207.57 20.95 212.45 23.02 227.48 24.14 236.23 27.11 246.43 26.9 254.67 27.98 264.1 28.94 267.94 32.78 268.74 36.62 267.94 40.61 262.98 37.42 256.27 35.02 251.95 35.5 244.75 40.61 226.36 41.73 218.21 40.61 207.01 38.38 197.42 41.41 187.02 46.53 175.83 50.21 174.29 48.31"/>
        <polygon class="mountains-4"
                 points="169.59 56.29 181.11 48.29 204.94 39.02 211.17 39.02 220.45 41.41 244.75 40.61 251.95 35.5 257.39 35.18 262.98 37.42 272.26 45.25 277.7 50.53 281.69 55.33 285.71 57.69 296.96 58.32 304.18 62.36 305.67 67.03 309.36 68.28 312.4 70.84 314.96 76.59 322.47 86.35 311.76 85.55 270.66 74.2 265.7 74.68 234.68 82.03 222.84 79.31 169.59 56.29"/>
        <polygon class="mountains-3"
                 points="600.03 47.12 600.03 84.8 583.64 83.82 583.14 83.27 581.65 81.63 581.47 81.43 582.75 73.77 581.32 71.81 575.78 76.51 576.02 68.68 573.98 66.63 569.4 68.92 567.23 64.95 566.22 65.25 566.21 65.25 566.03 65.31 564.83 65.67 562.46 68.15 562.45 68.16 559.53 71.21 557.36 68.92 551.34 72.05 550.74 70.35 550.02 68.32 549.18 68.71 548.78 68.9 547.97 69.28 543.88 73.62 541.71 72.17 540.24 72.61 539.73 72.76 539.72 72.76 537.26 73.5 535.63 75.69 530.63 82.4 527.87 80.24 527.17 80.59 526.07 81.14 526.06 81.14 524.98 81.68 524.07 82.86 524.05 82.88 522.45 84.93 515.47 95.41 512.34 95.65 511.58 96.79 498.37 116.6 498.28 115.37 498.01 111.54 498.73 107.33 498.31 101.41 498.3 101.33 498.25 100.58 498.13 95.53 493.07 85.17 489.58 83.85 485.49 77.83 480.43 75.3 474.17 73.5 469.23 67.96 456.11 60.49 456.02 60.45 449.34 57.52 449.32 57.51 447.32 56.64 442.63 56.88 432.91 59.12 432.86 59.13 429.02 60.01 424.4 59.94 424.36 59.94 414.99 59.79 414.94 59.79 413.98 59.77 396.17 58.11 396.16 58.11 394.71 57.97 391.7 60.98 386.16 67.72 377.98 74.46 377.87 73.83 377.37 71.04 377.37 71.01 377.36 70.98 376.77 67.72 376.11 67.47 373.81 66.62 373.78 66.61 369.67 65.07 365.39 54.67 419.07 36.19 446.79 39.39 506.86 62.13 569.06 46.49 600.03 47.12"/>
        <polygon class="mountains-4"
                 points="346.26 111.04 347.89 105.75 348.35 101.64 351.76 98.21 353.39 92.11 357.46 87.02 361.09 79.77 377.98 74.46 386.16 67.72 393.29 58.72 397.16 57.9 420.17 60.34 435.03 58.92 445.01 56.88 451.93 57.9 467.61 67.67 474.17 73.5 483.49 76.02 487.35 79.48 489.58 83.85 493.07 85.18 498.13 95.53 498.35 102.9 498.73 107.33 497.09 115.24 492.12 127.12 424.94 123.99 382.49 113.62 351.05 117.62 346.26 111.04"/>
        <polygon class="mountains-1"
                 points="582.19 83.2 520.2 112.27 492.12 127.12 495.45 117.08 499.05 114.91 511.38 96.86 515.47 95.41 523.07 83.73 526.88 80.44 530.63 82.41 535.42 75.84 540.02 72.56 543.88 73.62 549.08 68.62 551.71 71.38 557.36 68.92 559.73 70.32 566.16 65.2 569.4 68.92 573.98 66.64 576.02 68.68 576.15 75.84 581.32 71.81 582.75 73.77 581.54 82.41 582.19 83.2"/>
        <polygon class="mountains-1"
                 points="232.04 82.84 261.82 76.66 268.65 74.24 303.5 81.07 317.4 86.37 331.36 90.39 338.13 103.13 348.72 118.79 325.56 120.78 278.36 106 246.6 95.19 232.04 82.84"/>
        <polygon class="mountains-3"
                 points="90 68.97 117.06 58.87 175.2 59.27 228.5 82.29 250.71 98.44 236.01 101.5 220.12 100.41 218.62 97.97 199.83 88.28 195.34 87.91 187.58 87.55 179.7 85.24 171.46 81.12 163.46 81.49 150.13 81.73 138.25 79.3 125.64 77.49 116.3 75.55 91.45 74.21 90 68.97"/>
        <polygon class="mountains-1"
                 points="23.67 92.43 89.12 74.9 100.11 74.87 116.3 75.55 132.37 78.39 140.82 79.52 150.13 81.73 171.46 81.12 185.91 87.13 198.31 87.69 212.26 95.16 223.67 100.23 192.96 99.39 186.62 94.31 181.12 91.5 176.75 92.2 171.54 89.52 167.74 88.68 165.06 89.52 164.07 92.91 158.3 91.36 152.52 90.23 150.55 92.48 144.77 89.67 138.29 90.23 130.4 85.72 124.62 84.73 121.1 85.3 118.99 87.69 114.05 86.14 106.59 83.47 104.75 85.16 104.05 89.67 96.44 86.56 92.22 86.28 90.1 87.27 90.24 89.95 88.13 90.09 81.37 87.13 76.01 87.13 75.03 90.51 62.77 85.86 60.51 86.71 59.24 88.11 58.68 92.2 47.97 89.24 42.9 90.51 42.9 93.19 46.84 99.67 42.2 98.82 39.52 99.11 39.24 101.92 29.8 96.43 23.67 92.43"/>
        <polygon class="mountains-4"
                 points="192.96 99.38 189.72 101.38 144.17 105.99 129.91 110.74 114.4 115.54 95.89 121.26 85.52 120.96 80.76 120.83 75.86 120.69 70.14 119.65 67.81 119.22 63.18 118.38 41.42 110.46 34.65 108.82 31.33 108.01 8.81 105.34 0 105.99 0 102 14.32 95.18 33.62 98.65 33.63 98.65 34.36 98.78 39.29 101.38 40.12 101.81 39.52 99.1 42.9 98.95 42.91 98.95 43.29 98.93 46.85 99.67 43.58 94.75 43.31 93.86 43.31 93.85 42.9 92.48 41.85 88.98 46.77 89.54 46.78 89.54 50.61 89.97 50.79 89.99 58.68 92.2 59.24 88.11 61.02 85.67 62.19 86.07 62.2 86.07 75.03 90.51 76.01 87.13 79.9 87.11 79.97 87.13 83.72 88.16 83.75 88.17 83.76 88.17 90.24 89.94 90.1 87.27 93.44 86.53 99.35 87.83 104.97 90.42 104.36 87.65 104.36 87.63 103.97 85.81 105.55 83.79 106.11 83.9 110.15 84.74 110.16 84.74 111.17 84.95 112.44 85.56 112.45 85.57 119.24 88.84 119.81 86.76 119.81 86.75 120.11 85.67 120.91 85.5 120.92 85.5 124.62 84.73 130.4 85.72 139.27 91 139.96 90.08 140.14 89.85 144.77 89.66 150.71 92.3 151.67 92.73 152.52 90.23 158.3 91.35 164.49 93.88 164.76 90.55 164.76 90.54 164.78 90.28 164.85 90.23 166.37 89.11 166.94 88.69 167.42 88.78 167.43 88.78 171.54 89.52 176.75 92.2 179.34 91.72 179.49 91.75 179.51 91.75 183.44 92.68 183.66 92.73 183.97 92.95 183.98 92.95 184.01 92.97 192.96 99.38"/>
        <polygon class="mountains-5"
                 points="420.85 123.71 419.86 125.77 419.67 126.17 391.94 131.14 391.51 131.22 390.37 131.42 390.36 131.43 390.35 131.43 388.21 133.16 388.17 133.21 384.02 136.57 383.99 136.58 383.68 136.84 382.68 137.33 382.61 137.37 378.14 139.56 378.12 139.57 374.1 141.55 364.33 144.08 356.55 144.8 345.88 144.08 345.78 144.07 345.75 144.07 340.64 143.72 333.85 142.76 333.7 142.74 333.65 142.73 320.2 140.82 304.11 139.01 285.67 138.84 284.57 138.83 271.01 139.56 268.67 139.93 268.62 139.94 261.15 141.11 261.07 141.12 258.35 141.55 257.6 141.78 249.61 144.22 249.41 144.28 242.98 146.25 238.09 148.24 233.72 149.22 233.7 149.22 231.58 149.69 230.31 149.52 223.44 148.6 216.21 144.44 207.17 139.74 195.59 135.4 183.11 133.41 163.04 134.49 151.46 136.3 130.43 140.8 130.42 140.8 127.77 141.37 120.31 142.29 120.22 142.3 110.23 143.54 101.01 144.08 88.14 140.6 85.63 139.92 75.14 135.22 73.52 131.24 59.58 130.79 59.57 130.79 22.88 129.61 10.4 131.24 0 137.01 0 105.18 6.6 103.75 8.81 105.34 20.53 106.82 34.65 108.82 38.43 109.35 54.16 114.96 67.81 119.22 68.63 119.48 70.14 119.65 80.76 120.83 83.28 121.11 85.52 120.96 91.6 120.57 95.89 121.26 114.09 115.62 114.4 115.54 149.82 105.97 189.72 101.38 235.88 103.75 239.65 100.74 246.43 95.33 246.6 95.19 278.36 106 305.52 115.73 313.54 117.01 313.55 117.01 333.07 120.13 333.09 120.13 336.12 120.61 347.43 118.9 347.5 118.89 348.67 118.72 382.48 113.62 420.85 123.71"/>
        <polygon class="mountains-6"
                 points="600.03 84.76 600.03 110.52 599.76 110.54 590.51 111.35 572.78 114.96 549.73 121.7 539.52 125.26 539.5 125.26 539.37 125.31 535.11 127.44 534.67 127.66 534.19 128.11 534.17 128.13 525.41 136.45 523.32 136.57 523.3 136.57 519.95 136.75 519.94 136.75 519.77 136.76 514.75 137.55 513.64 137.94 513.56 137.97 508.94 139.58 492.77 146.28 492.72 146.3 484.32 149.78 484.13 149.73 484.12 149.73 483.63 149.61 483.62 149.61 471.77 146.8 460.32 145.86 441.87 145.55 441.84 145.55 441.5 145.54 423.14 147.58 401.03 150.88 389.79 152.3 389.71 152.31 388.64 152.45 377.97 152.45 366.11 150.8 359.93 149.94 358.18 149.27 358.16 149.27 356.31 148.56 356.29 148.55 353.34 147.43 352.09 144.76 358.68 145.07 364.33 144.08 378.12 139.57 378.14 139.56 379.54 139.11 382.61 137.37 382.68 137.33 383.96 136.6 384.02 136.57 386.44 135.19 388.17 133.21 388.22 133.15 389.58 131.58 390.35 131.43 390.36 131.43 391.51 131.22 391.94 131.14 409.5 127.82 417.5 125.94 419.86 125.77 436.54 124.53 436.62 124.53 441.02 124.21 457.2 125.49 457.29 125.5 492.47 128.29 497.42 124.32 497.43 124.31 502.83 119.98 582.19 83.19 583.14 83.27 599.76 84.74 600.03 84.76"/>
        <polygon class="mountains-6"
                 points="600.03 138.71 599.76 138.71 583.08 138.43 579.02 140.17 569.86 143.76 549.34 143.18 532.45 145.93 532.29 145.96 532.05 146.04 503.65 155.36 483.35 163.36 481.87 163.88 446.36 176.46 406.93 180.64 390.23 179.71 366.35 179.36 339.56 177.51 321.35 176 305.23 175.3 295.84 173.56 287.26 174.03 258.5 175.77 252.95 175.58 260.7 172.41 261.15 172.16 261.19 172.14 269.93 167.34 270.18 167.2 271.61 166.42 272.15 166.05 272.16 166.04 273.19 165.33 273.22 165.31 285.7 156.74 304.54 144.59 315.28 140.72 328.31 142.14 333.65 142.73 333.7 142.74 333.85 142.76 345.75 144.07 345.78 144.07 345.88 144.08 352.09 144.76 354.29 147.47 356.29 148.55 356.31 148.56 357.3 149.1 358.16 149.27 358.18 149.27 366.11 150.8 368.08 151.18 381.54 152.92 387.88 152.45 389.71 152.31 389.79 152.3 395.57 151.88 399.05 152 401.48 153.73 403.45 154.43 408.79 155.01 415.4 154.31 422.01 157.45 430.2 159.82 430.23 159.83 431.63 160.23 435.98 160.67 436.09 160.68 441.84 161.27 448.8 161.74 454.55 161.19 454.56 161.19 454.83 161.16 460.78 158.41 462.36 157.68 478.83 152.34 482.44 150.42 482.48 150.4 482.54 150.37 484.12 149.73 484.13 149.73 492.72 146.3 492.77 146.28 513.56 137.97 513.64 137.94 516.75 136.69 519.94 136.75 519.95 136.75 522.55 136.8 523.3 136.57 523.32 136.57 524.75 136.11 532.17 129.61 534.17 128.13 534.19 128.11 535.11 127.44 537.51 125.67 539.5 125.26 539.52 125.26 540.87 124.98 549.73 121.7 577.52 113.15 593.75 110.83 599.76 110 600.03 109.96 600.03 110.52 599.76 110.54 599.76 138.04 600.03 138.03 600.03 138.71"/>
        <polygon class="mountains-5"
                 points="401.03 150.88 431.63 147.01 442.19 145.5 465.96 145.97 477.44 147.48 483.7 149.56 479.64 152.35 460.16 158.61 452.62 162.09 440.91 161.39 429.78 159.77 420.85 157.22 415.4 154.32 408.79 155.01 403.45 154.43 401.48 153.74 399.05 152 401.03 150.88 401.03 150.88"/>
        <polygon class="mountains-5"
                 points="600.03 138.03 599.76 138.04 583.08 138.43 566.08 143.12 543.21 143.12 532.45 145.93 532.05 146.04 514.42 150.65 481.87 163.56 481.87 163.88 481.91 166.95 499.71 164.95 512.91 164.49 534.54 164.19 548.81 164.34 569.52 165.88 585.48 166.18 594.07 165.88 599.76 164.55 599.76 138.71 600.03 138.71 600.03 138.03"/>
        <polygon class="mountains-6"
                 points="315.28 140.72 304.54 144.59 295.67 149.9 274.59 164.13 273.01 163.08 262.39 163.6 262.34 163.6 258.78 163.78 252.48 165.02 252.44 165.03 228.01 169.84 227.94 169.85 226.62 170.11 223.95 170.85 223.87 170.87 215.9 173.09 214.28 173.29 214.26 173.29 207.98 174.07 207.95 174.07 205.89 174.32 201.75 174.22 201.68 174.22 191.83 173.97 188.49 171.34 177.07 166.06 168.28 162.9 157.04 161.85 145.79 162.37 137.71 163.43 135.36 163.95 134.35 163.05 134.23 160.92 130.54 159.91 120.12 163.5 108.91 167.31 101.18 168.2 90.76 167.87 75.19 164.84 52.55 161.59 43.7 160.81 26.34 160.92 8.07 162.15 3.37 163.5 0 164.97 0 137.01 10.4 131.24 18.75 129.27 56.34 129.87 59.57 130.79 59.58 130.79 75.14 135.22 88.14 140.6 91.5 141.99 101.01 144.08 111.71 143.75 120.22 142.3 120.31 142.29 122.07 141.99 130.42 140.8 130.43 140.8 131.91 140.59 151.46 136.3 166.7 133.91 184.45 133.21 195.59 135.4 207.17 139.74 216.21 144.44 223.44 148.6 229.96 149.55 230.31 149.52 233.7 149.22 233.72 149.22 235.93 149.02 238.09 148.24 244.02 146.03 249.41 144.28 249.61 144.22 256.49 141.99 257.6 141.78 261.07 141.12 261.15 141.11 266.68 140.06 268.62 139.94 268.67 139.93 285.67 138.84 285.83 138.83 304.11 139.01 315.28 140.72"/>
        <polygon class="mountains-5"
                 points="192.95 175.55 196.23 180.3 198.36 189.31 199.51 191.44 202.58 194.08 211.44 189.05 229.06 181.84 243.76 177.37 253.99 174.99 262.76 171.52 272.8 165.68 274.59 164.13 273.01 163.08 266.41 163.03 251.8 165.13 232.99 168.6 222.76 171.16 211.53 173.99 192.53 174.44 192.95 175.55"/>
    </g>
    <g id="контур">
        <path d="M0,92.54c.28,0,.69.09.84-.06C3.07,90.15,6,89.43,9,88.73a53.6,53.6,0,0,0,8.65-2.66c2.56-1.09,5.46-1.4,8.25-1.9a29.28,29.28,0,0,0,14.16-6.25c3.52-3,7.85-4.25,12.27-5s9-1.06,13.4-1.76A94,94,0,0,0,75.38,69a25,25,0,0,0,6-2.34c3.68-2.14,7.3-4.42,10.76-6.9a60.85,60.85,0,0,1,17.67-8.87,23.48,23.48,0,0,1,11.35-.5,14.88,14.88,0,0,0,8.8-.71,22.78,22.78,0,0,1,11-1.42c5,.44,9.94,1,14.91,1.32a11.22,11.22,0,0,0,6.53-1,6.91,6.91,0,0,0,1.9-1.72c1.78-2.2,3.31-4.62,5.25-6.65,3.47-3.64,7-7.23,10.83-10.51,2.82-2.45,6.12-4.33,9.15-6.56a40.84,40.84,0,0,0,3-2.85c2.67-2.44,5.26-5,8.07-7.28a38.8,38.8,0,0,1,6.91-4.7,70.75,70.75,0,0,1,9.53-3.83A47.69,47.69,0,0,1,233,1.79c4.19.06,8.39,0,12.57-.28,2.53-.15,5-.9,7.56-1.11A80.34,80.34,0,0,1,262.77,0,101.42,101.42,0,0,1,280.2,2.28c5.62,1.17,11.29,2,16.83,3.58a37.14,37.14,0,0,1,15.71,9.05,5.62,5.62,0,0,1,1.58,2.76c.53,2.76,2.52,3.12,4.76,3.34a29.13,29.13,0,0,1,9.64,2.65c4.73,2.24,9.2,4.95,13.74,7.54a117.14,117.14,0,0,1,16.85,11.34c2,1.68,3.8,3.66,5.75,5.43,1.65,1.49,1.69,1.31,3.56.13A69.83,69.83,0,0,1,386.15,40c3.44-1,6.93-1.87,10.28-3.11,2.49-.91,4.74-2.47,7.2-3.49a61.24,61.24,0,0,1,18.82-4.8,64.86,64.86,0,0,1,10.4.49,70.47,70.47,0,0,1,7.21,1.09,18.13,18.13,0,0,1,2.83,1.09,1.46,1.46,0,0,0,.59.08c3.33-.1,6.3,1.27,9,2.87a37.88,37.88,0,0,0,12.31,5c4.54.84,8.63,3,12.86,4.74,2.1.87,4.19,1.81,6.35,2.47,4.09,1.25,7.61,3.63,11.38,5.5,4.09,2,8.25,3.45,12.89,2.91a61.4,61.4,0,0,0,16.28-4.16c8.47-3.49,17.38-5.49,26.38-7.09,3.84-.69,7.69-1.34,11.53-2,4.23-.75,8.44-1.67,12.7-2.2a45.3,45.3,0,0,1,7.9,0c2.87.15,5.73.48,8.58.8s5.57.7,8.36,1V54.86c-1.43-.12-2.87-.28-4.3-.36-5.43-.28-10.86-.62-16.29-.76a21.23,21.23,0,0,0-4.41.91,17.59,17.59,0,0,1-4.44.82,56.49,56.49,0,0,0-15.13,1.31c-7.67,1.55-15.39,2.86-22.8,5.52q-6.75,2.43-13.65,4.45a45.86,45.86,0,0,1-18.39,1.57A22.83,22.83,0,0,1,492,65.59c-8.43-4.75-17.48-8-26.47-11.45a48.58,48.58,0,0,0-6.09-1.7c-3.84-.91-7.77-1.52-11.54-2.68-3.13-1-6.23-2.26-8.25-5.2a3.92,3.92,0,0,0-2.13-1.18,34.06,34.06,0,0,0-18.57-.12c-5,1.43-10.17,2.49-14.7,5.3a29.24,29.24,0,0,1-9.46,3.65,62.28,62.28,0,0,0-12.64,4,5.26,5.26,0,0,0-2.05,1.19A18.86,18.86,0,0,1,373.9,63c-.45.23-.5,1.23-.73,1.88a7.17,7.17,0,0,0,1.58.53c1.84.14,2.59.65,3.12,2.41.31,1,.56,2.08.81,3.13.34,1.48.53,1.56,1.73.57.92-.77,1.8-1.58,2.74-2.34A20.36,20.36,0,0,0,387.56,64,46,46,0,0,1,392,58.38a5,5,0,0,1,4.3-1.74c5.18.38,10.36.77,15.53,1.3,3.41.35,6.76,1.22,10.24,1,2.11-.17,4.25,0,6.35-.24,3.39-.44,6.76-1.09,10.12-1.72a61.52,61.52,0,0,1,6.05-1.29c4.55-.38,8.52,1.45,12.29,3.75,3.34,2,6.53,4.36,10,6.17a19.41,19.41,0,0,1,6.6,5.41,5.72,5.72,0,0,0,3.71,2.22c5.54,1,9.92,3.57,12.73,8.62a4.64,4.64,0,0,0,2.28,1.76,4.24,4.24,0,0,1,2.34,1.91c.84,1.54,1.67,3.09,2.55,4.61,1.49,2.55,2.69,5.17,2.44,8.25,0,.37.3.77.46,1.15a3.89,3.89,0,0,0,1-.69c1.69-2.08,3.32-4.2,5-6.29,2.2-2.74,4.32-5.55,6.67-8.17,3.91-4.35,8.78-7.35,14.06-9.81a27.76,27.76,0,0,0,7.34-4.42,22.25,22.25,0,0,1,8.17-4.78c5-1.73,9.89-3.62,14.87-5.33a61.2,61.2,0,0,1,6.7-1.79c3.54-.8,7.11-1.47,10.67-2.2,1.29-.27,2.35,0,2.4.86.08,1.15-.92,1.2-1.73,1.4-1.28.31-2.56.63-3.84.92-4.78,1.09-9.68,1.63-14.32,3.4-5.33,2-10.75,3.84-16.07,5.88a12.32,12.32,0,0,0-4.16,2.47,30.21,30.21,0,0,1-9.13,5.82A39.63,39.63,0,0,0,511.05,90c-2.88,4-6.19,7.63-9.31,11.42a2.23,2.23,0,0,1-.89.77c-1.26.35-1.4,1.21-1.3,2.32a17.2,17.2,0,0,1-.5,7.24,3.4,3.4,0,0,0,0,1.06,3.67,3.67,0,0,0,1.3-1.22q5-7.38,10-14.77A5.58,5.58,0,0,1,514.13,94a3.1,3.1,0,0,0,2.31-1.68c1.72-2.88,3.4-5.79,5.26-8.58a19.16,19.16,0,0,1,3.22-3.52c1.29-1.15,3.62-1.4,4.69-.47s1.55.41,2-.52c.25-.46.55-.89.84-1.32a17,17,0,0,1,6.68-6.36,4.26,4.26,0,0,1,3.91-.21A1.49,1.49,0,0,0,545,71a30.13,30.13,0,0,1,2.76-2.66c1.68-1.36,3.56-.75,4.25,1.28a4.45,4.45,0,0,0,.4.66c1-.67,2-1.34,2.94-1.94a2.79,2.79,0,0,1,3.37-.05c1,.82,1.61.43,2.37-.42a18.57,18.57,0,0,1,3.58-3.29c2.16-1.39,4-.64,4.75,1.79.3.93.64.89,1.36.46a5.65,5.65,0,0,1,2.08-.83c2.41-.28,4.07,1.32,4.27,4.07.07,1.08,0,2.18,0,3.26a16.44,16.44,0,0,0,2.36-1.75,2.5,2.5,0,0,1,3.2-.35,2.66,2.66,0,0,1,1.12,3c-.22,1.14-.41,2.28-.67,3.41-.62,2.73-1,2.71,2.19,2.63A62.72,62.72,0,0,1,600,81.5v7.68c-.55-.08-1.1-.18-1.65-.24-2.38-.27-4.77-.47-7.14-.79a22,22,0,0,0-11,1.06L565.79,94.7a160.55,160.55,0,0,0-31.34,15.42,57.46,57.46,0,0,1-9.89,4.78,102.31,102.31,0,0,1-9.89,3.29c-5.86,1.69-10.3,5.48-14.62,9.51a6,6,0,0,0-.48.68,20.75,20.75,0,0,0,2.67-.15c1.41-.26,2.8-.64,4.2-1a104.5,104.5,0,0,0,17.92-6.71c5.08-2.32,10.3-4.33,15.45-6.49a76.76,76.76,0,0,0,10.34-5.27c4.9-3,10.15-5.42,15.06-8.4A32.32,32.32,0,0,1,583.81,96c2.63.11,5.26.38,7.88.73.8.11,1.93.54,1.71,1.64s-1.4.93-2.31.83c-2.33-.25-4.66-.61-7-.74-6.57-.35-12.81.75-18.47,4.36-1.61,1-3.41,1.77-5.08,2.7-2.69,1.49-5.35,3-8,4.56-3.95,2.26-7.81,4.67-12.14,6.21-2.78,1-5.53,2.1-8.23,3.28-5.5,2.38-10.87,5.06-16.45,7.24-12.43,4.84-25.44,6-38.66,5.57a11.55,11.55,0,0,1-1.29-.21l-8-1.16c-1.59-.22-3.19-.35-4.75-.68-8.37-1.76-16.77-3.38-25.38-3.39a11.61,11.61,0,0,0-3.05.4,22.39,22.39,0,0,1-7.09,1c-2.07-.1-4.16-.1-6.23-.05-7.82.19-15.5,1.56-23.2,2.77a17.43,17.43,0,0,0-9.29,4.07,19.14,19.14,0,0,1-2.94,1.84c-6.17,3.77-13,5.77-19.87,7.93a26.67,26.67,0,0,1-8.72,1.31c-1,0-2,0-2.94,0l-.11.45a24.9,24.9,0,0,0,4,1.74,95.78,95.78,0,0,0,9.49,2c4,.58,8,.92,12,1.28a74,74,0,0,0,18.74-.95c7.44-1.22,14.83-2.83,22.28-4a154.37,154.37,0,0,1,25.67-2.2c6,.08,12.08,0,18.11.32A90.41,90.41,0,0,1,483.32,148a4.66,4.66,0,0,0,2.76-.21c8-3.27,16-6.61,24-10,3.62-1.52,7.31-2.63,11.28-2.34a6.12,6.12,0,0,0,4.78-1.72c3-2.64,5.92-5.26,9-7.74a8.48,8.48,0,0,1,3.81-1.85,20.39,20.39,0,0,0,6.18-2.12,12.5,12.5,0,0,1,1.78-.72c4.27-1.33,8.53-2.67,12.82-3.94,9.15-2.71,18.23-5.7,27.75-6.93,2.57-.33,5.16-.55,7.75-.79.9-.09,2,.66,1.82,1.32-.18.87-.89,1-1.67,1a19.64,19.64,0,0,0-3.35.15c-5.46,1-11,1.82-16.34,3.17-6.54,1.64-13,3.8-19.43,5.65-4.61,1.32-9.28,2.44-13.5,4.84a3.27,3.27,0,0,1-1.37.38,10.41,10.41,0,0,0-6.56,2.89c-2.58,2.34-5.18,4.64-7.75,7a5.36,5.36,0,0,1-4.1,1.63,25.71,25.71,0,0,0-11.35,2.06q-6.7,2.73-13.42,5.49c-4,1.66-8.14,3.12-12,5.09A93.33,93.33,0,0,1,466,158.05c-3.46.84-6.74,2.46-10.1,3.71a19,19,0,0,1-3.06,1c-3.94.76-7.87.12-11.8-.22-.88-.08-1.71-.61-2.59-.71a70.7,70.7,0,0,1-14.21-2.75c-2.69-.89-5.29-2-7.95-3a6.67,6.67,0,0,0-2.17-.51c-2.59,0-5.18.15-7.76,0-2.18-.12-4.56-.11-6.28-1.63s-3.36-1.21-5.16-1.07-3.57.49-5.36.57a91.78,91.78,0,0,1-18.07-.78q-7-1.08-13.88-2.62a12.21,12.21,0,0,1-5.74-3.1,3.06,3.06,0,0,0-1.59-.85c-9.26-1.31-18.54-2.47-27.78-3.88a19.08,19.08,0,0,0-10.45.91c-2,.82-4.12,1.28-6.15,2a15.61,15.61,0,0,0-3.39,1.5q-6.68,4.34-13.26,8.84c-2.83,1.95-5.49,4.15-8.35,6.05-4.15,2.77-8.34,5.47-12.64,8-2.7,1.6-5.62,2.83-8.45,4.21-.69.33-1.41.59-2.12.88l.1.37c2.33-.2,4.66-.46,7-.61,8.66-.52,17.31-1.07,26-1.48a34.68,34.68,0,0,1,8.59.31,69.43,69.43,0,0,0,10.91,1.39c3.84.17,7.68.23,11.51.48,3.1.2,6.19.7,9.29.93,4.71.36,9.42.59,14.12.9,7.61.5,15.22,1.15,22.83,1.49,6.19.27,12.4.12,18.6.28,5.9.15,11.8.47,17.7.69a16.16,16.16,0,0,0,2.5-.17c2.61-.32,5.22-.72,7.84-1,5.28-.58,10.59-1,15.84-1.73,4-.58,8-1.71,12.1-1.43a5.56,5.56,0,0,0,2-.37c6.41-2,12.85-3.87,19.21-6,3-1,5.86-2.49,8.77-3.77a6.78,6.78,0,0,0,.78-.54c1.64-1,3.17-2.29,4.93-2.88,8.47-2.83,16.61-6.43,24.86-9.79,9.19-3.74,18.89-5.89,28.44-8.51a66.57,66.57,0,0,1,23.09-2.56,60.21,60.21,0,0,0,17.87-1,21.84,21.84,0,0,1,5.12-.26c1.1,0,1.68.78,1.32,1.49a5.38,5.38,0,0,1-3.47,3.24,47.85,47.85,0,0,1-14.72,1.5A85.36,85.36,0,0,0,534,148.4c-7.82,2-15.47,4.56-23.18,6.9a87.62,87.62,0,0,0-9.22,3c-4.5,1.94-8.85,4.26-13.26,6.42a4.57,4.57,0,0,0-.57.41c1.66-.07,3.23-.37,4.82-.55,3.33-.39,6.66-.83,10-1q6.46-.41,12.95-.48c8.52-.09,17-.22,25.55-.07,6.19.11,12.38.63,18.56,1,5.19.3,10.37.76,15.56.94,5.55.18,11.12.32,16.65.06,2.75-.13,5.45-1.19,8.17-1.84v2.64c-1.28.31-2.57.57-3.83.95-4.89,1.45-9.91,1.25-14.89,1-5.75-.25-11.49-.8-17.24-1.16-15.41-1-30.83-1.62-46.27-1.18-7.63.22-15.25.73-22.86,1.31-3.54.27-7,1-10.56,1.52a10.87,10.87,0,0,1-2.26.21c-2.36-.16-4.35.81-6.35,1.85a7.37,7.37,0,0,1-1.55.49c-.27.07-.56,0-.83.13-7.19,1.93-14.5,3.53-21.54,5.93-5.24,1.78-10.6,2.25-16,3A118,118,0,0,1,415.2,181c-3.47-.1-7,.23-10.43.15-5.31-.11-10.61-.47-15.91-.61-5.76-.15-11.52-.09-17.28-.25-5.07-.15-10.13-.43-15.2-.74q-12.19-.75-24.39-1.62c-3.1-.22-6.19-.71-9.29-1-2.75-.22-5.51-.32-8.26-.4A86.15,86.15,0,0,1,298.61,175c-3.05-.67-6.37-.33-9.55-.19-6.11.27-12.21.74-18.32,1.07-6.5.36-13,.65-19.51,1a13,13,0,0,0-2.48.38c-7.65,1.88-15.14,4.26-22.58,6.87a102.11,102.11,0,0,0-20.66,9.46,12.81,12.81,0,0,1-2.53,1.22,1.76,1.76,0,0,1-1.39-.26,11.15,11.15,0,0,1-4.25-6c-.91-3.24-1.3-6.71-3.28-9.59-1.05-1.52-1.78-3.35-3.84-3.9a.74.74,0,0,1-.46-.5c-.19-1.5-1.41-2.11-2.47-2.72-2.15-1.23-4.36-2.37-6.6-3.41a56,56,0,0,0-24.36-5.48,85,85,0,0,0-14,.79,37.72,37.72,0,0,0-4.23,1.23,4.44,4.44,0,0,1-3.9-.49,1.86,1.86,0,0,1-.59-1.44c.12-1.32-.57-1.7-1.67-1.76a14.06,14.06,0,0,0-6.19,1c-4.71,1.9-9.45,3.74-14.28,5.26A40.25,40.25,0,0,1,100,169.16c-7.94.15-15.58-1.51-23.28-3-4.63-.89-9.31-1.47-14-2.16-5.1-.75-10.18-1.71-15.31-2.12a148.87,148.87,0,0,0-15.81-.33c-5.83.14-11.65.63-17.47,1.07a67.78,67.78,0,0,0-8.78,1.13A32.05,32.05,0,0,0,0,166v-2.16a54.61,54.61,0,0,1,6-2,48,48,0,0,1,6.89-.85c5.74-.44,11.48-1,17.23-1.12s11.52-.14,17.26.22c4.41.28,8.77,1.31,13.17,1.83a217.57,217.57,0,0,1,21.51,3.52,70.44,70.44,0,0,0,14.61,1.8,61.7,61.7,0,0,0,8.5-.17c7-.9,13.38-4,19.89-6.49a14.18,14.18,0,0,1,8.19-.91c2,.4,2.06.65,2.15,2.69a3,3,0,0,0,.14.63c1-.21,1.93-.45,2.86-.59,1.42-.23,2.85-.38,4.27-.58a99.61,99.61,0,0,1,21.9-.2c5.55.44,10.65,2.49,15.7,4.6,3.75,1.57,7.57,3.12,10.58,6a1.11,1.11,0,0,0,.63.31c2,.25,4.09.58,6.15.67,2.55.11,5.12.13,7.68,0A57.19,57.19,0,0,0,219.47,171c2.56-.78,5.11-1.64,7.72-2.18,7.79-1.61,15.66-2.86,23.4-4.66a82.59,82.59,0,0,1,21.73-2.48c1.16,0,2.35-.09,3.11,1.29l7.78-5.42q6.93-4.84,13.86-9.67a31.52,31.52,0,0,1,10.69-5.27c1.54-.36,3-1,4.83-1.53a5.82,5.82,0,0,0-1-.29c-2.27-.19-4.54-.5-6.81-.52-8.32-.08-16.64,0-24.95-.1a88.83,88.83,0,0,0-22.69,2.68c-5.57,1.39-11,3.19-16.56,4.81a2.15,2.15,0,0,0-1,.43,8,8,0,0,1-5.41,2.15c-5.27.44-10.52.11-15.19-3a89.14,89.14,0,0,0-21.16-9.77,44.66,44.66,0,0,0-9.34-2.45,116.17,116.17,0,0,0-20.85.09,76.7,76.7,0,0,0-7.75.74c-7.18,1.32-14.35,2.78-21.5,4.27-3.2.67-6.32,1.73-9.53,2.3-3.74.66-7.56.93-11.33,1.44-2,.27-4,.75-6,1A49.39,49.39,0,0,1,96,144.25c-5.51-1-10.67-3.21-15.88-5.24-6.15-2.39-12.22-5-19-5.64-6.33-.58-12.6-1.34-19-1.13-7.55.26-15.12.12-22.67-.2a18.18,18.18,0,0,0-8.58,1.6c-3.59,1.63-7.24,3.17-10.86,4.74V133.1c.41-.14.83-.27,1.22-.44,3.15-1.38,6.3-2.75,9.43-4.17a13.87,13.87,0,0,1,5.93-1.2c11.08,0,22.15,0,33.23,0a13.5,13.5,0,0,0,1.67-.17c2.93-.34,5.85-.78,8.79-1a13.79,13.79,0,0,1,5.34.28,11.39,11.39,0,0,0,6.11.27c6-1.16,12-2.46,17.94-3.73a10,10,0,0,0,1.26-.45l-.05-.36c-.74,0-1.48,0-2.22,0a66,66,0,0,1-7.43.2,95.2,95.2,0,0,1-28.58-6.69,103.33,103.33,0,0,0-32.12-7.82c-3.74-.29-7.5-.24-11.26-.39A3.81,3.81,0,0,1,8,106.94a5.81,5.81,0,0,1,.78-1.6c.27-.28.89-.28,1.36-.3a85.33,85.33,0,0,1,17.55,1.26c5,.9,10.09,1.59,15,3.3,7.84,2.76,15.72,5.39,23.58,8.05a28.89,28.89,0,0,0,2.93.66l.16-.37a12.38,12.38,0,0,0-1-.93q-8.74-6.65-17.49-13.26A22.7,22.7,0,0,0,42.63,100a8,8,0,0,0-1.48-.14l-.14.29a13,13,0,0,0,1.22,1.35c.88.76,1.79,1.48,2.72,2.17,2.43,1.82,4.89,3.61,7.33,5.42.61.45,1.31.94.71,1.85s-1.35.59-2.08.14c-.21-.12-.41-.25-.61-.38-4.6-3-9.18-6.11-13.8-9.13a26.49,26.49,0,0,0-2.48-1.3l-.18.31,2.67,1.87c.79.56,1.82,1.19,1.16,2.26s-1.64.37-2.43-.09c-2.38-1.39-4.73-2.84-7.14-4.19-.45-.25-1.37-.44-1.58-.21-1.38,1.48-2.79.9-4.3.38a9.4,9.4,0,0,0-3.56-.82A39.48,39.48,0,0,0,12.92,101c-3.92.94-7.82,1.93-11.74,2.88a4.59,4.59,0,0,1-1.17,0Zm412.4,33.95,0-.42c-.77-.28-1.53-.6-2.32-.84-7.18-2.16-14.38-4.27-21.56-6.47-3-.91-5.94-1.71-9.06-1.12a88,88,0,0,0-9,2,107.08,107.08,0,0,1-22.7,4.19c-4.78.39-9.58.53-14.37.76a45.18,45.18,0,0,1-19.47-3.22,13.79,13.79,0,0,0-3-.73c-3.06-.53-6.14-1-9.2-1.52a5.25,5.25,0,0,1-1.76-.93,26.21,26.21,0,0,0-2.58-1.82c-1.61-.79-3.34-1.33-5-2.09-11.31-5.25-23.33-8.18-35.45-10.75-2.54-.53-5.17-.6-7.69-1.21a8.11,8.11,0,0,0-6.47.73c-4.52,2.83-9.52,3.63-14.69,3.67-7.64.06-15.28.11-22.91,0-10.76-.14-21.52-.47-32.26.25l-3.53.26c1.61.27,3.21.37,4.8.49a38.56,38.56,0,0,1,13.25,3c3.15,1.46,6.32,2.89,9.48,4.33a83.15,83.15,0,0,0,15.55,5.88c8.91,2.1,18,2.61,27.1,3.35a36.74,36.74,0,0,1,16.91,5.19c4.33,2.71,8.54,5.62,12.83,8.39a3.51,3.51,0,0,0,2,.55c7.1-.36,14.21-1.18,21.3-1.11,11.65.13,23.16,2,34.71,3.38,8.24,1,16.36,2.94,24.71,2.94,3.11,0,6.32.46,9.31-.16a76,76,0,0,0,21-7.32c1.15-.62,2.32-1.22,3.48-1.82l-.08-.35c-.64.06-1.3.06-1.92.18-4.39.89-8.76,1.83-13.15,2.69a65.39,65.39,0,0,1-8.62,1.43c-3.82.23-7.67,0-11.51,0-9.18,0-18.08-1.26-26.35-5.58a34.46,34.46,0,0,1-11.08-8.44c-.43-.53-.94-1.15-.13-1.73s1.32-.25,1.89.36c4.15,4.51,9.32,7.49,14.92,9.77a46,46,0,0,0,16.63,3.19c5.31.11,10.69.57,15.93-.08,7.59-.94,15.08-2.72,22.61-4.17,7.37-1.41,14.73-2.86,22.1-4.25C408.8,127,410.61,126.76,412.41,126.49ZM77.93,134.86l-.06.4a23.71,23.71,0,0,0,2.32,1.14c1.34.5,2.72.91,4.08,1.35,4.76,1.53,9.28,3.82,14.35,4.41s9.87,1,14.81.12c2.64-.45,5.26-1,7.9-1.38,2-.31,4.08-.3,6.07-.71,5.51-1.12,11-2.28,16.49-3.61a155.73,155.73,0,0,1,37.68-4.17,50.84,50.84,0,0,1,20.31,3.94,177.62,177.62,0,0,1,17.39,8.87,23.22,23.22,0,0,0,10.47,3.4c2.77.14,5.51.23,7.82-1.75a3.43,3.43,0,0,1,1.47-.44,17.75,17.75,0,0,0,2.07-.27c6.19-1.89,12.36-3.82,18.54-5.71.88-.27,1.79-.44,2.72-.67-2.45-1.15-4.8-2.23-7.13-3.36-1.73-.83-3.37-1.85-5.14-2.57a44.38,44.38,0,0,0-16-2.91,62.2,62.2,0,0,1-15.54-1.83A224.17,224.17,0,0,1,190.93,119c-4.9-2.07-9.83-4.06-15.2-4.56-3.39-.32-6.78-.52-10.15-1-6.33-.86-12.61-2.19-19.06-1.73a12,12,0,0,1-2.87-.11,3.2,3.2,0,0,0-2.64.76,20.91,20.91,0,0,1-10.58,4.15c-2.54.22-5.11.21-7.67.2A16.58,16.58,0,0,0,112,120.58a24.73,24.73,0,0,1-4.47,3c-4.23,2.07-8.5,4.08-12.83,5.91a31.48,31.48,0,0,1-6.22,1.72C84.8,131.93,81.41,133.49,77.93,134.86ZM344,115.64a27.78,27.78,0,0,1-7.27-8.77c-2.46-4.39-4.91-8.78-7.14-13.29-1.17-2.35-2.87-3.16-5.33-3.27a27.16,27.16,0,0,1-6.5-.88c-7.6-2.3-15.16-4.75-22.69-7.27a43.91,43.91,0,0,0-9.63-1.76c-3.81-.39-7.61-.94-11.38-1.61a13.41,13.41,0,0,1-4.32-1.64,2.8,2.8,0,0,0-3.5,0,13.59,13.59,0,0,1-5.82,2.39c-6.69,1.15-13.37,2.35-20.06,3.54a16.23,16.23,0,0,0-1.59.51,6.69,6.69,0,0,0,.9,1c4.55,3,9.1,5.95,14.2,7.94A45.67,45.67,0,0,1,259.74,95a27.7,27.7,0,0,0,8.38,3.1c10.35,2,20,6,29.62,10.14a30.33,30.33,0,0,0,8.73,2.37c3.29.36,6.77.19,9.34,2.91a.87.87,0,0,0,.31.18,22.48,22.48,0,0,0,9.16,2.59c5.72.11,11.43-.13,17.15-.25A9.17,9.17,0,0,0,344,115.64ZM210.39,53.4c1.06-1,2-1.91,3-2.75s1.9-1.84,3.27-1.17,1.08,2,1.09,3.2,0,2.5,0,3.76a2.28,2.28,0,0,0,1-.72c1.39-1.38,2.75-2.79,4.18-4.13a2.33,2.33,0,0,1,2.68-.41,2.07,2.07,0,0,1,1.16,2.18v2.26c.55-.44.84-.69,1.14-.92a28.68,28.68,0,0,1,3.14-2.4c2-1.13,3.65-.11,3.63,2.17,0,1-.25,2.06-.34,3.09a15.45,15.45,0,0,0,.1,1.72c.7-.53,1.14-.85,1.57-1.19,1.53-1.23,3-2.52,4.58-3.67a3.72,3.72,0,0,1,4.28-.46,1.79,1.79,0,0,0,2.59-.51c1.72-1.84,3.45-3.68,5.28-5.4a7.53,7.53,0,0,1,2.64-1.57c1.88-.65,3,.32,2.95,2.32,0,1-.11,2.06-.17,3.16.37,0,.6,0,.82,0,2.93-.27,4,.63,3.81,3.53a85.89,85.89,0,0,1-1.13,8.9,52.65,52.65,0,0,1-1.6,5.39c-.39,1.3-.05,1.74,1.23,1.68l2-.14-.32,2a1.43,1.43,0,0,0,.26,0,10,10,0,0,0,1.16-.63c3-2,5.93-1.88,9.18-.47A48.91,48.91,0,0,0,282.48,75c4.86,1.08,9.95,1,14.7,2.68a4.68,4.68,0,0,0,1.54.24q4.06.1,8.15.15a4.7,4.7,0,0,1,4.24,2.22c1.69,2.59,4.48,3.45,7.24,4.3a5.08,5.08,0,0,0,1.21,0c-.8-1.09-1.43-2-2.11-2.86-2.23-2.83-4.56-5.59-5.81-9a5.7,5.7,0,0,0-4.23-3.86,4.2,4.2,0,0,1-3.32-3.51,2.33,2.33,0,0,0-.66-1.21c-1.1-1-2.32-1.76-3.41-2.72a6.77,6.77,0,0,0-4-2c-2.27-.17-4.54-.49-6.82-.49a13.56,13.56,0,0,1-11.79-6.4,10.68,10.68,0,0,0-.63-.87,54.09,54.09,0,0,0-3.9-4.36c-2.95-2.71-6-5.29-9.05-7.87a14.53,14.53,0,0,0-6.91-3.12,7,7,0,0,0-7,2.15,10.74,10.74,0,0,1-6.81,3.45c-2.82.31-5.64.71-8.47.83-7.09.32-14.12.08-21-2a18,18,0,0,0-12.88.81C196.58,43.44,192.3,45.21,188,47c-2.57,1.1-5.16,2.15-7.71,3.3a8,8,0,0,0-4.49,4.41c-.3.77-.19,1.25.65,1.42,1.48.28,3,.52,4.45.84A30.22,30.22,0,0,1,185,58.06a1.93,1.93,0,0,0,2.28-.36,12.49,12.49,0,0,1,1.94-1.78,3.86,3.86,0,0,1,2.4-.78c1.5.33,2.28-.38,3.18-1.32a31.49,31.49,0,0,1,4-3.59c1.43-1,2.52-.56,3.21,1.08.19.46.37.92.58,1.45,1.12-.66,2.09-1.31,3.12-1.81a2.87,2.87,0,0,1,4,1.26C209.91,52.51,210.08,52.83,210.39,53.4Zm30,41.74c-.65-.52-1.1-.91-1.58-1.27-2.48-1.88-5-3.7-7.45-5.65a27.87,27.87,0,0,0-8.24-4.57c-6.18-2.17-12.38-4.28-18.54-6.5-5.21-1.88-10.63-3.25-15.48-6.07-2.69-1.57-5.4-3.12-8.14-4.6-5.44-3-11.19-4.55-17.41-3.41a33.22,33.22,0,0,1-9.54.44c-3.3-.35-6.59-.79-9.89-1.07-4.17-.35-8.28-.71-12.38,1a19.88,19.88,0,0,1-11.22.89,17.72,17.72,0,0,0-5.24-.17c-6.89.88-12.39,4.64-17.64,8.86-.08.06-.1.2-.24.49.73.06,1.38.15,2,.16,7.16,0,14.33-.06,21.36,1.64a93.14,93.14,0,0,0,14.78,2.31,32.35,32.35,0,0,1,6.94,1.14,47.26,47.26,0,0,0,16.11,1.88c3.6-.17,7.2-.3,10.78-.57a10.3,10.3,0,0,1,5.94,1.41c6.15,3.4,12.63,5.54,19.8,5.07a12.66,12.66,0,0,1,7,1.63c5.08,2.77,10.32,5.26,15.39,8s10.54,2.65,16,2A13.75,13.75,0,0,0,240.37,95.14Zm150.92,15.24a11.28,11.28,0,0,0,1.16.61c2.25.8,4.54,1.52,6.77,2.38a151.76,151.76,0,0,0,24.28,6.92c1,.21,1.42,0,1.54-1.11a9,9,0,0,1,.87-3.06,37.62,37.62,0,0,1,2.84-4.72c7-9.8,12.6-20.46,18.57-30.89a18.61,18.61,0,0,0,2.31-9.8c0-1.53-.57-2-2.11-1.81a8.43,8.43,0,0,0-4.81,2.72A58.34,58.34,0,0,0,430.6,88.33a113,113,0,0,1-8.71,15.28l-7.63,11.19a3.33,3.33,0,0,1-.61.73c-.78.66-1.52.44-1.8-.55a2,2,0,0,1,0-1.17c1.07-2.89,1.74-6,4.81-7.7a1.34,1.34,0,0,0,.48-.52c1.89-3.23,4.19-6.31,5.56-9.75a117,117,0,0,0,6.34-20.32,26.29,26.29,0,0,0,.62-5.65c0-1.76-1-2.19-2.43-1.1-3.44,2.67-6.6,5.68-7.93,10a213.27,213.27,0,0,1-10.13,26.09,35.13,35.13,0,0,1-2.82,4.71,2,2,0,0,1-2.54.8c-1-.44-1-1.4-.69-2.28,1.75-5.55,3.39-11.14,5.33-16.63,1.76-5,4.75-9.39,7.8-13.7a15,15,0,0,0,2.59-9.29c0-1-.47-1.34-1.37-.82a19.1,19.1,0,0,0-3.17,2.13,27.76,27.76,0,0,0-7,9.63c-1.34,3-2.39,6.18-3.66,9.24-3,7.13-6.11,14.15-11.15,20.14C392.11,109.25,391.75,109.76,391.29,110.38ZM103,88.6c.08-.82.16-1.43.2-2,.15-2.6,1.62-3.92,4.19-3.51a26.78,26.78,0,0,1,4.73,1.24c1.61.57,3.16,1.35,4.72,2,.68.3,1.34.44,1.84-.24,1.61-2.2,3.9-2.44,6.34-2.25a21.48,21.48,0,0,1,10.74,4.05c1.28.89,2.5,1.81,4.14.85a1.81,1.81,0,0,1,.71-.07,13.25,13.25,0,0,1,8.13,2c.36.22,1.2.33,1.31.15,1.11-1.67,2.75-1.61,4.31-1.22,2.62.65,5.19,1.52,7.76,2.36,1.26.42,1.34.42,1.41-.9a3.34,3.34,0,0,1,3.35-3.37A8.3,8.3,0,0,1,170,88c1.86.7,3.59,1.7,5.43,2.47a4.63,4.63,0,0,0,2.36.4,9.25,9.25,0,0,1,6.78,1.25c2.63,1.69,5.18,3.48,7.83,5.11a7.59,7.59,0,0,0,3.29,1.29c6.7.35,13.42.53,20.13.76a14.52,14.52,0,0,0,1.48-.08,2.77,2.77,0,0,0-1.23-1,117.63,117.63,0,0,1-13.88-7.3,12.69,12.69,0,0,0-4.81-1.69,51.69,51.69,0,0,0-5.85-.17c-5.93-.24-11.29-2.41-16.48-5a14.65,14.65,0,0,0-7.61-1.69c-4.75.27-9.5.47-14.26.65a29.77,29.77,0,0,1-8.74-1.22,50,50,0,0,0-7-1.44c-6.55-.77-13.11-1.38-19.48-3.24a8.43,8.43,0,0,0-2-.31c-5.55-.25-11.11-.37-16.65-.76a18.63,18.63,0,0,0-10.66,2.51A43.66,43.66,0,0,1,76,83.3c-3.05.62-6.15,1-9.22,1.54a12.71,12.71,0,0,0-1.42.46c.28.32.4.57.59.65,2.47,1,4.93,2.06,7.43,3,.23.09.87-.39,1-.73a3.08,3.08,0,0,1,3.26-2.13c.52,0,1,.07,1.55.1a26.35,26.35,0,0,1,8.46,2.53c.87.37,1.27.29,1.41-.78.26-1.92,1-2.45,3-2.6a16,16,0,0,1,8.84,2.18C101.52,87.84,102.16,88.15,103,88.6Zm388.68,14.15a8.52,8.52,0,0,1,1.15-.69,15,15,0,0,1,3.25-1c1-.12,1.26-.5,1.19-1.35-.21-2.68-.43-5.34-1.87-7.73-.87-1.43-1.6-3-2.48-4.38a3.34,3.34,0,0,0-1.39-1.42A9.33,9.33,0,0,1,487.13,82a13.37,13.37,0,0,0-9.89-6.26,7.47,7.47,0,0,1-5.3-2.93,18.31,18.31,0,0,0-5.69-4.89c-2.44-1.45-4.81-3-7.27-4.43a93.24,93.24,0,0,0-8.54-4.56,11.86,11.86,0,0,0-9.36-.41A31.55,31.55,0,0,1,430.16,61c-5.75.15-11.52.53-17.24-.4a104,104,0,0,0-16.34-1.47,3.72,3.72,0,0,0-3.42,1.52c-1.46,2-2.92,4.11-4.55,6s-3.59,3.83-5.42,5.72c-.4.41-.86.76-1.3,1.14,1.87,1.28,3.16.71,4.5-.78a27.92,27.92,0,0,1,4.53-4.09,12.42,12.42,0,0,1,4.27-2c2.29-.54,3.31.77,2.64,3.05-.24.82-.53,1.63-.79,2.45a2.4,2.4,0,0,0,1.08-.55c1.57-1.17,3.1-2.39,4.72-3.49a3.09,3.09,0,0,1,3.51-.22c1.14.69,1.24,1.84,1.21,3a15.61,15.61,0,0,0,.23,2.24A36.1,36.1,0,0,0,411,69.68a15,15,0,0,1,5.94-4.36c2.6-1,4.5.38,4.48,3.13,0,.68,0,1.37,0,2.4,1.35-1.26,2.36-2.35,3.52-3.23A8.65,8.65,0,0,1,428,66c2.62-.62,4.12.55,4,3.21a48.6,48.6,0,0,1-.87,7.6c-.57,3-1.44,5.85-2.18,8.78,1.08-1.21,1.89-2.56,2.83-3.81,2.8-3.69,5.51-7.47,8.55-11a15.14,15.14,0,0,1,5.32-3.75c3.88-1.64,6.34.22,6.27,4.37,0,.72-.06,1.44-.06,2.16a9.23,9.23,0,0,0,.12,1.11c1.54-1.24,2.88-2.44,4.35-3.46a4.56,4.56,0,0,1,5.1-.21,4.48,4.48,0,0,1,2.34,4.3c0,1.23-.15,2.47-.24,3.7-.08,1-.16,2.09-.23,3.14a4.69,4.69,0,0,0,1.66-1,8.2,8.2,0,0,1,7.14-1.94,2.4,2.4,0,0,1,2.32,2.81c0,1.43-.21,2.86-.31,4.3,0,.45,0,.89,0,1.68.65-.5,1-.81,1.43-1.09A22.87,22.87,0,0,1,479,84.65a4.54,4.54,0,0,1,5,.62c1.45,1.17,1.54,2.78,1.18,4.49a14.89,14.89,0,0,0-.11,2.07A23.8,23.8,0,0,1,487.62,90c2.71-1.34,5,.08,4.85,3C492.29,96.21,492,99.39,491.71,102.75ZM364.49,87.94l-.22-.27a5.09,5.09,0,0,0-1.2.79,36,36,0,0,0-3.61,4.62C356,99,352.78,105,349.44,111c-.46.83-.24,1.45.62,1.68a10.56,10.56,0,0,0,3.26.58c1.7-.07,3.39-.52,5.07.18a1.82,1.82,0,0,0,.95,0c4.9-.92,9.81-1.8,14.7-2.79,3.78-.76,7.54-1.46,11.41-.78a2.58,2.58,0,0,0,2.74-1.54c4.4-7.51,8.78-15,13.21-22.53,2.7-4.57,3.56-9.62,3.94-14.8.07-.9-.43-1.21-1.19-.91a9.46,9.46,0,0,0-2.07,1.18,29.07,29.07,0,0,0-7.85,9c-4.26,7.5-8.45,15-12.74,22.52a40.07,40.07,0,0,1-3.57,5c-.29.37-1.31.71-1.47.55a3.26,3.26,0,0,1-.69-1.72c-.05-.33.24-.74.44-1.09,3.85-6.67,7.69-13.36,11.59-20A96.34,96.34,0,0,0,395,70.89a9.78,9.78,0,0,0,.31-1.73L395,69a14.83,14.83,0,0,0-1.56.74,32.13,32.13,0,0,0-12.21,13.83c-3,6.35-5.92,12.74-8.94,19.09-.92,1.93-2,3.79-3.09,5.65-.41.72-1,1.38-1.95.91s-.84-1.38-.64-2.24a7.89,7.89,0,0,1,.45-1.23c.83-2,1.71-4,2.51-6.09,2.86-7.27,6.07-14.34,10.86-20.6a13.37,13.37,0,0,0,1-1.78l-.24-.24a6.18,6.18,0,0,0-1,.42,24.85,24.85,0,0,0-8.5,8.28c-4.14,7.11-8.39,14.16-12.6,21.23a16.84,16.84,0,0,1-1.21,1.93c-.66.85-1.51.65-1.89-.37a2.69,2.69,0,0,1,.57-2.57A80,80,0,0,0,364.49,87.94ZM347.18,99.86c1.2.17,2.13,0,2.63-1.1A10,10,0,0,0,351,95.89a12.78,12.78,0,0,1,3.22-6.56A29.43,29.43,0,0,0,356.91,85c.54-1,.82-2.07,1.33-3.07a7.12,7.12,0,0,1,5.8-4.11c4-.46,7.69-2.06,11.41-3.51a1.57,1.57,0,0,0,1.08-2c-.2-.89-.38-1.79-.6-2.68-.41-1.58-.74-1.87-2.31-1.8a21.66,21.66,0,0,1-13.75-4.15,72.07,72.07,0,0,0-15.1-8c-6.35-2.55-12.78-4.83-19.68-5.37-2.27-.18-2.32-.2-2.45,2a4.19,4.19,0,0,1-3.45,4.19,26.52,26.52,0,0,1-3.77.65c-3,.31-4.82.69-4.7-4a2.47,2.47,0,0,0,0-.72c-.19-.76-.42-1.52-.69-2.49a5.8,5.8,0,0,0-.41.55c-1.31,3.52-2.65,7-3.92,10.55-.44,1.23.74,4.58,1.79,5.32a2.45,2.45,0,0,0,1,.45c2.61.35,4,2,5,4.29a34,34,0,0,0,5.43,8.72,43.61,43.61,0,0,1,2.75,3.47,5.85,5.85,0,0,0,4.95,2.67c1.78,0,2.1-.25,2.7-1.87,1.59-4.38,3.19-8.77,5-13.08a28.2,28.2,0,0,0,2.25-8.28,3.83,3.83,0,0,0-.31-1.18,3.94,3.94,0,0,0-1.19.36A12.65,12.65,0,0,0,330,68.76c-.38,1.46-.84,2.91-1.27,4.36a19.79,19.79,0,0,1-3.55,7.14c-.36.45-1.28.93-1.64.76s-.81-1-1-1.66a3.22,3.22,0,0,1,.15-1.42,28.15,28.15,0,0,1,4.66-10.68,9.14,9.14,0,0,0,1.44-6.05c-.11-1.38-1.25-1.92-2.25-1A11.1,11.1,0,0,0,324,63.5c-.9,2-1.45,4.13-2.17,6.2-.33.92-.5,2.1-1.88,1.89-.89-.14-1-1.11-.69-2.67q.75-3.69,1.29-7.42a5,5,0,0,0-.42-1.74,5.6,5.6,0,0,0-1.47,1c-.94,1.24-1.7,2.62-2.65,3.85a2.39,2.39,0,0,1-1.59.93c-.85,0-.95-.83-1.06-1.61a1.82,1.82,0,0,0-.83-1.34,1.93,1.93,0,0,1-1.48-2.05,2.5,2.5,0,0,1,1.78-2.32,2,2,0,0,1,2.46.93c.18.26.4.47.69.81.8-.72,1.5-1.42,2.27-2a2.75,2.75,0,0,1,3.89.18c.44.51.88,1.47,1.29,1.45.59,0,1.13-.77,1.71-1.19,2.46-1.82,5.09-.85,5.77,2.11.09.4.24.79.42,1.36.56-.44.93-.78,1.35-1.06a13.6,13.6,0,0,1,2.63-1.62c2.15-.79,3.42.21,3.43,2.48,0,.77.08,1.54.14,2.42,1.3-.68,2.35-1.33,3.49-1.8,2.52-1,4.35.33,4.1,3-.14,1.59-.38,3.18-.57,4.76-.15,1.22-.28,2.45-.42,3.67.92-.8,1.49-1.73,2.25-2.49a60.9,60.9,0,0,1,5.58-5.2c1.58-1.23,3.3-.17,3.39,1.84,0,.24,0,.48,0,.72-.13,7.59-2.15,14.75-5,21.69C350.34,93.48,348.74,96.56,347.18,99.86ZM183.26,46.15l.22.26c.5-.19,1-.35,1.51-.57,4.31-1.88,8.71-3.61,12.92-5.71A22.7,22.7,0,0,1,214.1,38.3c4.74,1.2,9.45,2.27,14.4,2,3.55-.19,7.11-.27,10.67-.2a13.5,13.5,0,0,0,9.94-4,8.5,8.5,0,0,1,6.95-2.23,16.74,16.74,0,0,1,9.48,3.92c.41.33.86.61,1.32.93,1.13-2.39.6-5.59-1.32-7a10,10,0,0,0-4-2,51.52,51.52,0,0,0-7.15-.45c-2.31-.07-4.64.18-6.85-.79a4.9,4.9,0,0,0-1.88-.27c-1.72-.05-3.45-.14-5.16,0A25.72,25.72,0,0,1,231,26.72c-2.51-.79-5-1.82-7.61-2-4.69-.39-9.42-.25-14.13-.3a2.06,2.06,0,0,0-1.21.44A19.45,19.45,0,0,0,204.41,28c-2.65,3.54-6.13,6-9.78,8.37a55.43,55.43,0,0,0-10.45,8.57A14.06,14.06,0,0,0,183.26,46.15Zm89.56,118.21c-.6-.09-.82-.14-1-.15a61.61,61.61,0,0,0-15,1.21c-7.33,1.46-14.64,3-21.95,4.55-4,.85-8.16,1.4-12,2.7a53.62,53.62,0,0,1-12.86,2.66c-4.74.37-9.51.28-14.26.39-.42,0-.83,0-1.14,0,1,2.09,2.13,4,2.9,6.1s1.32,4.52,1.92,6.8a8.06,8.06,0,0,0,3.54,4.48A72.22,72.22,0,0,1,218.4,185c4.67-1.88,9.47-3.44,14.22-5.11q2.59-.92,5.24-1.69c5.68-1.7,11.53-2.74,17.18-4.58a68.1,68.1,0,0,0,14.24-6.77C270.42,166.17,271.46,165.33,272.82,164.36ZM256.17,49.11l-.48-.3a13,13,0,0,0-1.91,1.33c-1.84,1.83-3.73,3.64-5.38,5.63A13.63,13.63,0,0,0,246,60a38.87,38.87,0,0,1-6.14,11.85,12.09,12.09,0,0,1-4.15,3.73c-.83.4-1.59.58-2.31-.14s-.43-1.48,0-2.21c1.21-2.2,2.32-4.48,3.71-6.56,2-3,4.23-5.81,6.29-8.75a4.78,4.78,0,0,0,.38-1.75c-.58,0-1.28-.19-1.7.07a26.49,26.49,0,0,0-3.15,2.34A27.65,27.65,0,0,0,231,68.22a33.87,33.87,0,0,1-2.93,4.65,2.65,2.65,0,0,1-1.26,1,1.9,1.9,0,0,1-1.53-.22,1.7,1.7,0,0,1-.41-1.36,3.57,3.57,0,0,1,.68-1.5c1.09-1.58,2.2-3.15,3.34-4.69a18.71,18.71,0,0,0,3.45-10.54,1.66,1.66,0,0,0-.37-1.05c-.09-.1-.69.08-.92.28a25.13,25.13,0,0,0-6.5,8.19c-1.45,3.18-3.28,6.19-5,9.23-.74,1.28-.82,1.38.58,2,3.92,1.6,7.82,3.25,11.78,4.74a7.13,7.13,0,0,0,3.38.25c3-.45,6.06-1,9.06-1.67,4.76-1,9.49-2.18,14.23-3.29.16,0,.3-.2.58-.4-2.1-1.51-1.41-3.39-.86-5.25.11-.38.26-.75.39-1.13a36,36,0,0,0,2-11.39,8.62,8.62,0,0,0-.4-1.85L259.7,54c-.31.46-.65.9-.92,1.38-.68,1.18-1.37,2.35-2,3.56a94.71,94.71,0,0,1-9.72,16.21,3.16,3.16,0,0,1-.87,1c-.46.22-1.34.46-1.48.27a2.66,2.66,0,0,1-.39-1.7c0-.42.44-.82.72-1.21,4.29-5.82,7.94-12,9.92-19C255.48,52.69,255.78,50.89,256.17,49.11ZM78.64,88.2h-.48c-.76,0-1.62,0-1.7.91a3.77,3.77,0,0,0,.65,2,4,4,0,0,0,1.24.93A77.92,77.92,0,0,1,95,106.1c1.91,2.24,3.55,4.72,5.29,7.1a1.41,1.41,0,0,1-.08,2.06c-.67.63-1.32.31-2-.12-.13-.09-.27-.18-.39-.28-6-5-12-10-17.84-15.09a16.5,16.5,0,0,1-3.54-4.36A13.17,13.17,0,0,0,68.7,89.2a36.14,36.14,0,0,0-6.1-1.63c-2.69-.41-3.09,1.37-2.32,3.49a4.46,4.46,0,0,0,1.33,1.65,17.7,17.7,0,0,0,2.09,1.4,131.77,131.77,0,0,1,24.64,19.75c1.45,1.5,2.82,3.07,4.33,4.49a2.57,2.57,0,0,0,2,.71c5-1.41,10.4-2,14.43-5.93,1-1,1.21-1.14.13-2.24-4.5-4.6-9-9.22-13.54-13.77a39.24,39.24,0,0,0-5-4.27A23.76,23.76,0,0,0,78.64,88.2ZM278.81,27.52l-.52-.37a7.86,7.86,0,0,0-2.09,1.3c-1.06,1.23-1.91,2.64-2.88,3.95s-2.1,2.77-3.14,4.17a2.85,2.85,0,0,0-.53,1,4.51,4.51,0,0,0,1.68,5,36,36,0,0,1,8.35,9,10.3,10.3,0,0,0,7.86,4.9,58,58,0,0,0,6.59.3,10.45,10.45,0,0,1,7.63,2.87c1.21,1.12,1.78,1,2.55-.49a34.66,34.66,0,0,0,3.37-10.07,15.58,15.58,0,0,0,0-4.26c-.19-1.57-.93-1.88-2.34-1.18a18.89,18.89,0,0,0-7.48,6.39c-.78,1.16-1.57,2.32-2.38,3.46-.42.6-.91,1.25-1.75.73s-.7-1.33-.23-2.09c.73-1.19,1.42-2.41,2.19-3.57a18.38,18.38,0,0,0,2.9-10.46c0-1.46-.89-1.92-2-1a9.54,9.54,0,0,0-2.1,2.42c-1,1.6-1.79,3.3-2.68,4.95a9.79,9.79,0,0,1-1.26,2.16,2.46,2.46,0,0,1-1.78.75c-.94-.11-1.23-1-1-1.84a5.85,5.85,0,0,1,.65-1.78c1.37-2.29,2.82-4.54,4.19-6.84a4.27,4.27,0,0,0,.25-1.42,4,4,0,0,0-1.4.13,11.44,11.44,0,0,0-4.9,4.79c-1,1.87-1.94,3.76-3,5.6a10.65,10.65,0,0,1-1.73,2.27c-.33.32-1.3.57-1.41.42a3.48,3.48,0,0,1-.54-1.68c0-.26.26-.56.42-.84,1.48-2.74,3.14-5.4,4.4-8.23a29.89,29.89,0,0,0,1.58-6,1.48,1.48,0,0,0-.53-1.31,2.45,2.45,0,0,0-1.53.24,2.8,2.8,0,0,0-.81.7,22.44,22.44,0,0,0-4.68,6.76,29,29,0,0,1-1.56,3.1c-.25.39-.88.53-1.33.79a5.64,5.64,0,0,1-.75-1.49,3.07,3.07,0,0,1,.31-1.38c1.08-3.3,2.2-6.59,3.25-9.9A9,9,0,0,0,278.81,27.52Zm151.65,91c2.9.64,5.64,1.29,8.4,1.81.34.07,1.06-.48,1.19-.88,1.33-4,3.79-7.45,6.06-11,3.76-5.85,7.28-11.84,11-17.69a26.43,26.43,0,0,0,4.07-10.27,28.43,28.43,0,0,0,.47-5.12c-.05-2.33-2.11-3.4-4.17-2.31a7.44,7.44,0,0,0-1.1.72,25.27,25.27,0,0,0-7.72,10.22c-1.79,4.61-3.62,9.21-5.43,13.82-2.9,7.39-6.62,14.27-12.3,20A5,5,0,0,0,430.46,118.56Zm82.3-8.29,3.79-.92a36.5,36.5,0,0,0,16.85-8.67,25.76,25.76,0,0,1,5.83-3.94,5.5,5.5,0,0,0,3.18-3.9c.17-.74.41-1.46.58-2.2a55,55,0,0,1,6.08-15.93,9.62,9.62,0,0,0,.85-3.43c.06-.38-.31-.83-.49-1.25a5.05,5.05,0,0,0-1.11.57,13.16,13.16,0,0,0-4.23,7,55.18,55.18,0,0,1-7.51,17A41.74,41.74,0,0,1,533,99.32a1.85,1.85,0,0,1-1.54.53c-.39-.09-.76-.74-.92-1.22-.11-.31.15-.76.29-1.13A105,105,0,0,1,539,80.34a50.36,50.36,0,0,0,2.6-4.72,6.94,6.94,0,0,0,.26-2.22c-.72.11-1.62,0-2.11.36a26.69,26.69,0,0,0-4.28,3.94,51.63,51.63,0,0,0-8.16,15.1,39.44,39.44,0,0,1-5,10.15,4,4,0,0,1-1.48,1.32,1.87,1.87,0,0,1-1.63-.18,2,2,0,0,1-.53-1.55,6.35,6.35,0,0,1,.82-2c2.36-4.39,4.8-8.75,7.08-13.19A23.85,23.85,0,0,0,528,82.87a3.16,3.16,0,0,0-.16-1.23c-.44.08-1,0-1.3.26a25.5,25.5,0,0,0-3.7,3.87c-3.12,4.6-5.83,9.38-6.92,15C515.29,103.93,513.89,106.94,512.76,110.27Zm-163.89-58L349,52,348,51.11c-5.83-4.53-12.24-8.09-18.67-11.68a41.88,41.88,0,0,0-14.24-5c-2.58-.4-5.16-.91-7.26-2.59q-3.8-3-7.42-6.26a5,5,0,0,1-1.52-2.37,4.24,4.24,0,0,0-3.63-3.34L279,16.1a7.65,7.65,0,0,0-1.32-.07c2.87,2.82,5.7,5.56,8.5,8.35a8,8,0,0,0,6.37,2.45,8.14,8.14,0,0,1,4,.85c2.69,1.39,5.28,3,7.83,4.65a17.47,17.47,0,0,1,5.71,6.21C311.48,41,313,43.42,314.24,46a26.7,26.7,0,0,1,1.34,4.4c.11.38.2.77.29,1.16l.44.11A14.43,14.43,0,0,0,317.9,49c.84-2.53,1.9-3.39,4.59-3.54,4.18-.23,8.22.77,12.16,1.8,4.5,1.17,8.8,3.07,13.19,4.65Zm52.51,100,0,.36c.19.13.36.33.56.38,3.05.67,6,1.31,9.27.61A102.32,102.32,0,0,1,423,151.88c5.56-.55,11.1.27,16.64.69A146.77,146.77,0,0,1,460,156a8.56,8.56,0,0,0,4,.08C469,154.6,474,152.94,479,151.32a10.62,10.62,0,0,0,1.87-1.11c-.81-.35-1.25-.6-1.72-.75a52.71,52.71,0,0,0-13.46-2.17c-7.23-.28-14.46-.3-21.7-.39a36.39,36.39,0,0,0-4.43.19c-9.41,1.08-18.82,2.14-28.21,3.33C408,150.85,404.71,151.63,401.38,152.25ZM89.62,119.52a14.53,14.53,0,0,0-1.13-1.07c-3.94-2.88-7.87-5.76-11.84-8.59A83.6,83.6,0,0,1,60.91,96a11.6,11.6,0,0,0-5.64-3.87c-1.84-.53-3.72-.91-5.59-1.31a5.6,5.6,0,0,0-4.39.63,1.87,1.87,0,0,0-.84,2.66,7.82,7.82,0,0,0,.8,1.33,23.8,23.8,0,0,0,6.54,5.74c2.66,1.7,5.44,3.25,7.92,5.18,4.54,3.54,8.92,7.28,13.33,11a9.57,9.57,0,0,0,4.8,2.22c3.58.59,7.15.31,10.73.28A4.81,4.81,0,0,0,89.62,119.52Zm354.71,1.22a3.29,3.29,0,0,0,.74.27c2.35.14,4.7.33,7.06.34a2.34,2.34,0,0,0,1.46-1c1-1.39,1.9-2.86,2.84-4.3a198.34,198.34,0,0,0,12.95-22,23,23,0,0,0,2.74-11.16c-.06-1.32-.29-1.6-1.63-1.62a6.63,6.63,0,0,0-4.77,2.18,28.74,28.74,0,0,0-6.09,8.69c-1.59,3.4-3.08,6.84-4.58,10.28-2.66,6.1-5.63,12-10,17.09A7.91,7.91,0,0,0,444.33,120.74ZM457.8,122a11.64,11.64,0,0,0,1.27.4c1.84.34,3.71.58,5.54,1a2.16,2.16,0,0,0,2.58-1.18c2.72-4.51,5.52-9,8.17-13.53,2.54-4.38,5.18-8.74,6.44-13.71a43.08,43.08,0,0,0,1.1-6.47c.15-1.5-.72-2.19-2.19-1.82a7.22,7.22,0,0,0-2.93,1.42,30.32,30.32,0,0,0-8.12,11.69,104.14,104.14,0,0,1-11.24,21.09C458.22,121.12,458.08,121.45,457.8,122ZM278.22,24.55c-.86-.91-1.54-1.74-2.33-2.45-1.81-1.63-3.59-3.31-5.53-4.76-1.48-1.1-2.28-.84-3.53.51a3.61,3.61,0,0,1-1.38,1.1,42,42,0,0,1-7.5,2,68.72,68.72,0,0,1-19.84-.58,81,81,0,0,0-17.5-1.56,18.43,18.43,0,0,0-6.75,1.89c-.29.13-.49.45-1,.92.89.05,1.42.11,2,.1,5.38,0,10.73.33,15.79,2.31a22.58,22.58,0,0,0,9.25,1.6,33.63,33.63,0,0,1,9,.67,29.24,29.24,0,0,0,5.45.6c3.3.11,6.64-.31,9.83,1,.22.08.91-.4,1-.74a10.79,10.79,0,0,0,.43-2.59,11.4,11.4,0,0,0-.14-1.84l-1.54.7c-.08,0-.14.11-.21.11-.45,0-.9,0-1.35-.07.05-.48-.06-1.07.18-1.42a5.89,5.89,0,0,1,1.49-1.36,2.34,2.34,0,0,1,2.57-.42,2.53,2.53,0,0,1,1.24,2.43c0,.7.08,1.4.14,2.31.63-.33,1.06-.53,1.47-.76s.88-.56,1.34-.78c1.5-.7,2.84-.33,3.5,1,.81,1.56,1.12,1.65,2.69.79ZM124.74,108.71l.06-.44c-.36-.29-.72-.6-1.09-.87-1.95-1.4-4-2.69-5.83-4.22-4-3.29-7.77-6.78-11.76-10-3.53-2.88-7.45-5.12-12.07-5.74-.87-.12-2.2,0-2.63.59-.65.86.39,1.71,1,2.44a14,14,0,0,0,1,1.06c2,1.93,4,3.85,5.91,5.8q6.21,6.17,12.39,12.38c.72.72,1.49,1.33,2.53.84a16.06,16.06,0,0,1,6.19-1.24C121.85,109.19,123.29,108.91,124.74,108.71Zm229.9-40.36-.46-.25a13.13,13.13,0,0,0-1.85,1.32,44.63,44.63,0,0,0-9.82,15.86c-1.4,3.73-2.73,7.49-5,10.86a2.38,2.38,0,0,0,0,2,54.67,54.67,0,0,0,2.65,5c.94,1.6,1.44,1.61,2.41,0,6-9.57,10.36-19.77,11.86-31C354.59,70.85,354.57,69.59,354.64,68.35ZM215.38,52.13c-.39.14-.67.15-.81.3-1.93,2-4.3,3.75-4.83,6.8-.4,2.33-1.78,4.16-3.21,5.94a1.27,1.27,0,0,1-2.36-.42,2.86,2.86,0,0,1,0-1.85,55.71,55.71,0,0,1,2.89-5.32,5.1,5.1,0,0,0,.95-3.37c-.13-1.19-.72-1.55-1.81-1.1a3.27,3.27,0,0,0-1.2.75c-1.25,1.54-2.48,3.09-3.61,4.71-.76,1.07-1.31,2.28-2,3.39a1.3,1.3,0,0,1-1.89.42,1.23,1.23,0,0,1-.44-1.85c.2-.39.47-.75.64-1.15.8-1.78,1.6-3.55,2.32-5.36a6.23,6.23,0,0,0,0-1.89,7.94,7.94,0,0,0-1.67,1.07c-1.51,1.7-2.95,3.45-4.41,5.19-.23.27-.37.62-.6.89-.92,1-1.67.92-2.25-.33-.16-.34-.31-.69-.58-1.29l-3.41,3.11C194.21,66.18,202.63,68,211,71c-1.07-1.59-.44-2.75.25-3.9.31-.51.58-1,.91-1.54a21.3,21.3,0,0,0,3.43-12A11.63,11.63,0,0,0,215.38,52.13ZM471,123.43a4,4,0,0,0,.8.33c1.58.19,3.17.3,4.73.58a1.31,1.31,0,0,0,1.75-1.09,42.09,42.09,0,0,1,7.47-13.56,18.84,18.84,0,0,0,2.86-5.32,38,38,0,0,0,1.44-6.29,31.42,31.42,0,0,0,.45-4.64c0-1.38-.7-1.84-1.93-1.33a2.76,2.76,0,0,0-1.07.73,23.6,23.6,0,0,0-2.38,3.28c-1.54,2.84-2.92,5.77-4.4,8.64-3,5.86-5.39,12-9.16,17.49A8.8,8.8,0,0,0,471,123.43Zm-335.68-17V106c-.22-.23-.43-.47-.65-.68-4.9-4.66-9.87-9.24-14.66-14a22.77,22.77,0,0,0-10.46-5.78,19.53,19.53,0,0,0-3-.49,1.08,1.08,0,0,0-1.26,1.12,4.16,4.16,0,0,0,1.49,4c1.1.87,2.18,1.76,3.29,2.61,5.9,4.46,12,8.68,17.12,14.08a1.66,1.66,0,0,0,1.14.54C130.7,107.14,133,106.78,135.33,106.46ZM482,124.17a5.4,5.4,0,0,0,.95.2c2.32,0,4.63,0,6.95-.06a2.09,2.09,0,0,0,1.89-1.43c1.6-3.43,3.22-6.85,4.77-10.31a14.6,14.6,0,0,0,1-7.62,1.75,1.75,0,0,0-2.65-1.56,3.09,3.09,0,0,0-1.19.78c-1.58,1.94-3.48,3.73-4.58,5.92-2.32,4.58-4.2,9.39-7.11,13.67C482,123.81,482,123.91,482,124.17ZM335.88,92.36a12,12,0,0,0,1-1.33,61.39,61.39,0,0,0,6.51-18.92c.29-1.81.62-3.63.76-5.45a7.87,7.87,0,0,0-.53-2.31,9.6,9.6,0,0,0-2,.84,10.94,10.94,0,0,0-4.15,5.28c-1.84,5.11-3.64,10.22-5.49,15.32-.35,1-.19,1.61.88,1.92a3.45,3.45,0,0,1,2.44,2.83C335.4,91.07,335.61,91.57,335.88,92.36Zm121.88,66,0-.46a15.31,15.31,0,0,0-2.05-.58c-6.28-.89-12.57-1.74-18.85-2.61a53.18,53.18,0,0,0-17.17-.06l-1.12.19a26,26,0,0,0,4.64,2,67.72,67.72,0,0,0,20.37,3.28,36.85,36.85,0,0,1,6.22.12,9.42,9.42,0,0,0,5.88-1Zm-334-72.49a7.51,7.51,0,0,0-1,0c-.89.09-1.81.16-2.09,1.25s.46,1.52,1.17,2l3.61,2.58a48.14,48.14,0,0,1,11.09,10.51c2.19,3,1.57,2.33,4.66,1,.91-.38,1-.88.32-1.62-1-1.17-2.05-2.35-3-3.6a6.47,6.47,0,0,1-1.58-4.3,3.79,3.79,0,0,0-2.41-4.22,10.62,10.62,0,0,1-1-.63A18.59,18.59,0,0,0,123.77,85.9Zm252.69-8.81-.24-.35-1.9.58c-3.25,1-6.44,2.17-9.74,2.86A5.86,5.86,0,0,0,359.86,84a37.25,37.25,0,0,1-4,7,13.94,13.94,0,0,0-2.59,5.3,8.85,8.85,0,0,1-2.95,5.23c-1.65,1.29-1,2.74-.95,4.23a3.49,3.49,0,0,0,.84-1C352.12,101.37,354,98,356,94.65c1.15-2,2.34-3.91,3.67-5.74a10.11,10.11,0,0,1,4.45-3.72c1.66-.64,2.58-.12,2.91,1.64.07.39.21.78.39,1.47C370,83.94,372.46,79.9,376.46,77.09Zm180-6.9a7.65,7.65,0,0,0-1.31.73,11.89,11.89,0,0,0-3.88,5.5c-.58,1.78-1.2,3.54-1.8,5.32-1.16,3.43-2.33,6.86-3.47,10.31a1.6,1.6,0,0,0,0,1.1c.08.14.67.12,1,0,.84-.23,1.67-.54,2.49-.83A3.09,3.09,0,0,0,551.62,90a25.68,25.68,0,0,1,.84-3.24c1.75-4.91,3.55-9.81,5.34-14.71C558.19,71,557.76,70.14,556.48,70.19Zm6.84,16,.46.38c2.08-.77,4.17-1.51,6.22-2.35a2.1,2.1,0,0,0,.9-1.07,78.61,78.61,0,0,0,3.29-7.83,20.57,20.57,0,0,0,.62-5.51,1.76,1.76,0,0,0-1-1.41,2.76,2.76,0,0,0-1.94.56,5.12,5.12,0,0,0-1.63,1.89C567.89,75.93,565.62,81.06,563.32,86.18Zm4.29-17.55a10,10,0,0,0-1.08-2.14c-.14-.17-1.11.09-1.46.41-2.66,2.42-4.91,5.11-5.48,8.87a41.23,41.23,0,0,1-1.08,4.65c-.73,2.7-1.52,5.37-2.26,8.06a2.74,2.74,0,0,0,.1,1c.3-.12.72-.16.88-.38a17.72,17.72,0,0,0,1.53-2.4c1.24-2.45,2.37-5,3.64-7.4,1.16-2.22,2.52-4.35,3.66-6.58A36.76,36.76,0,0,0,567.61,68.63ZM180.43,98.4l.19-.47c-2.52-2.2-5-4.51-7.61-6.52a12,12,0,0,0-4.19-1.6c-1.07-.28-2.37-.39-3,.75s.12,2.18.85,2.9c1.52,1.51,3.24,2.81,4.86,4.23C174.34,100.19,177.41,98.85,180.43,98.4Zm31-27.24c1,.42,1.89.75,2.72,1.11a1.08,1.08,0,0,0,1.62-.67,47.5,47.5,0,0,1,6.14-9.81,12,12,0,0,0,2.43-5.65,22.76,22.76,0,0,0,0-2.77,13.43,13.43,0,0,0-1.45,1.08A38.1,38.1,0,0,0,215,66.36,9.85,9.85,0,0,1,211.43,71.16ZM140.7,90.7l-.06.49a2,2,0,0,0,.29.51c2.71,2.81,5.4,5.66,8.2,8.38a4.22,4.22,0,0,0,2.48,1,17.59,17.59,0,0,0,3.45-.28,8.92,8.92,0,0,0,1.15-.31,6.52,6.52,0,0,0-.71-1.11c-1.95-1.89-3.87-3.81-5.9-5.6a11.88,11.88,0,0,0-6.52-3A21,21,0,0,0,140.7,90.7Zm22.18,9.51c1.35-.11,2.71-.17,4.05-.33.74-.09,1.1-.41.48-1.19a15.88,15.88,0,0,0-7-5.39c-1.91-.67-3.88-1.22-5.84-1.7a7.1,7.1,0,0,0-2.09.12,6.91,6.91,0,0,0,1,2c1.84,1.77,3.82,3.39,5.69,5.13A5.13,5.13,0,0,0,162.88,100.21ZM513.8,96.75l-.32-.18a16.78,16.78,0,0,0-1.17,1.36c-4.51,6.49-9,13-13.53,19.47a4.64,4.64,0,0,1-1.88,1.3,2.16,2.16,0,0,0-1.23,2.57c1-.91,2-1.67,2.92-2.56a30.25,30.25,0,0,1,8-6.21,3.23,3.23,0,0,0,1.32-1.46c1.91-4.3,3.75-8.63,5.6-13A7.13,7.13,0,0,0,513.8,96.75Zm-72.1-1.33-13.85,21.64C431.44,115.9,441.21,100.55,441.7,95.42ZM44.17,98c-.73-1.37-1.32-2.39-1.83-3.45a1.08,1.08,0,0,0-1.62-.62c-2.28,1-4.58,1.84-6.86,2.77a13.6,13.6,0,0,0-1.23.7c1.47.69,2.77,1.27,4,1.91.74.37,1.16.18,1.54-.52C39,97.42,39.5,97.2,41,97.48,42,97.64,42.88,97.78,44.17,98ZM574.11,82.44l.33.37c1.41-.51,2.86-.94,4.22-1.54a3.75,3.75,0,0,0,2.16-3c.2-1.14.46-2.27.6-3.42a4.74,4.74,0,0,0-.24-1.41,4.51,4.51,0,0,0-1.27.74c-1.16,1.36-2.31,2.75-3.34,4.22C575.66,79.7,574.92,81.1,574.11,82.44ZM179.39,92.82c.22.46.27.76.45.93,1.46,1.35,2.87,2.78,4.44,4a5.82,5.82,0,0,0,5.82.27C186.76,95.91,184.06,92.66,179.39,92.82ZM300.3,43.76l.29.26c1.51-.92,3.07-1.79,4.51-2.81a1.51,1.51,0,0,0,0-1.45,40.53,40.53,0,0,0-3.43-3.25c-.48-.4-.93-.22-1,.47C300.58,39.24,300.44,41.5,300.3,43.76ZM94.63,109.3a54.67,54.67,0,0,0-14.4-13.06A65.05,65.05,0,0,0,94.63,109.3ZM49.87,88v.43c.18.14.34.35.54.41l6.35,1.71c.76.2.79-.28.93-.85a27,27,0,0,1,1-3,9.48,9.48,0,0,1,.55-1Zm89.72,5.43-.45.2a6.13,6.13,0,0,0,.25,1.56,17.53,17.53,0,0,0,4.81,6.16,1.83,1.83,0,0,0,2.85-.2A69.8,69.8,0,0,0,139.59,93.38ZM414.18,85.6c-2.13,2.29-6.79,13.84-7,17.4C409,100.87,413.93,88.61,414.18,85.6ZM273,26.94c-.36-.63-.49-1.17-.8-1.3a1.43,1.43,0,0,0-1.13.35,20.47,20.47,0,0,0-1.91,1.82c-2,2.08-2,2.19-.17,4.43.1.13.18.33.3.36.27,0,.75.11.81,0C271.08,30.71,272,28.8,273,26.94ZM248.26,15.66a2.38,2.38,0,0,0,.52.15c4.27.21,8.54.35,12.75-.65a3.39,3.39,0,0,0,.89-.58l-.13-.36C257.5,13.3,252.91,14.74,248.26,15.66ZM342.65,107c.45.62.89,1.31,1.42,1.93s1.05.62,1.36-.27c.42-1.2,1-2.37,1.26-3.6a4.62,4.62,0,0,0-.14-2.24c-.22-.78-.79-.85-1.28-.14-.75,1.08-1.49,2.17-2.21,3.27A6.77,6.77,0,0,0,342.65,107ZM81,110c-3.39-3.6-11.35-9.7-13-10.07A66.59,66.59,0,0,0,81,110ZM443.85,117a37.1,37.1,0,0,0,7-11.14A44.79,44.79,0,0,0,443.85,117ZM292.55,32.67l0-.33a17.6,17.6,0,0,0-2.14-.53c-1.57-.2-2,.19-2.06,1.76,0,.82.33,1.14,1.1.75C290.48,33.78,291.51,33.22,292.55,32.67ZM237.14,70.8l.34.26a17.56,17.56,0,0,0,4.2-6.72l-.32-.2Q239.26,67.47,237.14,70.8Zm46.09-42a5.22,5.22,0,0,0-1.29-.78c-.25-.06-.79.18-.84.38a20.12,20.12,0,0,0-.3,2.51Z"/>
        <path d="M600,141c-5.27,0-10.55,0-15.82,0a2.41,2.41,0,0,1-2.57-2.31,2.48,2.48,0,0,1,2.69-2.45c5.23,0,10.47,0,15.7,0Z"/>
    </g>
</svg>