<svg id="Layer_1" data-name="Layer 1" xmlns="http://www.w3.org/2000/svg" viewBox="0 0 600 206.57">
    <defs>
        <style>
            .sky-1{fill:#b2bfc8;}
            .sky-2{fill:#b8c6c1;}
            .sky-3{fill:#9abdbe;}</style>
    </defs>
    <title>облачка2</title>
    <g id="покрас">
        <polygon class="sky-1"
                 points="28.65 0.19 26.08 2.81 26.07 2.81 23.31 5.62 23.31 5.63 20.05 8.94 13.92 8.76 11.65 8.7 8.01 5.51 1.94 0.19 28.65 0.19"/>
        <polygon class="sky-2"
                 points="116.3 11.41 110.38 16.84 88.16 15.36 80.02 19.06 73.11 27.45 66.2 31.65 69.65 33.62 73.87 31.76 73.9 31.74 80.27 28.93 84.96 28.93 83.18 31.2 81.34 33.55 75.08 41.52 67.68 38.81 67.29 38.86 54.85 40.53 40.53 42.76 31.89 36.59 22.51 22.76 22 20.58 21.22 17.21 20.05 12.15 20.4 11.44 23.31 5.62 24.24 3.76 26.08 2.81 31.13 0.19 103.58 0.19 107.11 2.15 107.12 2.16 110.87 4.25 116.3 11.41"/>
        <polygon class="sky-3"
                 points="40.53 42.76 38.67 44.78 37.81 45.71 35.27 45.67 23.33 45.47 0.6 38.4 0.01 38.22 0.01 0.19 3.7 2.03 8 5.5 8.01 5.51 10.08 7.18 13.91 8.76 13.92 8.76 14.25 8.9 20.05 8.94 20.4 11.43 20.4 11.44 21.22 17.21 21.23 17.24 21.61 19.94 22 20.57 22 20.58 31.89 36.59 40.53 42.76"/>
        <polygon class="sky-3"
                 points="171.57 18.47 167.09 32.4 167.08 32.41 166.91 32.95 161.02 40.56 150.46 44.48 142.86 56.02 139.08 55.61 133.78 55.04 133.57 55.08 128.38 56.02 118.56 52.34 112.45 45.71 111.2 44.34 110.73 43.83 109.97 43.01 107.27 35.89 107.27 28.78 98.67 26.15 98.43 26.08 87.14 27.8 78.8 29.02 73.87 31.76 72.17 32.7 69.65 33.62 66.2 31.65 73.11 27.45 79.29 20.43 88.16 15.36 100.89 15.03 110.38 16.84 116.3 11.41 107.11 2.15 105.16 0.19 165.46 0.19 166.2 4.28 166.21 4.29 166.42 5.46 171.57 18.47"/>
        <polygon class="sky-2"
                 points="82.73 31.48 75.12 42.77 75.12 54.06 68.25 54.06 61.87 59.7 58.92 75.9 56.22 84.98 62.36 86.46 70.21 85.23 75.12 75.9 84.69 73.2 91.32 65.35 95.98 50.62 101.62 45.96 111.44 45.47 107.27 35.9 107.27 28.78 100.64 25.84 88.62 27.8 82.73 31.48"/>
        <polygon class="sky-1"
                 points="75.12 54.06 68.25 54.06 61.86 59.7 59.17 71.97 49.59 70.5 46.11 71.61 42.48 72.77 38.79 73.94 31.51 79.85 30.94 80.32 19.16 83.75 15.84 83.94 9.75 84.29 6.15 84.49 1.9 83.86 0.01 83.57 0.01 38.69 0.6 38.4 0.61 38.4 1.24 38.1 23.33 45.47 35.11 45.71 35.26 45.67 35.27 45.67 38.67 44.78 38.68 44.77 54.85 40.53 65.79 38.35 67.29 38.86 75.08 41.52 75.12 54.06"/>
        <polygon class="sky-1"
                 points="192.43 20.68 190.74 28.86 189.96 32.61 189.96 32.62 189.49 34.91 186.81 38.24 186.8 38.26 182.14 44.05 179.43 47.43 169.85 54.06 155.86 58.47 142.86 56.02 148.26 49.64 150.46 44.48 161.02 40.56 167.08 32.41 167.09 32.4 168.14 30.99 171.57 18.47 169.12 10.12 166.21 4.29 166.2 4.28 164.16 0.19 190.37 0.19 190.47 3.74 187.77 10.12 191.68 18.97 191.68 18.98 192.43 20.68"/>
        <polygon class="sky-2"
                 points="263.21 0.19 262.58 1.24 260.38 4.88 259.44 6.44 256.57 7.59 252.67 9.15 249.62 10.37 246.2 9.33 245.76 9.19 240.78 7.67 234.4 3.01 227.53 12.33 225.77 13.15 220.87 15.43 216.98 17.24 212.93 17.48 209.66 17.68 204.7 17.98 204.9 23.03 205.16 29.46 205.2 30.49 202.69 33.88 196.43 42.33 196.42 42.34 196.11 42.77 193.22 43.75 193.15 43.77 187.46 45.71 184.58 46.69 184.63 45.71 184.82 41.78 186.8 38.26 186.81 38.24 189.96 32.62 189.96 32.61 190.47 31.72 190.74 28.86 191.68 18.98 191.68 18.97 191.7 18.71 187.77 10.12 189.32 0.19 263.21 0.19"/>
        <polygon class="sky-2"
                 points="198.57 44.73 191.7 57.74 200.29 59.7 205.19 64.37 210.59 77.87 213.29 89.89 206.91 102.41 198.32 105.84 192.92 107.32 184.58 104.62 180.41 96.76 180.65 88.42 183.84 84 180.65 82.28 169.36 81.55 162 85.47 156.85 94.8 158.32 103.88 161.75 110.26 161.51 117.13 155.13 122.29 147.52 124.99 136.72 122.29 126.9 114.93 121.75 108.79 113.41 106.58 108.74 98.73 107.27 87.68 112.91 71.48 114.39 60.44 118.56 52.34 126.66 56.02 130.34 56.27 135 54.55 146.29 57.49 155.86 58.48 169.85 54.06 182.37 45.72 188.75 45.72 198.81 41.3 198.57 44.73"/>
        <polygon class="sky-3"
                 points="393.76 23.52 390.9 30.66 390.9 30.67 388.64 36.31 386.35 38.21 386.34 38.22 376.08 46.78 365.85 53.29 349.1 53.99 336.77 50.27 330.73 43.06 330.49 37.71 325.58 39.68 324.68 40.04 323.96 41.42 323.95 41.43 321.64 45.92 321.63 45.94 321.19 46.78 321.19 60.74 315.61 63.53 311.47 62.22 311.45 62.21 306.77 60.74 301.19 55.39 300.02 50.27 288.86 44.22 285.84 39.11 282.35 32.13 283.97 26.31 288.08 21.75 288.16 21.66 288.09 21.59 284.67 17.94 272.11 10.73 267 10.5 265.84 11.18 265.83 11.19 261.88 13.52 260.02 15.85 252.81 14.68 244.9 17.71 243.74 19.78 241.76 23.31 241.64 23.54 240.25 33.76 240.03 34.13 240.02 34.14 237.69 37.94 231.87 41.66 227.69 44.22 222.34 51.9 222.24 52.61 222.24 52.62 221.58 57.57 221.58 57.58 221.41 58.88 222.02 60.23 222.02 60.24 225.83 68.65 225.83 73.06 225.94 73.37 225.94 73.38 226.93 76.08 227.69 78.18 235.13 83.07 234.3 88.46 234.3 88.47 234.2 89.11 231.87 95.16 227.45 100.74 227.42 100.77 227.41 100.77 223.36 103.98 221.87 105.16 220 105.76 219.99 105.76 216.75 106.8 216.06 107.02 208.38 107.49 207.79 107.3 202.57 105.63 205.54 102.96 205.55 102.95 207.54 101.16 207.55 101.15 209.31 99.58 213.29 89.89 212.1 80.04 210.44 77.48 210.44 77.47 209.08 75.39 208.51 72.66 208.51 72.64 207.68 68.65 204.43 62.6 200.29 59.7 191.7 57.74 197.45 48.18 198.11 45.6 198.66 43.45 199.77 39.11 202.69 33.88 205.16 29.46 205.36 29.1 204.9 23.03 204.43 16.78 209.66 17.68 211.17 17.94 212.93 17.48 220.87 15.43 224.66 14.45 225.77 13.15 234.4 3.01 239.55 6.31 245.76 9.19 246.06 9.33 246.2 9.33 252.67 9.15 254.44 9.1 256.57 7.59 260.38 4.88 261.65 3.98 262.58 1.24 262.94 0.19 334.13 0.19 339.34 6.31 339.35 6.32 340.73 7.94 341.54 8.24 344.64 9.39 344.67 9.4 347.01 10.26 348.75 10.18 361.89 9.57 361.66 16.31 358.41 24.68 353.29 29.34 349.1 31.9 351.89 33.99 352.93 34.03 352.94 34.04 357.67 34.24 357.68 34.24 362.59 34.45 373.44 32.55 375.85 32.13 384.46 26.78 390.97 18.87 393.76 23.52"/>
        <polygon class="sky-3"
                 points="489.66 22.14 482.82 29.25 482.8 29.27 480.3 31.86 477.22 33.26 473.01 35.17 473 35.17 472.66 35.33 463.99 33.94 463.3 38.45 460.52 45.39 458.32 46.26 443.87 51.98 427.56 49.55 413.69 38.1 411.95 27.7 402.93 28.39 396.69 24.57 390.97 18.87 390.14 8.62 390.14 8.6 390.09 7.92 392.26 0.19 481.07 0.19 488.97 9.31 489.66 22.14"/>
        <polygon class="sky-2"
                 points="364.73 0.19 364.38 2.06 361.66 16.31 358.41 24.68 349.1 31.9 352.93 34.03 352.94 34.04 354.01 34.63 357.67 34.24 357.68 34.24 373.44 32.55 384.46 26.78 390.97 18.87 389.75 10 390.14 8.62 390.14 8.6 392.52 0.19 392.26 0.19 365 0.19 364.73 0.19"/>
        <polygon class="sky-1"
                 points="364.73 0.19 334.13 0.19 332.37 0.19 339.34 6.31 339.35 6.32 341.54 8.24 342.34 8.94 344.64 9.39 344.67 9.4 348.75 10.18 349.73 10.37 361.89 9.57 364.38 2.06 365 0.19 364.73 0.19"/>
        <polygon class="sky-1"
                 points="498.72 12.89 495.41 20.01 489.66 22.14 488.97 9.31 479.42 0.36 479.38 0.19 497.7 0.19 497.96 0.93 498.13 3.61 498.72 12.89"/>
        <polygon class="sky-2"
                 points="581.43 0.19 568.95 7.55 552.92 9.58 551.14 17.72 550.01 19.31 544.27 27.39 543.15 28.15 539.32 30.75 537.14 32.23 528.24 32.99 514.75 26.12 512.97 20.27 503.56 24.08 493.89 23.32 498.72 12.89 498.47 4.49 498.13 3.61 496.81 0.19 581.43 0.19"/>
        <polygon class="sky-1"
                 points="544.32 32.75 561.02 24.08 570.01 22.47 575.26 22.92 571.68 17.73 564.88 15.41 556.12 15.59 548.78 20.06 543.06 28.29 539.48 32.4 544.32 32.75"/>
        <polygon class="sky-3"
                 points="599.99 0.19 599.99 46.33 587.16 50.03 577.56 49.36 568.18 45.79 560.37 49.36 537.54 50.63 537.52 50.63 532.24 50.92 529.69 49.74 529.66 49.73 518.18 44.45 513.94 38.42 512.6 35.07 504.79 35.07 496.53 31.28 490.28 23.91 503.56 24.08 512.97 20.27 514.75 26.12 528.24 32.99 544.32 32.75 558.36 25.69 567.4 22.94 567.43 22.93 567.44 22.93 568.63 22.57 569.27 22.6 569.29 22.6 575.26 22.92 571.68 17.73 564.88 15.41 556.12 15.58 551.14 17.72 552.92 9.58 567.07 7.39 580.72 0.19 599.99 0.19"/>
        <polygon class="sky-1"
                 points="599.99 45.49 599.99 74.23 586.22 73.44 583.55 71.53 573.92 64.65 562.49 65.23 560.42 63.79 542.28 51.17 560.37 49.36 568.18 45.79 577.56 49.36 587.16 50.03 599.99 45.49"/>
        <polygon class="sky-2"
                 points="577.43 71.09 568.64 76.37 562.49 83.99 553.12 81.64 541.4 70.51 532.02 67.87 515.03 69.04 509.46 70.51 501.84 66.41 499.79 59.96 500.96 53.22 506.82 47.66 519.71 45.6 529.38 49.71 542.27 51.17 560.15 63.77 573.92 64.65 580.95 71.68 577.43 71.09 577.43 71.09"/>
        <polygon class="sky-1"
                 points="495.4 33.01 492.76 41.5 484.85 48.24 474.89 50.29 473.71 57.91 466.98 65.53 458.19 68.75 450.57 70.8 445 69.92 441.78 76.08 445.88 80.47 444.41 87.8 440.9 96 444.41 105.96 449.39 108.89 463.75 110.65 472.54 112.11 476.64 118.85 486.9 122.37 491 126.18 491 133.21 495.69 135.55 503.89 133.21 509.46 128.23 511.51 120.03 510.63 110.06 505.94 101.57 498.32 96.59 495.1 88.97 488.36 84.28 483.09 83.4 474.59 88.67 473.13 85.75 475.47 76.08 479.57 71.68 486.9 68.46 489.24 63.77 493.35 60.25 499.79 59.96 500.96 53.22 506.82 47.66 514.73 45.31 518.18 44.45 513.94 38.42 512.6 35.07 504.79 35.07 495.4 33.01"/>
        <polygon class="sky-2"
                 points="562.49 83.99 550.48 81.06 543.74 72.27 534.95 67.58 520.59 67.58 509.46 70.51 501.84 66.41 499.79 59.96 489.83 61.72 486.9 68.46 477.52 74.03 474.3 81.64 474.3 91.02 477.82 85.45 483.09 83.4 490.12 85.16 495.1 88.97 498.32 96.59 504.19 100.69 510.63 102.45 520.3 100.1 527.04 104.79 533.49 107.72 541.1 109.19 547.26 107.13 552.24 103.62 542.57 98.93 540.52 91.31 551.07 92.48 557.22 90.14 562.49 83.99"/>
        <polygon class="sky-3"
                 points="599.99 74.07 599.99 106.27 595.6 106.84 589.74 110.65 578.23 106.81 576.56 106.25 575.98 105.17 574.21 101.86 571.28 99.81 563.08 103.03 557.5 103.33 552.24 103.61 542.57 98.93 540.52 91.31 551.07 92.48 557.22 90.14 568.94 77.83 577.43 71.09 580.59 71.32 583.55 71.53 585.64 71.68 599.99 74.07"/>
        <polygon class="sky-3"
                 points="330.49 37.71 330.73 43.06 336.77 50.27 349.1 53.99 365.85 53.3 378.78 46.78 381.42 51.76 390.8 56.15 404.86 54.1 407.79 53.52 418.63 55.57 429.47 50.29 443.87 51.98 458.19 46.48 463.3 38.45 463.99 33.94 474.3 35.35 490.28 23.91 496.53 31.28 492.76 41.5 487.19 47.07 474.89 50.29 473.71 57.91 466.98 65.53 455.25 69.63 445 69.92 439.14 76.66 429.47 81.94 418.04 82.81 402.81 76.66 399.29 83.11 393.43 85.75 389.62 85.45 386.4 81.35 379.37 81.35 374.39 84.28 373.22 90.14 370.29 93.07 371.46 101.27 366.48 104.79 350.07 105.96 337.76 114.17 324.29 116.51 308.76 108.01 312.86 104.2 319.6 98.34 328.68 97.76 339.52 88.09 340.11 81.94 345.38 81.94 347.43 81.94 354.76 83.99 363.55 82.23 370.29 76.37 377.9 65.82 369.7 65.82 367.06 62.3 357.69 64.94 353.58 68.75 351.24 64.65 345.97 66.41 342.16 71.09 345.67 79.59 343.77 80.94 340.29 81.06 329.22 73.1 322.25 62.16 320.39 50.59 322.38 43.13 327.11 38.03 330.49 37.71"/>
        <polygon class="sky-1"
                 points="288.23 19.62 272.11 10.73 263.01 11.39 260.02 15.85 252.81 14.69 243.54 19.89 240.25 26.2 239.97 36.07 237.69 37.95 227.69 44.23 221.06 54.44 222.7 64.31 225.83 68.65 225.99 75.28 235.13 83.07 245.46 84.33 250.67 90.09 261.36 94.47 273.15 94.2 286.04 86.52 299.75 85.7 308.8 78.3 314.01 67.33 313.18 63.22 306.06 59.1 301.19 55.39 300.02 50.27 288.86 44.23 285.84 39.11 282.35 32.13 283.98 26.32 287.96 23.46 288.23 19.62"/>
        <polygon class="sky-3"
                 points="75.12 75.9 80.99 75.86 82.01 85 79.63 90.09 70.23 94.73 69.13 101.61 60.12 107.5 52.23 112.69 46.41 115.81 34.78 114.14 28.14 107.5 29.18 99.61 31.67 95.25 31.88 83.2 36.86 75.72 44.75 71.57 59.16 71.98 55.97 86.73 71.33 84.24 75.12 75.9"/>
        <polygon class="sky-3"
                 points="113.41 106.58 107.38 117.19 101.6 122.64 90.38 124.56 101.92 140.59 113.41 143.31 129.43 144.8 148.1 156.36 160.65 160.82 179.81 162.14 196.66 158.67 199.14 155.86 186.58 146.28 182.62 139.18 171.39 134.56 164.94 140.5 161.31 145.79 157.18 141.33 157.18 132.9 163.62 122.99 161.51 117.13 153.38 123.16 140.33 124.48 130.09 117.71 121.75 108.79 113.41 106.58"/>
        <polygon class="sky-3"
                 points="209.35 139.1 220.92 133.46 232.12 123.87 235.77 116.78 245.6 109.24 251.08 91.65 262.51 94.39 273.15 94.2 277.13 102.84 271.65 115.18 263.88 125.24 255.2 130.95 247.2 133.69 237.6 141 228.69 142.38 215.21 141.46 209.35 139.1"/>
        <polygon class="sky-3"
                 points="58.45 136.89 58.32 136.95 55.22 138.45 55.21 138.45 48.02 141.92 48 141.93 45.65 143.06 44.29 143.08 44.28 143.08 38.11 143.19 38.1 143.19 32.17 143.29 24.17 139.63 16.7 140.26 10.69 140.77 0.01 137.52 0.01 116.25 1 116.17 1.09 116.17 13.66 115.18 15.29 115.95 15.3 115.95 16.17 116.36 16.19 116.37 17.54 117.01 26.36 122.52 26.37 122.52 28.51 123.86 36.51 123.86 39.46 121.99 39.48 121.98 43.36 119.52 43.37 119.53 48.62 129.8 51.56 131.92 56.46 135.46 56.47 135.47 58.45 136.89"/>
        <polygon class="sky-1"
                 points="183.67 82.73 175.45 81.59 163.11 83.19 157.85 93.02 158.32 103.88 161.51 111.98 163.62 122.99 171.39 134.56 182.62 139.18 196.93 137.81 209.35 139.1 220.92 133.46 230.52 125.47 235.77 116.78 245.6 109.24 249.26 100.56 250.67 90.09 245.46 84.33 235.54 85.02 231.87 95.17 225.95 102.61 218.18 106.73 205.84 107.41 202.57 105.63 194.64 106.96 185.73 105.13 180.7 98.5 179.56 92.56 180.65 88.42 183.67 82.73"/>
        <polygon class="sky-2"
                 points="273.15 94.2 279.65 91.19 286.04 86.52 296.79 86.16 305.24 81.59 310.27 74.74 314.38 64.45 321.19 60.74 327.41 70.39 335.18 77.71 340.11 81.94 339.52 88.09 330.83 96.22 326.49 98.27 319.6 98.34 310.95 105.13 300.9 107.64 287.65 105.81 277.13 102.84 273.15 94.2"/>
        <polygon class="sky-2"
                 points="347.29 80.45 342.49 73.82 344.55 67.42 349.57 64.45 353.58 68.75 359.86 65.14 365.8 63.31 372.65 66.05 376.08 66.74 370.29 76.37 363.55 82.23 356.89 84.11 350.26 83.65 347.29 80.45"/>
        <polygon class="sky-1"
                 points="376.08 46.78 384.31 41.6 394.36 24.92 402.93 28.39 412.87 26.29 413.69 38.11 427.56 49.55 424.53 53.71 416.53 55.31 404.86 54.1 398.25 55.54 389.11 55.08 381.42 51.76 376.08 46.78"/>
        <polygon class="sky-1"
                 points="402.13 78.16 398.25 84.56 389.62 85.45 384.08 80.91 376.77 82.05 374.39 84.28 373.22 90.14 370.37 94.62 371.97 99.42 377.68 111.07 390.94 109.24 399.39 111.75 412.19 109.93 421.1 101.93 423.61 91.19 432.3 81.59 420.41 82.73 407.16 77.94 402.13 78.16"/>
        <polygon class="sky-1"
                 points="375.17 109.7 362.83 117.01 361.46 122.72 362.83 130.26 354.83 126.61 350.26 118.38 354.14 106.5 364.43 104.9 371.46 101.27 376.77 108.33 375.17 109.7"/>
        <polygon class="sky-2"
                 points="421.1 101.93 424.98 88.67 440.52 75.42 445.78 78.16 444.41 87.8 440.9 96 444.41 103.53 447.38 109.01 460.86 109.93 470 111.3 476.64 118.85 457.2 122.27 442.58 121.35 427.27 113.58 421.1 101.93"/>
        <polygon class="sky-1"
                 points="507.48 104.21 511.13 114.73 510.9 125.69 521.42 123.18 528.5 118.61 530.78 107.87 521.64 99.64 507.48 104.21"/>
        <polygon class="sky-3"
                 points="437.32 120.9 428.18 130.49 429.32 134.61 436.87 133.46 444.63 136.21 453.32 151.06 473.43 160.89 494.45 162.49 515.93 154.26 533.3 147.18 549.07 129.58 572.15 120.67 582.2 109.7 574.66 104.21 571.28 99.81 551.35 104.9 543.58 108.33 530.78 107.87 529.41 114.73 524.39 122.27 517.07 125.47 510.9 125.69 506.79 131.64 498.79 135.29 495.69 135.55 491 133.21 491 126.18 487.6 121.12 476.64 118.85 463.14 120.67 454.23 122.27 437.32 120.9"/>
        <polygon class="sky-1"
                 points="599.99 106.26 599.99 126.15 588.83 139.4 573.97 149.91 564.61 149.91 544.95 148.31 533.3 147.17 549.07 129.58 562.78 124.09 572.15 120.66 582.2 109.7 589.74 110.65 595.6 106.84 599.99 106.26"/>
        <polygon class="sky-2"
                 points="515.93 154.26 534.9 147.63 561.86 150.83 559.58 154.72 551.81 159.74 535.81 159.06 520.73 159.97 515.93 154.26"/>
        <polygon class="sky-2"
                 points="332.89 116.78 341.35 130.49 354.14 139.41 368.54 141.92 394.82 138.72 408.76 140.09 416.3 143.75 422.93 148.55 426.13 158.83 425.44 164.31 422.24 166.14 416.07 162.26 417.21 157.23 413.79 151.97 406.93 153.34 404.64 154.94 400.3 163.4 401.45 173.68 406.02 181 413.79 186.02 423.38 188.08 433.21 186.71 442.12 180.77 452.86 181.68 462.69 177.34 467.49 169.11 469.09 157.91 451.95 149.46 447.61 142.83 444.63 136.21 438.46 132.32 429.32 134.61 428.18 130.49 438.46 120.21 428.18 114.95 421.1 101.93 413.33 109.7 399.39 111.75 389.11 108.56 382.48 110.38 372.2 109.93 362.83 117.01 361.46 122.72 362.83 130.26 357.8 127.75 351.86 121.58 350.94 116.33 352.32 109.7 355.29 105.13 350.07 105.96 344.55 111.07 331.52 115.18 332.89 116.78"/>
        <polygon class="sky-1"
                 points="471.37 159.74 483.48 162.26 500.39 161.11 515.93 154.26 519.36 159.51 533.3 159.51 528.96 164.77 515.93 168.88 501.31 167.06 487.6 173 464.97 176.2 467.49 169.11 468.86 159.06 471.37 159.74"/>
        <polygon class="sky-2"
                 points="255.2 130.95 265.25 123.18 273.02 111.75 277.13 100.79 289.93 106.5 303.87 107.87 308.76 108.01 317.58 112.21 332.89 116.78 341.35 130.49 350.94 138.03 362.83 141.23 357.11 147.4 344.77 148.78 330.61 144.66 319.41 141 310.95 141.46 297.01 147.18 283.08 147.63 268.68 143.75 259.77 137.35 255.2 130.95"/>
        <polygon class="sky-3"
                 points="292.67 150.37 306.16 158.37 330.61 157.91 338.61 159.29 359.63 167.28 376.77 171.17 388.42 169.57 400.3 163.4 405.33 153.34 413.79 151.97 417.21 157.23 416.07 162.26 422.24 166.14 425.44 164.31 425.67 156.32 420.87 146.49 407.62 138.72 388.65 138.95 362.83 141.23 355.51 147.18 346.15 149.46 335.18 146.72 319.41 141 310.95 141.46 291.3 148.09 292.67 150.37"/>
        <polygon class="sky-1"
                 points="171.39 134.56 166.34 138.46 161.31 145.79 157.18 141.33 157.18 132.9 163.62 122.99 171.39 134.56"/>
        <polygon class="sky-2"
                 points="297.24 154.31 295.43 158.52 287.01 163.94 278.58 165.54 243.68 159.52 229.44 162.73 226.23 167.14 228.44 174.16 227.43 187.2 232.65 194.42 244.48 201.44 251.5 202.05 253.71 204.25 264.94 203.85 273.97 195.23 272.76 185.4 268.95 179.78 261.53 176.77 275.37 173.76 298.04 178.18 315.29 173.76 326.52 166.94 334.55 158.12 314.49 158.52 305.26 157.11 297.24 154.31"/>
        <polygon class="sky-2"
                 points="124.21 145.04 112.14 144.43 103.69 141.55 96.97 144.24 75.65 142.51 71.23 138.67 56.82 136.75 53.56 140.21 42.42 143.66 30.13 142.32 24.17 139.63 16.68 140.01 17.06 144.62 21.67 155.19 38.77 168.63 49.14 172.66 60.28 182.65 70.65 185.73 82.75 183.42 90.63 178.81 98.69 176.89 104.65 171.51 113.68 167.09 120.01 159.41 124.21 145.04"/>
        <polygon class="sky-2"
                 points="28.14 105.91 21.2 103.41 18.41 95.63 13.13 88.95 13.69 84.51 32.87 79.5 30.93 88.12 31.67 95.25 29.18 99.61 28.14 105.91"/>
        <polygon class="sky-1"
                 points="45.54 116.43 43.37 119.53 42.23 121.15 39.48 121.98 34.35 123.52 26.37 122.52 24.27 122.26 16.17 116.36 15.6 115.95 15.3 115.95 1.09 116.17 0.01 116.18 0.01 83.75 1.87 83.85 1.9 83.86 9.75 84.29 9.79 84.29 13.69 84.5 14.24 90.35 14.34 91.37 18.42 95.62 20.96 101.3 23.75 104.33 24.74 105.4 28.23 106.84 29.31 107.29 34.78 114.14 45.54 116.43"/>
        <polygon class="sky-2"
                 points="21.67 155.18 16.44 157.59 7.97 155.35 0.01 150.32 0.01 137.38 9.22 139.92 16.68 140.01 16.7 140.26 17.06 144.62 21.67 155.18"/>
        <polygon class="sky-1"
                 points="45.35 123.39 53.61 134.75 67.63 138.29 80.17 143.75 93.89 144.63 103.69 141.55 90.79 127.37 88.14 124.42 77.51 122.65 62.61 124.27 45.35 123.39"/>
        <polygon class="sky-2"
                 points="46.41 115.81 55.53 109.52 66.74 103.47 74.41 92.84 83.42 95.8 91.97 104.8 98.32 105.83 109.23 99.63 112.78 105.39 108.35 116.01 99.64 123.09 90.05 125.6 77.51 122.65 61.58 125.01 47.27 123.68 46.41 115.81"/>
        <polygon class="sky-3"
                 points="78.99 91.22 83.42 84.58 92.42 92.7 97.43 92.55 106.73 88.86 107.91 99.93 102.89 103.91 95.81 105.83 86.81 100.52 82.53 94.76 78.25 92.99 78.99 91.22"/>
        <polygon class="sky-2"
                 points="81.64 80.01 81.79 73.37 91.23 66.58 98.17 64.96 103.78 68.5 113.37 66.43 109.68 81.34 105.69 88.86 97.43 92.55 89.91 91.81 81.94 82.52 81.64 80.89 81.64 80.01"/>
        <polygon class="sky-3"
                 points="92.27 63.48 95.98 50.62 100.68 46.22 111.45 44.3 117.65 53.01 111.74 66.73 105.55 69.09 92.27 63.48"/>
        <polygon class="sky-1"
                 points="114.71 165.87 120.72 157.61 124.21 145.04 132.56 147.28 156.04 160.05 178.39 162.3 168.06 168.5 154.53 169.82 143.64 167 129.74 170 122.41 169.06 114.71 165.87"/>
        <polygon class="sky-1"
                 points="182.62 139.18 195.49 152.68 217.01 161.6 237.75 162.65 246.94 159.5 270.82 164.23 283.16 165.54 292.61 161.6 298.91 154.51 288.41 148.21 273.97 145.85 261.11 138.76 255.2 130.95 249.03 131.41 237.6 141 226.2 142.18 205.2 140.08 196.93 137.81 182.62 139.18"/>
        <polygon class="sky-2"
                 points="160.6 169.67 168.06 168.5 175.69 163.38 200.1 157.6 208.4 167.41 214.69 170.43 218.97 182.51 227.02 184.01 227.52 189.55 219.47 191.56 200.1 186.53 193.05 181.5 172.67 178.73 164.37 173.7 160.6 169.67"/>
        <polygon class="sky-3"
                 points="202.64 156.7 218.04 160.89 229.44 162.73 226.23 167.14 228.44 174.16 227.02 184.01 220.71 182.95 216.52 176.29 214.69 170.43 205.68 165.83 202.25 161.08 202.64 156.7"/>
        <polygon class="sky-3"
                 points="261.53 176.77 271.68 174.01 281 174.96 298.04 178.18 295.08 183.33 282.71 191.7 273.96 193.98 272.63 184.28 267.69 179.72 261.53 176.77"/>
        <polygon class="sky-3"
                 points="334.55 158.12 351.95 165.64 360.89 176.1 356.13 179.91 347 184.28 335.21 183.9 320.94 183.9 299.83 190.37 294.7 192.27 285.95 190.75 296.79 180.1 314.29 174.39 327.6 166.02 334.55 158.12"/>
        <polygon class="sky-1"
                 points="355.75 166.4 370.78 170.78 384.29 170.97 400.3 163.4 401.45 173.68 407.49 182 402.54 185.04 389.23 182.57 368.69 181.05 358.99 174.01 353.66 169.07 355.75 166.4"/>
        <polygon class="sky-1"
                 points="437.93 0.19 436.8 4.39 431.29 7.14 430.54 17.4 431.04 24.91 425.28 23.91 419.52 17.9 418.27 10.64 420.12 0.19 437.93 0.19"/>
    </g>
    <g id="контур">
        <path d="M600,129.07c-4.12,5.67-9.31,10.34-14.45,15a31.69,31.69,0,0,1-19.85,8.34c-1.4.08-2.4.32-3.18,1.71-1.48,2.6-4.35,3.54-6.77,5a13.35,13.35,0,0,1-7.47,1.83c-3.27-.14-6.55-.25-9.83-.29a3.17,3.17,0,0,0-1.72.56c-4.39,3.09-8.81,6.11-14,7.85a12.06,12.06,0,0,1-2.52.73c-5,.56-10,.89-15-.37a6.61,6.61,0,0,0-4.77.45,55.5,55.5,0,0,1-8.07,3.63,80.66,80.66,0,0,1-9.68,2.15c-3.14.58-6.3,1-9.46,1.48-.86.13-1.74.17-2.61.29-2,.27-4,.55-6,.85a.93.93,0,0,0-.39.25,20.12,20.12,0,0,1-14.26,5c-2.06,0-4.1-.45-6.17-.6a3.51,3.51,0,0,0-1.86.39,20.49,20.49,0,0,0-2.49,1.87A19.62,19.62,0,0,1,427,189.35c-1.8,0-3.61-.13-5.4,0a16.49,16.49,0,0,1-8.87-2l-.65-.31c-1.43-.71-2.81-1.88-4.3-2s-3,.85-4.49,1.15a10.14,10.14,0,0,1-3.67.2c-3.06-.59-6.06-1.43-9.1-2.13a11.28,11.28,0,0,0-2.23-.3c-5.44-.2-10.87-.3-16.3-.57A17.3,17.3,0,0,1,361.76,179c-.76-.63-1.33-.81-2,0-.12.16-.31.27-.43.42-4.57,5.31-10.82,6.55-17.31,6.88a62.2,62.2,0,0,1-12.92-.57c-5.85-.94-11.45.56-16.82,2.8-3.63,1.52-7.2,3-11.18,3.44a22.72,22.72,0,0,0-4.23,1.26,14.44,14.44,0,0,1-8.63-.2,6.78,6.78,0,0,0-5.6.51,16.59,16.59,0,0,1-7.37,2.29,1.32,1.32,0,0,0-.83.56c-.72,1-1.42,2-2.07,3.09a13.71,13.71,0,0,1-11.28,6.91,53.49,53.49,0,0,1-6.7,0c-1.82-.1-3.1-1.32-4.37-2.52a3.25,3.25,0,0,0-1.62-.69,38,38,0,0,1-5.07-.82,37.22,37.22,0,0,1-11.63-6.06,36.91,36.91,0,0,1-3.65-4.11,1.33,1.33,0,0,0-1.14-.34,22.12,22.12,0,0,1-15.72,0c-2.34-.89-4.76-1.63-7.18-2.3a15.34,15.34,0,0,1-6.12-3.18,11.7,11.7,0,0,0-8.27-3.17c-4.5.11-8.84-1.28-13.26-1.87a25.24,25.24,0,0,1-11.34-4.76c-2.22-1.56-4.45-3.11-6.7-4.62a2.37,2.37,0,0,0-1.25-.26,22.27,22.27,0,0,1-8.43-1.59,11.69,11.69,0,0,0-8.21-.42,44.64,44.64,0,0,1-15.75,1.85c-3.33-.14-6.28-1.46-9.32-2.55a1.6,1.6,0,0,0-1.31.12,19.86,19.86,0,0,1-8.63,4,1.25,1.25,0,0,0-.75.6A10.9,10.9,0,0,1,98,179.53a63,63,0,0,1-7.27,1.4,2.58,2.58,0,0,0-1.3.48c-3.94,4.09-9,5-14.36,5.28s-10.38-.12-15.3-2.19c-3-1.26-5.29-3.4-7.58-5.58a66.72,66.72,0,0,0-5.74-5.43,14.37,14.37,0,0,0-4.61-1.89,24.94,24.94,0,0,1-9.31-4.78c-2.94-2.52-5.88-5-8.79-7.59a2.35,2.35,0,0,0-2.06-.62c-1.38.19-2.79.2-4.18.34-5.41.54-9.7-2.16-14-4.88-1.24-.78-2.34-1.78-3.5-2.68v-5.28a11.33,11.33,0,0,1,.94.74A35.06,35.06,0,0,0,12.2,154.4c2.36,1,4.7.76,7.18.42-2.19-4.34-4.62-8.37-4.91-13.35A26.47,26.47,0,0,1,0,139.15v-4.32a24.36,24.36,0,0,0,14.13,2.78,72.74,72.74,0,0,1,9.34-.12,7.22,7.22,0,0,1,3.42,1.22,13.6,13.6,0,0,0,6,2.33c1.59.18,3.18.38,4.78.44,2.87.11,5.78.35,8.54-.7s5.32-2.17,8-3.27c.08,0,.13-.16.2-.26a27.27,27.27,0,0,1-11.62-13.86,8.91,8.91,0,0,1-6.54,2.7,31.24,31.24,0,0,1-7.25-.3,15.32,15.32,0,0,1-7.3-4A11.66,11.66,0,0,0,19,119.9c-1.77-.94-3.34-2.46-5.54-2.35-3.53.19-7.06.51-10.6.67A14.42,14.42,0,0,1,0,117.79v-3.6a23.09,23.09,0,0,0,2.35.1c3.78-.19,7.55-.5,11.34-.6a7.32,7.32,0,0,1,3.58.77,48.18,48.18,0,0,1,6.84,4.38,15.11,15.11,0,0,0,9.65,3.56c3.83,0,6.64-1.64,9.21-4.11a4.28,4.28,0,0,0,.56-.76c-1.61-.21-3.09-.53-4.59-.58-5.69-.21-9-3.56-11.26-8.36a1.41,1.41,0,0,0-1.22-.89,7.58,7.58,0,0,1-3.05-1A17.32,17.32,0,0,1,17,97.87a5.89,5.89,0,0,0-2.16-3.28,7.75,7.75,0,0,1-3.09-6.69c0-.51,0-1,0-1.64-4,.07-8,.44-11.73-.87V81.07a10.93,10.93,0,0,0,5.69,1.55A110.43,110.43,0,0,0,22.61,81a23.41,23.41,0,0,0,12.48-6.16,26,26,0,0,1,2.23-2.33c3.18-2.22,6.61-4,10.62-3.89,2.86.07,5.72.39,8.58.69,1,.11,1.4-.18,1.36-1.19A19.24,19.24,0,0,1,58,65.57c.58-5.9,5.75-13.28,12.84-14,.87-.08,1.22-.54,1.27-1.42.11-1.87.34-3.74.42-5.62.12-2.64-.92-3.72-3.56-3.83a38.74,38.74,0,0,0-11.65,1.16c-5.29,1.39-10.52,3-15.84,4.25-7.38,1.77-14.76,2.32-22.27.18-6.37-1.82-12.92-3-18.81-6.25A1,1,0,0,0,0,40V35.71A35.32,35.32,0,0,0,4.7,38c4.55,1.5,9.14,2.86,13.73,4.18A38.31,38.31,0,0,0,30.11,44c2.15-.06,4.29-.36,6.43-.55V43.1c-.23-.15-.46-.3-.69-.43a21.05,21.05,0,0,1-7.19-7.07c-1.87-3-3.87-5.87-5.89-8.75a20,20,0,0,1-3.84-10.42c-.11-1.86,0-3.73,0-5.68-.63,0-1,0-1.33,0A16.41,16.41,0,0,1,6.2,7.1C4,5.32,2.06,3.15,0,1.15v-1H4.08a20.27,20.27,0,0,0,8,6,10.77,10.77,0,0,0,6.67.74,3.12,3.12,0,0,0,1.57-.78c1.76-1.94,3.44-3.95,5.15-5.94h7c-1.38.88-2.81,1.68-4.11,2.65C25.73,4.73,23.5,7,22.89,10.22c-.9,4.73-.46,9.32,2.28,13.47,2.22,3.37,4.46,6.73,6.69,10.09a17.93,17.93,0,0,0,5.6,5.5,9.47,9.47,0,0,0,5.82,1.47,64,64,0,0,0,12.09-2.22c6.39-1.77,12.89-2.66,19.39.18,2.1-2.51,4.26-5.1,6.41-7.69L81,30.61c-1.08.4-2.2.73-3.23,1.23a19,19,0,0,0-2.31,1.5c-4.17,2.77-8.44,2.44-12.75.37a6.69,6.69,0,0,1-3.31-4.22,1.17,1.17,0,0,1,.11-1c.16-.16.65-.06,1,0,.8.22,1.63.81,2.36.69,5.37-.87,10.38-2.42,13.08-7.83a10,10,0,0,1,4.72-4.6,23.12,23.12,0,0,0,4-2.39A7.87,7.87,0,0,1,90,12.63c1.8.12,3.59.24,5.39.34,4.47.24,8.94.36,13.29,1.61a3.35,3.35,0,0,0,4.13-2.75A2.91,2.91,0,0,0,112.48,9,21,21,0,0,0,101,1.62c-2.22-.5-4.45-.95-6.67-1.43h13.44a28.71,28.71,0,0,1,8.42,7.56,1.07,1.07,0,0,0,1.54.38c3.85-2,8-2.34,12.25-2.13a21.45,21.45,0,0,1,14.49,6.58,11.09,11.09,0,0,1,3,11.37c-1.3,4.83-5,7.26-9.59,8.38a8.25,8.25,0,0,1-6.71-.89c-4.29-2.84-4.29-6.21-2.86-10.64a4.69,4.69,0,0,1,4.8-3.27A5.24,5.24,0,0,1,137.21,22c.23,1.74-1.11,3.41-2.71,3.18a8.53,8.53,0,0,1-2.26-1.21,5.64,5.64,0,0,0-.31,1.41c0,1.75,1.11,2.62,3.34,2.79A7.75,7.75,0,0,0,143,23.55c1.32-2.95.73-5.56-1.86-8.13a16.44,16.44,0,0,0-12.06-5.05c-2.89,0-5.83-.13-8.58,1.23-3.88,1.92-6.17,5.21-7.92,9C111,24.1,110.65,28,110,31.74a13,13,0,0,0,1.11,7.92A26.87,26.87,0,0,0,120,50.31a14.62,14.62,0,0,0,3,1.32,29.47,29.47,0,0,1,3.62,1.47c2.3,1.33,4.22,1.3,6.25-.43a2.9,2.9,0,0,1,2.9-.58c.5.16,1,.38,1.47.53a6.67,6.67,0,0,0,7.92-2.31A20.7,20.7,0,0,0,146.72,48a3.63,3.63,0,0,0-.06-4.45,1.87,1.87,0,0,1,1.64-3c.36,0,.72.1,1.07.11,2.06,0,4.26.5,6.15-.06a14.34,14.34,0,0,0,7.13-5.06,27.65,27.65,0,0,0,4.75-9c1.32-4.42,2.11-8.92.59-13.43a39.45,39.45,0,0,0-5.88-11.85,6.83,6.83,0,0,1-.59-1.14h5A21.87,21.87,0,0,1,170,7a7.14,7.14,0,0,0,.56,1.19c2.41,4.53,2.77,9.36,2.11,14.34-.92,7-4.16,12.86-8.5,18.21a15.43,15.43,0,0,1-2.9,2.24,11.52,11.52,0,0,0-1,.64,9.71,9.71,0,0,1-6.86,2.67,1.84,1.84,0,0,0-2,1.56,12.75,12.75,0,0,1-3.44,5.8c-.38.39-.71.83-1.23,1.45.83.24,1.41.45,2,.56a27.74,27.74,0,0,0,12-.7c11.89-3.11,21-9.63,26.31-21,2.82-6.06,3.67-12.26,1.45-18.73A4.17,4.17,0,0,0,186,12.44c-2.26-.94-2.48-2.69-.56-4.18a6.94,6.94,0,0,0,2.77-4.72c.14-1.11.14-2.23.21-3.35h12.72c-2.13.48-4.24,1-6.39,1.39-1.12.18-1.81.53-2.12,1.7C192.14,5,191.46,6.69,191,8.42a2.86,2.86,0,0,0,.07,1.92c3.07,5.52,3.45,11.43,2.46,17.46-.93,5.66-3.55,10.64-6.87,15.28-.21.29-.4.6-.67,1a16.91,16.91,0,0,1,2.83-.73c3.7-.26,6.23-2.53,8.57-5a42,42,0,0,0,3.23-4.6,12.83,12.83,0,0,0,2.48-9.62c-.36-2.36-.8-4.71-1.29-7a2.52,2.52,0,0,1,.89-2.77,2.06,2.06,0,0,1,2.66.08,8.35,8.35,0,0,0,6.88,1.21c2.49-.54,5-1.22,7.4-2C226.29,11.54,230,6.7,231.84.19h5a9.47,9.47,0,0,0,3.88,5.17c7.49,4.41,13,3.56,19.18-2.31A11.65,11.65,0,0,0,261.6.19h3.84a5.1,5.1,0,0,1-.13.7c-1.34,4.4-4.62,7-8.48,9a17.55,17.55,0,0,1-21.3-4.42,3.93,3.93,0,0,0-.58-.5c-1.33,2-2.59,4-3.9,5.86a14,14,0,0,1-6.27,5.42c-5.27,2.08-10.54,4.27-16.41,3.86-.94-.06-1.31.29-1.26,1.24.12,2.23,0,4.5.34,6.7a5.51,5.51,0,0,1-1,3.72c-1.45,2.44-3.09,4.76-4.6,7.16a4.56,4.56,0,0,0-.68,2,17.57,17.57,0,0,1-1.32,6.65q-1.49,3-3.05,6c-.55,1-1.18,2-1.77,3,.16.1.22.18.28.19.8.11,1.59.25,2.38.3,4.54.3,7.53,2.76,9.47,6.72.63,1.29,1.38,2.53,2,3.81,1.05,2.07,2.1,4.14,2,6.58a2.49,2.49,0,0,0,.45,1.32A18.13,18.13,0,0,1,214.47,83c.44,3.54.85,7.1-.37,10.57a22.57,22.57,0,0,1-8.29,11.31,2.41,2.41,0,0,0-.33.48,12.61,12.61,0,0,0,1.3.13c3-.12,6-.27,9-.38a11.16,11.16,0,0,0,7.08-3.14,24.12,24.12,0,0,1,3.33-2.74,11.45,11.45,0,0,0,4.28-5c.19-.39.44-.76.64-1.15,1.34-2.49,2.41-5,2.13-8-.07-.71-.21-1.2-.93-1.49a17,17,0,0,1-7.65-6.68,10.2,10.2,0,0,1-1.37-8.7,1.3,1.3,0,0,0-.14-1c-2.69-2.62-3.52-6-3.57-9.51-.06-5.22,2.35-9.53,5.41-13.54A14,14,0,0,1,232.74,39c2.5-.67,4-2.55,5.38-4.52a3,3,0,0,0,.49-1.69c0-3.26-.39-6.53.73-9.7a9.55,9.55,0,0,1,1.88-3.62c4.25-5.22,9.51-8,16.4-6.62a2.41,2.41,0,0,0,2.49-.8c3.79-4.49,10.6-5,15-2.68a133.69,133.69,0,0,1,11.51,7.09c1.88,1.25,1.77,1.41,3.37-.16q.46-.46,1-.9a11.81,11.81,0,0,1,9.22-3.24,7.71,7.71,0,0,0,2-.13,12,12,0,0,1,8.74,1.65,40.81,40.81,0,0,1,4.82,3.53,6.65,6.65,0,0,1,2.54,5,46,46,0,0,1-.51,6.3,9.45,9.45,0,0,1-4.49,7.16,1.65,1.65,0,0,1-.73.3c-1.43,0-2.86-.06-4.28.05a13.75,13.75,0,0,1-6.43-1.11,4.84,4.84,0,0,1-3.33-4.16c-.11-1.14-.31-2.28-.46-3.37.28-.34.58-.66.83-1a6.09,6.09,0,0,1,5.83-2.62,3.41,3.41,0,0,1,3,1.65,3.14,3.14,0,0,1,.09,2.22,1.79,1.79,0,0,1-2.11,1,6.36,6.36,0,0,1-1-.3c-1.26-.41-1.68-.18-2.17,1.25-.36,1.05.25,1.45,1.13,1.86,2,.91,4,.68,6,.59a3.31,3.31,0,0,0,3.49-2.82c.34-1.35.54-2.74.86-4.1a5.12,5.12,0,0,0-2.41-5.88c-1.51-1-3.1-1.83-4.67-2.7a3.22,3.22,0,0,0-3.1-.12,3.89,3.89,0,0,1-3.25.17,5.2,5.2,0,0,0-4.07.33,12.62,12.62,0,0,0-6.51,7.2,6.13,6.13,0,0,1-3.34,3.52,2.59,2.59,0,0,0-1.71,2.26,10,10,0,0,0,3.2,8.53,17.69,17.69,0,0,1,2,2.77,10.81,10.81,0,0,0,1.51,2.1,27.71,27.71,0,0,0,8.39,4.8c1.85.68,2.44,2,2.66,3.72a5,5,0,0,0,.7,2.23,17.57,17.57,0,0,0,7.8,6.54,7.88,7.88,0,0,0,7.06-.25c.53-.3,1-.57.82-1.39-.85-5.3-.93-10.56,1-15.7a13.77,13.77,0,0,1,1.5-2.64c1.89-2.06,3.69-4.3,6.34-5.4a15.79,15.79,0,0,1,4.38-1c1-.09,2.28,1.19,2.47,2.15a2,2,0,0,1-.9,2.18,2.62,2.62,0,0,0-1.11,3.52c1.1,2.66,2.73,5,5.5,6,3.31,1.28,6.69,2.39,10.09,3.42,2.93.89,6,.51,8.94.22,5.16-.5,10.26-1.25,14.45-4.75a12.25,12.25,0,0,1,1.65-1,62.7,62.7,0,0,0,6.85-4.37c5.5-4.52,8.16-10.94,10.9-17.25a4.34,4.34,0,0,0,0-1.57l-.43-.06-1.07,1.42a27.58,27.58,0,0,1-13.83,10.07,58.68,58.68,0,0,1-25.5,2,26.59,26.59,0,0,1-8.89-2.76c-.92-.48-1.71-1.14-1.47-2.34s1.25-1.59,2.34-1.68,1.92,0,2.88,0a13.65,13.65,0,0,0,2-.17c6.49-1.27,10.7-5.76,12-12.8.3-1.58.57-3.17.87-4.88H358.7c-3.6.11-7.19.28-10.79.29a10.07,10.07,0,0,1-3.61-.65C338.41,9,334,4.73,329.76.19H335c3.12,2.41,6.19,4.88,9.38,7.18a5.29,5.29,0,0,0,2.95.76c4,0,8-.19,12-.29.86,0,1.25-.45,1.44-1.29.49-2.13,1.07-4.24,1.61-6.36h5a45.17,45.17,0,0,0-2.15,5.92c-.61,2.79-.89,5.67-1.22,8.53-.76,6.63-3.43,12.17-9,16.1-.6.42-1.16.91-1.94,1.53a15.53,15.53,0,0,0,1.68.27,65.38,65.38,0,0,0,16.44-1.4,24.39,24.39,0,0,0,16-10.95,7,7,0,0,0,1.17-5.1A26.2,26.2,0,0,1,390.24.19h4.56c-.12.34-.22.68-.36,1C392,6.78,391.5,12.35,394,18.12c3.18,7.24,10.27,9.89,17.28,6.25a2.21,2.21,0,0,1,2.38,0,2.36,2.36,0,0,1,1.14,2.34,13.86,13.86,0,0,1-.32,2.13,10.23,10.23,0,0,0,1.43,8.48,25,25,0,0,0,8.44,8.19c5.91,3.36,12.35,4.41,19.05,4.15a7.3,7.3,0,0,0,2.26-.7c1.55-.61,3.06-1.32,4.63-1.88,1.34-.49,2.77-.77,4.11-1.27,4.64-1.72,8.41-7.3,6.8-12.62a2.16,2.16,0,0,1,.69-2.68,2.43,2.43,0,0,1,2.91.09c1,.6,2,1.22,2.94,1.84a6,6,0,0,0,4.38.78c5.74-1.06,10-4.4,13.09-9.11,2.22-3.34,2.38-7.18,2-11.1A9.41,9.41,0,0,0,483,5.35c-2.5-1.64-4.9-3.43-7.34-5.16h7.92a54.88,54.88,0,0,1,4.51,4.09c3.15,3.53,3.86,7.85,3.67,12.41,0,.74.05,2,.43,2.14,1,.41,1.64-.56,2.17-1.3a7.68,7.68,0,0,0,1.43-2.46,20.64,20.64,0,0,0,.91-6.17c-.23-2.94-.37-6-1.84-8.71h4.8a35.17,35.17,0,0,1,1.19,11.86,11.76,11.76,0,0,1-1.82,6.12c-.63,1-1.2,2-2,3.4,2.37.1,4.42.3,6.46.26a7.79,7.79,0,0,0,5.23-2.38c1.23-1.18,2.19-2.43,1.58-4.31a11.75,11.75,0,0,1-.23-1.9A14.31,14.31,0,0,1,513.44,1.3c.3-.36.59-.74.88-1.11H522a10.56,10.56,0,0,0-6,3.78,12.83,12.83,0,0,0-1.89,11.72A28.59,28.59,0,0,1,515,20a5.85,5.85,0,0,0,3,4.63,22.34,22.34,0,0,1,3.61,2.12c3.36,2.81,7.31,3.55,11.51,3.69,1.92.06,3.86,0,5.39-1.19,3.51-2.66,6.82-5.57,8.88-9.6a37.43,37.43,0,0,0,3.4-9.81c.4-2.06,1.43-2.66,3.49-2.49A17.4,17.4,0,0,0,559,7.21c3-.62,6.05-1.47,9.05-2.31A26.45,26.45,0,0,0,577.44.19h6A38.16,38.16,0,0,1,567.68,9c-3.86,1.09-7.87,1.67-11.81,2.5-.51.1-1.27.2-1.43.54a20.8,20.8,0,0,0-1,3.23,10.38,10.38,0,0,1,6-2c1.44,0,2.87.11,4.31.17a15.76,15.76,0,0,1,13.66,8.16,11.65,11.65,0,0,1,1.3,4.06,2.15,2.15,0,0,1-1,1.74c-.53.23-1.37-.14-2.05-.35-.25-.08-.43-.45-.62-.71a4.56,4.56,0,0,0-4.35-2,26,26,0,0,0-4.15.54A64.69,64.69,0,0,0,551,31.47a22.66,22.66,0,0,1-9.34,3.17c-2,.16-3.92.16-5.87.28-5.94.37-11.45-.72-16.23-4.53A9.59,9.59,0,0,0,517,29a9.39,9.39,0,0,1-5-4.38c-.73-1.33-.83-1.36-2.08-.57a15,15,0,0,1-10.8,2.14c-1.79-.28-3.57-.61-5.35-.91a3.3,3.3,0,0,0,.73,1.49,19.63,19.63,0,0,0,7.89,5.47,11.31,11.31,0,0,0,9.42.08c2.16-1,3.49-.05,3.72,2.35s.79,4.68,2.51,6.34c3.31,3.19,7,5.9,11.67,6.72a74.37,74.37,0,0,0,9.9.93A87.15,87.15,0,0,0,557,47.46c3.79-.59,7.5-1.06,10.74-3.31a1.85,1.85,0,0,1,2.44.18c2.93,2.7,6.65,3.17,10.33,3.63,6.84.85,13.19-1.24,19.46-3.61v3.84c-2,.69-4,1.47-6.12,2a34.81,34.81,0,0,1-24.65-1.77,2.17,2.17,0,0,0-1.42,0,27.93,27.93,0,0,1-4.25,1.56c-3.93.64-7.9,1.07-11.86,1.53-1.49.17-3,.17-4.84.27.53.45.8.71,1.1.94,2.31,1.77,4.52,3.72,7,5.25,2.94,1.83,5.94,3.83,9.2,4.76,2.77.78,5.94.25,8.92.11a4.12,4.12,0,0,1,3.05.63,11.69,11.69,0,0,1,2.3,2.25,9.75,9.75,0,0,0,4.19,3.27A42.78,42.78,0,0,0,600,72.43v3.84c-4.08-.43-8.19-.65-12.22-1.36-2.53-.45-5-1.43-7.56-1.64a5.55,5.55,0,0,0-3.68.73,29.49,29.49,0,0,0-7.85,7.13,26.87,26.87,0,0,1-2.5,2.73c-1.4,1.43-2.86,2.79-4.25,4.22-3,3.15-6.48,5.65-10.93,6.24-2.55.33-5.15.29-7.76.43.1.14.23.36.39.58,1.88,2.61,4.59,3.93,7.49,5.13,5,2.08,9.48.68,13.91-1.48a4.58,4.58,0,0,1,3.35-.74c1.23.3,1.44,0,1.27-1.27-.73-5.11.37-9.47,4.82-12.69,3.65-2.65,7.56-2.51,11.58-1.51a7.13,7.13,0,0,1,5.37,7.66c-.33,5-4.12,8-8.65,7a4.56,4.56,0,0,1-2.73-7.32c1-1.22,2.09-1.37,3.49-.48,1.08.69,1.32,1.71.71,3-.12.27-.26.54-.52,1.07.81-.09,1.55,0,2-.27a4.22,4.22,0,0,0,1.78-4,2.91,2.91,0,0,0-2.28-2.9,19.85,19.85,0,0,0-4.13-.57,7.19,7.19,0,0,0-6.79,4.14c-1.66,3-1.21,6.17.43,9.16.55,1,.93,2.12,1.5,3.12a4.22,4.22,0,0,0,1.46,1.77c2.42,1.22,4.9,2.35,7.42,3.35,2.17.87,4.37,1,6.32-.69a8.4,8.4,0,0,1,6.82-2.21,5.55,5.55,0,0,0,1.74-.35v4.08a10.69,10.69,0,0,1-2,.15,4.47,4.47,0,0,0-3.44,1c-2.75,2.19-5.86,3.27-9.28,2.08-1.84-.64-2.77-.28-3.93,1.27a97.43,97.43,0,0,1-6.74,7.77,9.58,9.58,0,0,1-3.12,2.38,105.42,105.42,0,0,1-10.31,3.83c-4.71,1.41-9.5,2.58-13.27,6a31,31,0,0,0-2.57,2.68c-2.79,3.23-5.55,6.49-8.31,9.74a1.36,1.36,0,0,0-.2.44c7.43.84,14.82,1.56,22.17,2.54a29.33,29.33,0,0,0,23.65-6.9c3.63-3,6.94-6.5,10.26-9.9s6.1-7.41,6.85-12.39a2.94,2.94,0,0,1,.26-.65ZM355.15,65.47c2.38-2.35,2.78-2.63,4.59-2.44a3.06,3.06,0,0,0,2.28-.7,6.76,6.76,0,0,1,9.09,1.06,1.94,1.94,0,0,0,1.4.49c3.22-.24,6.39-.13,9.33,1.43a2,2,0,0,1,1.06,2.62,2.17,2.17,0,0,1-2.51,1.13,3.31,3.31,0,0,0-1.9.3,17.35,17.35,0,0,0-5.72,5.71,28.54,28.54,0,0,1-6.65,7.3c-5.51,4.22-11.4,4.72-17.6,2.09-1.38-.59-2.49-1.17-3.91-.36a2.08,2.08,0,0,1-1.29.12c-1.05-.17-1.38.37-1.59,1.27a11.42,11.42,0,0,1-4.06,6.6,34.42,34.42,0,0,0-4.41,4.21,11.15,11.15,0,0,1-7.57,3.92,25.81,25.81,0,0,1-3.83.12,4.14,4.14,0,0,0-3.13,1.19c-2.14,1.91-4.08,4.09-6.8,5.25,0,0,0,.13-.07.27.66.45,1.33,1,2,1.4a32.84,32.84,0,0,0,12,4.62c3.42.49,6.75-.3,10.08-1.08,4.31-1,8.32-2.5,11.53-5.73a8.71,8.71,0,0,1,5.87-2.69c3.5-.18,7-.37,10.5-.53a7.21,7.21,0,0,0,4.3-1.24,1.92,1.92,0,0,0,.79-2.56,8.08,8.08,0,0,1,2.06-9.4,1.59,1.59,0,0,0,.57-1.08c0-4.28,2.61-6.87,5.9-8.83,3.78-2.25,9.47-.8,12.7,2.91a2.44,2.44,0,0,0,1,.8c2.46.75,4.8.63,6.54-1.53s3.47-4.41,1.83-7.56a6.5,6.5,0,0,1,.28-7c1.73-2.58,6.8-3.56,9.43-1.88a3.93,3.93,0,0,1,1.42,4.67,3.65,3.65,0,0,1-3.58,2.12,1.9,1.9,0,0,1-1.73-2.56,9.11,9.11,0,0,1,.52-1c-1.16,0-2.3-.17-2.89,1-.41.84.29,3.65,1,4.28a6.22,6.22,0,0,0,1.59,1.06c2.5,1,5,2.1,7.56,3,3.9,1.42,7.82,2.92,12.11,2.24,2.16-.35,4.47-.48,6.39-1.39A35.38,35.38,0,0,0,441,72.28a2.74,2.74,0,0,0,.88-2.34,2.56,2.56,0,0,1,.91-2,3.45,3.45,0,0,1,3.65-.2,4.9,4.9,0,0,0,3.7.53c3.55-.81,7.12-1.5,10.62-2.48,2.5-.69,4.94-1.69,6.59-3.91.84-1.12,1.62-2.3,2.54-3.36,2.24-2.59,3.55-5.45,3.17-9-.18-1.66.7-2.44,2.36-2.37.2,0,.4,0,.6,0,6.57.47,11.36-2.66,15.06-7.69a13.35,13.35,0,0,0,1.78-4.65,5.17,5.17,0,0,0-1.25-4.69c-.62-.73-1.19-1.5-1.74-2.28-.81-1.15-.88-1.15-1.85-.16-1.59,1.62-3.12,3.33-4.86,4.79-4.31,3.63-9.24,5.49-15,4.75-2-.26-2.07-.2-2.63,1.64-1.62,5.35-4.85,9.2-10.28,11-1.51.5-3.05,1-4.57,1.45a6.8,6.8,0,0,0-3.7,2.28,2.28,2.28,0,0,1-1.57.68,16.65,16.65,0,0,1-3.46-.11c-4.06-.61-8.1-1.32-12.16-1.93a2,2,0,0,0-1.45.39c-3.78,3.29-8.06,5.06-13.12,4.27a47.21,47.21,0,0,1-6.53-1.52,8.3,8.3,0,0,0-5.85.24c-3.22,1.37-6.51,2.57-10.09,1.9a59.34,59.34,0,0,1-8.25-2,13.25,13.25,0,0,1-6.71-5c-1.07-1.56-.78-1.6-2.57-.58-1.58.91-3,2.25-4.64,2.92a40.33,40.33,0,0,1-8.56,2.64c-3.49.54-7.08.43-10.63.62a2.45,2.45,0,0,0-1.35.28,2.11,2.11,0,0,1-3,0,3.51,3.51,0,0,0-1.06-.53c-3.21-1.21-6.44-2.38-9.63-3.62-2.71-1.06-4.57-3.2-6.31-5.4a7.23,7.23,0,0,1-1.63-3.9,16.7,16.7,0,0,0-.58-2.46c-2.52,2.22-4.95,4.14-5.1,7.58-.12,2.71-.22,5.43-.3,8.14a4.34,4.34,0,0,0,.19,1.18,36.25,36.25,0,0,0,7.9,14.25,12.87,12.87,0,0,0,5.29,3.55c1.63.57,2.86,1,3.57,2.69a4.28,4.28,0,0,0,4.43,2.18,17.16,17.16,0,0,0-1.11-2c-3.89-5.3-1.43-10.84,2.93-14.11a6.31,6.31,0,0,1,3.13-1A7.76,7.76,0,0,1,355.15,65.47Zm-97.89-6.19c-2.37-.55-3.39-1.39-3.49-2.92a2.8,2.8,0,0,1,1.79-3,3.52,3.52,0,0,1,3.93.53c2,1.67,2.28,6.33.5,8.26s-6.53,2.83-8.81,1.22a26,26,0,0,1-4.8-4.46c-1.77-2.12-1.7-4.81-.92-7.22a14.45,14.45,0,0,1,16.3-9.23,17.79,17.79,0,0,1,10.52,6.22,11.4,11.4,0,0,0,1.09,1.11A14.1,14.1,0,0,1,277.83,58a25.52,25.52,0,0,1-.63,11.52c-1.33,4.43-3.78,8.19-7.79,10.4a20.11,20.11,0,0,1-14,2.24,2.2,2.2,0,0,0-1.18-.07c-2.05.92-4.07,1.9-6.44,3a49.2,49.2,0,0,0,4.77,4.13c1.11.75,2.67.82,3.91,1.43,3.92,1.94,8.14,1.81,12.33,1.92a3.23,3.23,0,0,0,1-.25c1.82-.59,3.61-1.31,5.47-1.77a10.53,10.53,0,0,0,5.3-3.08,8.88,8.88,0,0,1,6.4-2.87c2.87-.07,5.75,0,8.63,0a6.29,6.29,0,0,0,2.68-.47,22.38,22.38,0,0,0,8.36-7.2,55.28,55.28,0,0,0,4-7,18.5,18.5,0,0,0,1.15-4.34,1.14,1.14,0,0,0-.65-.89,20.63,20.63,0,0,1-9.29-6.34c-1.4-1.54-2.78-3.15-2.95-5.37a1.86,1.86,0,0,0-1.35-1.75,32.34,32.34,0,0,1-7.86-4.55,9.23,9.23,0,0,1-3.11-3.86,4.19,4.19,0,0,0-1-1.47A13.65,13.65,0,0,1,281,29.9a6.28,6.28,0,0,1,3.33-5.47c2-1.14,2.17-2.51.39-3.93A46.49,46.49,0,0,0,272,12.91a9.16,9.16,0,0,0-2-.49c-3.35-.38-5.78,1.08-7.56,3.84-1,1.54-1.78,1.84-3.54,1.41-.73-.18-1.47-.37-2.21-.54a11.36,11.36,0,0,0-11.53,4.33c-.31.44-2.42,3.36-2.56,4.6-.19,1.62-.12,3.27-.18,4.9,0,1.28.19,2.67-.25,3.8a12.3,12.3,0,0,1-7.92,7.78,12.54,12.54,0,0,0-7.48,5.62,29.39,29.39,0,0,0-3.07,6.73c-1.23,4.29.55,8,3.21,11.21,1.13,1.39,1.55,2,.61,3.31-1.32,1.88-.81,3.61.27,5.21a13,13,0,0,0,5.31,5.07A47.47,47.47,0,0,0,238,82c3.3,1,6.33-1,9.54-1.2a6.69,6.69,0,0,0,2.19-1A12.28,12.28,0,0,1,252,78.76a8.93,8.93,0,0,1,3.72-.44A18.88,18.88,0,0,0,266.47,77a9.46,9.46,0,0,0,3.25-2.36c4.45-4.57,5.12-10.18,4.21-16.17a9.19,9.19,0,0,0-2.44-5c-2.16-2.28-4.23-4.54-7.16-6-5.38-2.76-12.24-.78-14.85,4.68a4.61,4.61,0,0,0,.93,5.59c.53.54,1.15,1,1.68,1.55,1.16,1.22,2.58,1.11,4,.77A4.18,4.18,0,0,0,257.26,59.28Zm158.1,97.2c-1-.78-2-2.08-3.11-2.21a7,7,0,0,0-7,2.7A16.86,16.86,0,0,0,402,168.35a15.61,15.61,0,0,0,8.06,13.33c1.54.91,3.23,1.58,4.84,2.38a12.92,12.92,0,0,0,6.83,1.41c1.51-.12,3,0,4.56,0a16.69,16.69,0,0,0,11.52-3.95,30.07,30.07,0,0,1,2.49-1.88,4.15,4.15,0,0,1,3.66-.7c3,1,6,.77,9,.48a13.06,13.06,0,0,0,8.84-4.09,18.15,18.15,0,0,0,4.53-14.66,1.76,1.76,0,0,0-1.28-1.65,58.31,58.31,0,0,1-14.45-8.19,6.35,6.35,0,0,1-1.89-2.11,86.18,86.18,0,0,1-3.94-8.58c-2.64-5.33-9.52-6.53-12.28-4.88,1,1,1,2.17-.47,2.32a5.06,5.06,0,0,1-5.61-4.78,8.42,8.42,0,0,1,1.85-6c2-2.26,4.16-4.35,6.31-6.56-3.19-1.21-5.88-3.54-8.51-6s-3.35-6.26-5.08-9.5c-.33.38-.55.65-.79.9-3.31,3.49-7,6.4-11.88,7.23a80.21,80.21,0,0,1-8.35.78,13,13,0,0,1-7.37-1.73,5.75,5.75,0,0,0-4.17-.51,23.3,23.3,0,0,1-4.61.6c-2.5,0-5-.11-7.48-.29a5.9,5.9,0,0,0-4.1,1,84,84,0,0,0-7.26,5.88,4.82,4.82,0,0,0,.84,7.48c.81.44,1.54.71,2.36-.13a1.89,1.89,0,0,1,3,2.12,4.5,4.5,0,0,1-1.76,2.12,16.67,16.67,0,0,1-5.25,1.46c-4.77.3-8.46-2.13-11.5-5.48a12.26,12.26,0,0,1-3.09-5.16,16.74,16.74,0,0,1,.47-9.47c.41-1.09.94-2.14,1.41-3.22l-.21-.32c-4.47,5-10.29,7.18-16.86,8.26,1.07,1.88,1.92,3.55,2.94,5.11,1.43,2.22,2.92,4.41,4.52,6.5,2.94,3.86,7,6.35,11.15,8.68a1.23,1.23,0,0,0,.34.11,63.73,63.73,0,0,0,17.36,2.6c7.25.09,14.32-1.38,21.47-2.14,9.63-1,18.69.06,26.7,6.2a21.19,21.19,0,0,1,6.8,8,23.83,23.83,0,0,1,1.93,11.47,5,5,0,0,1-7.59,4,23.58,23.58,0,0,0-3.35-1.53c-3.15-1.25-4.2-4-2.58-7A21.74,21.74,0,0,1,415.36,156.48Zm-220.2-69a3.31,3.31,0,0,0-.67-.91A9.74,9.74,0,0,0,192,85.19a8.4,8.4,0,0,0-3.95-.46,8.16,8.16,0,0,0-5.86,7.79c-.14,5.09,1.72,9,6.51,11.27a12.49,12.49,0,0,0,11,.18,23.84,23.84,0,0,0,2.6-1.48c5.86-3.7,9.11-8.84,8.67-15.95-.21-3.39-.81-6.65-2.92-9.49a6.55,6.55,0,0,1-.74-2.35,34.86,34.86,0,0,0-1.15-4.47,55.6,55.6,0,0,0-2.8-5.42A6.71,6.71,0,0,0,197.76,61c-1-.09-2.06-.32-3.09-.44a7.63,7.63,0,0,0-5.81,1.59,38.92,38.92,0,0,1-6.24,4.23c-5.12,2.56-10.77,3.38-16.38,3.67a22.24,22.24,0,0,1-15.89-5.6c-1.22-1-2.56-2-2.87-3.71-.17-.92-.66-1.13-1.44-1.24-3-.45-6.09-.89-8.87-2.35a3.77,3.77,0,0,0-3.46.2,10.31,10.31,0,0,1-3.28,1,14.81,14.81,0,0,1-8.77-1.87c-1.43-.8-1.91-.77-2.76.66-1,1.66-1.76,3.45-2.6,5.2a15,15,0,0,0-1.13,6.54,12.92,12.92,0,0,1-.67,5,24.49,24.49,0,0,0-2.36,10.66c0,2.46.2,4.8,1.64,7,1,1.48,1.77,3,3.46,3.81a4.38,4.38,0,0,1,.91.77c4.73,4.53,10.37,4.93,16.33,3.46,2.92-.72,4.51-2.91,5.18-5.74a4.92,4.92,0,0,0,0-2.58,6,6,0,0,0-8.43-2.92c-1.11.7-1.1,1.39,0,2a6.32,6.32,0,0,0,1,.33,10.24,10.24,0,0,1,.81-1.17,1.93,1.93,0,0,1,3.24.61,3.36,3.36,0,0,1-2.47,4.43,6.54,6.54,0,0,1-6.09-2.09,4,4,0,0,1-.31-5.8,7.7,7.7,0,0,1,2-1.72c3.69-2.38,7.28-1.77,10.6.71,2.33,1.74,4,4,3.79,7.19a11.83,11.83,0,0,1-9.21,10.8,24.55,24.55,0,0,1-8.46.36A17.07,17.07,0,0,1,116,99.42c-.67-.62-1.49-1.09-2.15-1.71a19.53,19.53,0,0,1-2.5-2.65,42.93,42.93,0,0,1-2.25-3.76,3.34,3.34,0,0,0-.06.6,22.65,22.65,0,0,0,6.75,13.32,3,3,0,0,0,1.68.74,14.66,14.66,0,0,1,8.2,4.16c2.6,2.35,4.71,5.26,7.39,7.5,3,2.49,6.22,4.82,10.52,4.49a9.26,9.26,0,0,1,2.63.11c3.95.83,7-1.18,10.07-3.13.94-.6,1.81-1.31,2.69-2,.3-.23.78-.55.78-.81,0-2.17.49-4.39-.88-6.41a18.13,18.13,0,0,1-3-7.74c-1-6.91.41-13,5.54-18a14.09,14.09,0,0,1,8.65-4.22c2.38-.24,4.79-.14,7.19-.21a12,12,0,0,1,5.47,1.1c1.29.59,2.62,1.08,4.07.2a4.14,4.14,0,0,1,2-.34,13.36,13.36,0,0,1,7.33,2.29c2.72,1.62,3.7,3.2,2.35,7.1a3.68,3.68,0,0,1-4.66,2.53,2.72,2.72,0,0,1-2.17-3.7C192,87.41,193.05,87,195.16,87.46Zm337.35,22.78c0,4.05-1.89,7.37-4.52,10.45a16.93,16.93,0,0,1-13.41,6.3,8.46,8.46,0,0,0-2.14.23,2,2,0,0,0-1.14.84c-3.48,6.62-9.33,9.14-16.41,9.53a5.09,5.09,0,0,1-4-1.62c-.21-.21-.58-.57-.73-.51-1.48.6-3.14,1-4.32,2a13.25,13.25,0,0,1-5.3,2.91c-2.71.66-5.55.5-7.38-1.84-2.18-2.79-2.68-5.25-.79-8.8,1.65-3.1,6.19-2.64,7.7-.63a2.86,2.86,0,0,1,.44,3,2.36,2.36,0,0,1-2.22,1.57c-1.3,0-1.75-.93-2-2,0-.06-.11-.09-.28-.23a3,3,0,0,0-.69,2.85c.37,1.07.78,2.06,2.15,2.3,2.2.4,3.85-.59,5.47-1.84a17.86,17.86,0,0,1,2.69-1.69c.66-.36,1.43-.51,2.11-.84,1.21-.58,2.47-3.12,1.84-4.2-.86-1.49-1.8-3.27-3.19-4-4.26-2.37-8.62-4.42-13.88-3.07-3.89,1-8,1.32-11.78,2.74a7.88,7.88,0,0,1-1.87.39,44.31,44.31,0,0,1-15-.83,9.12,9.12,0,0,0-4-.16c-3.79.77-6.11,3.33-8.34,6.06a9.28,9.28,0,0,0-1.06,2.48,56.5,56.5,0,0,1,7.21-.62,11.27,11.27,0,0,1,10.3,6.67c.82,1.69,1.43,3.47,2.11,5.22,1,2.51,2.27,4.74,4.72,6.13,2.64,1.5,5.11,3.33,7.84,4.62a84.86,84.86,0,0,0,12.09,4.92,41.76,41.76,0,0,0,12.43,1.65c8-.1,15.72-.9,22.73-5.23a39.43,39.43,0,0,1,6.94-3.22c2.61-1,5.35-1.62,8-2.51a21.07,21.07,0,0,0,9.5-6.66c2.5-3,5-5.93,7.51-8.87,2.15-2.49,4.36-5,7.34-6.45s6.47-2.51,9.73-3.69c3.45-1.25,7-2.33,10.36-3.7a10.12,10.12,0,0,0,3.14-2.5c1.49-1.56,2.82-3.26,4.24-4.88.41-.49.9-.91,1.32-1.39.88-1,.73-1.85-.47-2.42-2.56-1.22-4.6-2.89-5.25-5.83-.18-.84-.6-1.17-1.55-.87a12.29,12.29,0,0,1-2.37.24,3.77,3.77,0,0,0-1.35.32,21.13,21.13,0,0,1-10.56,2.79,10.35,10.35,0,0,0-6.78,2.27,14.82,14.82,0,0,1-10.5,3.35C536.92,110.72,534.79,110.48,532.51,110.24Zm-18.31-67c-.91-1.92-1.68-3.72-2.62-5.41-.19-.35-1-.54-1.54-.48a17.83,17.83,0,0,1-10.92-1.91c-1.53-.83-1.64-.78-2,.9a14.22,14.22,0,0,1-2.7,6.2c-4.22,4.94-9,8.86-16,9a1.48,1.48,0,0,0-1,1c-.35,3.27-1.95,5.92-3.88,8.49-3.94,5.21-8.91,8.62-15.5,9.46a37.17,37.17,0,0,0-3.85.93c-2.52.61-5,1.41-7.66.61a1,1,0,0,0-.84.39c-.47.68-.86,1.42-1.31,2.2a5.08,5.08,0,0,1,3,4.07c.32,3.19.45,6.43-.93,9.44-.66,1.45-1.63,2.75-2.41,4.14a3.79,3.79,0,0,0-.54,1.55,16.62,16.62,0,0,0,2.45,9.85,6.47,6.47,0,0,0,4.13,3,30.31,30.31,0,0,0,6.85,1,46.71,46.71,0,0,1,13.49,1.92c3.25.93,6,2.69,6.94,6.3a1.15,1.15,0,0,0,.76.71c3.23.44,6.1,1.89,9,3.22,4.27,1.94,6.81,6.25,6.14,10.39a11.72,11.72,0,0,0-.28,1.28,1.42,1.42,0,0,0,.29.89,2.1,2.1,0,0,0,3,.61,1,1,0,0,1,.81-.1c1.35.59,2.48-.18,3.68-.52a10.85,10.85,0,0,0,7.24-6.68,19.5,19.5,0,0,0-.17-15.82,18.18,18.18,0,0,0-6.51-8.15,16.09,16.09,0,0,1-6.73-9c-1.23-3.87-4.28-5.87-8-6.93-2.92-.83-5.41.16-7.83,1.91-1.94,1.41-3.2,3-3.1,5.43a1.16,1.16,0,0,1-.53.88,2,2,0,0,1-2.75-1.38,26.85,26.85,0,0,1-.72-4.41,36.06,36.06,0,0,1,.27-6.58,17.2,17.2,0,0,1,10.78-13.91,2.69,2.69,0,0,0,1.73-1.49,14.43,14.43,0,0,1,5.46-6.51,8.13,8.13,0,0,1,5.69-1.43c1.69.17,1.77.14,1.84-1.56a10,10,0,0,1,3.3-7.33,39.31,39.31,0,0,1,3.87-3.22,11.34,11.34,0,0,1,3.3-1.6C509.92,44.07,512,43.72,514.2,43.23Zm-332.82,41a26.32,26.32,0,0,0-3.45-.65c-1.79-.1-3.59,0-5.39,0-5.68-.07-9.5,3.09-11.65,7.82a16.16,16.16,0,0,0,1,15.86,11.45,11.45,0,0,1,1.9,6.67,11.53,11.53,0,0,0,.51,4.23,73.74,73.74,0,0,0,3.29,7.32,16.31,16.31,0,0,0,5.92,7.08c2,1.19,3.86,2.59,5.94,3.58,3,1.41,6.13,2.29,9.46,1a7,7,0,0,1,.93-.19,44.92,44.92,0,0,0,4.64-1,7.9,7.9,0,0,1,4.71-.15c1.31.38,2.57.88,3.88,1.26a6.47,6.47,0,0,0,2.32.39c1.8-.17,3.67-.25,5.19-1.49a1.82,1.82,0,0,1,.9-.3c6.93-1.08,11.21-6.24,16.09-10.46a1.15,1.15,0,0,0,.14-.19c1.76-2.67,3.45-5.38,5.29-8a11.52,11.52,0,0,1,2.47-2.3c1-.77,2.17-1.33,3.17-2.11s1.69-1.71,2.63-2.44a14.64,14.64,0,0,0,4.27-5.84,41.23,41.23,0,0,0,3.27-12.08,1.2,1.2,0,0,0-.22-.86q-2.34-2.64-4.76-5.22a1.21,1.21,0,0,0-.83-.25c-1.9.09-3.79.22-5.69.33a21.79,21.79,0,0,1-.9,4.43,57.86,57.86,0,0,1-3.67,7.4,15.14,15.14,0,0,1-3,3.37c-1.32,1.21-2.84,2.2-4.2,3.38-2.44,2.11-5.1,3.77-8.38,4.06s-6.31.34-9.46.54a8.34,8.34,0,0,1-5.65-1.57,1.21,1.21,0,0,0-1.05-.15c-2.68,1.47-5.57,1.35-8.44,1.14a15,15,0,0,1-11.42-6.23A15.4,15.4,0,0,1,181.38,84.24Zm-108.92,58a7.58,7.58,0,0,0-4-1.84c-2.86-.28-5.69-.77-8.54-1.14a2.24,2.24,0,0,0-1.13.24c-2.34,1.13-4.62,2.36-7,3.42-3.12,1.38-6.32,2.56-9.8,2.53-2.67,0-5.35-.1-8-.31-3-.24-6-.84-8.44-2.75A8.24,8.24,0,0,0,21.22,141a2.28,2.28,0,0,0-2.39,1.24,2.58,2.58,0,0,0,0,2.73,22.16,22.16,0,0,1,1.43,2.89,21,21,0,0,0,7,9.26c1.25,1,2.38,2.14,3.56,3.21,3.14,2.86,6.38,5.59,10.5,7,1.4.48,2.84.84,4.21,1.38a12,12,0,0,1,3.39,1.71c2.11,1.82,4,3.87,6.06,5.8a21.31,21.31,0,0,0,6.86,4.93c4.77,1.85,9.71,1.88,14.67,1.52,3.94-.28,7.63-1.27,10.46-4.36a4.75,4.75,0,0,1,2.4-1.22c1.94-.42,3.92-.68,5.89-.92a8,8,0,0,0,5-2.78,1.54,1.54,0,0,0,.28-1.22,2.68,2.68,0,0,1,.46-2.8c.85-.83,1.87-.65,2.93-.38a4.66,4.66,0,0,0,2.07,0c2.93-.69,5.24-2.46,7.45-4.42a19.32,19.32,0,0,0,5.89-8.72c.59-1.87,1.28-3.71,1.82-5.59a35.14,35.14,0,0,0,.65-3.5l-1.5-.12c-4.81-.46-9.73-.46-14.24-2.43a4.85,4.85,0,0,0-5,.64,11.61,11.61,0,0,1-5.65,1.78c-5.91.34-11.71-.58-17.5-1.56a4.15,4.15,0,0,0-4.23,1.16,8.49,8.49,0,0,0-2.13,4c-.29,1.28-.45,2.6-.63,3.9-.71,4.89,2.38,8,7.08,10,2.34,1,5.16.93,7.78,1.09A6.56,6.56,0,0,0,92,161a2.71,2.71,0,0,0,0-1.84,6.37,6.37,0,0,0-4.66-3.77c-1.66-.37-3.27.77-3.83,2.84a4.62,4.62,0,0,1,1.33-.48,7.12,7.12,0,0,1,2.83.28c.43.2.73,1.33.62,1.95a2.43,2.43,0,0,1-2.12,2.16,7.39,7.39,0,0,1-4.44-.63c-2-1-2.81-2.69-2-4.79,1.27-3.42,4.86-6.64,9.82-4.75a9.25,9.25,0,0,1,2.35,1.18c2.52,1.93,4.59,4.17,4.17,7.69a9,9,0,0,1-3.34,5.65,11.22,11.22,0,0,1-8.32,2.69c-5.08-.19-9.69-1.39-13.46-5.05-2.63-2.57-4.15-5.53-3.9-9.29C67.32,150,68.11,145.42,72.46,142.22Zm286.67,0c-1.74-.46-3.45-1-5.2-1.36a15,15,0,0,1-6.66-3.13,25.19,25.19,0,0,0-2.11-1.58,24.56,24.56,0,0,1-7.6-7.52c-2.26-3.66-5.14-6.95-6.73-11a1.18,1.18,0,0,0-1-.54,25.75,25.75,0,0,1-11.34-2,47.94,47.94,0,0,1-11.22-6.35,1.59,1.59,0,0,0-1.17-.24c-6.71,1.41-13.28.38-19.8-1.21a19.63,19.63,0,0,1-8-3.63c-.16.6-.27,1-.39,1.42a33.05,33.05,0,0,1-3.88,9.38c-1.62,2.42-3.21,4.87-4.73,7.36a19.58,19.58,0,0,1-7.62,7.27c-1.39.74-2.7,1.66-4.08,2.52a34.31,34.31,0,0,0,7.84,7.53,33.06,33.06,0,0,0,23.85,6.41c2.3-.27,4.62-.45,6.89-.9a35.76,35.76,0,0,0,9.7-3c5.28-2.71,11-3,16.61-1.76A52.33,52.33,0,0,1,333,143.75,34.39,34.39,0,0,0,349.42,147C353.29,146.83,356.67,145.57,359.13,142.22Zm-163,13.95a29.5,29.5,0,0,1-3.1-2.08c-4.28-3.73-8.66-7.37-11.61-12.35a2.28,2.28,0,0,0-.81-.85c-2.5-1.32-5-2.57-7.53-3.92a2.27,2.27,0,0,0-3,.26c-1,.94-1.89,2-2.88,2.89a6.85,6.85,0,0,0-2,6.12,1.51,1.51,0,0,0,.8,1c1.25.6,2.66,1.78,1.32,2.36-2.75,1.19-7.48-2.33-9-3.44a7.06,7.06,0,0,1-3-4.45A18.91,18.91,0,0,1,156.81,129c1.24-2.38,2.65-4.65,5.15-6l-1.07-2.35a10.1,10.1,0,0,0-1.45,1,13.38,13.38,0,0,1-5,3c-.63.23-1.19.67-1.83.88a10.44,10.44,0,0,1-3.08.79c-2.83,0-5.68-.08-8.5-.32a12.25,12.25,0,0,1-3.66-1c-5.86-2.53-10-7.15-14.26-11.67-1.38-1.47-3.47-2.35-5.36-3.22a17.92,17.92,0,0,0-4-.83,22,22,0,0,1-.79,2.1,32.87,32.87,0,0,1-8.66,11.19A15.33,15.33,0,0,1,96.93,126l-3.73.61c0,.15,0,.24,0,.3a35.71,35.71,0,0,0,9.88,11.43,6.91,6.91,0,0,0,1.42.57c.57.26,1.14.54,1.68.85a11,11,0,0,0,1.79,1.07c5.51,1.82,11.23,2,17,2a14.71,14.71,0,0,1,8.36,2.52c3.53,2.32,6.89,5,10.64,6.9,8.31,4.24,16.81,8.08,26.47,8,3.08,0,6.2.29,9.23-.1,4.62-.59,9.2-1.62,13.78-2.57A12.86,12.86,0,0,0,196.13,156.17Zm97.46-7.2a26.37,26.37,0,0,0,11,6.46,51.79,51.79,0,0,0,16.33,1.08c4.26-.38,8.53-.84,12.78,0a39.11,39.11,0,0,1,9.42,3.42,116.28,116.28,0,0,0,13.39,5.21c7.5,2.45,15.13,4.47,23.15,4,4-.26,7.89-1.13,11.12-3.83a15.84,15.84,0,0,1,7.11-3.31,1.49,1.49,0,0,0,.88-.74c1.08-2,2-4.16,3.15-6.15a8.73,8.73,0,0,1,6.06-4.33c3.16-.62,6.31-1.16,8.68,1.89a1.37,1.37,0,0,0,.38.29,6.53,6.53,0,0,1,2.62,5.88c-.06,1-.93,1.92-1.47,2.94a8,8,0,0,1,1.42.21,22.51,22.51,0,0,1,2.38,1,10.06,10.06,0,0,1,1,.61c.23-.43.68-.88.66-1.3a41.49,41.49,0,0,0-.73-6.88c-1.36-5.63-5.57-9-10.37-11.47a31.84,31.84,0,0,0-17.25-3.14c-1.91.16-3.82.41-5.72.67-8,1.1-16.07,2.36-24.24,1.51a1.45,1.45,0,0,0-1,.25c-1.55,1.31-3.1,2.63-4.58,4a12.46,12.46,0,0,1-5,2.78c-4.26,1.32-8.58,1.19-12.94.62-5.69-.75-10.74-3.37-15.92-5.53a24.88,24.88,0,0,0-12.91-1.62,17.3,17.3,0,0,0-3.92,1c-1.49.54-2.87,1.47-4.39,1.89-3.3.92-6.67,1.61-10,2.39Zm-35.21,44c.19-2.47,1.32-3.3,3.67-2.74a3.92,3.92,0,0,1,2.67,3,3.2,3.2,0,0,1-2,3.08c-3.52,1.56-6.75.71-9.64-1.5a5.51,5.51,0,0,1-1.75-2.77,14.33,14.33,0,0,1,6-15.26c6.55-4,13.82-5.18,21.34-4.29,3.5.42,6.88,1.72,10.34,2.52a35.53,35.53,0,0,0,21.44-1.47c5.22-2.07,10.72-3.84,14.78-8.14,1.34-1.42,2.9-2.63,4.31-4a9.06,9.06,0,0,0,1-1.42c-1.64,0-3-.05-4.43,0-3.87.17-7.74.57-11.6.53a39.82,39.82,0,0,1-14.24-2.41,1.67,1.67,0,0,0-1.4.39c-1.17,1.08-2.26,2.25-3.38,3.4a11.29,11.29,0,0,1-5.29,3.14c-1.62.44-3.22,1-4.84,1.41a9.81,9.81,0,0,1-3.26.71c-5.21-.4-10.44-.73-15.59-1.54s-10.46-2.25-15.71-3.3a16.79,16.79,0,0,0-9.78.58,10.09,10.09,0,0,1-6,.51c-2.29-.5-4.09.46-5.48,2.37s-.86,3.69.11,5.49c.19.35.58.63.67,1a3.78,3.78,0,0,1,.23,2,21.87,21.87,0,0,0-1.28,8.59,13,13,0,0,0,5.46,10.73c4.53,3.28,9.46,6,15.44,5.68a2.67,2.67,0,0,1,2,1,5.64,5.64,0,0,0,5.93,2.49c.67-.09,1.36-.09,2-.12a10.2,10.2,0,0,0,8.42-4.31c.87-1.24,1.63-2.56,2.54-3.78a2.17,2.17,0,0,0,0-2.93,3.31,3.31,0,0,1-.19-3.62,1.33,1.33,0,0,0,.16-.89c-.89-2.11-1.79-4.33-4.15-5.17a34.56,34.56,0,0,0-6.55-1.66,3.37,3.37,0,0,0-2.53,1.23,30.83,30.83,0,0,0-2.49,4.06,5.9,5.9,0,0,0-.5,4.08C255.11,191.93,256,192.68,258.38,193ZM548.3,103.6c-3.27-1.1-5.53-3.35-7.71-5.8a10.09,10.09,0,0,1-2.73-8.48c.15-1.09.5-2,1.66-2.22s1.86.39,2.34,1.42a3.67,3.67,0,0,0,3.52,2.26c1.51,0,3-.06,4.55-.21,3.51-.36,6.18-2.31,8.7-4.65-1.54-.68-3-1.28-4.36-1.94-4.45-2.13-7.37-6.07-10.87-9.31-2.67-2.47-5.53-4.39-9.21-4.67-3.39-.26-6.79-.39-10.18-.42a15.1,15.1,0,0,0-4.1.63c-2.15.56-4.23,1.33-6.37,1.93a5.42,5.42,0,0,1-2.48.25c-4.88-1-9.2-3.1-12.17-7.34-.3-.41-.36-1-.69-1.38a2.54,2.54,0,0,0-1.33-1,7.23,7.23,0,0,0-8,4.74,7.41,7.41,0,0,1,4.85,2.07,4.48,4.48,0,0,1,.95,5.74,2.81,2.81,0,0,1-3.94.93c-1.07-.75-1.12-2.11-.12-3.49.08-.12.14-.27.33-.64a12.87,12.87,0,0,0-2.3-.69,10.07,10.07,0,0,0-3.1,0,10.18,10.18,0,0,0-3.67,1.25,14.11,14.11,0,0,0-4.64,5.09,15.69,15.69,0,0,0-1.65,7.78,15.12,15.12,0,0,1,2-1.51c1.51-.79,3-1.87,4.63-2.12,7.95-1.26,15,4.56,16.42,10.47.92,3.74,3.72,5.73,7.12,7a14,14,0,0,0,7.23.46c2.57-.45,5.42-.37,6.71-3.48a2.24,2.24,0,0,1,2-.69,2.43,2.43,0,0,1,1.41,1.67,8.22,8.22,0,0,0,3.19,5.32c4,3.31,8.73,4.44,13.82,4.5C543.33,107.1,545.8,105.47,548.3,103.6Zm-362,38.27a2,2,0,0,0,.27.5c3.9,4.17,7.57,8.64,13,10.94,3,1.27,6,2.49,9.15,3.51a69.22,69.22,0,0,0,23.51,3.32,31.4,31.4,0,0,0,8-1.15,20.22,20.22,0,0,1,8.39-.87c3.48.44,7,1.06,10.39,1.8,6.12,1.33,12.17,3,18.49,3.33a21.08,21.08,0,0,0,7.11-.59c3.82-1.13,7.59-2.2,10.18-5.59.84-1.09.88-1.32-.14-2.17-1.78-1.48-3.43-3.1-5.21-4.57a3,3,0,0,0-1.85-.74,36.73,36.73,0,0,1-14.86-2.18,41.62,41.62,0,0,1-18.18-13.27,1.74,1.74,0,0,0-1.22-.63c-2.23,0-4.29.43-5.66,2.5a5.79,5.79,0,0,1-1.52,1.15c-1.35,1-2.79,1.9-4,3a16,16,0,0,1-9,3.81,65.33,65.33,0,0,1-19-.57,123.37,123.37,0,0,1-12.74-2.86c-2.51-.71-7.77-.21-8-.17Zm89.09-47.19a21.55,21.55,0,0,0,1.88,3.14A13,13,0,0,0,280,100a19.57,19.57,0,0,0,4.53,2.63c7.72,2.36,15.53,3.81,23.56,1.31a13,13,0,0,0,6-3.38c2.49-2.64,5.26-4.71,9.22-4.07a7.72,7.72,0,0,0,1.07,0,7.59,7.59,0,0,0,6.18-2.88A16.26,16.26,0,0,1,334,90.07a9.79,9.79,0,0,0,4.31-6.62,1.92,1.92,0,0,0-.43-1.4,14.77,14.77,0,0,0-5.07-3.88,19.18,19.18,0,0,1-8.11-7.78c-1.33-2.26-2.74-4.48-4.08-6.68-1.33.44-2.64.94-4,1.28a1,1,0,0,0-.91,1.12,12.46,12.46,0,0,1-1.87,6.24,29.35,29.35,0,0,0-1.8,3,25.32,25.32,0,0,1-6.74,8.76c-3.47,3-7.15,5-12,4.38a42.61,42.61,0,0,0-5.87,0,5.81,5.81,0,0,0-4.26,1.9,12.75,12.75,0,0,1-6.86,3.93A8,8,0,0,0,275.36,94.68Zm-61.65,44.66a3.44,3.44,0,0,0,.42.14c6.71,1,13.45,1.6,20.16.3a16,16,0,0,0,4.91-2.34,33.26,33.26,0,0,0,3.8-2.91c1.3-1.05,2.59-2.11,3.8-3.25a5.17,5.17,0,0,1,3-1.47,13.15,13.15,0,0,0,4-1,64.52,64.52,0,0,0,7.6-4.3,15.26,15.26,0,0,0,3.67-3.72c1.68-2.33,3-5,4.69-7.24,2.12-2.82,3.21-6,4.26-9.31.58-1.81.82-3.44-.8-5-.82-.81-1-2.24-1.44-3.24a32.15,32.15,0,0,1-19.26-2.57,6.38,6.38,0,0,0-.3,1.16c-.1,2.84-1.14,5.43-1.91,8.13-1.78,6.25-6.13,10.43-10.92,14.33a4.27,4.27,0,0,1-1.26.68,4.24,4.24,0,0,0-2.44,2.28,35.8,35.8,0,0,1-7.54,10c-1.57,1.41-3.14,2.82-4.78,4.15a17.79,17.79,0,0,1-3.22,2.26C218.12,137.49,215.93,138.36,213.71,139.34Zm190.4-60.2c-.67,1.22-1.3,2.51-2.06,3.72-2.16,3.46-5.2,5.39-9.39,5-1.05-.09-1.35.25-1.62,1.17-.8,2.76-2.12,3.61-5,3.28a8.36,8.36,0,0,1-2-.49,3.17,3.17,0,0,1-2.25-4c.2-1.06.65-1.94,1.86-2a2.44,2.44,0,0,1,2.4,1.66c.09.17,0,.41.15.57s.3.42.46.42a.79.79,0,0,0,.56-.34,2.84,2.84,0,0,0-.34-3,8,8,0,0,0-4.32-2.18c-3.54-.5-7.45,2.83-7.07,6.2a3.19,3.19,0,0,1-1.66,3.59,2.94,2.94,0,0,0-1.59,3,19,19,0,0,0,.88,3.55,14.81,14.81,0,0,0,4.46,6.85,8.31,8.31,0,0,0,3.78,2.12,14.77,14.77,0,0,0,6.17-.49,6.39,6.39,0,0,1,5.76.48,13.37,13.37,0,0,0,8.84,1.46c1.14-.18,2.31-.2,3.47-.3a16.31,16.31,0,0,0,12-6.94,20.07,20.07,0,0,0,3-7.12c1-4.07,2.21-7.85,5.74-10.46.07,0,.07-.2.11-.33-1,0-1.95,0-2.9,0a18.35,18.35,0,0,1-7.2-.94c-1.61-.6-3.25-1.12-4.86-1.7ZM107.57,42.43a3.15,3.15,0,0,0-.17-.6,14.5,14.5,0,0,1-1.83-9.13,2.9,2.9,0,0,0-2.09-3.33,7.86,7.86,0,0,0-2.41-.62c-1.63-.11-3.28,0-4.91-.07a13.6,13.6,0,0,0-11.45,5c-1.77,2-3.56,4-5.3,6a10.47,10.47,0,0,0-2.89,6.81c0,2.66.39,5.33.64,8a2.55,2.55,0,0,1-.83,2.59,2.3,2.3,0,0,1-2.8-.21c-2-1.39-3.87-1.06-5.66.24A17.05,17.05,0,0,0,65,59.78c-2.4,2.74-3,6.07-3,9.61a23.26,23.26,0,0,1-1.11,8.15c-.63,1.77-1.22,3.55-1.91,5.29-.4,1-.09,1.32.91,1.28,1.24-.06,2.48-.08,3.72-.12,4.6-.14,6.44-1.66,7.57-6.11a2.39,2.39,0,0,0-.46-2.22,11.53,11.53,0,0,1-1.42-2.21,5.39,5.39,0,0,1,.52-5.78,5.25,5.25,0,0,1,5.22-2,2.92,2.92,0,0,1,2.4,1.77,2,2,0,0,1-1.81,2.85,4.52,4.52,0,0,0-1-.08,11.7,11.7,0,0,0-1.47.52,6.08,6.08,0,0,0,.67,1.51,2.25,2.25,0,0,0,1.25.64,10,10,0,0,0,8.69-2,17.62,17.62,0,0,0,6-8.65c1.08-3.42,2-6.89,3.14-10.3a10.16,10.16,0,0,1,1.93-3.79c3.07-3.2,6.71-5.42,11.32-5.54A9.4,9.4,0,0,0,107.57,42.43ZM49.8,99.12a7.16,7.16,0,0,0-1.83.36c-1,.49-2.25,1-2.37,2.31-.17,2,2,4.67,4,4.78a22.81,22.81,0,0,0,6.56-.25A19.8,19.8,0,0,0,70.23,94.73,7.58,7.58,0,0,1,75.31,90c2.85-.76,4.22-3,4.57-5.67A23.07,23.07,0,0,0,79.59,79a1.9,1.9,0,0,0-1.78-1.82,2,2,0,0,0-2.25,1.4c-.6,1.48-1.24,3-1.9,4.4a7.75,7.75,0,0,1-5.58,4.67A40.87,40.87,0,0,1,55.23,88.7c-3.65-.4-6.53-2.07-7.93-5.67A10.3,10.3,0,0,1,47,80.84c1.09.6,1.8,1,2.54,1.4,2.44,1.27,4.4.82,5.65-1.61A28,28,0,0,0,57,75.22c.09-.34-.47-1.06-.89-1.29-2-1.11-4.18-.89-6.32-.94a17,17,0,0,0-12.75,5.14,7.52,7.52,0,0,0-1.72,2c-1.81,4-3.08,8.06-1.85,12.51a4.51,4.51,0,0,1-.61,4,10.6,10.6,0,0,0-1.85,9.64c.88,3.09,2.73,5.64,6,6.43a28.23,28.23,0,0,0,10,.65c1.95-.23,3.36-1.41,4.81-2.57a3.17,3.17,0,0,0-1.21-.19A7.79,7.79,0,0,1,43,106.11c-2.1-4.17-2-6,.94-8.69A7.23,7.23,0,0,1,46.05,96c1.84-.78,3.8-1.24,5.69-.35a4.83,4.83,0,0,1,2.88,4.5c0,2.17-1.47,3-3.16,3.73a2,2,0,0,1-3-1.55C48.15,100.78,48.43,100.19,49.8,99.12ZM576.46,69.55c-.71-.82-1.33-1.6-2-2.29a1.57,1.57,0,0,0-1.07-.35q-3.4,0-6.81.12a16.55,16.55,0,0,1-11.08-4c-4.21-3.36-8.67-6.42-13.09-9.52a4.29,4.29,0,0,0-2.65-.75,29.32,29.32,0,0,1-17.46-3.55,6.15,6.15,0,0,0-2.54-1,56,56,0,0,0-8.49,0c-3.9.41-9.13,3.87-9.29,9.63-.14,5.07.9,8.65,7.37,10.16.31.07.63.1.95.15a4.15,4.15,0,0,0,4.7-2.25,8.88,8.88,0,0,0,1-5.57,5.41,5.41,0,0,0-2.66-4.08,5,5,0,0,0-2.39-.36c-.28,0-.73.45-.79.76s.27.69.51,1c.5.56,1.25,1,1.53,1.61a2.46,2.46,0,0,1,0,2.06,2.7,2.7,0,0,1-2,.87c-2.58-.2-4.58-3.4-3.82-5.88a5.81,5.81,0,0,1,9.06-3,9.59,9.59,0,0,1,4.09,10c-.17,1-.44,2-.67,3a20.75,20.75,0,0,1,3.63-.62q6,.09,12,.43a16.22,16.22,0,0,1,9.88,4.18c2.32,2,4.52,4.17,6.66,6.38a18.64,18.64,0,0,0,7.67,5,6.86,6.86,0,0,0,3.91.09,5.87,5.87,0,0,0,2.55-2.29A33.44,33.44,0,0,1,576.46,69.55Zm-468.1,33c-.17.16-.35.31-.51.47-3.57,3.82-8.16,4.83-13.13,4.59a7.37,7.37,0,0,1-3.13-1.08,22.35,22.35,0,0,1-7.82-7.28,10,10,0,0,0-3-2.82c-1.25-.81-2.79-1.17-4.08-1.93a1.36,1.36,0,0,0-2.16.59c-.52.9-.91,1.87-1.41,2.78a25,25,0,0,1-14.19,11.87,3.24,3.24,0,0,0-1.19.9c-2.33,2.55-4.69,5-8.22,5.91a2.35,2.35,0,0,0-1.87,2.22,2.45,2.45,0,0,0,1.71,2.62,38.71,38.71,0,0,0,7.61,1.4A82.78,82.78,0,0,0,74.72,121a18.14,18.14,0,0,1,9.81.66c3.74,1.36,7.47,1.16,11.24.52a10.69,10.69,0,0,0,4-1.29,25.21,25.21,0,0,0,9.86-11.76C110.52,106.85,110.53,104.42,108.36,102.5Zm55.94,68.91c1.18.81,2.26,1.54,3.32,2.3,2.73,1.95,5.55,3.64,9.06,3.73a8.6,8.6,0,0,1,2.35.42,49.37,49.37,0,0,0,12.33,1.67,12.23,12.23,0,0,1,4.49,1.05,24.67,24.67,0,0,1,4.51,2.89,13.71,13.71,0,0,0,4.65,2.39,66.14,66.14,0,0,1,7.19,2.31,18.65,18.65,0,0,0,12.33.47c.58-.16,1.42-.18,1.34-1.2s-.58-1.21-1.52-1.4a11.84,11.84,0,0,1-8.79-6.55,24.08,24.08,0,0,1-2-5.13c-.58-2.45-2.12-3.68-4.34-4.49a14.44,14.44,0,0,1-3.31-1.87c-3.16-2.31-4.78-5.81-6.93-9.12a14.43,14.43,0,0,1-1.26.75,16.25,16.25,0,0,1-3.65,1.69c-4.77,1-9.57,1.84-14.36,2.74a3.17,3.17,0,0,0-1,.29c-1.35.74-2.69,1.49-4,2.29-.93.57-1.8,1.25-2.71,1.86a12.11,12.11,0,0,1-2.49,1.55C167.89,170.61,166.17,170.94,164.3,171.41ZM440.63,78,435,81.86a3,3,0,0,0-.47.52,19.73,19.73,0,0,1-2,2.46c-1.41,1.3-3,2.44-4.41,3.69a8.18,8.18,0,0,0-2.74,4.14c-.55,2.13-1.1,4.25-1.64,6.39a1.43,1.43,0,0,0,0,.82c1.32,3.42,2.21,7.1,4.11,10.17,2.55,4.12,6.82,6.51,11.34,8a52.55,52.55,0,0,0,9.5,2,29.72,29.72,0,0,0,11.08-.2c3.89-.92,7.79-1.75,11.68-2.63l1.92-.48a5.52,5.52,0,0,0-4.14-3.43,46.5,46.5,0,0,0-12.91-1.72,27.18,27.18,0,0,1-5.59-.66,12.08,12.08,0,0,1-9.74-8.58c-1.65-4.87-2.59-9.68,1-14.21,2-2.49,1.66-5.51,1.64-8.42,0-.26-.39-.61-.68-.76C442.23,78.62,441.51,78.37,440.63,78Zm-83.19,97.63a3.46,3.46,0,0,0-.28-.3,36.94,36.94,0,0,1-6.82-7.52,3.66,3.66,0,0,0-1.49-1.12q-4.67-2.19-9.36-4.29c-1.24-.55-2.53-1-3.78-1.49a1.07,1.07,0,0,0-1.48.51,25.6,25.6,0,0,1-2.9,3.64c-1.76,1.74-3.65,3.35-5.55,4.94a25.35,25.35,0,0,1-3.5,2.47,39.65,39.65,0,0,1-4.11,2,62.74,62.74,0,0,1-7.85,3.25,71.47,71.47,0,0,0-10.19,3.66,11,11,0,0,0-1.72,1.07q-2.45,1.74-4.86,3.5c-1.44,1.05-2.86,2.12-4.41,3.27a10.16,10.16,0,0,0,6.35.47,40.33,40.33,0,0,1,5.17-1.47,27.44,27.44,0,0,0,8.36-2.42,38.33,38.33,0,0,1,12.37-3.65,36.06,36.06,0,0,1,8.93-.05,60,60,0,0,0,14.11.21C349.48,181.71,354.27,180.32,357.44,175.64Zm67-124.91a32.47,32.47,0,0,1-3.06-2c-2.45-2.11-5-4.15-7.19-6.48a14.82,14.82,0,0,1-4.27-11c0-1.07-.43-1.31-1.39-1.15-3.65.57-7.16.33-10.41-1.67-.61-.37-1.33-.56-2-.91-.89-.49-1.46-.29-1.9.64-.75,1.58-1.57,3.13-2.37,4.7-2.41,4.71-5.11,9.22-9.25,12.68-.69.59-1.42,1.13-2.18,1.73a8.68,8.68,0,0,0,3.6,3.81,21.08,21.08,0,0,0,7,2.33c2.82.57,5.6.77,8.31-.56a24.63,24.63,0,0,1,3.15-1.14,10.89,10.89,0,0,1,6.37-.21c2.31.61,4.64,1.25,7,1.63A10.49,10.49,0,0,0,424.47,50.73ZM47.74,124.88a10.36,10.36,0,0,0,.84,1.54c1.45,1.75,2.89,3.51,4.44,5.17a8.37,8.37,0,0,0,2.32,1.67,24.57,24.57,0,0,0,10.29,2.94c3.76.12,7.23.92,10.18,3.54a9.62,9.62,0,0,0,6.24,2.13c1.43,0,2.85.38,4.29.47,2.82.19,5.65.38,8.48.42a7.54,7.54,0,0,0,5.16-1.92,4.14,4.14,0,0,1-.57-.4c-2.51-2.35-5.11-4.61-7-7.55-1.06-1.65-2.08-3.32-3.21-4.92a3.93,3.93,0,0,0-1.64-1.45c-1.37-.53-2.83-.81-4.26-1.21a16.85,16.85,0,0,0-7.23-.61c-3.16.49-6.31,1.11-9.48,1.41-4.85.46-9.71,1.15-14.56,0C50.69,125.85,49.37,125.37,47.74,124.88ZM118,165.64v.48a50.92,50.92,0,0,0,6.69,1.54,34.16,34.16,0,0,0,14-1.46,17,17,0,0,1,11.84.47,16.94,16.94,0,0,0,6.3,1.14,89.35,89.35,0,0,0,9.77-.9,5,5,0,0,0,3.94-2.79c-.47-.05-.83-.1-1.18-.12-1.8-.09-3.61-.06-5.38-.3-4.56-.61-8.78-2.38-13-4A61.84,61.84,0,0,1,133.25,150a22.53,22.53,0,0,0-4.43-2.61,14.68,14.68,0,0,0-2.87-.75C124.37,153.63,123,160.37,118,165.64ZM111.35,69.2A14.41,14.41,0,0,1,99,68.2a13.29,13.29,0,0,0-2.45-1c-1.48-.47-1.94-.3-2.8,1a2.33,2.33,0,0,1-2.08,1.19,1.47,1.47,0,0,0-1,.55,22.46,22.46,0,0,1-5.93,5.53,2.07,2.07,0,0,0-1,2c0,1.44,0,2.88.07,4.32A2.3,2.3,0,0,0,84.34,83,42.82,42.82,0,0,1,88,87.17,9,9,0,0,0,93.63,91a7.14,7.14,0,0,0,3.94-.39,32,32,0,0,0,4-2.33c.9-.49,1.89-.81,2.8-1.28.34-.18.78-.54.84-.87a28.91,28.91,0,0,1,3.12-9.25,38.75,38.75,0,0,0,2-4.11C110.74,71.74,111,70.61,111.35,69.2Zm85.71-24.94a50.89,50.89,0,0,1-4.94,2.4,39.11,39.11,0,0,1-5.66,1.44,8,8,0,0,1-3.09,0,1.78,1.78,0,0,0-1.77.53,45.62,45.62,0,0,1-22.74,11c-2.3.41-4.65.46-7.05.68a2.67,2.67,0,0,0,.32.43A20,20,0,0,0,165,66.15c2.16.11,4.34-.66,6.52-.73,8.05-.27,19.19-7.55,22.62-15.07C195.06,48.37,196,46.42,197.06,44.26ZM529.22,161.75c-2,0-3.69-.06-5.35,0-3.38.15-6.12-.92-8-3.85a1.42,1.42,0,0,0-2.21-.56c-.77.49-1.67.77-2.46,1.23a39.9,39.9,0,0,1-18.49,5.29,64.88,64.88,0,0,1-17.76-1.2c-1.53-.35-3-.92-4.76-1.46a19.82,19.82,0,0,1-2.59,12.49c.76,0,1.2,0,1.63-.09,2.29-.35,4.55-.84,6.85-1.05a83.58,83.58,0,0,0,14.83-2.69,37.94,37.94,0,0,0,7.74-3.46,10.33,10.33,0,0,1,7.32-.84c6.65,1.32,13.17,1.4,19.39-1.84ZM398.16,166a8.72,8.72,0,0,0-4.83,2.22c-3.48,3.08-7.78,4.15-12.13,4.61a40.73,40.73,0,0,1-14.07-.93c-3.39-.85-6.81-1.59-10.22-2.37l-.19.23c2.31,1.94,4.65,3.85,6.93,5.84a16.55,16.55,0,0,0,10.75,4.1c4.52.13,9,.18,13.55.36a27.12,27.12,0,0,1,4.47.68c2.5.52,5,1.17,7.47,1.7a5.51,5.51,0,0,0,3.88-.65A19.76,19.76,0,0,1,398.16,166ZM513,123.33c2-.3,3.86-.43,5.61-.85,3.43-.82,5.64-3.29,7.71-6a10.76,10.76,0,0,0,2.29-6.89,1.32,1.32,0,0,0-.84-1.38,15.69,15.69,0,0,1-3.2-2.08c-1.51-1.34-2.86-2.85-4.3-4.31a29.9,29.9,0,0,1-11.5,2C513.29,109.72,514,116.14,513,123.33ZM373.56,67.79a7.47,7.47,0,0,0-5.6,3.15,1.86,1.86,0,0,1-2.42.73,1.68,1.68,0,0,1-1.05-2.16,7.62,7.62,0,0,1,1.35-2.32,13.65,13.65,0,0,1,1.91-1.59,3,3,0,0,0-4.13.48c-1.27,1.59-1.51,1.69-3.31,1a1.26,1.26,0,0,0-1.77.66c-.55.94-1.32,1.75-1.8,2.71-1.11,2.24-3,2.36-5.1,2.16A2.74,2.74,0,0,1,349,69.43a11.86,11.86,0,0,1,.83-2.48,2.73,2.73,0,0,0-3,1.13,21.48,21.48,0,0,0-1.27,1.74,4.61,4.61,0,0,0-.23,5c.4.73.92,1.41,1.29,2.16,2.37,4.79,6.16,5.62,11.34,5,3.7-.46,6.54-2.83,8.92-5.47S371.36,70.69,373.56,67.79ZM266,177.34c.46.22.63.33.81.39,4.11,1.2,6.36,4.22,7.83,8a5.13,5.13,0,0,1,.16,3.85,1.75,1.75,0,0,0,1.85,2.19,24.74,24.74,0,0,0,8.29-3.94c3.1-2.32,6.16-4.69,9.23-7,.33-.24.62-.52,1.09-.93-5.4-.25-10.21-1.82-15.11-3.12C275.57,175.51,270.91,176,266,177.34Zm252.91-22.1a4.07,4.07,0,0,0,4.12,2.59c2-.09,4.06-.21,6.09-.39,1.75-.15,3.49-.59,5.23-.6,4,0,8.09-.08,12.1.26,4.44.38,8-1.52,11.49-3.74a9.21,9.21,0,0,0,1.08-1c-.52-.1-.81-.19-1.11-.22-5.52-.62-11.06-1.07-16.55-1.9a22.84,22.84,0,0,0-14,2.34,11.78,11.78,0,0,1-1.9.72ZM69.64,31.38c2.11,0,3.7-1.2,5.33-2.25a12.81,12.81,0,0,1,6.37-2.19,18.86,18.86,0,0,0,5.54-.73,26.87,26.87,0,0,1,8-1.87c3.58-.16,7.2-.67,10.57,1.18.69.38,1-.1,1.23-.69.41-1.33.82-2.67,1.19-4s.19-1.84-1.26-2.11c-2.39-.46-4.8-.8-7.21-1.13-5.63-.79-11.06-.32-16.16,2.46a11.24,11.24,0,0,0-4.58,4.09,15.79,15.79,0,0,1-7.43,6.53Zm155.3,150.83c.48-2.73.95-5.23,1.32-7.74a3.67,3.67,0,0,0-.23-2c-1.29-2.75-2.14-5.46-.12-8.24,0,0,0-.15-.06-.29a87.06,87.06,0,0,1-21.51-4.29,3.15,3.15,0,0,0,0,.36c.26.4.53.8.77,1.21a11.86,11.86,0,0,0,6.24,5.33,8.89,8.89,0,0,1,6,6.65,19.77,19.77,0,0,0,1.93,4.89A8.24,8.24,0,0,0,224.94,182.21ZM371.1,104.5a11.34,11.34,0,0,1-7.76,2.42,9.54,9.54,0,0,0-2.27.09c-1.59.35-3.41.16-4.63,1.55a17.15,17.15,0,0,0-2,2.67c-2.26,3.89-1.7,9.53,1.26,12.55a19.15,19.15,0,0,0,2.86,2.37,17.28,17.28,0,0,0,2.45,1.18,10.23,10.23,0,0,1,3-13.21c3.11-2.25,5.72-5.25,9.8-6.24ZM81,91.87a8.39,8.39,0,0,0,.93.58,12.57,12.57,0,0,1,5.47,5,14.24,14.24,0,0,0,2.09,2.62c2.94,3,6.25,4.54,10.58,3.11a10.8,10.8,0,0,0,5.71-3.89,2.59,2.59,0,0,0,.64-1.73c-.42-2.21-1-4.39-1.6-6.71-.45.29-.9.59-1.37.86-2.35,1.4-4.52,3.23-7.45,3.33a12.33,12.33,0,0,1-10.88-5.39c-.55-.75-1.09-1.5-1.67-2.31ZM30.05,83a4,4,0,0,0-.51,0c-4.06.86-8.1,1.76-12.16,2.56-1.55.31-1.71.35-1.75,2a4.66,4.66,0,0,0,1.82,4.19c1.3,1,2.68,2,3,3.77.55,3.23,2.51,5.55,4.74,7.7a5.55,5.55,0,0,0,1.54.71,15.69,15.69,0,0,1,2.82-9.38,2,2,0,0,0,.12-1.24C29.19,89.88,28.62,86.48,30.05,83ZM96.72,54.28c2.14.31,4.16.49,6.13.93,1.7.39,3.31,1.18,5,1.61a12.66,12.66,0,0,0,3.42.34,3.77,3.77,0,0,0,3-2.91c.09-.83.32-1.64.51-2.58-2.34-3.14-5.58-5.59-9.73-4.63C101.24,47.91,97.64,49.83,96.72,54.28ZM543.2,30.8a42.14,42.14,0,0,0,5.56-2.42,79.9,79.9,0,0,1,14.37-6.47,19.47,19.47,0,0,1,7.61-1.3c.37,0,.73,0,1.1,0a10.13,10.13,0,0,0-5.9-3.16c-2-.22-4.06-.41-6.09-.45a7.7,7.7,0,0,0-6.28,3.2c-.7.89-1.3,1.68-2.53,1.73a1.44,1.44,0,0,0-.86.59C547.88,25.21,545.62,27.93,543.2,30.8ZM112.44,61.22a46,46,0,0,1-5.32-.53c-1.82-.4-3.55-1.25-5.36-1.71a17.85,17.85,0,0,0-4.13-.54c-1.28,0-2,.75-2.25,2a7.06,7.06,0,0,1-.7,1.47c-.18.37-.37.72-.66,1.28,2.76-.36,4.93.69,7.12,1.67.7.31,1.39.61,2.09.9a9.32,9.32,0,0,0,6.23-.07,1.75,1.75,0,0,0,.92-.71C111.1,63.77,111.75,62.5,112.44,61.22Zm55.8,72.41-4.72-7a1.67,1.67,0,0,0-.47.28,14.91,14.91,0,0,0-3.78,14.48,3.13,3.13,0,0,0,2.07,1.93C162.07,138.78,165.57,136.44,168.24,133.63Z"/>
        <path d="M527.5,12.36a3.1,3.1,0,0,0,4.76,3.22,4.59,4.59,0,0,0,2.67-4.33A12.32,12.32,0,0,0,529.6.93L528.35,0c2.08,0,3.84,0,5.6,0,.19,0,.4.24.56.41a14.7,14.7,0,0,1,3.82,13.27c-.76,3.94-7.05,8.4-11.77,4.89a8,8,0,0,1-2.74-8,3.36,3.36,0,0,1,3.45-2.06,9.65,9.65,0,0,1,1.06.15c1,.15,1.64.62,1.63,1.71a1.74,1.74,0,0,1-1.61,1.89Z"/>
        <path d="M49.62.06c2.44,0,4.82,0,7.2,0A1.92,1.92,0,0,1,58,.82c2.66,3,3.42,6.56,3.41,10.43,0,8.57-9.25,13.82-15.76,12.75a6,6,0,0,1-5.09-4.65,18,18,0,0,1-.35-6.62c.53-3.75,5.68-5.84,8.94-3.87,1.75,1.07,2.84,4.52,2,6.45a2.53,2.53,0,0,1-2.52,1.24,2.17,2.17,0,0,1-1.82-1.83c-.05-.3.3-.78.6-1,.78-.55.66-1,0-1.45A2.29,2.29,0,0,0,43.72,14,20.88,20.88,0,0,0,44,18.16c.23,1.45,1,1.93,2.85,2.19,3.77.51,8.7-2.38,10.2-6,1.65-3.94.37-9.61-2.85-11.88A39.39,39.39,0,0,0,49.62.06Z"/>
        <path d="M380.85.13c1.54,0,2.9,0,4.26,0a1.08,1.08,0,0,1,.79.49c1.39,2.77.29,7.5-2.29,10.07a8,8,0,0,1-9.2,1.53,6.53,6.53,0,0,1-2.64-9.48C373.3.44,377,.18,378.55,2.38a3.16,3.16,0,0,1,.36,2.3c-.21.94-1.16,1.06-2.06,1-.58,0-1.34-.47-1.63.46a2.18,2.18,0,0,0,1.24,2.24,4,4,0,0,0,4.45-1.19,5.55,5.55,0,0,0,.54-6c-.08-.18-.2-.34-.3-.52Z"/>
        <path d="M440.63.3c-.38,1.16-.73,2.17-1,3.19a3.9,3.9,0,0,1-2.73,2.8,5.39,5.39,0,0,0-3.9,4.26,18.38,18.38,0,0,0,.39,11.08,5.9,5.9,0,0,0,4.47,4.06c3.85.89,7.65,1.41,11.34-.55,4.53-2.42,5.13-4.06,2.48-9.2a2.1,2.1,0,0,0-2.44-1.1c-1.39.26-1.64.78-1,2.07.43.89.8,1.83,0,2.67a2.69,2.69,0,0,1-3,.48,3.55,3.55,0,0,1-2.2-4,6.06,6.06,0,0,1,4-5c2.39-.92,4.8-.87,6.79.85a10.51,10.51,0,0,1,3.41,10.84,6.71,6.71,0,0,1-2,3.31c-4.8,4.25-10.25,5.92-16.64,4-2.14-.64-4.32-1-6.28-2.19a3.4,3.4,0,0,0-1.87-.22,8.79,8.79,0,0,1-7.45-2.83c-.55-.59-1.11-1.15-1.68-1.72a14.55,14.55,0,0,1-4.49-10.39c-.06-3.88-.35-7.76,1.19-11.48.31-.72.61-1.08,1.46-1,1.18.08,2.38,0,3.56,0-.64,1.87-1.41,3.63-1.84,5.47a20.49,20.49,0,0,0,.39,10.08A9.4,9.4,0,0,0,423.31,19a29.25,29.25,0,0,0,3,3.1,5.59,5.59,0,0,0,1.49,1,1.42,1.42,0,0,0,1.09,0c.15-.08.11-.64.05-1-.27-1.49-.65-3-.86-4.46A20.1,20.1,0,0,1,429,8.77a10.16,10.16,0,0,1,4.77-5.91A6.08,6.08,0,0,0,435.6,1a1.37,1.37,0,0,1,1.32-.75C438.16.33,439.39.3,440.63.3Z"/>
    </g>
</svg>