<svg id="Слой_1" data-name="Слой 1" xmlns="http://www.w3.org/2000/svg" viewBox="0 0 970.59 311.19">
    <title>spot</title>
    <path fill="currentColor"
          d="M0,63.56q1.23-5.91,2.47-11.81C9.08,20.5,31.15,1.44,63.14.14a119.17,119.17,0,0,1,27.55,1.7c27.91,5.5,45.48,26.57,48.56,57.41.93,9.33,1,18.75,1.54,28.65H94.84c0-7.3.37-14.47-.07-21.59-1-16.35-9.87-24-26-23.08-10.63.63-17.62,6.32-20,16.83-4.57,20,1.57,37.15,15.06,51.59,11.21,12,24,22.52,35.19,34.54,10.7,11.48,22,23,29.91,36.35,16.95,28.67,17.74,59.78,6.1,90.52-9.49,25.07-30.26,36-56,37.84a111.89,111.89,0,0,1-28.89-1.65C22.67,303.91,5.59,284,1.4,254.11c-.31-2.2-.93-4.36-1.4-6.54V217.8H44.36c.6,11,.55,21.12,1.83,31.1,1.59,12.33,9.73,18.78,22.29,19.07,14,.32,22.25-5.36,24.88-17.74,4.44-20.83-.62-39.57-14.88-55.11-11.39-12.42-24-23.69-36.15-35.45-15.77-15.32-30.41-31.49-37.34-53-2.11-6.57-3.35-13.41-5-20.13Z"/>
    <path fill="currentColor"
          d="M171.88,5.12c28.39,0,56.4-1.54,84.16.41C287,7.7,307,27.11,310.34,57.93c2.43,22.26,3.11,45.16.8,67.38-3.9,37.69-26.26,56.54-64.63,58.27-8.93.41-17.89.06-27.34.06v123H171.88Zm47.54,42.37v93c7.82,0,15.21.19,22.58,0,14.1-.44,21.67-6.82,22.35-20.88.82-17.07.75-34.23,0-51.31-.56-12.88-7.43-19.87-18.93-20.65C237,47,228.4,47.49,219.42,47.49Z"/>
    <path fill="currentColor" d="M804,4.48V47.17H748.28V306.72H700.71v-259H648.15L622.76,4.48Z"/>
    <path fill="currentColor"
          d="M561.6,49.73l61,105.66-61,105.67h-122l-61-105.67,61-105.66h122m26-45h-174l-87,150.65,87,150.65h174l87-150.65Z"/>
    <path fill="currentColor" d="M968.59,4.27V26.32L868.77,52.9l.09.63h99.63V73h-140V45.92l81.58-21.63-.08-.57h-81.5V4.27Z"/>
    <path fill="currentColor"
          d="M828.42,226.74V205H887l.21-.63c-.85-.44-1.68-.91-2.55-1.31-17.91-8.23-35.8-16.49-53.76-24.63-2-.91-2.71-2-2.65-4.17.15-6.34,0-12.68,0-19.37,1.35.62,2.38,1,3.37,1.56,15.15,7.71,30.27,15.49,45.49,23.07a8.28,8.28,0,0,0,5.52.51c27.61-8.14,55.16-16.43,82.73-24.68,1-.3,2-.56,3.16-.88v23l-61.61,18.44c6.19,3.15,11.78,6,17.43,8.81a7.32,7.32,0,0,0,3.09.25c13.57,0,27.15,0,41,0v21.8Z"/>
    <path fill="currentColor"
          d="M867.19,241.14v20.8c-.83.11-1.61.28-2.4.31-2.5.09-5,0-7.51.2-7.2.47-10.85,4.1-10.88,10.69,0,6.83,3.57,10.58,10.76,11.25,8.24.76,15.27-2.09,21.11-7.65,5.44-5.17,10.28-11,15.77-16.1,5.32-4.95,10.65-10.2,16.82-13.88,13.26-7.91,27.67-8.29,41.93-2.94,11.65,4.35,16.73,13.94,17.66,25.84a52.14,52.14,0,0,1-.53,12.16c-1.83,11.64-8.63,19.18-19.88,22.59-7.28,2.21-14.79,2.15-22.5,1.85v-20.7c1.92,0,3.77,0,5.61,0,2.4-.07,4.81-.06,7.19-.33,6.6-.76,9.95-4.15,10.2-10.12.3-7.18-2.42-11-9.31-12.19a27.81,27.81,0,0,0-24.14,6.83c-3.91,3.43-7.39,7.35-11.13,11-5.69,5.52-11,11.47-17.22,16.37-12.48,9.86-26.83,11.43-41.82,7.24-12.25-3.43-19.77-13.64-20.47-27a50.63,50.63,0,0,1,.19-9.38c2.05-15.46,11.64-24.57,27.37-26.06C858.25,241.46,862.51,241.38,867.19,241.14Z"/>
    <path fill="currentColor" d="M828.41,143V121.21H948.6V85.08h19.83V143Z"/>
</svg>