<?xml version="1.0" encoding="utf-8"?>
<!-- Generator: Adobe Illustrator 22.1.0, SVG Export Plug-In . SVG Version: 6.00 Build 0)  -->
<svg version="1.1" id="Layer_1" xmlns="http://www.w3.org/2000/svg" xmlns:xlink="http://www.w3.org/1999/xlink" x="0px" y="0px"
	 viewBox="0 0 50 50" style="enable-background:new 0 0 50 50;" xml:space="preserve">
<g>
	<path d="M47.8,7.5c-0.2-0.8-0.8-1.6-1.5-2c-0.6-0.4-1.3-0.5-2-0.5c-0.5,0-1.1,0.2-1.7,0.4c-0.4,0.2-2.6,1.1-6.5,2.8
		c-3.6,1.5-8.3,3.5-12.9,5.5c-8.9,3.8-17.6,7.5-18.3,7.9c-0.2,0.1-0.7,0.3-1.3,0.7c-0.3,0.2-0.7,0.5-1.1,1.1
		c-0.4,0.6-0.6,1.4-0.5,2.1c0.3,2.3,2.5,3.2,2.9,3.3c0,0,0,0,0,0l8.4,2.9c0.6,2,2.6,8.7,3.1,10.3c0.3,1,0.6,1.7,1,2.2
		c0.2,0.3,0.5,0.5,0.7,0.7c0.1,0.1,0.2,0.1,0.3,0.2c0,0,0.1,0,0.2,0.1c0,0,0.1,0,0.1,0c1.5,0.5,2.6-0.4,2.8-0.5c0,0,0.1-0.1,0.1-0.1
		l4.9-4.5l8.2,6.4c0.1,0,0.1,0.1,0.2,0.1l0.1,0.1c0.7,0.3,1.4,0.5,2.1,0.5c1.1,0,2.1-0.4,2.7-0.9c1-0.8,1.3-1.8,1.4-2
		c0,0,0-0.1,0-0.2l6.5-34C48,9,48,8.2,47.8,7.5z M20.5,32.7c0,0-0.1,0.1-0.1,0.1c0,0.1-0.1,0.1-0.1,0.2c-0.1,0.2-0.2,0.5-0.3,0.7
		l-0.8,3.5c-0.7-2.3-1.5-5-1.9-6.4l10.9-7.3L20.5,32.7z M37.4,42.8c0,0-0.1,0.1-0.1,0.2c0,0-0.1,0-0.1,0.1c0,0-0.1,0-0.4-0.1
		L27,35.2c0,0-0.1,0-0.1-0.1l-1.9-1.5l15.6-18.4c0.3-0.4,0.5-0.9,0.5-1.5c0-0.5-0.3-1-0.7-1.4C39.9,12.2,39.4,12,39,12
		c-0.4,0-0.8,0.1-1.1,0.3L14.7,27.8l-7.9-2.7l18-7.7c4.6-2,9.3-4,12.9-5.5c3.2-1.4,5.5-2.3,6.2-2.6L37.4,42.8z"/>
</g>
</svg>
