<?xml version="1.0" encoding="utf-8"?>
<!-- Generator: Adobe Illustrator 22.1.0, SVG Export Plug-In . SVG Version: 6.00 Build 0)  -->
<svg version="1.1" id="Layer_1" xmlns="http://www.w3.org/2000/svg" xmlns:xlink="http://www.w3.org/1999/xlink" x="0px" y="0px"
	 viewBox="0 0 50 50" xml:space="preserve">
<path fill="currenColor" d="M25,1C11.8,1,1,11.8,1,25s10.8,24,24,24s24-10.8,24-24S38.2,1,25,1z M25,45C14,45,5,36,5,25S14,5,25,5s20,9,20,20
	S36,45,25,45z M36.3,28c-0.1-0.1-0.4-0.3-0.6-0.5c0,0,0,0,0,0c0.2-0.2,0.4-0.5,0.6-0.8c0.3-0.3,0.6-0.8,1-1.2
	c0.9-1.1,1.6-2.3,2.1-3.4c0.2-0.5,0.4-1,0.5-1.5c0.1-0.4,0.2-0.9,0-1.7c-0.1-0.5-0.5-1.1-1-1.4c-0.4-0.3-0.8-0.4-1.1-0.4
	C37.4,17,37,17,36.7,17h-0.1c-0.5,0-1.9,0-2.9,0l-1.3,0c-0.5,0-1.2,0.2-1.5,0.4c-0.7,0.4-1,1-1.1,1.2l0,0c0,0.1-0.1,0.1-0.1,0.2
	l0,0.1c-0.2,0.6-0.8,2.5-1.4,3.4c0,0.1-0.1,0.1-0.1,0.2c0-0.2,0-0.3,0-0.5c0-0.7,0-1.4-0.1-2c-0.1-0.7-0.4-1.3-0.8-1.8
	c-0.4-0.4-1-0.8-1.7-0.9C24.9,17.1,24.3,17,23,17c-1.5,0-2.7,0-3.9,0.5c-0.5,0.2-0.9,0.5-1.2,0.8c-0.1,0.1-0.2,0.2-0.3,0.3
	c-0.1-0.3-0.4-0.7-0.9-1.1C16,17.1,15.3,17,15.3,17l-0.1,0c-0.1,0-0.1,0-0.2,0h-4c0,0-0.3,0-0.8,0c-0.3,0-1,0.1-1.7,0.9
	c-0.5,0.5-0.7,1.3-0.6,2c0.1,0.3,0.2,0.6,0.2,0.7c0.2,0.5,3.1,7.5,6.9,11.4c2.5,2.6,5.4,3.9,8.6,3.9H25c0.5,0,1.1,0,1.7-0.3
	c0.7-0.3,1.2-1.1,1.3-1.8c0,0,0.1,0.1,0.1,0.1c0.5,0.4,1,0.8,1.6,1.2c1.2,0.8,2.6,0.9,2.9,0.9h4.3c0.1,0,0.9,0,1.8-0.6
	c0.4-0.2,1.1-0.8,1.3-1.7c0.2-0.8,0-1.6-0.5-2.4C39.2,30.9,38.5,30,36.3,28z M32.2,29.6c0.4,0.4,0.8,0.8,1.3,1.3l0.2,0.2
	c0.4,0.4,0.8,0.7,1.1,1h-2.1c-0.1,0-0.5-0.1-0.8-0.2c0,0,0,0,0,0c-0.3-0.2-0.7-0.5-1.1-0.9c-0.3-0.2-0.6-0.5-0.8-0.7
	c-0.4-0.3-0.8-0.6-1.4-0.9c-0.8-0.3-1.5-0.4-2.2-0.2c-1.2,0.4-1.9,1.5-2.1,2.4c0,0.2-0.1,0.3-0.1,0.5h-0.4c-1.5,0-3.4-0.3-5.7-2.7
	c-2.1-2.2-4.1-6.1-5.2-8.3h1.4c0.3,0.8,0.8,2.2,1.5,3.4c1,1.6,1.7,2.5,2.5,3c1,0.7,2.4,0.7,3.1,0.2c1.1-0.6,1.3-1.5,1.5-2
	c0.2-0.6,0.2-1.1,0.2-1.6c0-0.8,0-1.4,0-1.7c0-0.1,0-0.5,0-0.9c0-0.2,0-0.4-0.1-0.6H23c0.6,0,0.8,0,1.1,0c0,0.2,0,0.4,0,0.6
	c0,0.5,0,1,0,1.6v0.3c0,0.4,0,0.9,0,1.4c0.1,0.5,0.2,1.8,1.5,2.6c0.7,0.4,1.9,0.6,3,0c1-0.6,1.9-1.6,2.9-3.2
	c0.7-1.1,1.2-2.5,1.5-3.4h0.9c0.5,0,1.1,0,1.6,0c-0.3,0.5-0.7,1.2-1.3,2c-0.3,0.4-0.7,0.8-0.9,1.1c-0.3,0.4-0.5,0.7-0.7,0.9
	c-0.4,0.6-0.9,1.1-1.1,2C31.3,28,31.7,29,32.2,29.6z"/>
</svg>
